<?xml version="1.0" encoding="UTF-8" standalone="no"?><svg xmlns="http://www.w3.org/2000/svg" xmlns:xlink="http://www.w3.org/1999/xlink" contentScriptType="application/ecmascript" contentStyleType="text/css" height="650px" preserveAspectRatio="none" style="width:926px;height:650px;" version="1.1" viewBox="0 0 926 650" width="926px" zoomAndPan="magnify"><defs><filter height="300%" id="f1lzjd5owsmqg" width="300%" x="-1" y="-1"><feGaussianBlur result="blurOut" stdDeviation="2.0"/><feColorMatrix in="blurOut" result="blurOut2" type="matrix" values="0 0 0 0 0 0 0 0 0 0 0 0 0 0 0 0 0 0 .4 0"/><feOffset dx="4.0" dy="4.0" in="blurOut2" result="blurOut3"/><feBlend in="SourceGraphic" in2="blurOut3" mode="normal"/></filter></defs><g><text fill="#000000" font-family="sans-serif" font-size="14" font-weight="bold" lengthAdjust="spacingAndGlyphs" textLength="93" x="417.25" y="22.9951">Add column</text><rect fill="#FFFFFF" filter="url(#f1lzjd5owsmqg)" height="259.3906" style="stroke: #A80036; stroke-width: 1.0;" width="10" x="287.5" y="176.7266"/><rect fill="#FFFFFF" filter="url(#f1lzjd5owsmqg)" height="230.2578" style="stroke: #A80036; stroke-width: 1.0;" width="10" x="404.5" y="205.8594"/><rect fill="#FFFFFF" filter="url(#f1lzjd5owsmqg)" height="77.4297" style="stroke: #A80036; stroke-width: 1.0;" width="10" x="583" y="244.9922"/><rect fill="#FFFFFF" filter="url(#f1lzjd5owsmqg)" height="29.1328" style="stroke: #A80036; stroke-width: 1.0;" width="10" x="583" y="375.6875"/><rect fill="#FFFFFF" filter="url(#f1lzjd5owsmqg)" height="29.1328" style="stroke: #A80036; stroke-width: 1.0;" width="10" x="845.5" y="457.1172"/><rect fill="#FFFFFF" filter="url(#f1lzjd5owsmqg)" height="30" style="stroke: #A80036; stroke-width: 1.0;" width="10" x="845.5" y="515.3828"/><rect fill="#FEFECE" filter="url(#f1lzjd5owsmqg)" height="30.2969" style="stroke: #A80036; stroke-width: 1.5;" width="67" x="552.5" y="213.9922"/><text fill="#000000" font-family="sans-serif" font-size="14" lengthAdjust="spacingAndGlyphs" textLength="53" x="559.5" y="233.9873">Column</text><rect fill="#FFFFFF" filter="url(#f1lzjd5owsmqg)" height="91.5625" style="stroke: #000000; stroke-width: 2.0;" width="410" x="371.5" y="337.5547"/><rect fill="#FEFECE" filter="url(#f1lzjd5owsmqg)" height="30.2969" style="stroke: #A80036; stroke-width: 1.5;" width="39" x="728.5" y="383.8203"/><text fill="#000000" font-family="sans-serif" font-size="14" lengthAdjust="spacingAndGlyphs" textLength="25" x="735.5" y="403.8154">Cell</text><line style="stroke: #A80036; stroke-width: 1.0; stroke-dasharray: 5.0,5.0;" x1="27" x2="27" y1="116.5938" y2="563.5156"/><line style="stroke: #A80036; stroke-width: 1.0; stroke-dasharray: 5.0,5.0;" x1="146.5" x2="146.5" y1="116.5938" y2="563.5156"/><line style="stroke: #A80036; stroke-width: 1.0; stroke-dasharray: 5.0,5.0;" x1="292.5" x2="292.5" y1="116.5938" y2="563.5156"/><line style="stroke: #A80036; stroke-width: 1.0; stroke-dasharray: 5.0,5.0;" x1="409.5" x2="409.5" y1="116.5938" y2="563.5156"/><line style="stroke: #A80036; stroke-width: 1.0; stroke-dasharray: 5.0,5.0;" x1="587.5" x2="587.5" y1="246.6406" y2="563.5156"/><line style="stroke: #A80036; stroke-width: 1.0; stroke-dasharray: 5.0,5.0;" x1="749.5" x2="749.5" y1="416.4688" y2="563.5156"/><line style="stroke: #A80036; stroke-width: 1.0; stroke-dasharray: 5.0,5.0;" x1="850.5" x2="850.5" y1="116.5938" y2="563.5156"/><text fill="#000000" font-family="sans-serif" font-size="14" lengthAdjust="spacingAndGlyphs" textLength="32" x="8" y="113.292">User</text><ellipse cx="27" cy="43.2969" fill="#FEFECE" filter="url(#f1lzjd5owsmqg)" rx="8" ry="8" style="stroke: #A80036; stroke-width: 2.0;"/><path d="M27,51.2969 L27,78.2969 M14,59.2969 L40,59.2969 M27,78.2969 L14,93.2969 M27,78.2969 L40,93.2969 " fill="#FEFECE" filter="url(#f1lzjd5owsmqg)" style="stroke: #A80036; stroke-width: 2.0;"/><text fill="#000000" font-family="sans-serif" font-size="14" lengthAdjust="spacingAndGlyphs" textLength="32" x="8" y="575.5107">User</text><ellipse cx="27" cy="588.8125" fill="#FEFECE" filter="url(#f1lzjd5owsmqg)" rx="8" ry="8" style="stroke: #A80036; stroke-width: 2.0;"/><path d="M27,596.8125 L27,623.8125 M14,604.8125 L40,604.8125 M27,623.8125 L14,638.8125 M27,623.8125 L40,638.8125 " fill="#FEFECE" filter="url(#f1lzjd5owsmqg)" style="stroke: #A80036; stroke-width: 2.0;"/><rect fill="#FEFECE" filter="url(#f1lzjd5owsmqg)" height="30.2969" style="stroke: #A80036; stroke-width: 1.5;" width="109" x="90.5" y="81.2969"/><text fill="#000000" font-family="sans-serif" font-size="14" lengthAdjust="spacingAndGlyphs" textLength="95" x="97.5" y="101.292">ButtonWidget</text><rect fill="#FEFECE" filter="url(#f1lzjd5owsmqg)" height="30.2969" style="stroke: #A80036; stroke-width: 1.5;" width="109" x="90.5" y="562.5156"/><text fill="#000000" font-family="sans-serif" font-size="14" lengthAdjust="spacingAndGlyphs" textLength="95" x="97.5" y="582.5107">ButtonWidget</text><rect fill="#FEFECE" filter="url(#f1lzjd5owsmqg)" height="30.2969" style="stroke: #A80036; stroke-width: 1.5;" width="154" x="213.5" y="81.2969"/><text fill="#000000" font-family="sans-serif" font-size="14" lengthAdjust="spacingAndGlyphs" textLength="140" x="220.5" y="101.292">TableDesignHandler</text><rect fill="#FEFECE" filter="url(#f1lzjd5owsmqg)" height="30.2969" style="stroke: #A80036; stroke-width: 1.5;" width="154" x="213.5" y="562.5156"/><text fill="#000000" font-family="sans-serif" font-size="14" lengthAdjust="spacingAndGlyphs" textLength="140" x="220.5" y="582.5107">TableDesignHandler</text><rect fill="#FEFECE" filter="url(#f1lzjd5owsmqg)" height="30.2969" style="stroke: #A80036; stroke-width: 1.5;" width="52" x="381.5" y="81.2969"/><text fill="#000000" font-family="sans-serif" font-size="14" lengthAdjust="spacingAndGlyphs" textLength="38" x="388.5" y="101.292">Table</text><rect fill="#FEFECE" filter="url(#f1lzjd5owsmqg)" height="30.2969" style="stroke: #A80036; stroke-width: 1.5;" width="52" x="381.5" y="562.5156"/><text fill="#000000" font-family="sans-serif" font-size="14" lengthAdjust="spacingAndGlyphs" textLength="38" x="388.5" y="582.5107">Table</text><rect fill="#FEFECE" filter="url(#f1lzjd5owsmqg)" height="30.2969" style="stroke: #A80036; stroke-width: 1.5;" width="67" x="552.5" y="562.5156"/><text fill="#000000" font-family="sans-serif" font-size="14" lengthAdjust="spacingAndGlyphs" textLength="53" x="559.5" y="582.5107">Column</text><rect fill="#FEFECE" filter="url(#f1lzjd5owsmqg)" height="30.2969" style="stroke: #A80036; stroke-width: 1.5;" width="39" x="728.5" y="562.5156"/><text fill="#000000" font-family="sans-serif" font-size="14" lengthAdjust="spacingAndGlyphs" textLength="25" x="735.5" y="582.5107">Cell</text><rect fill="#FEFECE" filter="url(#f1lzjd5owsmqg)" height="30.2969" style="stroke: #A80036; stroke-width: 1.5;" width="134" x="781.5" y="81.2969"/><text fill="#000000" font-family="sans-serif" font-size="14" lengthAdjust="spacingAndGlyphs" textLength="120" x="788.5" y="101.292">UIWindowHandler</text><rect fill="#FEFECE" filter="url(#f1lzjd5owsmqg)" height="30.2969" style="stroke: #A80036; stroke-width: 1.5;" width="134" x="781.5" y="562.5156"/><text fill="#000000" font-family="sans-serif" font-size="14" lengthAdjust="spacingAndGlyphs" textLength="120" x="788.5" y="582.5107">UIWindowHandler</text><rect fill="#FFFFFF" filter="url(#f1lzjd5owsmqg)" height="259.3906" style="stroke: #A80036; stroke-width: 1.0;" width="10" x="287.5" y="176.7266"/><rect fill="#FFFFFF" filter="url(#f1lzjd5owsmqg)" height="230.2578" style="stroke: #A80036; stroke-width: 1.0;" width="10" x="404.5" y="205.8594"/><rect fill="#FFFFFF" filter="url(#f1lzjd5owsmqg)" height="77.4297" style="stroke: #A80036; stroke-width: 1.0;" width="10" x="583" y="244.9922"/><rect fill="#FFFFFF" filter="url(#f1lzjd5owsmqg)" height="29.1328" style="stroke: #A80036; stroke-width: 1.0;" width="10" x="583" y="375.6875"/><rect fill="#FFFFFF" filter="url(#f1lzjd5owsmqg)" height="29.1328" style="stroke: #A80036; stroke-width: 1.0;" width="10" x="845.5" y="457.1172"/><rect fill="#FFFFFF" filter="url(#f1lzjd5owsmqg)" height="30" style="stroke: #A80036; stroke-width: 1.0;" width="10" x="845.5" y="515.3828"/><polygon fill="#A80036" points="135,143.5938,145,147.5938,135,151.5938,139,147.5938" style="stroke: #A80036; stroke-width: 1.0;"/><line style="stroke: #A80036; stroke-width: 1.0;" x1="27" x2="141" y1="147.5938" y2="147.5938"/><text fill="#000000" font-family="sans-serif" font-size="13" lengthAdjust="spacingAndGlyphs" textLength="96" x="34" y="142.6606">Presses button</text><polygon fill="#A80036" points="275.5,172.7266,285.5,176.7266,275.5,180.7266,279.5,176.7266" style="stroke: #A80036; stroke-width: 1.0;"/><line style="stroke: #A80036; stroke-width: 1.0;" x1="147" x2="281.5" y1="176.7266" y2="176.7266"/><text fill="#000000" font-family="sans-serif" font-size="13" lengthAdjust="spacingAndGlyphs" textLength="83" x="154" y="171.7935">addColumn()</text><polygon fill="#A80036" points="392.5,201.8594,402.5,205.8594,392.5,209.8594,396.5,205.8594" style="stroke: #A80036; stroke-width: 1.0;"/><line style="stroke: #A80036; stroke-width: 1.0;" x1="297.5" x2="398.5" y1="205.8594" y2="205.8594"/><text fill="#000000" font-family="sans-serif" font-size="13" lengthAdjust="spacingAndGlyphs" textLength="83" x="304.5" y="200.9263">addColumn()</text><polygon fill="#A80036" points="540.5,230.9922,550.5,234.9922,540.5,238.9922,544.5,234.9922" style="stroke: #A80036; stroke-width: 1.0;"/><line style="stroke: #A80036; stroke-width: 1.0;" x1="414.5" x2="546.5" y1="234.9922" y2="234.9922"/><text fill="#000000" font-family="sans-serif" font-size="13" lengthAdjust="spacingAndGlyphs" textLength="114" x="421.5" y="230.0591">create Column(N)</text><rect fill="#FEFECE" filter="url(#f1lzjd5owsmqg)" height="30.2969" style="stroke: #A80036; stroke-width: 1.5;" width="67" x="552.5" y="213.9922"/><text fill="#000000" font-family="sans-serif" font-size="14" lengthAdjust="spacingAndGlyphs" textLength="53" x="559.5" y="233.9873">Column</text><line style="stroke: #A80036; stroke-width: 1.0;" x1="593" x2="635" y1="280.4219" y2="280.4219"/><line style="stroke: #A80036; stroke-width: 1.0;" x1="635" x2="635" y1="280.4219" y2="293.4219"/><line style="stroke: #A80036; stroke-width: 1.0;" x1="594" x2="635" y1="293.4219" y2="293.4219"/><polygon fill="#A80036" points="604,289.4219,594,293.4219,604,297.4219,600,293.4219" style="stroke: #A80036; stroke-width: 1.0;"/><text fill="#000000" font-family="sans-serif" font-size="13" lengthAdjust="spacingAndGlyphs" textLength="138" x="600" y="275.356">setName("ColumnN")</text><polygon fill="#A80036" points="425.5,318.4219,415.5,322.4219,425.5,326.4219,421.5,322.4219" style="stroke: #A80036; stroke-width: 1.0;"/><line style="stroke: #A80036; stroke-width: 1.0; stroke-dasharray: 2.0,2.0;" x1="419.5" x2="587" y1="322.4219" y2="322.4219"/><text fill="#000000" font-family="sans-serif" font-size="13" lengthAdjust="spacingAndGlyphs" textLength="49" x="431.5" y="317.4888">Column</text><rect fill="none" height="91.5625" style="stroke: #000000; stroke-width: 2.0;" width="410" x="371.5" y="337.5547"/><polygon fill="#EEEEEE" points="371.5,337.5547,448.5,337.5547,448.5,344.5547,438.5,354.5547,371.5,354.5547,371.5,337.5547" style="stroke: #000000; stroke-width: 2.0;"/><text fill="#000000" font-family="sans-serif" font-size="13" font-weight="bold" lengthAdjust="spacingAndGlyphs" textLength="32" x="386.5" y="350.6216">loop</text><text fill="#000000" font-family="sans-serif" font-size="11" font-weight="bold" lengthAdjust="spacingAndGlyphs" textLength="86" x="463.5" y="349.7651">[for all Rows]</text><polygon fill="#A80036" points="571,371.6875,581,375.6875,571,379.6875,575,375.6875" style="stroke: #A80036; stroke-width: 1.0;"/><line style="stroke: #A80036; stroke-width: 1.0;" x1="414.5" x2="577" y1="375.6875" y2="375.6875"/><text fill="#000000" font-family="sans-serif" font-size="13" lengthAdjust="spacingAndGlyphs" textLength="57" x="421.5" y="370.7544">addCell()</text><polygon fill="#A80036" points="716.5,400.8203,726.5,404.8203,716.5,408.8203,720.5,404.8203" style="stroke: #A80036; stroke-width: 1.0;"/><line style="stroke: #A80036; stroke-width: 1.0;" x1="588" x2="722.5" y1="404.8203" y2="404.8203"/><text fill="#000000" font-family="sans-serif" font-size="13" lengthAdjust="spacingAndGlyphs" textLength="51" x="595" y="399.8872">create()</text><rect fill="#FEFECE" filter="url(#f1lzjd5owsmqg)" height="30.2969" style="stroke: #A80036; stroke-width: 1.5;" width="39" x="728.5" y="383.8203"/><text fill="#000000" font-family="sans-serif" font-size="14" lengthAdjust="spacingAndGlyphs" textLength="25" x="735.5" y="403.8154">Cell</text><polygon fill="#A80036" points="833.5,453.1172,843.5,457.1172,833.5,461.1172,837.5,457.1172" style="stroke: #A80036; stroke-width: 1.0;"/><line style="stroke: #A80036; stroke-width: 1.0;" x1="147" x2="839.5" y1="457.1172" y2="457.1172"/><text fill="#000000" font-family="sans-serif" font-size="13" lengthAdjust="spacingAndGlyphs" textLength="99" x="154" y="452.1841">getOpenTable()</text><polygon fill="#A80036" points="158,482.25,148,486.25,158,490.25,154,486.25" style="stroke: #A80036; stroke-width: 1.0;"/><line style="stroke: #A80036; stroke-width: 1.0; stroke-dasharray: 2.0,2.0;" x1="152" x2="849.5" y1="486.25" y2="486.25"/><text fill="#000000" font-family="sans-serif" font-size="13" lengthAdjust="spacingAndGlyphs" textLength="71" x="164" y="481.3169">tableName</text><polygon fill="#A80036" points="833.5,511.3828,843.5,515.3828,833.5,519.3828,837.5,515.3828" style="stroke: #A80036; stroke-width: 1.0;"/><line style="stroke: #A80036; stroke-width: 1.0;" x1="147" x2="839.5" y1="515.3828" y2="515.3828"/><text fill="#000000" font-family="sans-serif" font-size="13" lengthAdjust="spacingAndGlyphs" textLength="186" x="154" y="510.4497">loadTableDesign(tableName)</text><!--
@startuml
title Add column
Actor User

User->ButtonWidget: Presses button
ButtonWidget -> TableDesignHandler: addColumn()
activate TableDesignHandler
TableDesignHandler -> Table: addColumn()
activate Table
create Column
Table -> Column: create Column(N)
activate Column
Column -> Column: setName("ColumnN")
return Column
loop for all Rows
    Table -> Column: addCell()
    activate Column
    create Cell
    Column -> Cell: create()
    deactivate Column
end
deactivate Table
deactivate TableDesignHandler
ButtonWidget -> UIWindowHandler: getOpenTable()
activate UIWindowHandler
ButtonWidget <- - UIWindowHandler: tableName
deactivate UIWindowHandler
ButtonWidget -> UIWindowHandler: loadTableDesign(tableName)
activate UIWindowHandler
deactivate UIWindowHandler

@enduml

PlantUML version 1.2017.15(Mon Jul 03 18:45:34 CEST 2017)
(GPL source distribution)
Java Runtime: OpenJDK Runtime Environment
JVM: OpenJDK 64-Bit Server VM
Java Version: 10.0.2+13-Ubuntu-1ubuntu0.18.04.4
Operating System: Linux
OS Version: 4.15.0-46-generic
Default Encoding: UTF-8
Language: en
Country: US
--></g></svg>