<?xml version="1.0" encoding="UTF-8" standalone="no"?><svg xmlns="http://www.w3.org/2000/svg" xmlns:xlink="http://www.w3.org/1999/xlink" contentScriptType="application/ecmascript" contentStyleType="text/css" height="534px" preserveAspectRatio="none" style="width:773px;height:534px;" version="1.1" viewBox="0 0 773 534" width="773px" zoomAndPan="magnify"><defs><filter height="300%" id="f1pnk4nqu3fuk1" width="300%" x="-1" y="-1"><feGaussianBlur result="blurOut" stdDeviation="2.0"/><feColorMatrix in="blurOut" result="blurOut2" type="matrix" values="0 0 0 0 0 0 0 0 0 0 0 0 0 0 0 0 0 0 .4 0"/><feOffset dx="4.0" dy="4.0" in="blurOut2" result="blurOut3"/><feBlend in="SourceGraphic" in2="blurOut3" mode="normal"/></filter></defs><g><text fill="#000000" font-family="sans-serif" font-size="14" font-weight="bold" lengthAdjust="spacingAndGlyphs" textLength="67" x="353.75" y="22.9951">Add row</text><rect fill="#FFFFFF" filter="url(#f1pnk4nqu3fuk1)" height="142.8281" style="stroke: #A80036; stroke-width: 1.0;" width="10" x="287.5" y="176.7266"/><rect fill="#FFFFFF" filter="url(#f1pnk4nqu3fuk1)" height="113.6953" style="stroke: #A80036; stroke-width: 1.0;" width="10" x="404.5" y="205.8594"/><rect fill="#FFFFFF" filter="url(#f1pnk4nqu3fuk1)" height="29.1328" style="stroke: #A80036; stroke-width: 1.0;" width="10" x="490.5" y="259.125"/><rect fill="#FFFFFF" filter="url(#f1pnk4nqu3fuk1)" height="29.1328" style="stroke: #A80036; stroke-width: 1.0;" width="10" x="692.5" y="340.5547"/><rect fill="#FFFFFF" filter="url(#f1pnk4nqu3fuk1)" height="30" style="stroke: #A80036; stroke-width: 1.0;" width="10" x="692.5" y="398.8203"/><rect fill="#FFFFFF" filter="url(#f1pnk4nqu3fuk1)" height="91.5625" style="stroke: #000000; stroke-width: 2.0;" width="257" x="371.5" y="220.9922"/><rect fill="#FEFECE" filter="url(#f1pnk4nqu3fuk1)" height="30.2969" style="stroke: #A80036; stroke-width: 1.5;" width="39" x="575.5" y="267.2578"/><text fill="#000000" font-family="sans-serif" font-size="14" lengthAdjust="spacingAndGlyphs" textLength="25" x="582.5" y="287.2529">Cell</text><line style="stroke: #A80036; stroke-width: 1.0; stroke-dasharray: 5.0,5.0;" x1="27" x2="27" y1="116.5938" y2="446.9531"/><line style="stroke: #A80036; stroke-width: 1.0; stroke-dasharray: 5.0,5.0;" x1="146.5" x2="146.5" y1="116.5938" y2="446.9531"/><line style="stroke: #A80036; stroke-width: 1.0; stroke-dasharray: 5.0,5.0;" x1="292.5" x2="292.5" y1="116.5938" y2="446.9531"/><line style="stroke: #A80036; stroke-width: 1.0; stroke-dasharray: 5.0,5.0;" x1="409.5" x2="409.5" y1="116.5938" y2="446.9531"/><line style="stroke: #A80036; stroke-width: 1.0; stroke-dasharray: 5.0,5.0;" x1="495" x2="495" y1="116.5938" y2="446.9531"/><line style="stroke: #A80036; stroke-width: 1.0; stroke-dasharray: 5.0,5.0;" x1="596.5" x2="596.5" y1="299.9063" y2="446.9531"/><line style="stroke: #A80036; stroke-width: 1.0; stroke-dasharray: 5.0,5.0;" x1="697.5" x2="697.5" y1="116.5938" y2="446.9531"/><text fill="#000000" font-family="sans-serif" font-size="14" lengthAdjust="spacingAndGlyphs" textLength="32" x="8" y="113.292">User</text><ellipse cx="27" cy="43.2969" fill="#FEFECE" filter="url(#f1pnk4nqu3fuk1)" rx="8" ry="8" style="stroke: #A80036; stroke-width: 2.0;"/><path d="M27,51.2969 L27,78.2969 M14,59.2969 L40,59.2969 M27,78.2969 L14,93.2969 M27,78.2969 L40,93.2969 " fill="#FEFECE" filter="url(#f1pnk4nqu3fuk1)" style="stroke: #A80036; stroke-width: 2.0;"/><text fill="#000000" font-family="sans-serif" font-size="14" lengthAdjust="spacingAndGlyphs" textLength="32" x="8" y="458.9482">User</text><ellipse cx="27" cy="472.25" fill="#FEFECE" filter="url(#f1pnk4nqu3fuk1)" rx="8" ry="8" style="stroke: #A80036; stroke-width: 2.0;"/><path d="M27,480.25 L27,507.25 M14,488.25 L40,488.25 M27,507.25 L14,522.25 M27,507.25 L40,522.25 " fill="#FEFECE" filter="url(#f1pnk4nqu3fuk1)" style="stroke: #A80036; stroke-width: 2.0;"/><rect fill="#FEFECE" filter="url(#f1pnk4nqu3fuk1)" height="30.2969" style="stroke: #A80036; stroke-width: 1.5;" width="109" x="90.5" y="81.2969"/><text fill="#000000" font-family="sans-serif" font-size="14" lengthAdjust="spacingAndGlyphs" textLength="95" x="97.5" y="101.292">ButtonWidget</text><rect fill="#FEFECE" filter="url(#f1pnk4nqu3fuk1)" height="30.2969" style="stroke: #A80036; stroke-width: 1.5;" width="109" x="90.5" y="445.9531"/><text fill="#000000" font-family="sans-serif" font-size="14" lengthAdjust="spacingAndGlyphs" textLength="95" x="97.5" y="465.9482">ButtonWidget</text><rect fill="#FEFECE" filter="url(#f1pnk4nqu3fuk1)" height="30.2969" style="stroke: #A80036; stroke-width: 1.5;" width="154" x="213.5" y="81.2969"/><text fill="#000000" font-family="sans-serif" font-size="14" lengthAdjust="spacingAndGlyphs" textLength="140" x="220.5" y="101.292">TableDesignHandler</text><rect fill="#FEFECE" filter="url(#f1pnk4nqu3fuk1)" height="30.2969" style="stroke: #A80036; stroke-width: 1.5;" width="154" x="213.5" y="445.9531"/><text fill="#000000" font-family="sans-serif" font-size="14" lengthAdjust="spacingAndGlyphs" textLength="140" x="220.5" y="465.9482">TableDesignHandler</text><rect fill="#FEFECE" filter="url(#f1pnk4nqu3fuk1)" height="30.2969" style="stroke: #A80036; stroke-width: 1.5;" width="52" x="381.5" y="81.2969"/><text fill="#000000" font-family="sans-serif" font-size="14" lengthAdjust="spacingAndGlyphs" textLength="38" x="388.5" y="101.292">Table</text><rect fill="#FEFECE" filter="url(#f1pnk4nqu3fuk1)" height="30.2969" style="stroke: #A80036; stroke-width: 1.5;" width="52" x="381.5" y="445.9531"/><text fill="#000000" font-family="sans-serif" font-size="14" lengthAdjust="spacingAndGlyphs" textLength="38" x="388.5" y="465.9482">Table</text><rect fill="#FEFECE" filter="url(#f1pnk4nqu3fuk1)" height="30.2969" style="stroke: #A80036; stroke-width: 1.5;" width="67" x="460" y="81.2969"/><text fill="#000000" font-family="sans-serif" font-size="14" lengthAdjust="spacingAndGlyphs" textLength="53" x="467" y="101.292">Column</text><rect fill="#FEFECE" filter="url(#f1pnk4nqu3fuk1)" height="30.2969" style="stroke: #A80036; stroke-width: 1.5;" width="67" x="460" y="445.9531"/><text fill="#000000" font-family="sans-serif" font-size="14" lengthAdjust="spacingAndGlyphs" textLength="53" x="467" y="465.9482">Column</text><rect fill="#FEFECE" filter="url(#f1pnk4nqu3fuk1)" height="30.2969" style="stroke: #A80036; stroke-width: 1.5;" width="39" x="575.5" y="445.9531"/><text fill="#000000" font-family="sans-serif" font-size="14" lengthAdjust="spacingAndGlyphs" textLength="25" x="582.5" y="465.9482">Cell</text><rect fill="#FEFECE" filter="url(#f1pnk4nqu3fuk1)" height="30.2969" style="stroke: #A80036; stroke-width: 1.5;" width="134" x="628.5" y="81.2969"/><text fill="#000000" font-family="sans-serif" font-size="14" lengthAdjust="spacingAndGlyphs" textLength="120" x="635.5" y="101.292">UIWindowHandler</text><rect fill="#FEFECE" filter="url(#f1pnk4nqu3fuk1)" height="30.2969" style="stroke: #A80036; stroke-width: 1.5;" width="134" x="628.5" y="445.9531"/><text fill="#000000" font-family="sans-serif" font-size="14" lengthAdjust="spacingAndGlyphs" textLength="120" x="635.5" y="465.9482">UIWindowHandler</text><rect fill="#FFFFFF" filter="url(#f1pnk4nqu3fuk1)" height="142.8281" style="stroke: #A80036; stroke-width: 1.0;" width="10" x="287.5" y="176.7266"/><rect fill="#FFFFFF" filter="url(#f1pnk4nqu3fuk1)" height="113.6953" style="stroke: #A80036; stroke-width: 1.0;" width="10" x="404.5" y="205.8594"/><rect fill="#FFFFFF" filter="url(#f1pnk4nqu3fuk1)" height="29.1328" style="stroke: #A80036; stroke-width: 1.0;" width="10" x="490.5" y="259.125"/><rect fill="#FFFFFF" filter="url(#f1pnk4nqu3fuk1)" height="29.1328" style="stroke: #A80036; stroke-width: 1.0;" width="10" x="692.5" y="340.5547"/><rect fill="#FFFFFF" filter="url(#f1pnk4nqu3fuk1)" height="30" style="stroke: #A80036; stroke-width: 1.0;" width="10" x="692.5" y="398.8203"/><polygon fill="#A80036" points="135,143.5938,145,147.5938,135,151.5938,139,147.5938" style="stroke: #A80036; stroke-width: 1.0;"/><line style="stroke: #A80036; stroke-width: 1.0;" x1="27" x2="141" y1="147.5938" y2="147.5938"/><text fill="#000000" font-family="sans-serif" font-size="13" lengthAdjust="spacingAndGlyphs" textLength="96" x="34" y="142.6606">Presses button</text><polygon fill="#A80036" points="275.5,172.7266,285.5,176.7266,275.5,180.7266,279.5,176.7266" style="stroke: #A80036; stroke-width: 1.0;"/><line style="stroke: #A80036; stroke-width: 1.0;" x1="147" x2="281.5" y1="176.7266" y2="176.7266"/><text fill="#000000" font-family="sans-serif" font-size="13" lengthAdjust="spacingAndGlyphs" textLength="59" x="154" y="171.7935">addRow()</text><polygon fill="#A80036" points="392.5,201.8594,402.5,205.8594,392.5,209.8594,396.5,205.8594" style="stroke: #A80036; stroke-width: 1.0;"/><line style="stroke: #A80036; stroke-width: 1.0;" x1="297.5" x2="398.5" y1="205.8594" y2="205.8594"/><text fill="#000000" font-family="sans-serif" font-size="13" lengthAdjust="spacingAndGlyphs" textLength="59" x="304.5" y="200.9263">addRow()</text><rect fill="none" height="91.5625" style="stroke: #000000; stroke-width: 2.0;" width="257" x="371.5" y="220.9922"/><polygon fill="#EEEEEE" points="371.5,220.9922,448.5,220.9922,448.5,227.9922,438.5,237.9922,371.5,237.9922,371.5,220.9922" style="stroke: #000000; stroke-width: 2.0;"/><text fill="#000000" font-family="sans-serif" font-size="13" font-weight="bold" lengthAdjust="spacingAndGlyphs" textLength="32" x="386.5" y="234.0591">loop</text><text fill="#000000" font-family="sans-serif" font-size="11" font-weight="bold" lengthAdjust="spacingAndGlyphs" textLength="107" x="463.5" y="233.2026">[for all Columns]</text><polygon fill="#A80036" points="478.5,255.125,488.5,259.125,478.5,263.125,482.5,259.125" style="stroke: #A80036; stroke-width: 1.0;"/><line style="stroke: #A80036; stroke-width: 1.0;" x1="414.5" x2="484.5" y1="259.125" y2="259.125"/><text fill="#000000" font-family="sans-serif" font-size="13" lengthAdjust="spacingAndGlyphs" textLength="57" x="421.5" y="254.1919">addCell()</text><polygon fill="#A80036" points="563.5,284.2578,573.5,288.2578,563.5,292.2578,567.5,288.2578" style="stroke: #A80036; stroke-width: 1.0;"/><line style="stroke: #A80036; stroke-width: 1.0;" x1="495.5" x2="569.5" y1="288.2578" y2="288.2578"/><text fill="#000000" font-family="sans-serif" font-size="13" lengthAdjust="spacingAndGlyphs" textLength="51" x="502.5" y="283.3247">create()</text><rect fill="#FEFECE" filter="url(#f1pnk4nqu3fuk1)" height="30.2969" style="stroke: #A80036; stroke-width: 1.5;" width="39" x="575.5" y="267.2578"/><text fill="#000000" font-family="sans-serif" font-size="14" lengthAdjust="spacingAndGlyphs" textLength="25" x="582.5" y="287.2529">Cell</text><polygon fill="#A80036" points="680.5,336.5547,690.5,340.5547,680.5,344.5547,684.5,340.5547" style="stroke: #A80036; stroke-width: 1.0;"/><line style="stroke: #A80036; stroke-width: 1.0;" x1="147" x2="686.5" y1="340.5547" y2="340.5547"/><text fill="#000000" font-family="sans-serif" font-size="13" lengthAdjust="spacingAndGlyphs" textLength="99" x="154" y="335.6216">getOpenTable()</text><polygon fill="#A80036" points="158,365.6875,148,369.6875,158,373.6875,154,369.6875" style="stroke: #A80036; stroke-width: 1.0;"/><line style="stroke: #A80036; stroke-width: 1.0; stroke-dasharray: 2.0,2.0;" x1="152" x2="696.5" y1="369.6875" y2="369.6875"/><text fill="#000000" font-family="sans-serif" font-size="13" lengthAdjust="spacingAndGlyphs" textLength="71" x="164" y="364.7544">tableName</text><polygon fill="#A80036" points="680.5,394.8203,690.5,398.8203,680.5,402.8203,684.5,398.8203" style="stroke: #A80036; stroke-width: 1.0;"/><line style="stroke: #A80036; stroke-width: 1.0;" x1="147" x2="686.5" y1="398.8203" y2="398.8203"/><text fill="#000000" font-family="sans-serif" font-size="13" lengthAdjust="spacingAndGlyphs" textLength="174" x="154" y="393.8872">loadTableRows(tableName)</text><!--
@startuml
title Add row
Actor User

User->ButtonWidget: Presses button

ButtonWidget -> TableDesignHandler: addRow()
activate TableDesignHandler
TableDesignHandler -> Table: addRow()
activate Table
loop for all Columns
    Table -> Column: addCell()
    activate Column
    create Cell
    Column -> Cell: create()
    deactivate Column
end
deactivate Table
deactivate TableDesignHandler
ButtonWidget -> UIWindowHandler: getOpenTable()
activate UIWindowHandler
ButtonWidget <- - UIWindowHandler: tableName
deactivate UIWindowHandler
ButtonWidget -> UIWindowHandler: loadTableRows(tableName)
activate UIWindowHandler
deactivate UIWindowHandler

@enduml

PlantUML version 1.2017.15(Mon Jul 03 18:45:34 CEST 2017)
(GPL source distribution)
Java Runtime: OpenJDK Runtime Environment
JVM: OpenJDK 64-Bit Server VM
Java Version: 10.0.2+13-Ubuntu-1ubuntu0.18.04.4
Operating System: Linux
OS Version: 4.15.0-46-generic
Default Encoding: UTF-8
Language: en
Country: US
--></g></svg>