<?xml version="1.0" encoding="UTF-8" standalone="no"?><svg xmlns="http://www.w3.org/2000/svg" xmlns:xlink="http://www.w3.org/1999/xlink" contentScriptType="application/ecmascript" contentStyleType="text/css" height="397px" preserveAspectRatio="none" style="width:647px;height:397px;" version="1.1" viewBox="0 0 647 397" width="647px" zoomAndPan="magnify"><defs><filter height="300%" id="fllu0af0lqhda" width="300%" x="-1" y="-1"><feGaussianBlur result="blurOut" stdDeviation="2.0"/><feColorMatrix in="blurOut" result="blurOut2" type="matrix" values="0 0 0 0 0 0 0 0 0 0 0 0 0 0 0 0 0 0 .4 0"/><feOffset dx="4.0" dy="4.0" in="blurOut2" result="blurOut3"/><feBlend in="SourceGraphic" in2="blurOut3" mode="normal"/></filter></defs><g><rect fill="#FFFFFF" filter="url(#fllu0af0lqhda)" height="116.5625" style="stroke: #A80036; stroke-width: 1.0;" width="10" x="263" y="146.4297"/><rect fill="#FFFFFF" filter="url(#fllu0af0lqhda)" height="77.4297" style="stroke: #A80036; stroke-width: 1.0;" width="10" x="419" y="185.5625"/><rect fill="#FFFFFF" filter="url(#fllu0af0lqhda)" height="38.2656" style="stroke: #A80036; stroke-width: 1.0;" width="10" x="566" y="262.9922"/><rect fill="#FEFECE" filter="url(#fllu0af0lqhda)" height="30.2969" style="stroke: #A80036; stroke-width: 1.5;" width="52" x="396" y="154.5625"/><text fill="#000000" font-family="sans-serif" font-size="14" lengthAdjust="spacingAndGlyphs" textLength="38" x="403" y="174.5576">Table</text><line style="stroke: #A80036; stroke-width: 1.0; stroke-dasharray: 5.0,5.0;" x1="27" x2="27" y1="86.2969" y2="310.2578"/><line style="stroke: #A80036; stroke-width: 1.0; stroke-dasharray: 5.0,5.0;" x1="146.5" x2="146.5" y1="86.2969" y2="310.2578"/><line style="stroke: #A80036; stroke-width: 1.0; stroke-dasharray: 5.0,5.0;" x1="267.5" x2="267.5" y1="86.2969" y2="310.2578"/><line style="stroke: #A80036; stroke-width: 1.0; stroke-dasharray: 5.0,5.0;" x1="424" x2="424" y1="187.2109" y2="310.2578"/><line style="stroke: #A80036; stroke-width: 1.0; stroke-dasharray: 5.0,5.0;" x1="571" x2="571" y1="86.2969" y2="310.2578"/><text fill="#000000" font-family="sans-serif" font-size="14" lengthAdjust="spacingAndGlyphs" textLength="32" x="8" y="82.9951">User</text><ellipse cx="27" cy="13" fill="#FEFECE" filter="url(#fllu0af0lqhda)" rx="8" ry="8" style="stroke: #A80036; stroke-width: 2.0;"/><path d="M27,21 L27,48 M14,29 L40,29 M27,48 L14,63 M27,48 L40,63 " fill="#FEFECE" filter="url(#fllu0af0lqhda)" style="stroke: #A80036; stroke-width: 2.0;"/><text fill="#000000" font-family="sans-serif" font-size="14" lengthAdjust="spacingAndGlyphs" textLength="32" x="8" y="322.2529">User</text><ellipse cx="27" cy="335.5547" fill="#FEFECE" filter="url(#fllu0af0lqhda)" rx="8" ry="8" style="stroke: #A80036; stroke-width: 2.0;"/><path d="M27,343.5547 L27,370.5547 M14,351.5547 L40,351.5547 M27,370.5547 L14,385.5547 M27,370.5547 L40,385.5547 " fill="#FEFECE" filter="url(#fllu0af0lqhda)" style="stroke: #A80036; stroke-width: 2.0;"/><rect fill="#FEFECE" filter="url(#fllu0af0lqhda)" height="30.2969" style="stroke: #A80036; stroke-width: 1.5;" width="109" x="90.5" y="51"/><text fill="#000000" font-family="sans-serif" font-size="14" lengthAdjust="spacingAndGlyphs" textLength="95" x="97.5" y="70.9951">ButtonWidget</text><rect fill="#FEFECE" filter="url(#fllu0af0lqhda)" height="30.2969" style="stroke: #A80036; stroke-width: 1.5;" width="109" x="90.5" y="309.2578"/><text fill="#000000" font-family="sans-serif" font-size="14" lengthAdjust="spacingAndGlyphs" textLength="95" x="97.5" y="329.2529">ButtonWidget</text><rect fill="#FEFECE" filter="url(#fllu0af0lqhda)" height="30.2969" style="stroke: #A80036; stroke-width: 1.5;" width="105" x="213.5" y="51"/><text fill="#000000" font-family="sans-serif" font-size="14" lengthAdjust="spacingAndGlyphs" textLength="91" x="220.5" y="70.9951">TableHandler</text><rect fill="#FEFECE" filter="url(#fllu0af0lqhda)" height="30.2969" style="stroke: #A80036; stroke-width: 1.5;" width="105" x="213.5" y="309.2578"/><text fill="#000000" font-family="sans-serif" font-size="14" lengthAdjust="spacingAndGlyphs" textLength="91" x="220.5" y="329.2529">TableHandler</text><rect fill="#FEFECE" filter="url(#fllu0af0lqhda)" height="30.2969" style="stroke: #A80036; stroke-width: 1.5;" width="52" x="396" y="309.2578"/><text fill="#000000" font-family="sans-serif" font-size="14" lengthAdjust="spacingAndGlyphs" textLength="38" x="403" y="329.2529">Table</text><rect fill="#FEFECE" filter="url(#fllu0af0lqhda)" height="30.2969" style="stroke: #A80036; stroke-width: 1.5;" width="134" x="502" y="51"/><text fill="#000000" font-family="sans-serif" font-size="14" lengthAdjust="spacingAndGlyphs" textLength="120" x="509" y="70.9951">UIWindowHandler</text><rect fill="#FEFECE" filter="url(#fllu0af0lqhda)" height="30.2969" style="stroke: #A80036; stroke-width: 1.5;" width="134" x="502" y="309.2578"/><text fill="#000000" font-family="sans-serif" font-size="14" lengthAdjust="spacingAndGlyphs" textLength="120" x="509" y="329.2529">UIWindowHandler</text><rect fill="#FFFFFF" filter="url(#fllu0af0lqhda)" height="116.5625" style="stroke: #A80036; stroke-width: 1.0;" width="10" x="263" y="146.4297"/><rect fill="#FFFFFF" filter="url(#fllu0af0lqhda)" height="77.4297" style="stroke: #A80036; stroke-width: 1.0;" width="10" x="419" y="185.5625"/><rect fill="#FFFFFF" filter="url(#fllu0af0lqhda)" height="38.2656" style="stroke: #A80036; stroke-width: 1.0;" width="10" x="566" y="262.9922"/><polygon fill="#A80036" points="135,113.2969,145,117.2969,135,121.2969,139,117.2969" style="stroke: #A80036; stroke-width: 1.0;"/><line style="stroke: #A80036; stroke-width: 1.0;" x1="27" x2="141" y1="117.2969" y2="117.2969"/><text fill="#000000" font-family="sans-serif" font-size="13" lengthAdjust="spacingAndGlyphs" textLength="96" x="34" y="112.3638">Presses button</text><polygon fill="#A80036" points="251,142.4297,261,146.4297,251,150.4297,255,146.4297" style="stroke: #A80036; stroke-width: 1.0;"/><line style="stroke: #A80036; stroke-width: 1.0;" x1="147" x2="257" y1="146.4297" y2="146.4297"/><text fill="#000000" font-family="sans-serif" font-size="13" lengthAdjust="spacingAndGlyphs" textLength="68" x="154" y="141.4966">addTable()</text><polygon fill="#A80036" points="384,171.5625,394,175.5625,384,179.5625,388,175.5625" style="stroke: #A80036; stroke-width: 1.0;"/><line style="stroke: #A80036; stroke-width: 1.0;" x1="273" x2="390" y1="175.5625" y2="175.5625"/><text fill="#000000" font-family="sans-serif" font-size="13" lengthAdjust="spacingAndGlyphs" textLength="99" x="280" y="170.6294">create Table(N)</text><rect fill="#FEFECE" filter="url(#fllu0af0lqhda)" height="30.2969" style="stroke: #A80036; stroke-width: 1.5;" width="52" x="396" y="154.5625"/><text fill="#000000" font-family="sans-serif" font-size="14" lengthAdjust="spacingAndGlyphs" textLength="38" x="403" y="174.5576">Table</text><line style="stroke: #A80036; stroke-width: 1.0;" x1="429" x2="471" y1="220.9922" y2="220.9922"/><line style="stroke: #A80036; stroke-width: 1.0;" x1="471" x2="471" y1="220.9922" y2="233.9922"/><line style="stroke: #A80036; stroke-width: 1.0;" x1="430" x2="471" y1="233.9922" y2="233.9922"/><polygon fill="#A80036" points="440,229.9922,430,233.9922,440,237.9922,436,233.9922" style="stroke: #A80036; stroke-width: 1.0;"/><text fill="#000000" font-family="sans-serif" font-size="13" lengthAdjust="spacingAndGlyphs" textLength="123" x="436" y="215.9263">setName("TableN")</text><polygon fill="#A80036" points="279,258.9922,269,262.9922,279,266.9922,275,262.9922" style="stroke: #A80036; stroke-width: 1.0;"/><line style="stroke: #A80036; stroke-width: 1.0; stroke-dasharray: 2.0,2.0;" x1="273" x2="423" y1="262.9922" y2="262.9922"/><text fill="#000000" font-family="sans-serif" font-size="13" lengthAdjust="spacingAndGlyphs" textLength="34" x="285" y="258.0591">Table</text><polygon fill="#A80036" points="554,288.125,564,292.125,554,296.125,558,292.125" style="stroke: #A80036; stroke-width: 1.0;"/><line style="stroke: #A80036; stroke-width: 1.0;" x1="147" x2="560" y1="292.125" y2="292.125"/><text fill="#000000" font-family="sans-serif" font-size="13" lengthAdjust="spacingAndGlyphs" textLength="78" x="154" y="287.1919">loadTables()</text><!--
@startuml
actor User

User->ButtonWidget: Presses button

ButtonWidget -> TableHandler: addTable()

activate TableHandler
create Table
TableHandler -> Table: create Table(N)
activate Table
Table -> Table: setName("TableN")
return Table
deactivate TableHandler

activate UIWindowHandler
ButtonWidget -> UIWindowHandler: loadTables()

@enduml

PlantUML version 1.2017.15(Mon Jul 03 18:45:34 CEST 2017)
(GPL source distribution)
Java Runtime: OpenJDK Runtime Environment
JVM: OpenJDK 64-Bit Server VM
Java Version: 10.0.2+13-Ubuntu-1ubuntu0.18.04.4
Operating System: Linux
OS Version: 4.15.0-46-generic
Default Encoding: UTF-8
Language: en
Country: US
--></g></svg>