<?xml version="1.0" encoding="UTF-8" standalone="no"?><svg xmlns="http://www.w3.org/2000/svg" xmlns:xlink="http://www.w3.org/1999/xlink" contentScriptType="application/ecmascript" contentStyleType="text/css" height="680px" preserveAspectRatio="none" style="width:1076px;height:680px;" version="1.1" viewBox="0 0 1076 680" width="1076px" zoomAndPan="magnify"><defs><filter height="300%" id="fyzmw6vu3w784" width="300%" x="-1" y="-1"><feGaussianBlur result="blurOut" stdDeviation="2.0"/><feColorMatrix in="blurOut" result="blurOut2" type="matrix" values="0 0 0 0 0 0 0 0 0 0 0 0 0 0 0 0 0 0 .4 0"/><feOffset dx="4.0" dy="4.0" in="blurOut2" result="blurOut3"/><feBlend in="SourceGraphic" in2="blurOut3" mode="normal"/></filter></defs><g><text fill="#000000" font-family="sans-serif" font-size="14" font-weight="bold" lengthAdjust="spacingAndGlyphs" textLength="90" x="494" y="22.9951">Delete Row</text><text fill="#000000" font-family="sans-serif" font-size="14" font-weight="bold" lengthAdjust="spacingAndGlyphs" textLength="33" x="522.5" y="39.292">MSS</text><rect fill="#FFFFFF" filter="url(#fyzmw6vu3w784)" height="411.5938" style="stroke: #A80036; stroke-width: 1.0;" width="10" x="140" y="163.8906"/><rect fill="#FFFFFF" filter="url(#fyzmw6vu3w784)" height="29.1328" style="stroke: #A80036; stroke-width: 1.0;" width="10" x="458" y="193.0234"/><rect fill="#FFFFFF" filter="url(#fyzmw6vu3w784)" height="30" style="stroke: #A80036; stroke-width: 1.0;" width="10" x="458" y="486.3516"/><rect fill="#FFFFFF" filter="url(#fyzmw6vu3w784)" height="155.7969" style="stroke: #A80036; stroke-width: 1.0;" width="10" x="610.5" y="251.2891"/><rect fill="#FFFFFF" filter="url(#fyzmw6vu3w784)" height="156.5313" style="stroke: #A80036; stroke-width: 1.0;" width="10" x="610.5" y="428.0859"/><rect fill="#FFFFFF" filter="url(#fyzmw6vu3w784)" height="126.6641" style="stroke: #A80036; stroke-width: 1.0;" width="10" x="805.5" y="280.4219"/><rect fill="#FFFFFF" filter="url(#fyzmw6vu3w784)" height="29.1328" style="stroke: #A80036; stroke-width: 1.0;" width="10" x="941.5" y="362.8203"/><rect fill="#FFFFFF" filter="url(#fyzmw6vu3w784)" height="75.3984" style="stroke: #000000; stroke-width: 2.0;" width="292.5" x="772.5" y="324.6875"/><line style="stroke: #A80036; stroke-width: 1.0; stroke-dasharray: 5.0,5.0;" x1="27" x2="27" y1="132.8906" y2="593.6172"/><line style="stroke: #A80036; stroke-width: 1.0; stroke-dasharray: 5.0,5.0;" x1="144.5" x2="144.5" y1="132.8906" y2="593.6172"/><line style="stroke: #A80036; stroke-width: 1.0; stroke-dasharray: 5.0,5.0;" x1="463" x2="463" y1="132.8906" y2="593.6172"/><line style="stroke: #A80036; stroke-width: 1.0; stroke-dasharray: 5.0,5.0;" x1="615" x2="615" y1="132.8906" y2="593.6172"/><line style="stroke: #A80036; stroke-width: 1.0; stroke-dasharray: 5.0,5.0;" x1="810.5" x2="810.5" y1="132.8906" y2="593.6172"/><line style="stroke: #A80036; stroke-width: 1.0; stroke-dasharray: 5.0,5.0;" x1="946" x2="946" y1="132.8906" y2="593.6172"/><line style="stroke: #A80036; stroke-width: 1.0; stroke-dasharray: 5.0,5.0;" x1="1033" x2="1033" y1="132.8906" y2="593.6172"/><text fill="#000000" font-family="sans-serif" font-size="14" lengthAdjust="spacingAndGlyphs" textLength="32" x="8" y="129.5889">User</text><ellipse cx="27" cy="59.5938" fill="#FEFECE" filter="url(#fyzmw6vu3w784)" rx="8" ry="8" style="stroke: #A80036; stroke-width: 2.0;"/><path d="M27,67.5938 L27,94.5938 M14,75.5938 L40,75.5938 M27,94.5938 L14,109.5938 M27,94.5938 L40,109.5938 " fill="#FEFECE" filter="url(#fyzmw6vu3w784)" style="stroke: #A80036; stroke-width: 2.0;"/><text fill="#000000" font-family="sans-serif" font-size="14" lengthAdjust="spacingAndGlyphs" textLength="32" x="8" y="605.6123">User</text><ellipse cx="27" cy="618.9141" fill="#FEFECE" filter="url(#fyzmw6vu3w784)" rx="8" ry="8" style="stroke: #A80036; stroke-width: 2.0;"/><path d="M27,626.9141 L27,653.9141 M14,634.9141 L40,634.9141 M27,653.9141 L14,668.9141 M27,653.9141 L40,668.9141 " fill="#FEFECE" filter="url(#fyzmw6vu3w784)" style="stroke: #A80036; stroke-width: 2.0;"/><rect fill="#FEFECE" filter="url(#fyzmw6vu3w784)" height="30.2969" style="stroke: #A80036; stroke-width: 1.5;" width="109" x="88.5" y="97.5938"/><text fill="#000000" font-family="sans-serif" font-size="14" lengthAdjust="spacingAndGlyphs" textLength="95" x="95.5" y="117.5889">ButtonWidget</text><rect fill="#FEFECE" filter="url(#fyzmw6vu3w784)" height="30.2969" style="stroke: #A80036; stroke-width: 1.5;" width="109" x="88.5" y="592.6172"/><text fill="#000000" font-family="sans-serif" font-size="14" lengthAdjust="spacingAndGlyphs" textLength="95" x="95.5" y="612.6123">ButtonWidget</text><rect fill="#FEFECE" filter="url(#fyzmw6vu3w784)" height="30.2969" style="stroke: #A80036; stroke-width: 1.5;" width="134" x="394" y="97.5938"/><text fill="#000000" font-family="sans-serif" font-size="14" lengthAdjust="spacingAndGlyphs" textLength="120" x="401" y="117.5889">UIWindowHandler</text><rect fill="#FEFECE" filter="url(#fyzmw6vu3w784)" height="30.2969" style="stroke: #A80036; stroke-width: 1.5;" width="134" x="394" y="592.6172"/><text fill="#000000" font-family="sans-serif" font-size="14" lengthAdjust="spacingAndGlyphs" textLength="120" x="401" y="612.6123">UIWindowHandler</text><rect fill="#FEFECE" filter="url(#fyzmw6vu3w784)" height="30.2969" style="stroke: #A80036; stroke-width: 1.5;" width="143" x="542" y="97.5938"/><text fill="#000000" font-family="sans-serif" font-size="14" lengthAdjust="spacingAndGlyphs" textLength="129" x="549" y="117.5889">TableRowsHandler</text><rect fill="#FEFECE" filter="url(#fyzmw6vu3w784)" height="30.2969" style="stroke: #A80036; stroke-width: 1.5;" width="143" x="542" y="592.6172"/><text fill="#000000" font-family="sans-serif" font-size="14" lengthAdjust="spacingAndGlyphs" textLength="129" x="549" y="612.6123">TableRowsHandler</text><rect fill="#FEFECE" filter="url(#fyzmw6vu3w784)" height="30.2969" style="stroke: #A80036; stroke-width: 1.5;" width="52" x="782.5" y="97.5938"/><text fill="#000000" font-family="sans-serif" font-size="14" lengthAdjust="spacingAndGlyphs" textLength="38" x="789.5" y="117.5889">Table</text><rect fill="#FEFECE" filter="url(#fyzmw6vu3w784)" height="30.2969" style="stroke: #A80036; stroke-width: 1.5;" width="52" x="782.5" y="592.6172"/><text fill="#000000" font-family="sans-serif" font-size="14" lengthAdjust="spacingAndGlyphs" textLength="38" x="789.5" y="612.6123">Table</text><rect fill="#FEFECE" filter="url(#fyzmw6vu3w784)" height="30.2969" style="stroke: #A80036; stroke-width: 1.5;" width="67" x="911" y="97.5938"/><text fill="#000000" font-family="sans-serif" font-size="14" lengthAdjust="spacingAndGlyphs" textLength="53" x="918" y="117.5889">Column</text><rect fill="#FEFECE" filter="url(#fyzmw6vu3w784)" height="30.2969" style="stroke: #A80036; stroke-width: 1.5;" width="67" x="911" y="592.6172"/><text fill="#000000" font-family="sans-serif" font-size="14" lengthAdjust="spacingAndGlyphs" textLength="53" x="918" y="612.6123">Column</text><rect fill="#FEFECE" filter="url(#fyzmw6vu3w784)" height="30.2969" style="stroke: #A80036; stroke-width: 1.5;" width="39" x="1012" y="97.5938"/><text fill="#000000" font-family="sans-serif" font-size="14" lengthAdjust="spacingAndGlyphs" textLength="25" x="1019" y="117.5889">Cell</text><rect fill="#FEFECE" filter="url(#fyzmw6vu3w784)" height="30.2969" style="stroke: #A80036; stroke-width: 1.5;" width="39" x="1012" y="592.6172"/><text fill="#000000" font-family="sans-serif" font-size="14" lengthAdjust="spacingAndGlyphs" textLength="25" x="1019" y="612.6123">Cell</text><rect fill="#FFFFFF" filter="url(#fyzmw6vu3w784)" height="411.5938" style="stroke: #A80036; stroke-width: 1.0;" width="10" x="140" y="163.8906"/><rect fill="#FFFFFF" filter="url(#fyzmw6vu3w784)" height="29.1328" style="stroke: #A80036; stroke-width: 1.0;" width="10" x="458" y="193.0234"/><rect fill="#FFFFFF" filter="url(#fyzmw6vu3w784)" height="30" style="stroke: #A80036; stroke-width: 1.0;" width="10" x="458" y="486.3516"/><rect fill="#FFFFFF" filter="url(#fyzmw6vu3w784)" height="155.7969" style="stroke: #A80036; stroke-width: 1.0;" width="10" x="610.5" y="251.2891"/><rect fill="#FFFFFF" filter="url(#fyzmw6vu3w784)" height="156.5313" style="stroke: #A80036; stroke-width: 1.0;" width="10" x="610.5" y="428.0859"/><rect fill="#FFFFFF" filter="url(#fyzmw6vu3w784)" height="126.6641" style="stroke: #A80036; stroke-width: 1.0;" width="10" x="805.5" y="280.4219"/><rect fill="#FFFFFF" filter="url(#fyzmw6vu3w784)" height="29.1328" style="stroke: #A80036; stroke-width: 1.0;" width="10" x="941.5" y="362.8203"/><polygon fill="#A80036" points="128,159.8906,138,163.8906,128,167.8906,132,163.8906" style="stroke: #A80036; stroke-width: 1.0;"/><line style="stroke: #A80036; stroke-width: 1.0;" x1="27" x2="134" y1="163.8906" y2="163.8906"/><text fill="#000000" font-family="sans-serif" font-size="13" lengthAdjust="spacingAndGlyphs" textLength="94" x="34" y="158.9575">Presses delete</text><polygon fill="#A80036" points="446,189.0234,456,193.0234,446,197.0234,450,193.0234" style="stroke: #A80036; stroke-width: 1.0;"/><line style="stroke: #A80036; stroke-width: 1.0;" x1="150" x2="452" y1="193.0234" y2="193.0234"/><text fill="#000000" font-family="sans-serif" font-size="13" lengthAdjust="spacingAndGlyphs" textLength="116" x="157" y="188.0903">getSelectedItem()</text><polygon fill="#A80036" points="161,218.1563,151,222.1563,161,226.1563,157,222.1563" style="stroke: #A80036; stroke-width: 1.0;"/><line style="stroke: #A80036; stroke-width: 1.0; stroke-dasharray: 2.0,2.0;" x1="155" x2="462" y1="222.1563" y2="222.1563"/><text fill="#000000" font-family="sans-serif" font-size="13" lengthAdjust="spacingAndGlyphs" textLength="56" x="167" y="217.2231">rowIndex</text><polygon fill="#A80036" points="598.5,247.2891,608.5,251.2891,598.5,255.2891,602.5,251.2891" style="stroke: #A80036; stroke-width: 1.0;"/><line style="stroke: #A80036; stroke-width: 1.0;" x1="150" x2="604.5" y1="251.2891" y2="251.2891"/><text fill="#000000" font-family="sans-serif" font-size="13" lengthAdjust="spacingAndGlyphs" textLength="131" x="157" y="246.356">deleteRow(rowIndex)</text><polygon fill="#A80036" points="793.5,276.4219,803.5,280.4219,793.5,284.4219,797.5,280.4219" style="stroke: #A80036; stroke-width: 1.0;"/><line style="stroke: #A80036; stroke-width: 1.0;" x1="620.5" x2="799.5" y1="280.4219" y2="280.4219"/><text fill="#000000" font-family="sans-serif" font-size="13" lengthAdjust="spacingAndGlyphs" textLength="166" x="627.5" y="275.4888">isValidRowIndex(rowIndex)</text><polygon fill="#A80036" points="793.5,305.5547,803.5,309.5547,793.5,313.5547,797.5,309.5547" style="stroke: #A80036; stroke-width: 1.0;"/><line style="stroke: #A80036; stroke-width: 1.0;" x1="620.5" x2="799.5" y1="309.5547" y2="309.5547"/><text fill="#000000" font-family="sans-serif" font-size="13" lengthAdjust="spacingAndGlyphs" textLength="131" x="627.5" y="304.6216">deleteRow(rowIndex)</text><rect fill="none" height="75.3984" style="stroke: #000000; stroke-width: 2.0;" width="292.5" x="772.5" y="324.6875"/><polygon fill="#EEEEEE" points="772.5,324.6875,849.5,324.6875,849.5,331.6875,839.5,341.6875,772.5,341.6875,772.5,324.6875" style="stroke: #000000; stroke-width: 2.0;"/><text fill="#000000" font-family="sans-serif" font-size="13" font-weight="bold" lengthAdjust="spacingAndGlyphs" textLength="32" x="787.5" y="337.7544">loop</text><polygon fill="#A80036" points="929.5,358.8203,939.5,362.8203,929.5,366.8203,933.5,362.8203" style="stroke: #A80036; stroke-width: 1.0;"/><line style="stroke: #A80036; stroke-width: 1.0;" x1="815.5" x2="935.5" y1="362.8203" y2="362.8203"/><text fill="#000000" font-family="sans-serif" font-size="13" lengthAdjust="spacingAndGlyphs" textLength="107" x="822.5" y="357.8872">deleteCell(index)</text><polygon fill="#A80036" points="1021.5,387.9531,1031.5,391.9531,1021.5,395.9531,1025.5,391.9531" style="stroke: #A80036; stroke-width: 1.0;"/><line style="stroke: #A80036; stroke-width: 1.0;" x1="946.5" x2="1027.5" y1="391.9531" y2="391.9531"/><text fill="#000000" font-family="sans-serif" font-size="13" lengthAdjust="spacingAndGlyphs" textLength="58" x="953.5" y="387.02">destroy()</text><line style="stroke: #A80036; stroke-width: 2.0;" x1="1024.5" x2="1042.5" y1="382.9531" y2="400.9531"/><line style="stroke: #A80036; stroke-width: 2.0;" x1="1024.5" x2="1042.5" y1="400.9531" y2="382.9531"/><polygon fill="#A80036" points="598.5,424.0859,608.5,428.0859,598.5,432.0859,602.5,428.0859" style="stroke: #A80036; stroke-width: 1.0;"/><line style="stroke: #A80036; stroke-width: 1.0;" x1="150" x2="604.5" y1="428.0859" y2="428.0859"/><text fill="#000000" font-family="sans-serif" font-size="13" lengthAdjust="spacingAndGlyphs" textLength="99" x="157" y="423.1528">getOpenTable()</text><polygon fill="#A80036" points="161,453.2188,151,457.2188,161,461.2188,157,457.2188" style="stroke: #A80036; stroke-width: 1.0;"/><line style="stroke: #A80036; stroke-width: 1.0; stroke-dasharray: 2.0,2.0;" x1="155" x2="609.5" y1="457.2188" y2="457.2188"/><text fill="#000000" font-family="sans-serif" font-size="13" lengthAdjust="spacingAndGlyphs" textLength="71" x="167" y="452.2856">tableName</text><polygon fill="#A80036" points="446,482.3516,456,486.3516,446,490.3516,450,486.3516" style="stroke: #A80036; stroke-width: 1.0;"/><line style="stroke: #A80036; stroke-width: 1.0;" x1="150" x2="452" y1="486.3516" y2="486.3516"/><text fill="#000000" font-family="sans-serif" font-size="13" lengthAdjust="spacingAndGlyphs" textLength="289" x="157" y="481.4185">removeTableRowsEntry(tableName,rowIndex)</text><polygon fill="#A80036" points="446,541.4844,456,545.4844,446,549.4844,450,545.4844" style="stroke: #A80036; stroke-width: 1.0;"/><line style="stroke: #A80036; stroke-width: 1.0;" x1="150" x2="452" y1="545.4844" y2="545.4844"/><text fill="#000000" font-family="sans-serif" font-size="13" lengthAdjust="spacingAndGlyphs" textLength="174" x="157" y="540.5513">loadTableRows(tableName)</text><!--
@startuml
titleLabel Delete Row\nMSS
Actor User
User->ButtonWidget: Presses delete
activate ButtonWidget
ButtonWidget ->UIWindowHandler: getSelectedItem()
activate UIWindowHandler
ButtonWidget <- - UIWindowHandler: rowIndex
deactivate UIWindowHandler

ButtonWidget -> TableRowsHandler: deleteRow(rowIndex)
activate TableRowsHandler

TableRowsHandler -> Table: isValidRowIndex(rowIndex)
activate Table
TableRowsHandler -> Table: deleteRow(rowIndex)

loop
    Table -> Column: deleteCell(index)
    activate Column
    Column -> Cell: destroy()
    deactivate Column
    destroy Cell
end
deactivate Table
deactivate TableRowsHandler
ButtonWidget -> TableRowsHandler: getOpenTable()
activate TableRowsHandler
ButtonWidget <- - TableRowsHandler: tableName
deactivate UIWindowHandler
ButtonWidget -> UIWindowHandler: removeTableRowsEntry(tableName,rowIndex)
activate UIWindowHandler
deactivate UIWindowHandler

ButtonWidget -> UIWindowHandler: loadTableRows(tableName)

activate UIWindowHandler
deactivate ButtonWidget
@enduml

PlantUML version 1.2017.15(Mon Jul 03 18:45:34 CEST 2017)
(GPL source distribution)
Java Runtime: OpenJDK Runtime Environment
JVM: OpenJDK 64-Bit Server VM
Java Version: 10.0.2+13-Ubuntu-1ubuntu0.18.04.4
Operating System: Linux
OS Version: 4.15.0-46-generic
Default Encoding: UTF-8
Language: en
Country: US
--></g></svg>