<?xml version="1.0" encoding="UTF-8" standalone="no"?><svg xmlns="http://www.w3.org/2000/svg" xmlns:xlink="http://www.w3.org/1999/xlink" contentScriptType="application/ecmascript" contentStyleType="text/css" height="507px" preserveAspectRatio="none" style="width:574px;height:507px;" version="1.1" viewBox="0 0 574 507" width="574px" zoomAndPan="magnify"><defs><filter height="300%" id="f1jfvf0i4spqae" width="300%" x="-1" y="-1"><feGaussianBlur result="blurOut" stdDeviation="2.0"/><feColorMatrix in="blurOut" result="blurOut2" type="matrix" values="0 0 0 0 0 0 0 0 0 0 0 0 0 0 0 0 0 0 .4 0"/><feOffset dx="4.0" dy="4.0" in="blurOut2" result="blurOut3"/><feBlend in="SourceGraphic" in2="blurOut3" mode="normal"/></filter></defs><g><text fill="#000000" font-family="sans-serif" font-size="14" font-weight="bold" lengthAdjust="spacingAndGlyphs" textLength="99" x="238" y="22.9951">Delete Table</text><text fill="#000000" font-family="sans-serif" font-size="14" font-weight="bold" lengthAdjust="spacingAndGlyphs" textLength="33" x="271" y="39.292">MSS</text><rect fill="#FFFFFF" filter="url(#f1jfvf0i4spqae)" height="237.9297" style="stroke: #A80036; stroke-width: 1.0;" width="10" x="140" y="163.8906"/><rect fill="#FFFFFF" filter="url(#f1jfvf0i4spqae)" height="29.1328" style="stroke: #A80036; stroke-width: 1.0;" width="10" x="285" y="193.0234"/><rect fill="#FFFFFF" filter="url(#f1jfvf0i4spqae)" height="39.1328" style="stroke: #A80036; stroke-width: 1.0;" width="10" x="285" y="371.8203"/><rect fill="#FFFFFF" filter="url(#f1jfvf0i4spqae)" height="53.2656" style="stroke: #A80036; stroke-width: 1.0;" width="10" x="422.5" y="251.2891"/><rect fill="#FFFFFF" filter="url(#f1jfvf0i4spqae)" height="77.3984" style="stroke: #000000; stroke-width: 2.0;" width="483.5" x="78.5" y="266.4219"/><rect fill="#FFFFFF" height="31.1328" style="stroke: none; stroke-width: 1.0;" width="483.5" x="78.5" y="312.6875"/><line style="stroke: #A80036; stroke-width: 1.0; stroke-dasharray: 5.0,5.0;" x1="27" x2="27" y1="132.8906" y2="419.9531"/><line style="stroke: #A80036; stroke-width: 1.0; stroke-dasharray: 5.0,5.0;" x1="144.5" x2="144.5" y1="132.8906" y2="419.9531"/><line style="stroke: #A80036; stroke-width: 1.0; stroke-dasharray: 5.0,5.0;" x1="290" x2="290" y1="132.8906" y2="419.9531"/><line style="stroke: #A80036; stroke-width: 1.0; stroke-dasharray: 5.0,5.0;" x1="427" x2="427" y1="132.8906" y2="419.9531"/><line style="stroke: #A80036; stroke-width: 1.0; stroke-dasharray: 5.0,5.0;" x1="524" x2="524" y1="132.8906" y2="419.9531"/><text fill="#000000" font-family="sans-serif" font-size="14" lengthAdjust="spacingAndGlyphs" textLength="32" x="8" y="129.5889">User</text><ellipse cx="27" cy="59.5938" fill="#FEFECE" filter="url(#f1jfvf0i4spqae)" rx="8" ry="8" style="stroke: #A80036; stroke-width: 2.0;"/><path d="M27,67.5938 L27,94.5938 M14,75.5938 L40,75.5938 M27,94.5938 L14,109.5938 M27,94.5938 L40,109.5938 " fill="#FEFECE" filter="url(#f1jfvf0i4spqae)" style="stroke: #A80036; stroke-width: 2.0;"/><text fill="#000000" font-family="sans-serif" font-size="14" lengthAdjust="spacingAndGlyphs" textLength="32" x="8" y="431.9482">User</text><ellipse cx="27" cy="445.25" fill="#FEFECE" filter="url(#f1jfvf0i4spqae)" rx="8" ry="8" style="stroke: #A80036; stroke-width: 2.0;"/><path d="M27,453.25 L27,480.25 M14,461.25 L40,461.25 M27,480.25 L14,495.25 M27,480.25 L40,495.25 " fill="#FEFECE" filter="url(#f1jfvf0i4spqae)" style="stroke: #A80036; stroke-width: 2.0;"/><rect fill="#FEFECE" filter="url(#f1jfvf0i4spqae)" height="30.2969" style="stroke: #A80036; stroke-width: 1.5;" width="109" x="88.5" y="97.5938"/><text fill="#000000" font-family="sans-serif" font-size="14" lengthAdjust="spacingAndGlyphs" textLength="95" x="95.5" y="117.5889">ButtonWidget</text><rect fill="#FEFECE" filter="url(#f1jfvf0i4spqae)" height="30.2969" style="stroke: #A80036; stroke-width: 1.5;" width="109" x="88.5" y="418.9531"/><text fill="#000000" font-family="sans-serif" font-size="14" lengthAdjust="spacingAndGlyphs" textLength="95" x="95.5" y="438.9482">ButtonWidget</text><rect fill="#FEFECE" filter="url(#f1jfvf0i4spqae)" height="30.2969" style="stroke: #A80036; stroke-width: 1.5;" width="134" x="221" y="97.5938"/><text fill="#000000" font-family="sans-serif" font-size="14" lengthAdjust="spacingAndGlyphs" textLength="120" x="228" y="117.5889">UIWindowHandler</text><rect fill="#FEFECE" filter="url(#f1jfvf0i4spqae)" height="30.2969" style="stroke: #A80036; stroke-width: 1.5;" width="134" x="221" y="418.9531"/><text fill="#000000" font-family="sans-serif" font-size="14" lengthAdjust="spacingAndGlyphs" textLength="120" x="228" y="438.9482">UIWindowHandler</text><rect fill="#FEFECE" filter="url(#f1jfvf0i4spqae)" height="30.2969" style="stroke: #A80036; stroke-width: 1.5;" width="113" x="369" y="97.5938"/><text fill="#000000" font-family="sans-serif" font-size="14" lengthAdjust="spacingAndGlyphs" textLength="99" x="376" y="117.5889">TablesHandler</text><rect fill="#FEFECE" filter="url(#f1jfvf0i4spqae)" height="30.2969" style="stroke: #A80036; stroke-width: 1.5;" width="113" x="369" y="418.9531"/><text fill="#000000" font-family="sans-serif" font-size="14" lengthAdjust="spacingAndGlyphs" textLength="99" x="376" y="438.9482">TablesHandler</text><rect fill="#FEFECE" filter="url(#f1jfvf0i4spqae)" height="30.2969" style="stroke: #A80036; stroke-width: 1.5;" width="52" x="496" y="97.5938"/><text fill="#000000" font-family="sans-serif" font-size="14" lengthAdjust="spacingAndGlyphs" textLength="38" x="503" y="117.5889">Table</text><rect fill="#FEFECE" filter="url(#f1jfvf0i4spqae)" height="30.2969" style="stroke: #A80036; stroke-width: 1.5;" width="52" x="496" y="418.9531"/><text fill="#000000" font-family="sans-serif" font-size="14" lengthAdjust="spacingAndGlyphs" textLength="38" x="503" y="438.9482">Table</text><rect fill="#FFFFFF" filter="url(#f1jfvf0i4spqae)" height="237.9297" style="stroke: #A80036; stroke-width: 1.0;" width="10" x="140" y="163.8906"/><rect fill="#FFFFFF" filter="url(#f1jfvf0i4spqae)" height="29.1328" style="stroke: #A80036; stroke-width: 1.0;" width="10" x="285" y="193.0234"/><rect fill="#FFFFFF" filter="url(#f1jfvf0i4spqae)" height="39.1328" style="stroke: #A80036; stroke-width: 1.0;" width="10" x="285" y="371.8203"/><rect fill="#FFFFFF" filter="url(#f1jfvf0i4spqae)" height="53.2656" style="stroke: #A80036; stroke-width: 1.0;" width="10" x="422.5" y="251.2891"/><polygon fill="#A80036" points="128,159.8906,138,163.8906,128,167.8906,132,163.8906" style="stroke: #A80036; stroke-width: 1.0;"/><line style="stroke: #A80036; stroke-width: 1.0;" x1="27" x2="134" y1="163.8906" y2="163.8906"/><text fill="#000000" font-family="sans-serif" font-size="13" lengthAdjust="spacingAndGlyphs" textLength="94" x="34" y="158.9575">Presses delete</text><polygon fill="#A80036" points="273,189.0234,283,193.0234,273,197.0234,277,193.0234" style="stroke: #A80036; stroke-width: 1.0;"/><line style="stroke: #A80036; stroke-width: 1.0;" x1="150" x2="279" y1="193.0234" y2="193.0234"/><text fill="#000000" font-family="sans-serif" font-size="13" lengthAdjust="spacingAndGlyphs" textLength="116" x="157" y="188.0903">getSelectedItem()</text><polygon fill="#A80036" points="161,218.1563,151,222.1563,161,226.1563,157,222.1563" style="stroke: #A80036; stroke-width: 1.0;"/><line style="stroke: #A80036; stroke-width: 1.0; stroke-dasharray: 2.0,2.0;" x1="155" x2="289" y1="222.1563" y2="222.1563"/><text fill="#000000" font-family="sans-serif" font-size="13" lengthAdjust="spacingAndGlyphs" textLength="71" x="167" y="217.2231">tableName</text><polygon fill="#A80036" points="410.5,247.2891,420.5,251.2891,410.5,255.2891,414.5,251.2891" style="stroke: #A80036; stroke-width: 1.0;"/><line style="stroke: #A80036; stroke-width: 1.0;" x1="150" x2="416.5" y1="251.2891" y2="251.2891"/><text fill="#000000" font-family="sans-serif" font-size="13" lengthAdjust="spacingAndGlyphs" textLength="155" x="157" y="246.356">deleteTable(tableName)</text><rect fill="none" height="77.3984" style="stroke: #000000; stroke-width: 2.0;" width="483.5" x="78.5" y="266.4219"/><polygon fill="#EEEEEE" points="78.5,266.4219,142.5,266.4219,142.5,273.4219,132.5,283.4219,78.5,283.4219,78.5,266.4219" style="stroke: #000000; stroke-width: 2.0;"/><text fill="#000000" font-family="sans-serif" font-size="13" font-weight="bold" lengthAdjust="spacingAndGlyphs" textLength="19" x="93.5" y="279.4888">alt</text><text fill="#000000" font-family="sans-serif" font-size="11" font-weight="bold" lengthAdjust="spacingAndGlyphs" textLength="142" x="157.5" y="278.6323">[is(Valid)Table(table)]</text><polygon fill="#A80036" points="512,300.5547,522,304.5547,512,308.5547,516,304.5547" style="stroke: #A80036; stroke-width: 1.0;"/><line style="stroke: #A80036; stroke-width: 1.0;" x1="427.5" x2="518" y1="304.5547" y2="304.5547"/><text fill="#000000" font-family="sans-serif" font-size="13" lengthAdjust="spacingAndGlyphs" textLength="58" x="434.5" y="299.6216">destroy()</text><line style="stroke: #A80036; stroke-width: 2.0;" x1="515" x2="533" y1="295.5547" y2="313.5547"/><line style="stroke: #A80036; stroke-width: 2.0;" x1="515" x2="533" y1="313.5547" y2="295.5547"/><line style="stroke: #000000; stroke-width: 1.0; stroke-dasharray: 2.0,2.0;" x1="78.5" x2="562" y1="313.6875" y2="313.6875"/><polygon fill="#A80036" points="161,331.6875,151,335.6875,161,339.6875,157,335.6875" style="stroke: #A80036; stroke-width: 1.0;"/><line style="stroke: #A80036; stroke-width: 1.0;" x1="155" x2="426.5" y1="335.6875" y2="335.6875"/><text fill="#000000" font-family="sans-serif" font-size="13" lengthAdjust="spacingAndGlyphs" textLength="42" x="167" y="330.7544">ERROR</text><polygon fill="#A80036" points="273,367.8203,283,371.8203,273,375.8203,277,371.8203" style="stroke: #A80036; stroke-width: 1.0;"/><line style="stroke: #A80036; stroke-width: 1.0;" x1="150" x2="279" y1="371.8203" y2="371.8203"/><text fill="#000000" font-family="sans-serif" font-size="13" lengthAdjust="spacingAndGlyphs" textLength="78" x="157" y="366.8872">loadTables()</text><!--
@startuml
titleLabel Delete Table\nMSS
Actor User

User->ButtonWidget: Presses delete
activate ButtonWidget
ButtonWidget ->UIWindowHandler: getSelectedItem()
activate UIWindowHandler
ButtonWidget <- - UIWindowHandler: tableName
deactivate UIWindowHandler

ButtonWidget -> TablesHandler: deleteTable(tableName)
alt is(Valid)Table(table)
activate TablesHandler

TablesHandler -> Table: destroy()
destroy Table
else
deactivate TablesHandler
TablesHandler-> ButtonWidget : ERROR
end
ButtonWidget -> UIWindowHandler: loadTables()

activate UIWindowHandler
deactivate ButtonWidget

@enduml

PlantUML version 1.2017.15(Mon Jul 03 18:45:34 CEST 2017)
(GPL source distribution)
Java Runtime: OpenJDK Runtime Environment
JVM: OpenJDK 64-Bit Server VM
Java Version: 10.0.2+13-Ubuntu-1ubuntu0.18.04.4
Operating System: Linux
OS Version: 4.15.0-46-generic
Default Encoding: UTF-8
Language: en
Country: US
--></g></svg>