<?xml version="1.0" encoding="UTF-8" standalone="no"?><svg xmlns="http://www.w3.org/2000/svg" xmlns:xlink="http://www.w3.org/1999/xlink" contentScriptType="application/ecmascript" contentStyleType="text/css" height="517px" preserveAspectRatio="none" style="width:1209px;height:517px;" version="1.1" viewBox="0 0 1209 517" width="1209px" zoomAndPan="magnify"><defs><filter height="300%" id="fubjh3oikxlgp" width="300%" x="-1" y="-1"><feGaussianBlur result="blurOut" stdDeviation="2.0"/><feColorMatrix in="blurOut" result="blurOut2" type="matrix" values="0 0 0 0 0 0 0 0 0 0 0 0 0 0 0 0 0 0 .4 0"/><feOffset dx="4.0" dy="4.0" in="blurOut2" result="blurOut3"/><feBlend in="SourceGraphic" in2="blurOut3" mode="normal"/></filter></defs><g><text fill="#000000" font-family="sans-serif" font-size="14" font-weight="bold" lengthAdjust="spacingAndGlyphs" textLength="149" x="531.25" y="22.9951">Edit Column Blanks</text><rect fill="#FFFFFF" filter="url(#fubjh3oikxlgp)" height="273.3281" style="stroke: #A80036; stroke-width: 1.0;" width="10" x="175" y="147.5938"/><rect fill="#FFFFFF" filter="url(#fubjh3oikxlgp)" height="228.0625" style="stroke: #A80036; stroke-width: 1.0;" width="10" x="399" y="176.7266"/><rect fill="#FFFFFF" filter="url(#fubjh3oikxlgp)" height="169.7969" style="stroke: #A80036; stroke-width: 1.0;" width="10" x="694" y="205.8594"/><rect fill="#FFFFFF" filter="url(#fubjh3oikxlgp)" height="111.5313" style="stroke: #A80036; stroke-width: 1.0;" width="10" x="965" y="234.9922"/><rect fill="#FFFFFF" filter="url(#fubjh3oikxlgp)" height="53.2656" style="stroke: #A80036; stroke-width: 1.0;" width="10" x="1148" y="264.125"/><rect fill="#FFFFFF" filter="url(#fubjh3oikxlgp)" height="133.6641" style="stroke: #000000; stroke-width: 2.0;" width="1185.5" x="13" y="279.2578"/><line style="stroke: #A80036; stroke-width: 1.0; stroke-dasharray: 5.0,5.0;" x1="42" x2="42" y1="116.5938" y2="429.9219"/><line style="stroke: #A80036; stroke-width: 1.0; stroke-dasharray: 5.0,5.0;" x1="180" x2="180" y1="116.5938" y2="429.9219"/><line style="stroke: #A80036; stroke-width: 1.0; stroke-dasharray: 5.0,5.0;" x1="404" x2="404" y1="116.5938" y2="429.9219"/><line style="stroke: #A80036; stroke-width: 1.0; stroke-dasharray: 5.0,5.0;" x1="562" x2="562" y1="116.5938" y2="429.9219"/><line style="stroke: #A80036; stroke-width: 1.0; stroke-dasharray: 5.0,5.0;" x1="699" x2="699" y1="116.5938" y2="429.9219"/><line style="stroke: #A80036; stroke-width: 1.0; stroke-dasharray: 5.0,5.0;" x1="970" x2="970" y1="116.5938" y2="429.9219"/><line style="stroke: #A80036; stroke-width: 1.0; stroke-dasharray: 5.0,5.0;" x1="1152.5" x2="1152.5" y1="116.5938" y2="429.9219"/><text fill="#000000" font-family="sans-serif" font-size="14" lengthAdjust="spacingAndGlyphs" textLength="32" x="23" y="113.292">User</text><ellipse cx="42" cy="43.2969" fill="#FEFECE" filter="url(#fubjh3oikxlgp)" rx="8" ry="8" style="stroke: #A80036; stroke-width: 2.0;"/><path d="M42,51.2969 L42,78.2969 M29,59.2969 L55,59.2969 M42,78.2969 L29,93.2969 M42,78.2969 L55,93.2969 " fill="#FEFECE" filter="url(#fubjh3oikxlgp)" style="stroke: #A80036; stroke-width: 2.0;"/><text fill="#000000" font-family="sans-serif" font-size="14" lengthAdjust="spacingAndGlyphs" textLength="32" x="23" y="441.917">User</text><ellipse cx="42" cy="455.2188" fill="#FEFECE" filter="url(#fubjh3oikxlgp)" rx="8" ry="8" style="stroke: #A80036; stroke-width: 2.0;"/><path d="M42,463.2188 L42,490.2188 M29,471.2188 L55,471.2188 M42,490.2188 L29,505.2188 M42,490.2188 L55,505.2188 " fill="#FEFECE" filter="url(#fubjh3oikxlgp)" style="stroke: #A80036; stroke-width: 2.0;"/><rect fill="#FEFECE" filter="url(#fubjh3oikxlgp)" height="30.2969" style="stroke: #A80036; stroke-width: 1.5;" width="132" x="112" y="81.2969"/><text fill="#000000" font-family="sans-serif" font-size="14" lengthAdjust="spacingAndGlyphs" textLength="118" x="119" y="101.292">CheckBoxWidget</text><rect fill="#FEFECE" filter="url(#fubjh3oikxlgp)" height="30.2969" style="stroke: #A80036; stroke-width: 1.5;" width="132" x="112" y="428.9219"/><text fill="#000000" font-family="sans-serif" font-size="14" lengthAdjust="spacingAndGlyphs" textLength="118" x="119" y="448.917">CheckBoxWidget</text><rect fill="#FEFECE" filter="url(#fubjh3oikxlgp)" height="30.2969" style="stroke: #A80036; stroke-width: 1.5;" width="154" x="325" y="81.2969"/><text fill="#000000" font-family="sans-serif" font-size="14" lengthAdjust="spacingAndGlyphs" textLength="140" x="332" y="101.292">TableDesignHandler</text><rect fill="#FEFECE" filter="url(#fubjh3oikxlgp)" height="30.2969" style="stroke: #A80036; stroke-width: 1.5;" width="154" x="325" y="428.9219"/><text fill="#000000" font-family="sans-serif" font-size="14" lengthAdjust="spacingAndGlyphs" textLength="140" x="332" y="448.917">TableDesignHandler</text><rect fill="#FEFECE" filter="url(#fubjh3oikxlgp)" height="30.2969" style="stroke: #A80036; stroke-width: 1.5;" width="134" x="493" y="81.2969"/><text fill="#000000" font-family="sans-serif" font-size="14" lengthAdjust="spacingAndGlyphs" textLength="120" x="500" y="101.292">UIWindowHandler</text><rect fill="#FEFECE" filter="url(#fubjh3oikxlgp)" height="30.2969" style="stroke: #A80036; stroke-width: 1.5;" width="134" x="493" y="428.9219"/><text fill="#000000" font-family="sans-serif" font-size="14" lengthAdjust="spacingAndGlyphs" textLength="120" x="500" y="448.917">UIWindowHandler</text><rect fill="#FEFECE" filter="url(#fubjh3oikxlgp)" height="30.2969" style="stroke: #A80036; stroke-width: 1.5;" width="112" x="641" y="81.2969"/><text fill="#000000" font-family="sans-serif" font-size="14" lengthAdjust="spacingAndGlyphs" textLength="98" x="648" y="101.292">TableManager</text><rect fill="#FEFECE" filter="url(#fubjh3oikxlgp)" height="30.2969" style="stroke: #A80036; stroke-width: 1.5;" width="112" x="641" y="428.9219"/><text fill="#000000" font-family="sans-serif" font-size="14" lengthAdjust="spacingAndGlyphs" textLength="98" x="648" y="448.917">TableManager</text><rect fill="#FEFECE" filter="url(#fubjh3oikxlgp)" height="30.2969" style="stroke: #A80036; stroke-width: 1.5;" width="52" x="942" y="81.2969"/><text fill="#000000" font-family="sans-serif" font-size="14" lengthAdjust="spacingAndGlyphs" textLength="38" x="949" y="101.292">Table</text><rect fill="#FEFECE" filter="url(#fubjh3oikxlgp)" height="30.2969" style="stroke: #A80036; stroke-width: 1.5;" width="52" x="942" y="428.9219"/><text fill="#000000" font-family="sans-serif" font-size="14" lengthAdjust="spacingAndGlyphs" textLength="38" x="949" y="448.917">Table</text><rect fill="#FEFECE" filter="url(#fubjh3oikxlgp)" height="30.2969" style="stroke: #A80036; stroke-width: 1.5;" width="67" x="1117.5" y="81.2969"/><text fill="#000000" font-family="sans-serif" font-size="14" lengthAdjust="spacingAndGlyphs" textLength="53" x="1124.5" y="101.292">Column</text><rect fill="#FEFECE" filter="url(#fubjh3oikxlgp)" height="30.2969" style="stroke: #A80036; stroke-width: 1.5;" width="67" x="1117.5" y="428.9219"/><text fill="#000000" font-family="sans-serif" font-size="14" lengthAdjust="spacingAndGlyphs" textLength="53" x="1124.5" y="448.917">Column</text><rect fill="#FFFFFF" filter="url(#fubjh3oikxlgp)" height="273.3281" style="stroke: #A80036; stroke-width: 1.0;" width="10" x="175" y="147.5938"/><rect fill="#FFFFFF" filter="url(#fubjh3oikxlgp)" height="228.0625" style="stroke: #A80036; stroke-width: 1.0;" width="10" x="399" y="176.7266"/><rect fill="#FFFFFF" filter="url(#fubjh3oikxlgp)" height="169.7969" style="stroke: #A80036; stroke-width: 1.0;" width="10" x="694" y="205.8594"/><rect fill="#FFFFFF" filter="url(#fubjh3oikxlgp)" height="111.5313" style="stroke: #A80036; stroke-width: 1.0;" width="10" x="965" y="234.9922"/><rect fill="#FFFFFF" filter="url(#fubjh3oikxlgp)" height="53.2656" style="stroke: #A80036; stroke-width: 1.0;" width="10" x="1148" y="264.125"/><polygon fill="#A80036" points="163,143.5938,173,147.5938,163,151.5938,167,147.5938" style="stroke: #A80036; stroke-width: 1.0;"/><line style="stroke: #A80036; stroke-width: 1.0;" x1="42" x2="169" y1="147.5938" y2="147.5938"/><text fill="#000000" font-family="sans-serif" font-size="13" lengthAdjust="spacingAndGlyphs" textLength="114" x="49" y="142.6606">Presses checkbox</text><polygon fill="#A80036" points="387,172.7266,397,176.7266,387,180.7266,391,176.7266" style="stroke: #A80036; stroke-width: 1.0;"/><line style="stroke: #A80036; stroke-width: 1.0;" x1="185" x2="393" y1="176.7266" y2="176.7266"/><text fill="#000000" font-family="sans-serif" font-size="13" lengthAdjust="spacingAndGlyphs" textLength="195" x="192" y="171.7935">changeColumnBlanks(column)</text><polygon fill="#A80036" points="682,201.8594,692,205.8594,682,209.8594,686,205.8594" style="stroke: #A80036; stroke-width: 1.0;"/><line style="stroke: #A80036; stroke-width: 1.0;" x1="409" x2="688" y1="205.8594" y2="205.8594"/><text fill="#000000" font-family="sans-serif" font-size="13" lengthAdjust="spacingAndGlyphs" textLength="187" x="416" y="200.9263">setColumnDV(column, value)</text><polygon fill="#A80036" points="953,230.9922,963,234.9922,953,238.9922,957,234.9922" style="stroke: #A80036; stroke-width: 1.0;"/><line style="stroke: #A80036; stroke-width: 1.0;" x1="704" x2="959" y1="234.9922" y2="234.9922"/><text fill="#000000" font-family="sans-serif" font-size="13" lengthAdjust="spacingAndGlyphs" textLength="242" x="711" y="230.0591">setColumnAllowBlanks(column, value)</text><polygon fill="#A80036" points="1136,260.125,1146,264.125,1136,268.125,1140,264.125" style="stroke: #A80036; stroke-width: 1.0;"/><line style="stroke: #A80036; stroke-width: 1.0;" x1="975" x2="1142" y1="264.125" y2="264.125"/><text fill="#000000" font-family="sans-serif" font-size="13" lengthAdjust="spacingAndGlyphs" textLength="154" x="982" y="259.1919">setBlanksAllowed(value)</text><rect fill="none" height="133.6641" style="stroke: #000000; stroke-width: 2.0;" width="1185.5" x="13" y="279.2578"/><polygon fill="#EEEEEE" points="13,279.2578,83,279.2578,83,286.2578,73,296.2578,13,296.2578,13,279.2578" style="stroke: #000000; stroke-width: 2.0;"/><text fill="#000000" font-family="sans-serif" font-size="13" font-weight="bold" lengthAdjust="spacingAndGlyphs" textLength="25" x="28" y="292.3247">opt</text><text fill="#000000" font-family="sans-serif" font-size="11" font-weight="bold" lengthAdjust="spacingAndGlyphs" textLength="256" x="98" y="291.4683">[!canHaveAsColumnAllowBlanks(value)]</text><polygon fill="#A80036" points="986,313.3906,976,317.3906,986,321.3906,982,317.3906" style="stroke: #A80036; stroke-width: 1.0;"/><line style="stroke: #A80036; stroke-width: 1.0;" x1="980" x2="1152" y1="317.3906" y2="317.3906"/><text fill="#000000" font-family="sans-serif" font-size="13" lengthAdjust="spacingAndGlyphs" textLength="42" x="992" y="312.4575">ERROR</text><polygon fill="#A80036" points="715,342.5234,705,346.5234,715,350.5234,711,346.5234" style="stroke: #A80036; stroke-width: 1.0;"/><line style="stroke: #A80036; stroke-width: 1.0;" x1="709" x2="969" y1="346.5234" y2="346.5234"/><text fill="#000000" font-family="sans-serif" font-size="13" lengthAdjust="spacingAndGlyphs" textLength="42" x="721" y="341.5903">ERROR</text><polygon fill="#A80036" points="420,371.6563,410,375.6563,420,379.6563,416,375.6563" style="stroke: #A80036; stroke-width: 1.0;"/><line style="stroke: #A80036; stroke-width: 1.0;" x1="414" x2="698" y1="375.6563" y2="375.6563"/><text fill="#000000" font-family="sans-serif" font-size="13" lengthAdjust="spacingAndGlyphs" textLength="42" x="426" y="370.7231">ERROR</text><polygon fill="#A80036" points="53,400.7891,43,404.7891,53,408.7891,49,404.7891" style="stroke: #A80036; stroke-width: 1.0;"/><line style="stroke: #A80036; stroke-width: 1.0;" x1="47" x2="403" y1="404.7891" y2="404.7891"/><text fill="#000000" font-family="sans-serif" font-size="13" lengthAdjust="spacingAndGlyphs" textLength="42" x="59" y="399.856">ERROR</text><!--
@startuml
title Edit Column Blanks
Actor User


User->CheckBoxWidget: Presses checkbox
activate CheckBoxWidget
CheckBoxWidget -> TableDesignHandler: changeColumnBlanks(column)
deactivate UIWindowHandler

activate TableDesignHandler
TableDesignHandler -> TableManager: setColumnDV(column, value)
activate TableManager
TableManager -> Table: setColumnAllowBlanks(column, value)
activate Table
Table -> Column: setBlanksAllowed(value)
activate Column
opt !canHaveAsColumnAllowBlanks(value)
    Column -> Table: ERROR
    deactivate Column
    Table -> TableManager: ERROR
    deactivate Table
    TableManager -> TableDesignHandler: ERROR
    deactivate TableManager
    TableDesignHandler -> User: ERROR
    deactivate TableDesignHandler
end



@enduml

PlantUML version 1.2017.15(Mon Jul 03 18:45:34 CEST 2017)
(GPL source distribution)
Java Runtime: OpenJDK Runtime Environment
JVM: OpenJDK 64-Bit Server VM
Java Version: 10.0.2+13-Ubuntu-1ubuntu0.18.04.4
Operating System: Linux
OS Version: 4.15.0-46-generic
Default Encoding: UTF-8
Language: en
Country: US
--></g></svg>