<?xml version="1.0" encoding="UTF-8" standalone="no"?><svg xmlns="http://www.w3.org/2000/svg" xmlns:xlink="http://www.w3.org/1999/xlink" contentScriptType="application/ecmascript" contentStyleType="text/css" height="593px" preserveAspectRatio="none" style="width:1317px;height:593px;" version="1.1" viewBox="0 0 1317 593" width="1317px" zoomAndPan="magnify"><defs><filter height="300%" id="ffpb56xcnepvu" width="300%" x="-1" y="-1"><feGaussianBlur result="blurOut" stdDeviation="2.0"/><feColorMatrix in="blurOut" result="blurOut2" type="matrix" values="0 0 0 0 0 0 0 0 0 0 0 0 0 0 0 0 0 0 .4 0"/><feOffset dx="4.0" dy="4.0" in="blurOut2" result="blurOut3"/><feBlend in="SourceGraphic" in2="blurOut3" mode="normal"/></filter></defs><g><text fill="#000000" font-family="sans-serif" font-size="14" font-weight="bold" lengthAdjust="spacingAndGlyphs" textLength="137" x="590.5" y="22.9951">Edit Column Type</text><rect fill="#FFFFFF" filter="url(#ffpb56xcnepvu)" height="349.7578" style="stroke: #A80036; stroke-width: 1.0;" width="10" x="147" y="147.5938"/><rect fill="#FFFFFF" filter="url(#ffpb56xcnepvu)" height="304.4922" style="stroke: #A80036; stroke-width: 1.0;" width="10" x="368" y="176.7266"/><rect fill="#FFFFFF" filter="url(#ffpb56xcnepvu)" height="246.2266" style="stroke: #A80036; stroke-width: 1.0;" width="10" x="663" y="205.8594"/><rect fill="#FFFFFF" filter="url(#ffpb56xcnepvu)" height="187.9609" style="stroke: #A80036; stroke-width: 1.0;" width="10" x="884" y="234.9922"/><rect fill="#FFFFFF" filter="url(#ffpb56xcnepvu)" height="129.6953" style="stroke: #A80036; stroke-width: 1.0;" width="10" x="1001" y="264.125"/><rect fill="#FFFFFF" filter="url(#ffpb56xcnepvu)" height="210.0938" style="stroke: #000000; stroke-width: 2.0;" width="1292" x="13" y="279.2578"/><rect fill="#FEFECE" filter="url(#ffpb56xcnepvu)" height="30.2969" style="stroke: #A80036; stroke-width: 1.5;" width="162" x="1129" y="296.3906"/><text fill="#000000" font-family="sans-serif" font-size="14" lengthAdjust="spacingAndGlyphs" textLength="148" x="1136" y="316.3857">newColumn : Column</text><rect fill="#FFFFFF" height="118.5313" style="stroke: none; stroke-width: 1.0;" width="1292" x="13" y="370.8203"/><line style="stroke: #A80036; stroke-width: 1.0; stroke-dasharray: 5.0,5.0;" x1="42" x2="42" y1="116.5938" y2="506.3516"/><line style="stroke: #A80036; stroke-width: 1.0; stroke-dasharray: 5.0,5.0;" x1="151.5" x2="151.5" y1="116.5938" y2="506.3516"/><line style="stroke: #A80036; stroke-width: 1.0; stroke-dasharray: 5.0,5.0;" x1="373" x2="373" y1="116.5938" y2="506.3516"/><line style="stroke: #A80036; stroke-width: 1.0; stroke-dasharray: 5.0,5.0;" x1="531" x2="531" y1="116.5938" y2="506.3516"/><line style="stroke: #A80036; stroke-width: 1.0; stroke-dasharray: 5.0,5.0;" x1="668" x2="668" y1="116.5938" y2="506.3516"/><line style="stroke: #A80036; stroke-width: 1.0; stroke-dasharray: 5.0,5.0;" x1="889" x2="889" y1="116.5938" y2="506.3516"/><line style="stroke: #A80036; stroke-width: 1.0; stroke-dasharray: 5.0,5.0;" x1="1005.5" x2="1005.5" y1="116.5938" y2="506.3516"/><line style="stroke: #A80036; stroke-width: 1.0; stroke-dasharray: 5.0,5.0;" x1="1212" x2="1212" y1="329.0391" y2="506.3516"/><text fill="#000000" font-family="sans-serif" font-size="14" lengthAdjust="spacingAndGlyphs" textLength="32" x="23" y="113.292">User</text><ellipse cx="42" cy="43.2969" fill="#FEFECE" filter="url(#ffpb56xcnepvu)" rx="8" ry="8" style="stroke: #A80036; stroke-width: 2.0;"/><path d="M42,51.2969 L42,78.2969 M29,59.2969 L55,59.2969 M42,78.2969 L29,93.2969 M42,78.2969 L55,93.2969 " fill="#FEFECE" filter="url(#ffpb56xcnepvu)" style="stroke: #A80036; stroke-width: 2.0;"/><text fill="#000000" font-family="sans-serif" font-size="14" lengthAdjust="spacingAndGlyphs" textLength="32" x="23" y="518.3467">User</text><ellipse cx="42" cy="531.6484" fill="#FEFECE" filter="url(#ffpb56xcnepvu)" rx="8" ry="8" style="stroke: #A80036; stroke-width: 2.0;"/><path d="M42,539.6484 L42,566.6484 M29,547.6484 L55,547.6484 M42,566.6484 L29,581.6484 M42,566.6484 L55,581.6484 " fill="#FEFECE" filter="url(#ffpb56xcnepvu)" style="stroke: #A80036; stroke-width: 2.0;"/><rect fill="#FEFECE" filter="url(#ffpb56xcnepvu)" height="30.2969" style="stroke: #A80036; stroke-width: 1.5;" width="133" x="83.5" y="81.2969"/><text fill="#000000" font-family="sans-serif" font-size="14" lengthAdjust="spacingAndGlyphs" textLength="119" x="90.5" y="101.292">SwitchBoxWidget</text><rect fill="#FEFECE" filter="url(#ffpb56xcnepvu)" height="30.2969" style="stroke: #A80036; stroke-width: 1.5;" width="133" x="83.5" y="505.3516"/><text fill="#000000" font-family="sans-serif" font-size="14" lengthAdjust="spacingAndGlyphs" textLength="119" x="90.5" y="525.3467">SwitchBoxWidget</text><rect fill="#FEFECE" filter="url(#ffpb56xcnepvu)" height="30.2969" style="stroke: #A80036; stroke-width: 1.5;" width="154" x="294" y="81.2969"/><text fill="#000000" font-family="sans-serif" font-size="14" lengthAdjust="spacingAndGlyphs" textLength="140" x="301" y="101.292">TableDesignHandler</text><rect fill="#FEFECE" filter="url(#ffpb56xcnepvu)" height="30.2969" style="stroke: #A80036; stroke-width: 1.5;" width="154" x="294" y="505.3516"/><text fill="#000000" font-family="sans-serif" font-size="14" lengthAdjust="spacingAndGlyphs" textLength="140" x="301" y="525.3467">TableDesignHandler</text><rect fill="#FEFECE" filter="url(#ffpb56xcnepvu)" height="30.2969" style="stroke: #A80036; stroke-width: 1.5;" width="134" x="462" y="81.2969"/><text fill="#000000" font-family="sans-serif" font-size="14" lengthAdjust="spacingAndGlyphs" textLength="120" x="469" y="101.292">UIWindowHandler</text><rect fill="#FEFECE" filter="url(#ffpb56xcnepvu)" height="30.2969" style="stroke: #A80036; stroke-width: 1.5;" width="134" x="462" y="505.3516"/><text fill="#000000" font-family="sans-serif" font-size="14" lengthAdjust="spacingAndGlyphs" textLength="120" x="469" y="525.3467">UIWindowHandler</text><rect fill="#FEFECE" filter="url(#ffpb56xcnepvu)" height="30.2969" style="stroke: #A80036; stroke-width: 1.5;" width="112" x="610" y="81.2969"/><text fill="#000000" font-family="sans-serif" font-size="14" lengthAdjust="spacingAndGlyphs" textLength="98" x="617" y="101.292">TableManager</text><rect fill="#FEFECE" filter="url(#ffpb56xcnepvu)" height="30.2969" style="stroke: #A80036; stroke-width: 1.5;" width="112" x="610" y="505.3516"/><text fill="#000000" font-family="sans-serif" font-size="14" lengthAdjust="spacingAndGlyphs" textLength="98" x="617" y="525.3467">TableManager</text><rect fill="#FEFECE" filter="url(#ffpb56xcnepvu)" height="30.2969" style="stroke: #A80036; stroke-width: 1.5;" width="52" x="861" y="81.2969"/><text fill="#000000" font-family="sans-serif" font-size="14" lengthAdjust="spacingAndGlyphs" textLength="38" x="868" y="101.292">Table</text><rect fill="#FEFECE" filter="url(#ffpb56xcnepvu)" height="30.2969" style="stroke: #A80036; stroke-width: 1.5;" width="52" x="861" y="505.3516"/><text fill="#000000" font-family="sans-serif" font-size="14" lengthAdjust="spacingAndGlyphs" textLength="38" x="868" y="525.3467">Table</text><rect fill="#FEFECE" filter="url(#ffpb56xcnepvu)" height="30.2969" style="stroke: #A80036; stroke-width: 1.5;" width="67" x="970.5" y="81.2969"/><text fill="#000000" font-family="sans-serif" font-size="14" lengthAdjust="spacingAndGlyphs" textLength="53" x="977.5" y="101.292">Column</text><rect fill="#FEFECE" filter="url(#ffpb56xcnepvu)" height="30.2969" style="stroke: #A80036; stroke-width: 1.5;" width="67" x="970.5" y="505.3516"/><text fill="#000000" font-family="sans-serif" font-size="14" lengthAdjust="spacingAndGlyphs" textLength="53" x="977.5" y="525.3467">Column</text><rect fill="#FEFECE" filter="url(#ffpb56xcnepvu)" height="30.2969" style="stroke: #A80036; stroke-width: 1.5;" width="162" x="1129" y="505.3516"/><text fill="#000000" font-family="sans-serif" font-size="14" lengthAdjust="spacingAndGlyphs" textLength="148" x="1136" y="525.3467">newColumn : Column</text><rect fill="#FFFFFF" filter="url(#ffpb56xcnepvu)" height="349.7578" style="stroke: #A80036; stroke-width: 1.0;" width="10" x="147" y="147.5938"/><rect fill="#FFFFFF" filter="url(#ffpb56xcnepvu)" height="304.4922" style="stroke: #A80036; stroke-width: 1.0;" width="10" x="368" y="176.7266"/><rect fill="#FFFFFF" filter="url(#ffpb56xcnepvu)" height="246.2266" style="stroke: #A80036; stroke-width: 1.0;" width="10" x="663" y="205.8594"/><rect fill="#FFFFFF" filter="url(#ffpb56xcnepvu)" height="187.9609" style="stroke: #A80036; stroke-width: 1.0;" width="10" x="884" y="234.9922"/><rect fill="#FFFFFF" filter="url(#ffpb56xcnepvu)" height="129.6953" style="stroke: #A80036; stroke-width: 1.0;" width="10" x="1001" y="264.125"/><polygon fill="#A80036" points="135,143.5938,145,147.5938,135,151.5938,139,147.5938" style="stroke: #A80036; stroke-width: 1.0;"/><line style="stroke: #A80036; stroke-width: 1.0;" x1="42" x2="141" y1="147.5938" y2="147.5938"/><text fill="#000000" font-family="sans-serif" font-size="13" lengthAdjust="spacingAndGlyphs" textLength="86" x="49" y="142.6606">changes type</text><polygon fill="#A80036" points="356,172.7266,366,176.7266,356,180.7266,360,176.7266" style="stroke: #A80036; stroke-width: 1.0;"/><line style="stroke: #A80036; stroke-width: 1.0;" x1="157" x2="362" y1="176.7266" y2="176.7266"/><text fill="#000000" font-family="sans-serif" font-size="13" lengthAdjust="spacingAndGlyphs" textLength="192" x="164" y="171.7935">setColumnType(column, type)</text><polygon fill="#A80036" points="651,201.8594,661,205.8594,651,209.8594,655,205.8594" style="stroke: #A80036; stroke-width: 1.0;"/><line style="stroke: #A80036; stroke-width: 1.0;" x1="378" x2="657" y1="205.8594" y2="205.8594"/><text fill="#000000" font-family="sans-serif" font-size="13" lengthAdjust="spacingAndGlyphs" textLength="192" x="385" y="200.9263">setColumnType(column, type)</text><polygon fill="#A80036" points="872,230.9922,882,234.9922,872,238.9922,876,234.9922" style="stroke: #A80036; stroke-width: 1.0;"/><line style="stroke: #A80036; stroke-width: 1.0;" x1="673" x2="878" y1="234.9922" y2="234.9922"/><text fill="#000000" font-family="sans-serif" font-size="13" lengthAdjust="spacingAndGlyphs" textLength="192" x="680" y="230.0591">setColumnType(column, type)</text><polygon fill="#A80036" points="989,260.125,999,264.125,989,268.125,993,264.125" style="stroke: #A80036; stroke-width: 1.0;"/><line style="stroke: #A80036; stroke-width: 1.0;" x1="894" x2="995" y1="264.125" y2="264.125"/><text fill="#000000" font-family="sans-serif" font-size="13" lengthAdjust="spacingAndGlyphs" textLength="88" x="901" y="259.1919">setType(type)</text><rect fill="none" height="210.0938" style="stroke: #000000; stroke-width: 2.0;" width="1292" x="13" y="279.2578"/><polygon fill="#EEEEEE" points="13,279.2578,77,279.2578,77,286.2578,67,296.2578,13,296.2578,13,279.2578" style="stroke: #000000; stroke-width: 2.0;"/><text fill="#000000" font-family="sans-serif" font-size="13" font-weight="bold" lengthAdjust="spacingAndGlyphs" textLength="19" x="28" y="292.3247">alt</text><text fill="#000000" font-family="sans-serif" font-size="11" font-weight="bold" lengthAdjust="spacingAndGlyphs" textLength="179" x="92" y="291.4683">[canHaveAsType(newType)]</text><polygon fill="#A80036" points="1117,313.3906,1127,317.3906,1117,321.3906,1121,317.3906" style="stroke: #A80036; stroke-width: 1.0;"/><line style="stroke: #A80036; stroke-width: 1.0;" x1="1011" x2="1123" y1="317.3906" y2="317.3906"/><text fill="#000000" font-family="sans-serif" font-size="13" lengthAdjust="spacingAndGlyphs" textLength="94" x="1018" y="312.4575">create Column</text><rect fill="#FEFECE" filter="url(#ffpb56xcnepvu)" height="30.2969" style="stroke: #A80036; stroke-width: 1.5;" width="162" x="1129" y="296.3906"/><text fill="#000000" font-family="sans-serif" font-size="14" lengthAdjust="spacingAndGlyphs" textLength="148" x="1136" y="316.3857">newColumn : Column</text><polygon fill="#A80036" points="905,358.6875,895,362.6875,905,366.6875,901,362.6875" style="stroke: #A80036; stroke-width: 1.0;"/><line style="stroke: #A80036; stroke-width: 1.0; stroke-dasharray: 2.0,2.0;" x1="899" x2="1000" y1="362.6875" y2="362.6875"/><text fill="#000000" font-family="sans-serif" font-size="13" lengthAdjust="spacingAndGlyphs" textLength="74" x="911" y="357.7544">newColumn</text><line style="stroke: #000000; stroke-width: 1.0; stroke-dasharray: 2.0,2.0;" x1="13" x2="1305" y1="371.8203" y2="371.8203"/><polygon fill="#A80036" points="905,389.8203,895,393.8203,905,397.8203,901,393.8203" style="stroke: #A80036; stroke-width: 1.0;"/><line style="stroke: #A80036; stroke-width: 1.0;" x1="899" x2="1005" y1="393.8203" y2="393.8203"/><text fill="#000000" font-family="sans-serif" font-size="13" lengthAdjust="spacingAndGlyphs" textLength="42" x="911" y="388.8872">ERROR</text><polygon fill="#A80036" points="684,418.9531,674,422.9531,684,426.9531,680,422.9531" style="stroke: #A80036; stroke-width: 1.0;"/><line style="stroke: #A80036; stroke-width: 1.0;" x1="678" x2="888" y1="422.9531" y2="422.9531"/><text fill="#000000" font-family="sans-serif" font-size="13" lengthAdjust="spacingAndGlyphs" textLength="42" x="690" y="418.02">ERROR</text><polygon fill="#A80036" points="389,448.0859,379,452.0859,389,456.0859,385,452.0859" style="stroke: #A80036; stroke-width: 1.0;"/><line style="stroke: #A80036; stroke-width: 1.0;" x1="383" x2="667" y1="452.0859" y2="452.0859"/><text fill="#000000" font-family="sans-serif" font-size="13" lengthAdjust="spacingAndGlyphs" textLength="42" x="395" y="447.1528">ERROR</text><polygon fill="#A80036" points="53,477.2188,43,481.2188,53,485.2188,49,481.2188" style="stroke: #A80036; stroke-width: 1.0;"/><line style="stroke: #A80036; stroke-width: 1.0;" x1="47" x2="372" y1="481.2188" y2="481.2188"/><text fill="#000000" font-family="sans-serif" font-size="13" lengthAdjust="spacingAndGlyphs" textLength="42" x="59" y="476.2856">ERROR</text><!--
@startuml
title Edit Column Type
Actor User



User -> SwitchBoxWidget: changes type
activate SwitchBoxWidget
SwitchBoxWidget -> TableDesignHandler: setColumnType(column, type)
deactivate UIWindowHandler

activate TableDesignHandler
TableDesignHandler -> TableManager: setColumnType(column, type)
activate TableManager
TableManager -> Table: setColumnType(column, type)
activate Table
Table -> Column: setType(type)
activate Column

alt canHaveAsType(newType)
    create "newColumn : Column"
    Column -> "newColumn : Column": create Column
    Column - -> Table: newColumn
else
    Column -> Table: ERROR
    deactivate Column
    Table -> TableManager: ERROR
    deactivate Table
    TableManager -> TableDesignHandler: ERROR
    deactivate TableManager
    TableDesignHandler -> User: ERROR
    deactivate TableDesignHandler
end





@enduml

PlantUML version 1.2017.15(Mon Jul 03 18:45:34 CEST 2017)
(GPL source distribution)
Java Runtime: OpenJDK Runtime Environment
JVM: OpenJDK 64-Bit Server VM
Java Version: 10.0.2+13-Ubuntu-1ubuntu0.18.04.4
Operating System: Linux
OS Version: 4.15.0-46-generic
Default Encoding: UTF-8
Language: en
Country: US
--></g></svg>