<?xml version="1.0" encoding="UTF-8" standalone="no"?><svg xmlns="http://www.w3.org/2000/svg" xmlns:xlink="http://www.w3.org/1999/xlink" contentScriptType="application/ecmascript" contentStyleType="text/css" height="530px" preserveAspectRatio="none" style="width:609px;height:530px;" version="1.1" viewBox="0 0 609 530" width="609px" zoomAndPan="magnify"><defs><filter height="300%" id="fphii0vgqb8c3" width="300%" x="-1" y="-1"><feGaussianBlur result="blurOut" stdDeviation="2.0"/><feColorMatrix in="blurOut" result="blurOut2" type="matrix" values="0 0 0 0 0 0 0 0 0 0 0 0 0 0 0 0 0 0 .4 0"/><feOffset dx="4.0" dy="4.0" in="blurOut2" result="blurOut3"/><feBlend in="SourceGraphic" in2="blurOut3" mode="normal"/></filter></defs><g><rect fill="#FFFFFF" filter="url(#fphii0vgqb8c3)" height="315.7344" style="stroke: #A80036; stroke-width: 1.0;" width="10" x="139" y="117.2969"/><rect fill="#FFFFFF" filter="url(#fphii0vgqb8c3)" height="30" style="stroke: #A80036; stroke-width: 1.0;" width="10" x="305" y="146.4297"/><rect fill="#FFFFFF" filter="url(#fphii0vgqb8c3)" height="30" style="stroke: #A80036; stroke-width: 1.0;" width="10" x="403" y="271.8281"/><rect fill="#FFFFFF" filter="url(#fphii0vgqb8c3)" height="30" style="stroke: #A80036; stroke-width: 1.0;" width="10" x="527.5" y="387.8984"/><rect fill="#FFFFFF" filter="url(#fphii0vgqb8c3)" height="234.4688" style="stroke: #000000; stroke-width: 2.0;" width="517.5" x="79.5" y="191.5625"/><rect fill="#FFFFFF" height="116.0703" style="stroke: none; stroke-width: 1.0;" width="517.5" x="79.5" y="309.9609"/><line style="stroke: #A80036; stroke-width: 1.0; stroke-dasharray: 5.0,5.0;" x1="27" x2="27" y1="86.2969" y2="443.0313"/><line style="stroke: #A80036; stroke-width: 1.0; stroke-dasharray: 5.0,5.0;" x1="143.5" x2="143.5" y1="86.2969" y2="443.0313"/><line style="stroke: #A80036; stroke-width: 1.0; stroke-dasharray: 5.0,5.0;" x1="310" x2="310" y1="86.2969" y2="443.0313"/><line style="stroke: #A80036; stroke-width: 1.0; stroke-dasharray: 5.0,5.0;" x1="408" x2="408" y1="86.2969" y2="443.0313"/><line style="stroke: #A80036; stroke-width: 1.0; stroke-dasharray: 5.0,5.0;" x1="532" x2="532" y1="86.2969" y2="443.0313"/><text fill="#000000" font-family="sans-serif" font-size="14" lengthAdjust="spacingAndGlyphs" textLength="32" x="8" y="82.9951">User</text><ellipse cx="27" cy="13" fill="#FEFECE" filter="url(#fphii0vgqb8c3)" rx="8" ry="8" style="stroke: #A80036; stroke-width: 2.0;"/><path d="M27,21 L27,48 M14,29 L40,29 M27,48 L14,63 M27,48 L40,63 " fill="#FEFECE" filter="url(#fphii0vgqb8c3)" style="stroke: #A80036; stroke-width: 2.0;"/><text fill="#000000" font-family="sans-serif" font-size="14" lengthAdjust="spacingAndGlyphs" textLength="32" x="8" y="455.0264">User</text><ellipse cx="27" cy="468.3281" fill="#FEFECE" filter="url(#fphii0vgqb8c3)" rx="8" ry="8" style="stroke: #A80036; stroke-width: 2.0;"/><path d="M27,476.3281 L27,503.3281 M14,484.3281 L40,484.3281 M27,503.3281 L14,518.3281 M27,503.3281 L40,518.3281 " fill="#FEFECE" filter="url(#fphii0vgqb8c3)" style="stroke: #A80036; stroke-width: 2.0;"/><rect fill="#FEFECE" filter="url(#fphii0vgqb8c3)" height="30.2969" style="stroke: #A80036; stroke-width: 1.5;" width="105" x="89.5" y="51"/><text fill="#000000" font-family="sans-serif" font-size="14" lengthAdjust="spacingAndGlyphs" textLength="91" x="96.5" y="70.9951">TableHandler</text><rect fill="#FEFECE" filter="url(#fphii0vgqb8c3)" height="30.2969" style="stroke: #A80036; stroke-width: 1.5;" width="105" x="89.5" y="442.0313"/><text fill="#000000" font-family="sans-serif" font-size="14" lengthAdjust="spacingAndGlyphs" textLength="91" x="96.5" y="462.0264">TableHandler</text><rect fill="#FEFECE" filter="url(#fphii0vgqb8c3)" height="30.2969" style="stroke: #A80036; stroke-width: 1.5;" width="52" x="282" y="51"/><text fill="#000000" font-family="sans-serif" font-size="14" lengthAdjust="spacingAndGlyphs" textLength="38" x="289" y="70.9951">Table</text><rect fill="#FEFECE" filter="url(#fphii0vgqb8c3)" height="30.2969" style="stroke: #A80036; stroke-width: 1.5;" width="52" x="282" y="442.0313"/><text fill="#000000" font-family="sans-serif" font-size="14" lengthAdjust="spacingAndGlyphs" textLength="38" x="289" y="462.0264">Table</text><rect fill="#FEFECE" filter="url(#fphii0vgqb8c3)" height="30.2969" style="stroke: #A80036; stroke-width: 1.5;" width="116" x="348" y="51"/><text fill="#000000" font-family="sans-serif" font-size="14" lengthAdjust="spacingAndGlyphs" textLength="102" x="355" y="70.9951">DesignHandler</text><rect fill="#FEFECE" filter="url(#fphii0vgqb8c3)" height="30.2969" style="stroke: #A80036; stroke-width: 1.5;" width="116" x="348" y="442.0313"/><text fill="#000000" font-family="sans-serif" font-size="14" lengthAdjust="spacingAndGlyphs" textLength="102" x="355" y="462.0264">DesignHandler</text><rect fill="#FEFECE" filter="url(#fphii0vgqb8c3)" height="30.2969" style="stroke: #A80036; stroke-width: 1.5;" width="105" x="478" y="51"/><text fill="#000000" font-family="sans-serif" font-size="14" lengthAdjust="spacingAndGlyphs" textLength="91" x="485" y="70.9951">RowsHandler</text><rect fill="#FEFECE" filter="url(#fphii0vgqb8c3)" height="30.2969" style="stroke: #A80036; stroke-width: 1.5;" width="105" x="478" y="442.0313"/><text fill="#000000" font-family="sans-serif" font-size="14" lengthAdjust="spacingAndGlyphs" textLength="91" x="485" y="462.0264">RowsHandler</text><rect fill="#FFFFFF" filter="url(#fphii0vgqb8c3)" height="315.7344" style="stroke: #A80036; stroke-width: 1.0;" width="10" x="139" y="117.2969"/><rect fill="#FFFFFF" filter="url(#fphii0vgqb8c3)" height="30" style="stroke: #A80036; stroke-width: 1.0;" width="10" x="305" y="146.4297"/><rect fill="#FFFFFF" filter="url(#fphii0vgqb8c3)" height="30" style="stroke: #A80036; stroke-width: 1.0;" width="10" x="403" y="271.8281"/><rect fill="#FFFFFF" filter="url(#fphii0vgqb8c3)" height="30" style="stroke: #A80036; stroke-width: 1.0;" width="10" x="527.5" y="387.8984"/><polygon fill="#A80036" points="127,113.2969,137,117.2969,127,121.2969,131,117.2969" style="stroke: #A80036; stroke-width: 1.0;"/><line style="stroke: #A80036; stroke-width: 1.0;" x1="27" x2="133" y1="117.2969" y2="117.2969"/><text fill="#000000" font-family="sans-serif" font-size="13" lengthAdjust="spacingAndGlyphs" textLength="93" x="34" y="112.3638">isEmpty(table)</text><polygon fill="#A80036" points="293,142.4297,303,146.4297,293,150.4297,297,146.4297" style="stroke: #A80036; stroke-width: 1.0;"/><line style="stroke: #A80036; stroke-width: 1.0;" x1="149" x2="299" y1="146.4297" y2="146.4297"/><text fill="#000000" font-family="sans-serif" font-size="13" lengthAdjust="spacingAndGlyphs" textLength="61" x="156" y="141.4966">isEmpty()</text><rect fill="none" height="234.4688" style="stroke: #000000; stroke-width: 2.0;" width="517.5" x="79.5" y="191.5625"/><polygon fill="#EEEEEE" points="79.5,191.5625,143.5,191.5625,143.5,198.5625,133.5,208.5625,79.5,208.5625,79.5,191.5625" style="stroke: #000000; stroke-width: 2.0;"/><text fill="#000000" font-family="sans-serif" font-size="13" font-weight="bold" lengthAdjust="spacingAndGlyphs" textLength="19" x="94.5" y="204.6294">alt</text><text fill="#000000" font-family="sans-serif" font-size="11" font-weight="bold" lengthAdjust="spacingAndGlyphs" textLength="49" x="158.5" y="203.7729">[empty]</text><line style="stroke: #A80036; stroke-width: 1.0;" x1="149" x2="191" y1="229.8281" y2="229.8281"/><line style="stroke: #A80036; stroke-width: 1.0;" x1="191" x2="191" y1="229.8281" y2="242.8281"/><line style="stroke: #A80036; stroke-width: 1.0;" x1="150" x2="191" y1="242.8281" y2="242.8281"/><polygon fill="#A80036" points="160,238.8281,150,242.8281,160,246.8281,156,242.8281" style="stroke: #A80036; stroke-width: 1.0;"/><text fill="#000000" font-family="sans-serif" font-size="13" lengthAdjust="spacingAndGlyphs" textLength="142" x="156" y="224.7622">setMode(designMode)</text><polygon fill="#A80036" points="391,267.8281,401,271.8281,391,275.8281,395,271.8281" style="stroke: #A80036; stroke-width: 1.0;"/><line style="stroke: #A80036; stroke-width: 1.0;" x1="149" x2="397" y1="271.8281" y2="271.8281"/><text fill="#000000" font-family="sans-serif" font-size="13" lengthAdjust="spacingAndGlyphs" textLength="96" x="156" y="266.895">setTable(table)</text><line style="stroke: #000000; stroke-width: 1.0; stroke-dasharray: 2.0,2.0;" x1="79.5" x2="597" y1="310.9609" y2="310.9609"/><text fill="#000000" font-family="sans-serif" font-size="11" font-weight="bold" lengthAdjust="spacingAndGlyphs" textLength="54" x="84.5" y="321.1714">[!empty]</text><line style="stroke: #A80036; stroke-width: 1.0;" x1="149" x2="191" y1="345.8984" y2="345.8984"/><line style="stroke: #A80036; stroke-width: 1.0;" x1="191" x2="191" y1="345.8984" y2="358.8984"/><line style="stroke: #A80036; stroke-width: 1.0;" x1="150" x2="191" y1="358.8984" y2="358.8984"/><polygon fill="#A80036" points="160,354.8984,150,358.8984,160,362.8984,156,358.8984" style="stroke: #A80036; stroke-width: 1.0;"/><text fill="#000000" font-family="sans-serif" font-size="13" lengthAdjust="spacingAndGlyphs" textLength="129" x="156" y="340.8325">setMode(rowsMode)</text><polygon fill="#A80036" points="515.5,383.8984,525.5,387.8984,515.5,391.8984,519.5,387.8984" style="stroke: #A80036; stroke-width: 1.0;"/><line style="stroke: #A80036; stroke-width: 1.0;" x1="149" x2="521.5" y1="387.8984" y2="387.8984"/><text fill="#000000" font-family="sans-serif" font-size="13" lengthAdjust="spacingAndGlyphs" textLength="96" x="156" y="382.9653">setTable(table)</text><!--
@startuml
actor User

User -> TableHandler: isEmpty(table)
activate TableHandler
TableHandler -> Table: isEmpty()
activate Table
deactivate Table
alt empty
    TableHandler -> TableHandler: setMode(designMode)
    TableHandler -> DesignHandler: setTable(table)
    activate DesignHandler
    deactivate DesignHandler
else !empty
    TableHandler -> TableHandler: setMode(rowsMode)
    TableHandler -> RowsHandler: setTable(table)
    activate RowsHandler
    deactivate RowsHandler
end
deactivate TableHandler



@enduml

PlantUML version 1.2017.15(Mon Jul 03 18:45:34 CEST 2017)
(GPL source distribution)
Java Runtime: OpenJDK Runtime Environment
JVM: OpenJDK 64-Bit Server VM
Java Version: 10.0.2+13-Ubuntu-1ubuntu0.18.04.4
Operating System: Linux
OS Version: 4.15.0-46-generic
Default Encoding: UTF-8
Language: en
Country: US
--></g></svg>