<?xml version="1.0" encoding="UTF-8" standalone="no"?><svg xmlns="http://www.w3.org/2000/svg" xmlns:xlink="http://www.w3.org/1999/xlink" contentScriptType="application/ecmascript" contentStyleType="text/css" height="539px" preserveAspectRatio="none" style="width:1206px;height:539px;" version="1.1" viewBox="0 0 1206 539" width="1206px" zoomAndPan="magnify"><defs><filter height="300%" id="f84ndqa131apa" width="300%" x="-1" y="-1"><feGaussianBlur result="blurOut" stdDeviation="2.0"/><feColorMatrix in="blurOut" result="blurOut2" type="matrix" values="0 0 0 0 0 0 0 0 0 0 0 0 0 0 0 0 0 0 .4 0"/><feOffset dx="4.0" dy="4.0" in="blurOut2" result="blurOut3"/><feBlend in="SourceGraphic" in2="blurOut3" mode="normal"/></filter></defs><g><rect fill="#FFFFFF" filter="url(#f84ndqa131apa)" height="29.1328" style="stroke: #A80036; stroke-width: 1.0;" width="10" x="189" y="117.2969"/><rect fill="#FFFFFF" filter="url(#f84ndqa131apa)" height="153.7969" style="stroke: #FFFFFF; stroke-width: 1.0;" width="10" x="522" y="175.5625"/><line style="stroke: #A80036; stroke-width: 1.0;" x1="522" x2="522" y1="175.5625" y2="329.3594"/><line style="stroke: #A80036; stroke-width: 1.0;" x1="532" x2="532" y1="175.5625" y2="329.3594"/><line style="stroke: #A80036; stroke-width: 1.0;" x1="522" x2="532" y1="175.5625" y2="175.5625"/><rect fill="#FFFFFF" filter="url(#f84ndqa131apa)" height="70.1328" style="stroke: #FFFFFF; stroke-width: 1.0;" width="10" x="522" y="357.3594"/><line style="stroke: #A80036; stroke-width: 1.0;" x1="522" x2="522" y1="357.3594" y2="427.4922"/><line style="stroke: #A80036; stroke-width: 1.0;" x1="532" x2="532" y1="357.3594" y2="427.4922"/><line style="stroke: #A80036; stroke-width: 1.0;" x1="522" x2="532" y1="427.4922" y2="427.4922"/><rect fill="#FFFFFF" filter="url(#f84ndqa131apa)" height="29.1328" style="stroke: #A80036; stroke-width: 1.0;" width="10" x="825" y="175.5625"/><rect fill="#FFFFFF" filter="url(#f84ndqa131apa)" height="29.1328" style="stroke: #A80036; stroke-width: 1.0;" width="10" x="825" y="233.8281"/><rect fill="#FFFFFF" filter="url(#f84ndqa131apa)" height="37.2656" style="stroke: #FFFFFF; stroke-width: 1.0;" width="10" x="963.5" y="292.0938"/><line style="stroke: #A80036; stroke-width: 1.0;" x1="963.5" x2="963.5" y1="292.0938" y2="329.3594"/><line style="stroke: #A80036; stroke-width: 1.0;" x1="973.5" x2="973.5" y1="292.0938" y2="329.3594"/><line style="stroke: #A80036; stroke-width: 1.0;" x1="963.5" x2="973.5" y1="292.0938" y2="292.0938"/><rect fill="#FFFFFF" filter="url(#f84ndqa131apa)" height="35" style="stroke: #FFFFFF; stroke-width: 1.0;" width="10" x="963.5" y="357.3594"/><line style="stroke: #A80036; stroke-width: 1.0;" x1="963.5" x2="963.5" y1="357.3594" y2="392.3594"/><line style="stroke: #A80036; stroke-width: 1.0;" x1="973.5" x2="973.5" y1="357.3594" y2="392.3594"/><line style="stroke: #A80036; stroke-width: 1.0;" x1="963.5" x2="973.5" y1="392.3594" y2="392.3594"/><rect fill="#FFFFFF" filter="url(#f84ndqa131apa)" height="8.1328" style="stroke: #FFFFFF; stroke-width: 1.0;" width="10" x="1121" y="321.2266"/><line style="stroke: #A80036; stroke-width: 1.0;" x1="1121" x2="1121" y1="321.2266" y2="329.3594"/><line style="stroke: #A80036; stroke-width: 1.0;" x1="1131" x2="1131" y1="321.2266" y2="329.3594"/><line style="stroke: #A80036; stroke-width: 1.0;" x1="1121" x2="1131" y1="321.2266" y2="321.2266"/><rect fill="#FFFFFF" filter="url(#f84ndqa131apa)" height="6" style="stroke: #FFFFFF; stroke-width: 1.0;" width="10" x="1121" y="357.3594"/><line style="stroke: #A80036; stroke-width: 1.0;" x1="1121" x2="1121" y1="357.3594" y2="363.3594"/><line style="stroke: #A80036; stroke-width: 1.0;" x1="1131" x2="1131" y1="357.3594" y2="363.3594"/><line style="stroke: #A80036; stroke-width: 1.0;" x1="1121" x2="1131" y1="363.3594" y2="363.3594"/><line style="stroke: #A80036; stroke-width: 1.0;" x1="27" x2="27" y1="86.2969" y2="329.3594"/><line style="stroke: #A80036; stroke-width: 1.0; stroke-dasharray: 1.0,4.0;" x1="27" x2="27" y1="329.3594" y2="357.3594"/><line style="stroke: #A80036; stroke-width: 1.0;" x1="27" x2="27" y1="357.3594" y2="452.625"/><line style="stroke: #A80036; stroke-width: 1.0;" x1="193.5" x2="193.5" y1="86.2969" y2="329.3594"/><line style="stroke: #A80036; stroke-width: 1.0; stroke-dasharray: 1.0,4.0;" x1="193.5" x2="193.5" y1="329.3594" y2="357.3594"/><line style="stroke: #A80036; stroke-width: 1.0;" x1="193.5" x2="193.5" y1="357.3594" y2="452.625"/><line style="stroke: #A80036; stroke-width: 1.0;" x1="527" x2="527" y1="86.2969" y2="329.3594"/><line style="stroke: #A80036; stroke-width: 1.0; stroke-dasharray: 1.0,4.0;" x1="527" x2="527" y1="329.3594" y2="357.3594"/><line style="stroke: #A80036; stroke-width: 1.0;" x1="527" x2="527" y1="357.3594" y2="452.625"/><line style="stroke: #A80036; stroke-width: 1.0;" x1="829.5" x2="829.5" y1="86.2969" y2="329.3594"/><line style="stroke: #A80036; stroke-width: 1.0; stroke-dasharray: 1.0,4.0;" x1="829.5" x2="829.5" y1="329.3594" y2="357.3594"/><line style="stroke: #A80036; stroke-width: 1.0;" x1="829.5" x2="829.5" y1="357.3594" y2="452.625"/><line style="stroke: #A80036; stroke-width: 1.0;" x1="968.5" x2="968.5" y1="86.2969" y2="329.3594"/><line style="stroke: #A80036; stroke-width: 1.0; stroke-dasharray: 1.0,4.0;" x1="968.5" x2="968.5" y1="329.3594" y2="357.3594"/><line style="stroke: #A80036; stroke-width: 1.0;" x1="968.5" x2="968.5" y1="357.3594" y2="452.625"/><line style="stroke: #A80036; stroke-width: 1.0;" x1="1125.5" x2="1125.5" y1="86.2969" y2="329.3594"/><line style="stroke: #A80036; stroke-width: 1.0; stroke-dasharray: 1.0,4.0;" x1="1125.5" x2="1125.5" y1="329.3594" y2="357.3594"/><line style="stroke: #A80036; stroke-width: 1.0;" x1="1125.5" x2="1125.5" y1="357.3594" y2="452.625"/><text fill="#000000" font-family="sans-serif" font-size="14" lengthAdjust="spacingAndGlyphs" textLength="32" x="8" y="82.9951">User</text><ellipse cx="27" cy="13" fill="#FEFECE" filter="url(#f84ndqa131apa)" rx="8" ry="8" style="stroke: #A80036; stroke-width: 2.0;"/><path d="M27,21 L27,48 M14,29 L40,29 M27,48 L14,63 M27,48 L40,63 " fill="#FEFECE" filter="url(#f84ndqa131apa)" style="stroke: #A80036; stroke-width: 2.0;"/><text fill="#000000" font-family="sans-serif" font-size="14" lengthAdjust="spacingAndGlyphs" textLength="32" x="8" y="464.6201">User</text><ellipse cx="27" cy="477.9219" fill="#FEFECE" filter="url(#f84ndqa131apa)" rx="8" ry="8" style="stroke: #A80036; stroke-width: 2.0;"/><path d="M27,485.9219 L27,512.9219 M14,493.9219 L40,493.9219 M27,512.9219 L14,527.9219 M27,512.9219 L40,527.9219 " fill="#FEFECE" filter="url(#f84ndqa131apa)" style="stroke: #A80036; stroke-width: 2.0;"/><rect fill="#FEFECE" filter="url(#f84ndqa131apa)" height="30.2969" style="stroke: #A80036; stroke-width: 1.5;" width="109" x="137.5" y="51"/><text fill="#000000" font-family="sans-serif" font-size="14" lengthAdjust="spacingAndGlyphs" textLength="95" x="144.5" y="70.9951">ButtonWidget</text><rect fill="#FEFECE" filter="url(#f84ndqa131apa)" height="30.2969" style="stroke: #A80036; stroke-width: 1.5;" width="109" x="137.5" y="451.625"/><text fill="#000000" font-family="sans-serif" font-size="14" lengthAdjust="spacingAndGlyphs" textLength="95" x="144.5" y="471.6201">ButtonWidget</text><rect fill="#FEFECE" filter="url(#f84ndqa131apa)" height="30.2969" style="stroke: #A80036; stroke-width: 1.5;" width="134" x="458" y="51"/><text fill="#000000" font-family="sans-serif" font-size="14" lengthAdjust="spacingAndGlyphs" textLength="120" x="465" y="70.9951">UIWindowHandler</text><rect fill="#FEFECE" filter="url(#f84ndqa131apa)" height="30.2969" style="stroke: #A80036; stroke-width: 1.5;" width="134" x="458" y="451.625"/><text fill="#000000" font-family="sans-serif" font-size="14" lengthAdjust="spacingAndGlyphs" textLength="120" x="465" y="471.6201">UIWindowHandler</text><rect fill="#FEFECE" filter="url(#f84ndqa131apa)" height="30.2969" style="stroke: #A80036; stroke-width: 1.5;" width="105" x="775.5" y="51"/><text fill="#000000" font-family="sans-serif" font-size="14" lengthAdjust="spacingAndGlyphs" textLength="91" x="782.5" y="70.9951">TableHandler</text><rect fill="#FEFECE" filter="url(#f84ndqa131apa)" height="30.2969" style="stroke: #A80036; stroke-width: 1.5;" width="105" x="775.5" y="451.625"/><text fill="#000000" font-family="sans-serif" font-size="14" lengthAdjust="spacingAndGlyphs" textLength="91" x="782.5" y="471.6201">TableHandler</text><rect fill="#FEFECE" filter="url(#f84ndqa131apa)" height="30.2969" style="stroke: #A80036; stroke-width: 1.5;" width="144" x="894.5" y="51"/><text fill="#000000" font-family="sans-serif" font-size="14" lengthAdjust="spacingAndGlyphs" textLength="130" x="901.5" y="70.9951">TableRowsWindow</text><rect fill="#FEFECE" filter="url(#f84ndqa131apa)" height="30.2969" style="stroke: #A80036; stroke-width: 1.5;" width="144" x="894.5" y="451.625"/><text fill="#000000" font-family="sans-serif" font-size="14" lengthAdjust="spacingAndGlyphs" textLength="130" x="901.5" y="471.6201">TableRowsWindow</text><rect fill="#FEFECE" filter="url(#f84ndqa131apa)" height="30.2969" style="stroke: #A80036; stroke-width: 1.5;" width="143" x="1052.5" y="51"/><text fill="#000000" font-family="sans-serif" font-size="14" lengthAdjust="spacingAndGlyphs" textLength="129" x="1059.5" y="70.9951">TableRowsHandler</text><rect fill="#FEFECE" filter="url(#f84ndqa131apa)" height="30.2969" style="stroke: #A80036; stroke-width: 1.5;" width="143" x="1052.5" y="451.625"/><text fill="#000000" font-family="sans-serif" font-size="14" lengthAdjust="spacingAndGlyphs" textLength="129" x="1059.5" y="471.6201">TableRowsHandler</text><rect fill="#FFFFFF" filter="url(#f84ndqa131apa)" height="29.1328" style="stroke: #A80036; stroke-width: 1.0;" width="10" x="189" y="117.2969"/><rect fill="#FFFFFF" filter="url(#f84ndqa131apa)" height="153.7969" style="stroke: #FFFFFF; stroke-width: 1.0;" width="10" x="522" y="175.5625"/><line style="stroke: #A80036; stroke-width: 1.0;" x1="522" x2="522" y1="175.5625" y2="329.3594"/><line style="stroke: #A80036; stroke-width: 1.0;" x1="532" x2="532" y1="175.5625" y2="329.3594"/><line style="stroke: #A80036; stroke-width: 1.0;" x1="522" x2="532" y1="175.5625" y2="175.5625"/><rect fill="#FFFFFF" filter="url(#f84ndqa131apa)" height="70.1328" style="stroke: #FFFFFF; stroke-width: 1.0;" width="10" x="522" y="357.3594"/><line style="stroke: #A80036; stroke-width: 1.0;" x1="522" x2="522" y1="357.3594" y2="427.4922"/><line style="stroke: #A80036; stroke-width: 1.0;" x1="532" x2="532" y1="357.3594" y2="427.4922"/><line style="stroke: #A80036; stroke-width: 1.0;" x1="522" x2="532" y1="427.4922" y2="427.4922"/><rect fill="#FFFFFF" filter="url(#f84ndqa131apa)" height="29.1328" style="stroke: #A80036; stroke-width: 1.0;" width="10" x="825" y="175.5625"/><rect fill="#FFFFFF" filter="url(#f84ndqa131apa)" height="29.1328" style="stroke: #A80036; stroke-width: 1.0;" width="10" x="825" y="233.8281"/><rect fill="#FFFFFF" filter="url(#f84ndqa131apa)" height="37.2656" style="stroke: #FFFFFF; stroke-width: 1.0;" width="10" x="963.5" y="292.0938"/><line style="stroke: #A80036; stroke-width: 1.0;" x1="963.5" x2="963.5" y1="292.0938" y2="329.3594"/><line style="stroke: #A80036; stroke-width: 1.0;" x1="973.5" x2="973.5" y1="292.0938" y2="329.3594"/><line style="stroke: #A80036; stroke-width: 1.0;" x1="963.5" x2="973.5" y1="292.0938" y2="292.0938"/><rect fill="#FFFFFF" filter="url(#f84ndqa131apa)" height="35" style="stroke: #FFFFFF; stroke-width: 1.0;" width="10" x="963.5" y="357.3594"/><line style="stroke: #A80036; stroke-width: 1.0;" x1="963.5" x2="963.5" y1="357.3594" y2="392.3594"/><line style="stroke: #A80036; stroke-width: 1.0;" x1="973.5" x2="973.5" y1="357.3594" y2="392.3594"/><line style="stroke: #A80036; stroke-width: 1.0;" x1="963.5" x2="973.5" y1="392.3594" y2="392.3594"/><rect fill="#FFFFFF" filter="url(#f84ndqa131apa)" height="8.1328" style="stroke: #FFFFFF; stroke-width: 1.0;" width="10" x="1121" y="321.2266"/><line style="stroke: #A80036; stroke-width: 1.0;" x1="1121" x2="1121" y1="321.2266" y2="329.3594"/><line style="stroke: #A80036; stroke-width: 1.0;" x1="1131" x2="1131" y1="321.2266" y2="329.3594"/><line style="stroke: #A80036; stroke-width: 1.0;" x1="1121" x2="1131" y1="321.2266" y2="321.2266"/><rect fill="#FFFFFF" filter="url(#f84ndqa131apa)" height="6" style="stroke: #FFFFFF; stroke-width: 1.0;" width="10" x="1121" y="357.3594"/><line style="stroke: #A80036; stroke-width: 1.0;" x1="1121" x2="1121" y1="357.3594" y2="363.3594"/><line style="stroke: #A80036; stroke-width: 1.0;" x1="1131" x2="1131" y1="357.3594" y2="363.3594"/><line style="stroke: #A80036; stroke-width: 1.0;" x1="1121" x2="1131" y1="363.3594" y2="363.3594"/><polygon fill="#A80036" points="177,113.2969,187,117.2969,177,121.2969,181,117.2969" style="stroke: #A80036; stroke-width: 1.0;"/><line style="stroke: #A80036; stroke-width: 1.0; stroke-dasharray: 2.0,2.0;" x1="27" x2="183" y1="117.2969" y2="117.2969"/><text fill="#000000" font-family="sans-serif" font-size="13" lengthAdjust="spacingAndGlyphs" textLength="143" x="34" y="112.3638">handleMouseEvent(...)</text><polygon fill="#A80036" points="515,142.4297,525,146.4297,515,150.4297,519,146.4297" style="stroke: #A80036; stroke-width: 1.0;"/><line style="stroke: #A80036; stroke-width: 1.0;" x1="194" x2="521" y1="146.4297" y2="146.4297"/><text fill="#000000" font-family="sans-serif" font-size="13" lengthAdjust="spacingAndGlyphs" textLength="304" x="201" y="141.4966">switchToTableRowsWindow(selectedTableName)</text><polygon fill="#A80036" points="813,171.5625,823,175.5625,813,179.5625,817,175.5625" style="stroke: #A80036; stroke-width: 1.0;"/><line style="stroke: #A80036; stroke-width: 1.0;" x1="532" x2="819" y1="175.5625" y2="175.5625"/><text fill="#000000" font-family="sans-serif" font-size="13" lengthAdjust="spacingAndGlyphs" textLength="222" x="539" y="170.6294">isEmptyTable(selectedTableName)</text><polygon fill="#A80036" points="543,200.6953,533,204.6953,543,208.6953,539,204.6953" style="stroke: #A80036; stroke-width: 1.0;"/><line style="stroke: #A80036; stroke-width: 1.0; stroke-dasharray: 2.0,2.0;" x1="537" x2="829" y1="204.6953" y2="204.6953"/><text fill="#000000" font-family="sans-serif" font-size="13" lengthAdjust="spacingAndGlyphs" textLength="33" x="549" y="199.7622">False</text><polygon fill="#A80036" points="813,229.8281,823,233.8281,813,237.8281,817,233.8281" style="stroke: #A80036; stroke-width: 1.0;"/><line style="stroke: #A80036; stroke-width: 1.0;" x1="532" x2="819" y1="233.8281" y2="233.8281"/><text fill="#000000" font-family="sans-serif" font-size="13" lengthAdjust="spacingAndGlyphs" textLength="274" x="539" y="228.895">getTableRowsHandler(selectedTableName)</text><polygon fill="#A80036" points="543,258.9609,533,262.9609,543,266.9609,539,262.9609" style="stroke: #A80036; stroke-width: 1.0;"/><line style="stroke: #A80036; stroke-width: 1.0; stroke-dasharray: 2.0,2.0;" x1="537" x2="829" y1="262.9609" y2="262.9609"/><text fill="#000000" font-family="sans-serif" font-size="13" lengthAdjust="spacingAndGlyphs" textLength="114" x="549" y="258.0278">tableRowsHandler</text><polygon fill="#A80036" points="951.5,288.0938,961.5,292.0938,951.5,296.0938,955.5,292.0938" style="stroke: #A80036; stroke-width: 1.0;"/><line style="stroke: #A80036; stroke-width: 1.0;" x1="532" x2="957.5" y1="292.0938" y2="292.0938"/><text fill="#000000" font-family="sans-serif" font-size="13" lengthAdjust="spacingAndGlyphs" textLength="188" x="539" y="287.1606">getLayout(tableRowsHandler)</text><polygon fill="#A80036" points="1109,317.2266,1119,321.2266,1109,325.2266,1113,321.2266" style="stroke: #A80036; stroke-width: 1.0;"/><line style="stroke: #A80036; stroke-width: 1.0;" x1="973.5" x2="1115" y1="321.2266" y2="321.2266"/><text fill="#000000" font-family="sans-serif" font-size="13" lengthAdjust="spacingAndGlyphs" textLength="63" x="980.5" y="316.2935">getRows()</text><polygon fill="#A80036" points="984.5,359.3594,974.5,363.3594,984.5,367.3594,980.5,363.3594" style="stroke: #A80036; stroke-width: 1.0;"/><line style="stroke: #A80036; stroke-width: 1.0; stroke-dasharray: 2.0,2.0;" x1="978.5" x2="1125" y1="363.3594" y2="363.3594"/><polygon fill="#A80036" points="543,388.3594,533,392.3594,543,396.3594,539,392.3594" style="stroke: #A80036; stroke-width: 1.0;"/><line style="stroke: #A80036; stroke-width: 1.0; stroke-dasharray: 2.0,2.0;" x1="537" x2="967.5" y1="392.3594" y2="392.3594"/><text fill="#000000" font-family="sans-serif" font-size="13" lengthAdjust="spacingAndGlyphs" textLength="39" x="549" y="387.4263">layout</text><line style="stroke: #A80036; stroke-width: 1.0;" x1="532" x2="574" y1="426.625" y2="426.625"/><line style="stroke: #A80036; stroke-width: 1.0;" x1="574" x2="574" y1="426.625" y2="439.625"/><line style="stroke: #A80036; stroke-width: 1.0;" x1="527" x2="574" y1="439.625" y2="439.625"/><polygon fill="#A80036" points="537,435.625,527,439.625,537,443.625,533,439.625" style="stroke: #A80036; stroke-width: 1.0;"/><text fill="#000000" font-family="sans-serif" font-size="13" lengthAdjust="spacingAndGlyphs" textLength="112" x="539" y="421.5591">setLayout(layout)</text><!--
@startuml
Actor User
User - -> ButtonWidget: handleMouseEvent(...)
activate ButtonWidget

ButtonWidget -> UIWindowHandler: switchToTableRowsWindow(selectedTableName)
deactivate ButtonWidget
UIWindowHandler -> TableHandler: isEmptyTable(selectedTableName)
activate UIWindowHandler
activate TableHandler
UIWindowHandler <- - TableHandler: False
deactivate TableHandler
UIWindowHandler -> TableHandler: getTableRowsHandler(selectedTableName)
activate TableHandler
UIWindowHandler <- - TableHandler: tableRowsHandler
deactivate TableHandler
UIWindowHandler -> TableRowsWindow: getLayout(tableRowsHandler)
activate TableRowsWindow
TableRowsWindow -> TableRowsHandler: getRows()
activate TableRowsHandler
...
TableRowsWindow <- - TableRowsHandler:
deactivate TableRowsHandler
UIWindowHandler <- - TableRowsWindow: layout
deactivate TableRowsWindow
UIWindowHandler -> UIWindowHandler: setLayout(layout)
deactivate UIWindowHandler

@enduml

PlantUML version 1.2017.15(Mon Jul 03 18:45:34 CEST 2017)
(GPL source distribution)
Java Runtime: OpenJDK Runtime Environment
JVM: OpenJDK 64-Bit Server VM
Java Version: 10.0.2+13-Ubuntu-1ubuntu0.18.04.4
Operating System: Linux
OS Version: 4.15.0-46-generic
Default Encoding: UTF-8
Language: en
Country: US
--></g></svg>