<?xml version="1.0" encoding="UTF-8" standalone="no"?><svg xmlns="http://www.w3.org/2000/svg" xmlns:xlink="http://www.w3.org/1999/xlink" contentScriptType="application/ecmascript" contentStyleType="text/css" height="423px" preserveAspectRatio="none" style="width:726px;height:423px;" version="1.1" viewBox="0 0 726 423" width="726px" zoomAndPan="magnify"><defs><filter height="300%" id="f17xwgvsw62iky" width="300%" x="-1" y="-1"><feGaussianBlur result="blurOut" stdDeviation="2.0"/><feColorMatrix in="blurOut" result="blurOut2" type="matrix" values="0 0 0 0 0 0 0 0 0 0 0 0 0 0 0 0 0 0 .4 0"/><feOffset dx="4.0" dy="4.0" in="blurOut2" result="blurOut3"/><feBlend in="SourceGraphic" in2="blurOut3" mode="normal"/></filter></defs><g><rect fill="#FFFFFF" filter="url(#f17xwgvsw62iky)" height="29.1328" style="stroke: #A80036; stroke-width: 1.0;" width="10" x="170" y="117.2969"/><rect fill="#FFFFFF" filter="url(#f17xwgvsw62iky)" height="66.3984" style="stroke: #FFFFFF; stroke-width: 1.0;" width="10" x="351" y="146.4297"/><line style="stroke: #A80036; stroke-width: 1.0;" x1="351" x2="351" y1="146.4297" y2="212.8281"/><line style="stroke: #A80036; stroke-width: 1.0;" x1="361" x2="361" y1="146.4297" y2="212.8281"/><line style="stroke: #A80036; stroke-width: 1.0;" x1="351" x2="361" y1="146.4297" y2="146.4297"/><rect fill="#FFFFFF" filter="url(#f17xwgvsw62iky)" height="70.1328" style="stroke: #FFFFFF; stroke-width: 1.0;" width="10" x="351" y="240.8281"/><line style="stroke: #A80036; stroke-width: 1.0;" x1="351" x2="351" y1="240.8281" y2="310.9609"/><line style="stroke: #A80036; stroke-width: 1.0;" x1="361" x2="361" y1="240.8281" y2="310.9609"/><line style="stroke: #A80036; stroke-width: 1.0;" x1="351" x2="361" y1="310.9609" y2="310.9609"/><rect fill="#FFFFFF" filter="url(#f17xwgvsw62iky)" height="37.2656" style="stroke: #FFFFFF; stroke-width: 1.0;" width="10" x="536" y="175.5625"/><line style="stroke: #A80036; stroke-width: 1.0;" x1="536" x2="536" y1="175.5625" y2="212.8281"/><line style="stroke: #A80036; stroke-width: 1.0;" x1="546" x2="546" y1="175.5625" y2="212.8281"/><line style="stroke: #A80036; stroke-width: 1.0;" x1="536" x2="546" y1="175.5625" y2="175.5625"/><rect fill="#FFFFFF" filter="url(#f17xwgvsw62iky)" height="35" style="stroke: #FFFFFF; stroke-width: 1.0;" width="10" x="536" y="240.8281"/><line style="stroke: #A80036; stroke-width: 1.0;" x1="536" x2="536" y1="240.8281" y2="275.8281"/><line style="stroke: #A80036; stroke-width: 1.0;" x1="546" x2="546" y1="240.8281" y2="275.8281"/><line style="stroke: #A80036; stroke-width: 1.0;" x1="536" x2="546" y1="275.8281" y2="275.8281"/><rect fill="#FFFFFF" filter="url(#f17xwgvsw62iky)" height="8.1328" style="stroke: #FFFFFF; stroke-width: 1.0;" width="10" x="659.5" y="204.6953"/><line style="stroke: #A80036; stroke-width: 1.0;" x1="659.5" x2="659.5" y1="204.6953" y2="212.8281"/><line style="stroke: #A80036; stroke-width: 1.0;" x1="669.5" x2="669.5" y1="204.6953" y2="212.8281"/><line style="stroke: #A80036; stroke-width: 1.0;" x1="659.5" x2="669.5" y1="204.6953" y2="204.6953"/><rect fill="#FFFFFF" filter="url(#f17xwgvsw62iky)" height="6" style="stroke: #FFFFFF; stroke-width: 1.0;" width="10" x="659.5" y="240.8281"/><line style="stroke: #A80036; stroke-width: 1.0;" x1="659.5" x2="659.5" y1="240.8281" y2="246.8281"/><line style="stroke: #A80036; stroke-width: 1.0;" x1="669.5" x2="669.5" y1="240.8281" y2="246.8281"/><line style="stroke: #A80036; stroke-width: 1.0;" x1="659.5" x2="669.5" y1="246.8281" y2="246.8281"/><line style="stroke: #A80036; stroke-width: 1.0;" x1="27" x2="27" y1="86.2969" y2="212.8281"/><line style="stroke: #A80036; stroke-width: 1.0; stroke-dasharray: 1.0,4.0;" x1="27" x2="27" y1="212.8281" y2="240.8281"/><line style="stroke: #A80036; stroke-width: 1.0;" x1="27" x2="27" y1="240.8281" y2="336.0938"/><line style="stroke: #A80036; stroke-width: 1.0;" x1="174.5" x2="174.5" y1="86.2969" y2="212.8281"/><line style="stroke: #A80036; stroke-width: 1.0; stroke-dasharray: 1.0,4.0;" x1="174.5" x2="174.5" y1="212.8281" y2="240.8281"/><line style="stroke: #A80036; stroke-width: 1.0;" x1="174.5" x2="174.5" y1="240.8281" y2="336.0938"/><line style="stroke: #A80036; stroke-width: 1.0;" x1="356" x2="356" y1="86.2969" y2="212.8281"/><line style="stroke: #A80036; stroke-width: 1.0; stroke-dasharray: 1.0,4.0;" x1="356" x2="356" y1="212.8281" y2="240.8281"/><line style="stroke: #A80036; stroke-width: 1.0;" x1="356" x2="356" y1="240.8281" y2="336.0938"/><line style="stroke: #A80036; stroke-width: 1.0;" x1="541" x2="541" y1="86.2969" y2="212.8281"/><line style="stroke: #A80036; stroke-width: 1.0; stroke-dasharray: 1.0,4.0;" x1="541" x2="541" y1="212.8281" y2="240.8281"/><line style="stroke: #A80036; stroke-width: 1.0;" x1="541" x2="541" y1="240.8281" y2="336.0938"/><line style="stroke: #A80036; stroke-width: 1.0;" x1="664" x2="664" y1="86.2969" y2="212.8281"/><line style="stroke: #A80036; stroke-width: 1.0; stroke-dasharray: 1.0,4.0;" x1="664" x2="664" y1="212.8281" y2="240.8281"/><line style="stroke: #A80036; stroke-width: 1.0;" x1="664" x2="664" y1="240.8281" y2="336.0938"/><text fill="#000000" font-family="sans-serif" font-size="14" lengthAdjust="spacingAndGlyphs" textLength="32" x="8" y="82.9951">User</text><ellipse cx="27" cy="13" fill="#FEFECE" filter="url(#f17xwgvsw62iky)" rx="8" ry="8" style="stroke: #A80036; stroke-width: 2.0;"/><path d="M27,21 L27,48 M14,29 L40,29 M27,48 L14,63 M27,48 L40,63 " fill="#FEFECE" filter="url(#f17xwgvsw62iky)" style="stroke: #A80036; stroke-width: 2.0;"/><text fill="#000000" font-family="sans-serif" font-size="14" lengthAdjust="spacingAndGlyphs" textLength="32" x="8" y="348.0889">User</text><ellipse cx="27" cy="361.3906" fill="#FEFECE" filter="url(#f17xwgvsw62iky)" rx="8" ry="8" style="stroke: #A80036; stroke-width: 2.0;"/><path d="M27,369.3906 L27,396.3906 M14,377.3906 L40,377.3906 M27,396.3906 L14,411.3906 M27,396.3906 L40,411.3906 " fill="#FEFECE" filter="url(#f17xwgvsw62iky)" style="stroke: #A80036; stroke-width: 2.0;"/><rect fill="#FEFECE" filter="url(#f17xwgvsw62iky)" height="30.2969" style="stroke: #A80036; stroke-width: 1.5;" width="109" x="118.5" y="51"/><text fill="#000000" font-family="sans-serif" font-size="14" lengthAdjust="spacingAndGlyphs" textLength="95" x="125.5" y="70.9951">ButtonWidget</text><rect fill="#FEFECE" filter="url(#f17xwgvsw62iky)" height="30.2969" style="stroke: #A80036; stroke-width: 1.5;" width="109" x="118.5" y="335.0938"/><text fill="#000000" font-family="sans-serif" font-size="14" lengthAdjust="spacingAndGlyphs" textLength="95" x="125.5" y="355.0889">ButtonWidget</text><rect fill="#FEFECE" filter="url(#f17xwgvsw62iky)" height="30.2969" style="stroke: #A80036; stroke-width: 1.5;" width="134" x="287" y="51"/><text fill="#000000" font-family="sans-serif" font-size="14" lengthAdjust="spacingAndGlyphs" textLength="120" x="294" y="70.9951">UIWindowHandler</text><rect fill="#FEFECE" filter="url(#f17xwgvsw62iky)" height="30.2969" style="stroke: #A80036; stroke-width: 1.5;" width="134" x="287" y="335.0938"/><text fill="#000000" font-family="sans-serif" font-size="14" lengthAdjust="spacingAndGlyphs" textLength="120" x="294" y="355.0889">UIWindowHandler</text><rect fill="#FEFECE" filter="url(#f17xwgvsw62iky)" height="30.2969" style="stroke: #A80036; stroke-width: 1.5;" width="114" x="482" y="51"/><text fill="#000000" font-family="sans-serif" font-size="14" lengthAdjust="spacingAndGlyphs" textLength="100" x="489" y="70.9951">TablesWindow</text><rect fill="#FEFECE" filter="url(#f17xwgvsw62iky)" height="30.2969" style="stroke: #A80036; stroke-width: 1.5;" width="114" x="482" y="335.0938"/><text fill="#000000" font-family="sans-serif" font-size="14" lengthAdjust="spacingAndGlyphs" textLength="100" x="489" y="355.0889">TablesWindow</text><rect fill="#FEFECE" filter="url(#f17xwgvsw62iky)" height="30.2969" style="stroke: #A80036; stroke-width: 1.5;" width="105" x="610" y="51"/><text fill="#000000" font-family="sans-serif" font-size="14" lengthAdjust="spacingAndGlyphs" textLength="91" x="617" y="70.9951">TableHandler</text><rect fill="#FEFECE" filter="url(#f17xwgvsw62iky)" height="30.2969" style="stroke: #A80036; stroke-width: 1.5;" width="105" x="610" y="335.0938"/><text fill="#000000" font-family="sans-serif" font-size="14" lengthAdjust="spacingAndGlyphs" textLength="91" x="617" y="355.0889">TableHandler</text><rect fill="#FFFFFF" filter="url(#f17xwgvsw62iky)" height="29.1328" style="stroke: #A80036; stroke-width: 1.0;" width="10" x="170" y="117.2969"/><rect fill="#FFFFFF" filter="url(#f17xwgvsw62iky)" height="66.3984" style="stroke: #FFFFFF; stroke-width: 1.0;" width="10" x="351" y="146.4297"/><line style="stroke: #A80036; stroke-width: 1.0;" x1="351" x2="351" y1="146.4297" y2="212.8281"/><line style="stroke: #A80036; stroke-width: 1.0;" x1="361" x2="361" y1="146.4297" y2="212.8281"/><line style="stroke: #A80036; stroke-width: 1.0;" x1="351" x2="361" y1="146.4297" y2="146.4297"/><rect fill="#FFFFFF" filter="url(#f17xwgvsw62iky)" height="70.1328" style="stroke: #FFFFFF; stroke-width: 1.0;" width="10" x="351" y="240.8281"/><line style="stroke: #A80036; stroke-width: 1.0;" x1="351" x2="351" y1="240.8281" y2="310.9609"/><line style="stroke: #A80036; stroke-width: 1.0;" x1="361" x2="361" y1="240.8281" y2="310.9609"/><line style="stroke: #A80036; stroke-width: 1.0;" x1="351" x2="361" y1="310.9609" y2="310.9609"/><rect fill="#FFFFFF" filter="url(#f17xwgvsw62iky)" height="37.2656" style="stroke: #FFFFFF; stroke-width: 1.0;" width="10" x="536" y="175.5625"/><line style="stroke: #A80036; stroke-width: 1.0;" x1="536" x2="536" y1="175.5625" y2="212.8281"/><line style="stroke: #A80036; stroke-width: 1.0;" x1="546" x2="546" y1="175.5625" y2="212.8281"/><line style="stroke: #A80036; stroke-width: 1.0;" x1="536" x2="546" y1="175.5625" y2="175.5625"/><rect fill="#FFFFFF" filter="url(#f17xwgvsw62iky)" height="35" style="stroke: #FFFFFF; stroke-width: 1.0;" width="10" x="536" y="240.8281"/><line style="stroke: #A80036; stroke-width: 1.0;" x1="536" x2="536" y1="240.8281" y2="275.8281"/><line style="stroke: #A80036; stroke-width: 1.0;" x1="546" x2="546" y1="240.8281" y2="275.8281"/><line style="stroke: #A80036; stroke-width: 1.0;" x1="536" x2="546" y1="275.8281" y2="275.8281"/><rect fill="#FFFFFF" filter="url(#f17xwgvsw62iky)" height="8.1328" style="stroke: #FFFFFF; stroke-width: 1.0;" width="10" x="659.5" y="204.6953"/><line style="stroke: #A80036; stroke-width: 1.0;" x1="659.5" x2="659.5" y1="204.6953" y2="212.8281"/><line style="stroke: #A80036; stroke-width: 1.0;" x1="669.5" x2="669.5" y1="204.6953" y2="212.8281"/><line style="stroke: #A80036; stroke-width: 1.0;" x1="659.5" x2="669.5" y1="204.6953" y2="204.6953"/><rect fill="#FFFFFF" filter="url(#f17xwgvsw62iky)" height="6" style="stroke: #FFFFFF; stroke-width: 1.0;" width="10" x="659.5" y="240.8281"/><line style="stroke: #A80036; stroke-width: 1.0;" x1="659.5" x2="659.5" y1="240.8281" y2="246.8281"/><line style="stroke: #A80036; stroke-width: 1.0;" x1="669.5" x2="669.5" y1="240.8281" y2="246.8281"/><line style="stroke: #A80036; stroke-width: 1.0;" x1="659.5" x2="669.5" y1="246.8281" y2="246.8281"/><polygon fill="#A80036" points="158,113.2969,168,117.2969,158,121.2969,162,117.2969" style="stroke: #A80036; stroke-width: 1.0;"/><line style="stroke: #A80036; stroke-width: 1.0; stroke-dasharray: 2.0,2.0;" x1="27" x2="164" y1="117.2969" y2="117.2969"/><text fill="#000000" font-family="sans-serif" font-size="13" lengthAdjust="spacingAndGlyphs" textLength="124" x="34" y="112.3638">handleKeyEvent(...)</text><polygon fill="#A80036" points="339,142.4297,349,146.4297,339,150.4297,343,146.4297" style="stroke: #A80036; stroke-width: 1.0;"/><line style="stroke: #A80036; stroke-width: 1.0;" x1="175" x2="345" y1="146.4297" y2="146.4297"/><text fill="#000000" font-family="sans-serif" font-size="13" lengthAdjust="spacingAndGlyphs" textLength="152" x="182" y="141.4966">switchToTablesWindow()</text><polygon fill="#A80036" points="524,171.5625,534,175.5625,524,179.5625,528,175.5625" style="stroke: #A80036; stroke-width: 1.0;"/><line style="stroke: #A80036; stroke-width: 1.0;" x1="361" x2="530" y1="175.5625" y2="175.5625"/><text fill="#000000" font-family="sans-serif" font-size="13" lengthAdjust="spacingAndGlyphs" textLength="156" x="368" y="170.6294">getLayout(tableHandler)</text><polygon fill="#A80036" points="647.5,200.6953,657.5,204.6953,647.5,208.6953,651.5,204.6953" style="stroke: #A80036; stroke-width: 1.0;"/><line style="stroke: #A80036; stroke-width: 1.0;" x1="546" x2="653.5" y1="204.6953" y2="204.6953"/><text fill="#000000" font-family="sans-serif" font-size="13" lengthAdjust="spacingAndGlyphs" textLength="72" x="553" y="199.7622">getTables()</text><polygon fill="#A80036" points="557,242.8281,547,246.8281,557,250.8281,553,246.8281" style="stroke: #A80036; stroke-width: 1.0;"/><line style="stroke: #A80036; stroke-width: 1.0; stroke-dasharray: 2.0,2.0;" x1="551" x2="663.5" y1="246.8281" y2="246.8281"/><polygon fill="#A80036" points="372,271.8281,362,275.8281,372,279.8281,368,275.8281" style="stroke: #A80036; stroke-width: 1.0;"/><line style="stroke: #A80036; stroke-width: 1.0; stroke-dasharray: 2.0,2.0;" x1="366" x2="540" y1="275.8281" y2="275.8281"/><text fill="#000000" font-family="sans-serif" font-size="13" lengthAdjust="spacingAndGlyphs" textLength="39" x="378" y="270.895">layout</text><line style="stroke: #A80036; stroke-width: 1.0;" x1="361" x2="403" y1="310.0938" y2="310.0938"/><line style="stroke: #A80036; stroke-width: 1.0;" x1="403" x2="403" y1="310.0938" y2="323.0938"/><line style="stroke: #A80036; stroke-width: 1.0;" x1="356" x2="403" y1="323.0938" y2="323.0938"/><polygon fill="#A80036" points="366,319.0938,356,323.0938,366,327.0938,362,323.0938" style="stroke: #A80036; stroke-width: 1.0;"/><text fill="#000000" font-family="sans-serif" font-size="13" lengthAdjust="spacingAndGlyphs" textLength="112" x="368" y="305.0278">setLayout(layout)</text><!--
@startuml
Actor User
User - -> ButtonWidget: handleKeyEvent(...)
activate ButtonWidget
ButtonWidget -> UIWindowHandler: switchToTablesWindow()
deactivate ButtonWidget
activate UIWindowHandler
UIWindowHandler -> TablesWindow: getLayout(tableHandler)
activate TablesWindow
TablesWindow -> TableHandler: getTables()
activate TableHandler
...
TablesWindow <- - TableHandler:
deactivate TableHandler
UIWindowHandler <- - TablesWindow: layout
deactivate TablesWindow
UIWindowHandler -> UIWindowHandler: setLayout(layout)
deactivate UIWindowHandler

@enduml

PlantUML version 1.2017.15(Mon Jul 03 18:45:34 CEST 2017)
(GPL source distribution)
Java Runtime: OpenJDK Runtime Environment
JVM: OpenJDK 64-Bit Server VM
Java Version: 10.0.2+13-Ubuntu-1ubuntu0.18.04.4
Operating System: Linux
OS Version: 4.15.0-46-generic
Default Encoding: UTF-8
Language: en
Country: US
--></g></svg>