<?xml version="1.0" encoding="UTF-8" standalone="no"?><svg xmlns="http://www.w3.org/2000/svg" xmlns:xlink="http://www.w3.org/1999/xlink" contentScriptType="application/ecmascript" contentStyleType="text/css" height="481px" preserveAspectRatio="none" style="width:1233px;height:481px;" version="1.1" viewBox="0 0 1233 481" width="1233px" zoomAndPan="magnify"><defs><filter height="300%" id="flx2ifx14w51v" width="300%" x="-1" y="-1"><feGaussianBlur result="blurOut" stdDeviation="2.0"/><feColorMatrix in="blurOut" result="blurOut2" type="matrix" values="0 0 0 0 0 0 0 0 0 0 0 0 0 0 0 0 0 0 .4 0"/><feOffset dx="4.0" dy="4.0" in="blurOut2" result="blurOut3"/><feBlend in="SourceGraphic" in2="blurOut3" mode="normal"/></filter></defs><g><rect fill="#FFFFFF" filter="url(#flx2ifx14w51v)" height="29.1328" style="stroke: #A80036; stroke-width: 1.0;" width="10" x="170" y="117.2969"/><rect fill="#FFFFFF" filter="url(#flx2ifx14w51v)" height="124.6641" style="stroke: #FFFFFF; stroke-width: 1.0;" width="10" x="515" y="146.4297"/><line style="stroke: #A80036; stroke-width: 1.0;" x1="515" x2="515" y1="146.4297" y2="271.0938"/><line style="stroke: #A80036; stroke-width: 1.0;" x1="525" x2="525" y1="146.4297" y2="271.0938"/><line style="stroke: #A80036; stroke-width: 1.0;" x1="515" x2="525" y1="146.4297" y2="146.4297"/><rect fill="#FFFFFF" filter="url(#flx2ifx14w51v)" height="70.1328" style="stroke: #FFFFFF; stroke-width: 1.0;" width="10" x="515" y="299.0938"/><line style="stroke: #A80036; stroke-width: 1.0;" x1="515" x2="515" y1="299.0938" y2="369.2266"/><line style="stroke: #A80036; stroke-width: 1.0;" x1="525" x2="525" y1="299.0938" y2="369.2266"/><line style="stroke: #A80036; stroke-width: 1.0;" x1="515" x2="525" y1="369.2266" y2="369.2266"/><rect fill="#FFFFFF" filter="url(#flx2ifx14w51v)" height="29.1328" style="stroke: #A80036; stroke-width: 1.0;" width="10" x="830" y="175.5625"/><rect fill="#FFFFFF" filter="url(#flx2ifx14w51v)" height="37.2656" style="stroke: #FFFFFF; stroke-width: 1.0;" width="10" x="974" y="233.8281"/><line style="stroke: #A80036; stroke-width: 1.0;" x1="974" x2="974" y1="233.8281" y2="271.0938"/><line style="stroke: #A80036; stroke-width: 1.0;" x1="984" x2="984" y1="233.8281" y2="271.0938"/><line style="stroke: #A80036; stroke-width: 1.0;" x1="974" x2="984" y1="233.8281" y2="233.8281"/><rect fill="#FFFFFF" filter="url(#flx2ifx14w51v)" height="35" style="stroke: #FFFFFF; stroke-width: 1.0;" width="10" x="974" y="299.0938"/><line style="stroke: #A80036; stroke-width: 1.0;" x1="974" x2="974" y1="299.0938" y2="334.0938"/><line style="stroke: #A80036; stroke-width: 1.0;" x1="984" x2="984" y1="299.0938" y2="334.0938"/><line style="stroke: #A80036; stroke-width: 1.0;" x1="974" x2="984" y1="334.0938" y2="334.0938"/><rect fill="#FFFFFF" filter="url(#flx2ifx14w51v)" height="8.1328" style="stroke: #FFFFFF; stroke-width: 1.0;" width="10" x="1142.5" y="262.9609"/><line style="stroke: #A80036; stroke-width: 1.0;" x1="1142.5" x2="1142.5" y1="262.9609" y2="271.0938"/><line style="stroke: #A80036; stroke-width: 1.0;" x1="1152.5" x2="1152.5" y1="262.9609" y2="271.0938"/><line style="stroke: #A80036; stroke-width: 1.0;" x1="1142.5" x2="1152.5" y1="262.9609" y2="262.9609"/><rect fill="#FFFFFF" filter="url(#flx2ifx14w51v)" height="6" style="stroke: #FFFFFF; stroke-width: 1.0;" width="10" x="1142.5" y="299.0938"/><line style="stroke: #A80036; stroke-width: 1.0;" x1="1142.5" x2="1142.5" y1="299.0938" y2="305.0938"/><line style="stroke: #A80036; stroke-width: 1.0;" x1="1152.5" x2="1152.5" y1="299.0938" y2="305.0938"/><line style="stroke: #A80036; stroke-width: 1.0;" x1="1142.5" x2="1152.5" y1="305.0938" y2="305.0938"/><line style="stroke: #A80036; stroke-width: 1.0;" x1="27" x2="27" y1="86.2969" y2="271.0938"/><line style="stroke: #A80036; stroke-width: 1.0; stroke-dasharray: 1.0,4.0;" x1="27" x2="27" y1="271.0938" y2="299.0938"/><line style="stroke: #A80036; stroke-width: 1.0;" x1="27" x2="27" y1="299.0938" y2="394.3594"/><line style="stroke: #A80036; stroke-width: 1.0;" x1="174.5" x2="174.5" y1="86.2969" y2="271.0938"/><line style="stroke: #A80036; stroke-width: 1.0; stroke-dasharray: 1.0,4.0;" x1="174.5" x2="174.5" y1="271.0938" y2="299.0938"/><line style="stroke: #A80036; stroke-width: 1.0;" x1="174.5" x2="174.5" y1="299.0938" y2="394.3594"/><line style="stroke: #A80036; stroke-width: 1.0;" x1="520" x2="520" y1="86.2969" y2="271.0938"/><line style="stroke: #A80036; stroke-width: 1.0; stroke-dasharray: 1.0,4.0;" x1="520" x2="520" y1="271.0938" y2="299.0938"/><line style="stroke: #A80036; stroke-width: 1.0;" x1="520" x2="520" y1="299.0938" y2="394.3594"/><line style="stroke: #A80036; stroke-width: 1.0;" x1="834.5" x2="834.5" y1="86.2969" y2="271.0938"/><line style="stroke: #A80036; stroke-width: 1.0; stroke-dasharray: 1.0,4.0;" x1="834.5" x2="834.5" y1="271.0938" y2="299.0938"/><line style="stroke: #A80036; stroke-width: 1.0;" x1="834.5" x2="834.5" y1="299.0938" y2="394.3594"/><line style="stroke: #A80036; stroke-width: 1.0;" x1="978.5" x2="978.5" y1="86.2969" y2="271.0938"/><line style="stroke: #A80036; stroke-width: 1.0; stroke-dasharray: 1.0,4.0;" x1="978.5" x2="978.5" y1="271.0938" y2="299.0938"/><line style="stroke: #A80036; stroke-width: 1.0;" x1="978.5" x2="978.5" y1="299.0938" y2="394.3594"/><line style="stroke: #A80036; stroke-width: 1.0;" x1="1147.5" x2="1147.5" y1="86.2969" y2="271.0938"/><line style="stroke: #A80036; stroke-width: 1.0; stroke-dasharray: 1.0,4.0;" x1="1147.5" x2="1147.5" y1="271.0938" y2="299.0938"/><line style="stroke: #A80036; stroke-width: 1.0;" x1="1147.5" x2="1147.5" y1="299.0938" y2="394.3594"/><text fill="#000000" font-family="sans-serif" font-size="14" lengthAdjust="spacingAndGlyphs" textLength="32" x="8" y="82.9951">User</text><ellipse cx="27" cy="13" fill="#FEFECE" filter="url(#flx2ifx14w51v)" rx="8" ry="8" style="stroke: #A80036; stroke-width: 2.0;"/><path d="M27,21 L27,48 M14,29 L40,29 M27,48 L14,63 M27,48 L40,63 " fill="#FEFECE" filter="url(#flx2ifx14w51v)" style="stroke: #A80036; stroke-width: 2.0;"/><text fill="#000000" font-family="sans-serif" font-size="14" lengthAdjust="spacingAndGlyphs" textLength="32" x="8" y="406.3545">User</text><ellipse cx="27" cy="419.6563" fill="#FEFECE" filter="url(#flx2ifx14w51v)" rx="8" ry="8" style="stroke: #A80036; stroke-width: 2.0;"/><path d="M27,427.6563 L27,454.6563 M14,435.6563 L40,435.6563 M27,454.6563 L14,469.6563 M27,454.6563 L40,469.6563 " fill="#FEFECE" filter="url(#flx2ifx14w51v)" style="stroke: #A80036; stroke-width: 2.0;"/><rect fill="#FEFECE" filter="url(#flx2ifx14w51v)" height="30.2969" style="stroke: #A80036; stroke-width: 1.5;" width="109" x="118.5" y="51"/><text fill="#000000" font-family="sans-serif" font-size="14" lengthAdjust="spacingAndGlyphs" textLength="95" x="125.5" y="70.9951">ButtonWidget</text><rect fill="#FEFECE" filter="url(#flx2ifx14w51v)" height="30.2969" style="stroke: #A80036; stroke-width: 1.5;" width="109" x="118.5" y="393.3594"/><text fill="#000000" font-family="sans-serif" font-size="14" lengthAdjust="spacingAndGlyphs" textLength="95" x="125.5" y="413.3545">ButtonWidget</text><rect fill="#FEFECE" filter="url(#flx2ifx14w51v)" height="30.2969" style="stroke: #A80036; stroke-width: 1.5;" width="134" x="451" y="51"/><text fill="#000000" font-family="sans-serif" font-size="14" lengthAdjust="spacingAndGlyphs" textLength="120" x="458" y="70.9951">UIWindowHandler</text><rect fill="#FEFECE" filter="url(#flx2ifx14w51v)" height="30.2969" style="stroke: #A80036; stroke-width: 1.5;" width="134" x="451" y="393.3594"/><text fill="#000000" font-family="sans-serif" font-size="14" lengthAdjust="spacingAndGlyphs" textLength="120" x="458" y="413.3545">UIWindowHandler</text><rect fill="#FEFECE" filter="url(#flx2ifx14w51v)" height="30.2969" style="stroke: #A80036; stroke-width: 1.5;" width="105" x="780.5" y="51"/><text fill="#000000" font-family="sans-serif" font-size="14" lengthAdjust="spacingAndGlyphs" textLength="91" x="787.5" y="70.9951">TableHandler</text><rect fill="#FEFECE" filter="url(#flx2ifx14w51v)" height="30.2969" style="stroke: #A80036; stroke-width: 1.5;" width="105" x="780.5" y="393.3594"/><text fill="#000000" font-family="sans-serif" font-size="14" lengthAdjust="spacingAndGlyphs" textLength="91" x="787.5" y="413.3545">TableHandler</text><rect fill="#FEFECE" filter="url(#flx2ifx14w51v)" height="30.2969" style="stroke: #A80036; stroke-width: 1.5;" width="155" x="899.5" y="51"/><text fill="#000000" font-family="sans-serif" font-size="14" lengthAdjust="spacingAndGlyphs" textLength="141" x="906.5" y="70.9951">TableDesignWindow</text><rect fill="#FEFECE" filter="url(#flx2ifx14w51v)" height="30.2969" style="stroke: #A80036; stroke-width: 1.5;" width="155" x="899.5" y="393.3594"/><text fill="#000000" font-family="sans-serif" font-size="14" lengthAdjust="spacingAndGlyphs" textLength="141" x="906.5" y="413.3545">TableDesignWindow</text><rect fill="#FEFECE" filter="url(#flx2ifx14w51v)" height="30.2969" style="stroke: #A80036; stroke-width: 1.5;" width="154" x="1068.5" y="51"/><text fill="#000000" font-family="sans-serif" font-size="14" lengthAdjust="spacingAndGlyphs" textLength="140" x="1075.5" y="70.9951">TableDesignHandler</text><rect fill="#FEFECE" filter="url(#flx2ifx14w51v)" height="30.2969" style="stroke: #A80036; stroke-width: 1.5;" width="154" x="1068.5" y="393.3594"/><text fill="#000000" font-family="sans-serif" font-size="14" lengthAdjust="spacingAndGlyphs" textLength="140" x="1075.5" y="413.3545">TableDesignHandler</text><rect fill="#FFFFFF" filter="url(#flx2ifx14w51v)" height="29.1328" style="stroke: #A80036; stroke-width: 1.0;" width="10" x="170" y="117.2969"/><rect fill="#FFFFFF" filter="url(#flx2ifx14w51v)" height="124.6641" style="stroke: #FFFFFF; stroke-width: 1.0;" width="10" x="515" y="146.4297"/><line style="stroke: #A80036; stroke-width: 1.0;" x1="515" x2="515" y1="146.4297" y2="271.0938"/><line style="stroke: #A80036; stroke-width: 1.0;" x1="525" x2="525" y1="146.4297" y2="271.0938"/><line style="stroke: #A80036; stroke-width: 1.0;" x1="515" x2="525" y1="146.4297" y2="146.4297"/><rect fill="#FFFFFF" filter="url(#flx2ifx14w51v)" height="70.1328" style="stroke: #FFFFFF; stroke-width: 1.0;" width="10" x="515" y="299.0938"/><line style="stroke: #A80036; stroke-width: 1.0;" x1="515" x2="515" y1="299.0938" y2="369.2266"/><line style="stroke: #A80036; stroke-width: 1.0;" x1="525" x2="525" y1="299.0938" y2="369.2266"/><line style="stroke: #A80036; stroke-width: 1.0;" x1="515" x2="525" y1="369.2266" y2="369.2266"/><rect fill="#FFFFFF" filter="url(#flx2ifx14w51v)" height="29.1328" style="stroke: #A80036; stroke-width: 1.0;" width="10" x="830" y="175.5625"/><rect fill="#FFFFFF" filter="url(#flx2ifx14w51v)" height="37.2656" style="stroke: #FFFFFF; stroke-width: 1.0;" width="10" x="974" y="233.8281"/><line style="stroke: #A80036; stroke-width: 1.0;" x1="974" x2="974" y1="233.8281" y2="271.0938"/><line style="stroke: #A80036; stroke-width: 1.0;" x1="984" x2="984" y1="233.8281" y2="271.0938"/><line style="stroke: #A80036; stroke-width: 1.0;" x1="974" x2="984" y1="233.8281" y2="233.8281"/><rect fill="#FFFFFF" filter="url(#flx2ifx14w51v)" height="35" style="stroke: #FFFFFF; stroke-width: 1.0;" width="10" x="974" y="299.0938"/><line style="stroke: #A80036; stroke-width: 1.0;" x1="974" x2="974" y1="299.0938" y2="334.0938"/><line style="stroke: #A80036; stroke-width: 1.0;" x1="984" x2="984" y1="299.0938" y2="334.0938"/><line style="stroke: #A80036; stroke-width: 1.0;" x1="974" x2="984" y1="334.0938" y2="334.0938"/><rect fill="#FFFFFF" filter="url(#flx2ifx14w51v)" height="8.1328" style="stroke: #FFFFFF; stroke-width: 1.0;" width="10" x="1142.5" y="262.9609"/><line style="stroke: #A80036; stroke-width: 1.0;" x1="1142.5" x2="1142.5" y1="262.9609" y2="271.0938"/><line style="stroke: #A80036; stroke-width: 1.0;" x1="1152.5" x2="1152.5" y1="262.9609" y2="271.0938"/><line style="stroke: #A80036; stroke-width: 1.0;" x1="1142.5" x2="1152.5" y1="262.9609" y2="262.9609"/><rect fill="#FFFFFF" filter="url(#flx2ifx14w51v)" height="6" style="stroke: #FFFFFF; stroke-width: 1.0;" width="10" x="1142.5" y="299.0938"/><line style="stroke: #A80036; stroke-width: 1.0;" x1="1142.5" x2="1142.5" y1="299.0938" y2="305.0938"/><line style="stroke: #A80036; stroke-width: 1.0;" x1="1152.5" x2="1152.5" y1="299.0938" y2="305.0938"/><line style="stroke: #A80036; stroke-width: 1.0;" x1="1142.5" x2="1152.5" y1="305.0938" y2="305.0938"/><polygon fill="#A80036" points="158,113.2969,168,117.2969,158,121.2969,162,117.2969" style="stroke: #A80036; stroke-width: 1.0;"/><line style="stroke: #A80036; stroke-width: 1.0; stroke-dasharray: 2.0,2.0;" x1="27" x2="164" y1="117.2969" y2="117.2969"/><text fill="#000000" font-family="sans-serif" font-size="13" lengthAdjust="spacingAndGlyphs" textLength="124" x="34" y="112.3638">handleKeyEvent(...)</text><polygon fill="#A80036" points="503,142.4297,513,146.4297,503,150.4297,507,146.4297" style="stroke: #A80036; stroke-width: 1.0;"/><line style="stroke: #A80036; stroke-width: 1.0;" x1="175" x2="509" y1="146.4297" y2="146.4297"/><text fill="#000000" font-family="sans-serif" font-size="13" lengthAdjust="spacingAndGlyphs" textLength="316" x="182" y="141.4966">switchToTableDesignWindow(selectedTableName)</text><polygon fill="#A80036" points="818,171.5625,828,175.5625,818,179.5625,822,175.5625" style="stroke: #A80036; stroke-width: 1.0;"/><line style="stroke: #A80036; stroke-width: 1.0;" x1="525" x2="824" y1="175.5625" y2="175.5625"/><text fill="#000000" font-family="sans-serif" font-size="13" lengthAdjust="spacingAndGlyphs" textLength="286" x="532" y="170.6294">getTableDesignHandler(selectedTableName)</text><polygon fill="#A80036" points="536,200.6953,526,204.6953,536,208.6953,532,204.6953" style="stroke: #A80036; stroke-width: 1.0;"/><line style="stroke: #A80036; stroke-width: 1.0; stroke-dasharray: 2.0,2.0;" x1="530" x2="834" y1="204.6953" y2="204.6953"/><text fill="#000000" font-family="sans-serif" font-size="13" lengthAdjust="spacingAndGlyphs" textLength="126" x="542" y="199.7622">tableDesignHandler</text><polygon fill="#A80036" points="962,229.8281,972,233.8281,962,237.8281,966,233.8281" style="stroke: #A80036; stroke-width: 1.0;"/><line style="stroke: #A80036; stroke-width: 1.0;" x1="525" x2="968" y1="233.8281" y2="233.8281"/><text fill="#000000" font-family="sans-serif" font-size="13" lengthAdjust="spacingAndGlyphs" textLength="200" x="532" y="228.895">getLayout(tableDesignHandler)</text><polygon fill="#A80036" points="1130.5,258.9609,1140.5,262.9609,1130.5,266.9609,1134.5,262.9609" style="stroke: #A80036; stroke-width: 1.0;"/><line style="stroke: #A80036; stroke-width: 1.0;" x1="984" x2="1136.5" y1="262.9609" y2="262.9609"/><text fill="#000000" font-family="sans-serif" font-size="13" lengthAdjust="spacingAndGlyphs" textLength="87" x="991" y="258.0278">getColumns()</text><polygon fill="#A80036" points="995,301.0938,985,305.0938,995,309.0938,991,305.0938" style="stroke: #A80036; stroke-width: 1.0;"/><line style="stroke: #A80036; stroke-width: 1.0; stroke-dasharray: 2.0,2.0;" x1="989" x2="1146.5" y1="305.0938" y2="305.0938"/><polygon fill="#A80036" points="536,330.0938,526,334.0938,536,338.0938,532,334.0938" style="stroke: #A80036; stroke-width: 1.0;"/><line style="stroke: #A80036; stroke-width: 1.0; stroke-dasharray: 2.0,2.0;" x1="530" x2="978" y1="334.0938" y2="334.0938"/><text fill="#000000" font-family="sans-serif" font-size="13" lengthAdjust="spacingAndGlyphs" textLength="39" x="542" y="329.1606">layout</text><line style="stroke: #A80036; stroke-width: 1.0;" x1="525" x2="567" y1="368.3594" y2="368.3594"/><line style="stroke: #A80036; stroke-width: 1.0;" x1="567" x2="567" y1="368.3594" y2="381.3594"/><line style="stroke: #A80036; stroke-width: 1.0;" x1="520" x2="567" y1="381.3594" y2="381.3594"/><polygon fill="#A80036" points="530,377.3594,520,381.3594,530,385.3594,526,381.3594" style="stroke: #A80036; stroke-width: 1.0;"/><text fill="#000000" font-family="sans-serif" font-size="13" lengthAdjust="spacingAndGlyphs" textLength="112" x="532" y="363.2935">setLayout(layout)</text><!--
@startuml
Actor User
User - -> ButtonWidget: handleKeyEvent(...)
activate ButtonWidget

ButtonWidget -> UIWindowHandler: switchToTableDesignWindow(selectedTableName)
deactivate ButtonWidget
activate UIWindowHandler
UIWindowHandler -> TableHandler: getTableDesignHandler(selectedTableName)
activate TableHandler
UIWindowHandler <- - TableHandler: tableDesignHandler
deactivate TableHandler
UIWindowHandler -> TableDesignWindow: getLayout(tableDesignHandler)
activate TableDesignWindow
TableDesignWindow -> TableDesignHandler: getColumns()
activate TableDesignHandler
...
TableDesignWindow <- - TableDesignHandler:
deactivate TableDesignHandler
UIWindowHandler <- - TableDesignWindow: layout
deactivate TableDesignWindow
UIWindowHandler -> UIWindowHandler: setLayout(layout)
deactivate UIWindowHandler

@enduml

PlantUML version 1.2017.15(Mon Jul 03 18:45:34 CEST 2017)
(GPL source distribution)
Java Runtime: OpenJDK Runtime Environment
JVM: OpenJDK 64-Bit Server VM
Java Version: 10.0.2+13-Ubuntu-1ubuntu0.18.04.4
Operating System: Linux
OS Version: 4.15.0-46-generic
Default Encoding: UTF-8
Language: en
Country: US
--></g></svg>