<?xml version="1.0" encoding="UTF-8" standalone="no"?><svg xmlns="http://www.w3.org/2000/svg" xmlns:xlink="http://www.w3.org/1999/xlink" contentScriptType="application/ecmascript" contentStyleType="text/css" height="414px" preserveAspectRatio="none" style="width:311px;height:414px;" version="1.1" viewBox="0 0 311 414" width="311px" zoomAndPan="magnify"><defs><filter height="300%" id="f107g4y9voalcb" width="300%" x="-1" y="-1"><feGaussianBlur result="blurOut" stdDeviation="2.0"/><feColorMatrix in="blurOut" result="blurOut2" type="matrix" values="0 0 0 0 0 0 0 0 0 0 0 0 0 0 0 0 0 0 .4 0"/><feOffset dx="4.0" dy="4.0" in="blurOut2" result="blurOut3"/><feBlend in="SourceGraphic" in2="blurOut3" mode="normal"/></filter></defs><g><text fill="#000000" font-family="sans-serif" font-size="18" lengthAdjust="spacingAndGlyphs" textLength="128" x="95" y="16.708">Domain Model</text><!--class Table--><rect fill="#FEFECE" filter="url(#f107g4y9voalcb)" height="60.8047" id="Table" style="stroke: #A80036; stroke-width: 1.5;" width="66" x="129" y="28.9531"/><ellipse cx="144" cy="44.9531" fill="#ADD1B2" rx="11" ry="11" style="stroke: #A80036; stroke-width: 1.0;"/><path d="M146.9688,50.5938 Q146.3906,50.8906 145.75,51.0313 Q145.1094,51.1875 144.4063,51.1875 Q141.9063,51.1875 140.5781,49.5469 Q139.2656,47.8906 139.2656,44.7656 Q139.2656,41.6406 140.5781,39.9844 Q141.9063,38.3281 144.4063,38.3281 Q145.1094,38.3281 145.75,38.4844 Q146.4063,38.6406 146.9688,38.9375 L146.9688,41.6563 Q146.3438,41.0781 145.75,40.8125 Q145.1563,40.5313 144.5313,40.5313 Q143.1875,40.5313 142.5,41.6094 Q141.8125,42.6719 141.8125,44.7656 Q141.8125,46.8594 142.5,47.9375 Q143.1875,49 144.5313,49 Q145.1563,49 145.75,48.7344 Q146.3438,48.4531 146.9688,47.875 L146.9688,50.5938 Z "/><text fill="#000000" font-family="sans-serif" font-size="12" lengthAdjust="spacingAndGlyphs" textLength="34" x="158" y="49.1074">Table</text><line style="stroke: #A80036; stroke-width: 1.5;" x1="130" x2="194" y1="60.9531" y2="60.9531"/><text fill="#000000" font-family="sans-serif" font-size="11" lengthAdjust="spacingAndGlyphs" textLength="32" x="135" y="75.1636">name</text><line style="stroke: #A80036; stroke-width: 1.5;" x1="130" x2="194" y1="81.7578" y2="81.7578"/><!--class Row--><rect fill="#FEFECE" filter="url(#f107g4y9voalcb)" height="99.2188" id="Row" style="stroke: #A80036; stroke-width: 1.5;" width="86" x="6" y="166.9531"/><ellipse cx="34.05" cy="182.9531" fill="#ADD1B2" rx="11" ry="11" style="stroke: #A80036; stroke-width: 1.0;"/><path d="M37.0188,188.5938 Q36.4406,188.8906 35.8,189.0313 Q35.1594,189.1875 34.4563,189.1875 Q31.9562,189.1875 30.6281,187.5469 Q29.3156,185.8906 29.3156,182.7656 Q29.3156,179.6406 30.6281,177.9844 Q31.9562,176.3281 34.4563,176.3281 Q35.1594,176.3281 35.8,176.4844 Q36.4563,176.6406 37.0188,176.9375 L37.0188,179.6563 Q36.3938,179.0781 35.8,178.8125 Q35.2063,178.5313 34.5813,178.5313 Q33.2375,178.5313 32.55,179.6094 Q31.8625,180.6719 31.8625,182.7656 Q31.8625,184.8594 32.55,185.9375 Q33.2375,187 34.5813,187 Q35.2063,187 35.8,186.7344 Q36.3938,186.4531 37.0188,185.875 L37.0188,188.5938 Z "/><text fill="#000000" font-family="sans-serif" font-size="12" lengthAdjust="spacingAndGlyphs" textLength="25" x="50.95" y="187.1074">Row</text><line style="stroke: #A80036; stroke-width: 1.5;" x1="7" x2="91" y1="198.9531" y2="198.9531"/><text fill="#000000" font-family="sans-serif" font-size="11" lengthAdjust="spacingAndGlyphs" textLength="32" x="12" y="213.1636">name</text><text fill="#000000" font-family="sans-serif" font-size="11" lengthAdjust="spacingAndGlyphs" textLength="24" x="12" y="225.9683">type</text><text fill="#000000" font-family="sans-serif" font-size="11" lengthAdjust="spacingAndGlyphs" textLength="74" x="12" y="238.7729">allowsBlanks</text><text fill="#000000" font-family="sans-serif" font-size="11" lengthAdjust="spacingAndGlyphs" textLength="70" x="12" y="251.5776">defaultValue</text><line style="stroke: #A80036; stroke-width: 1.5;" x1="7" x2="91" y1="258.1719" y2="258.1719"/><!--class Cell--><rect fill="#FEFECE" filter="url(#f107g4y9voalcb)" height="60.8047" id="Cell" style="stroke: #A80036; stroke-width: 1.5;" width="54" x="135" y="342.9531"/><ellipse cx="150" cy="358.9531" fill="#ADD1B2" rx="11" ry="11" style="stroke: #A80036; stroke-width: 1.0;"/><path d="M152.9688,364.5938 Q152.3906,364.8906 151.75,365.0313 Q151.1094,365.1875 150.4063,365.1875 Q147.9063,365.1875 146.5781,363.5469 Q145.2656,361.8906 145.2656,358.7656 Q145.2656,355.6406 146.5781,353.9844 Q147.9063,352.3281 150.4063,352.3281 Q151.1094,352.3281 151.75,352.4844 Q152.4063,352.6406 152.9688,352.9375 L152.9688,355.6563 Q152.3438,355.0781 151.75,354.8125 Q151.1563,354.5313 150.5313,354.5313 Q149.1875,354.5313 148.5,355.6094 Q147.8125,356.6719 147.8125,358.7656 Q147.8125,360.8594 148.5,361.9375 Q149.1875,363 150.5313,363 Q151.1563,363 151.75,362.7344 Q152.3438,362.4531 152.9688,361.875 L152.9688,364.5938 Z "/><text fill="#000000" font-family="sans-serif" font-size="12" lengthAdjust="spacingAndGlyphs" textLength="22" x="164" y="363.1074">Cell</text><line style="stroke: #A80036; stroke-width: 1.5;" x1="136" x2="188" y1="374.9531" y2="374.9531"/><text fill="#000000" font-family="sans-serif" font-size="11" lengthAdjust="spacingAndGlyphs" textLength="30" x="141" y="389.1636">value</text><line style="stroke: #A80036; stroke-width: 1.5;" x1="136" x2="188" y1="395.7578" y2="395.7578"/><!--class Column--><rect fill="#FEFECE" filter="url(#f107g4y9voalcb)" height="48" id="Column" style="stroke: #A80036; stroke-width: 1.5;" width="78" x="222" y="192.4531"/><ellipse cx="237" cy="208.4531" fill="#ADD1B2" rx="11" ry="11" style="stroke: #A80036; stroke-width: 1.0;"/><path d="M239.9688,214.0938 Q239.3906,214.3906 238.75,214.5313 Q238.1094,214.6875 237.4063,214.6875 Q234.9063,214.6875 233.5781,213.0469 Q232.2656,211.3906 232.2656,208.2656 Q232.2656,205.1406 233.5781,203.4844 Q234.9063,201.8281 237.4063,201.8281 Q238.1094,201.8281 238.75,201.9844 Q239.4063,202.1406 239.9688,202.4375 L239.9688,205.1563 Q239.3438,204.5781 238.75,204.3125 Q238.1563,204.0313 237.5313,204.0313 Q236.1875,204.0313 235.5,205.1094 Q234.8125,206.1719 234.8125,208.2656 Q234.8125,210.3594 235.5,211.4375 Q236.1875,212.5 237.5313,212.5 Q238.1563,212.5 238.75,212.2344 Q239.3438,211.9531 239.9688,211.375 L239.9688,214.0938 Z "/><text fill="#000000" font-family="sans-serif" font-size="12" lengthAdjust="spacingAndGlyphs" textLength="46" x="251" y="212.6074">Column</text><line style="stroke: #A80036; stroke-width: 1.5;" x1="223" x2="299" y1="224.4531" y2="224.4531"/><line style="stroke: #A80036; stroke-width: 1.5;" x1="223" x2="299" y1="232.4531" y2="232.4531"/><!--link Table to Column--><path d="M181.3232,90.097 C200.1178,119.9025 228.2979,164.5923 245.6204,192.0632 " fill="none" id="Table-Column" style="stroke: #A80036; stroke-width: 1.0;"/><text fill="#000000" font-family="sans-serif" font-size="13" lengthAdjust="spacingAndGlyphs" textLength="23" x="209" y="133.02">has</text><text fill="#000000" font-family="sans-serif" font-size="13" lengthAdjust="spacingAndGlyphs" textLength="8" x="176.34" y="109.7058">1</text><text fill="#000000" font-family="sans-serif" font-size="13" lengthAdjust="spacingAndGlyphs" textLength="23" x="216.0685" y="181.3731">0..*</text><!--link Table to Row--><path d="M134.7385,90.2291 C126.8241,99.5738 118.3413,110.0048 111,119.9531 C100.1219,134.6942 89.0552,151.3031 79.3402,166.5336 " fill="none" id="Table-Row" style="stroke: #A80036; stroke-width: 1.0;"/><text fill="#000000" font-family="sans-serif" font-size="13" lengthAdjust="spacingAndGlyphs" textLength="23" x="112" y="133.02">has</text><text fill="#000000" font-family="sans-serif" font-size="13" lengthAdjust="spacingAndGlyphs" textLength="8" x="120.5839" y="109.8639">1</text><text fill="#000000" font-family="sans-serif" font-size="13" lengthAdjust="spacingAndGlyphs" textLength="23" x="58.8719" y="155.879">0..*</text><!--link Table to Cell--><path d="M162,90.1325 C162,150.162 162,282.5198 162,342.6492 " fill="none" id="Table-Cell" style="stroke: #A80036; stroke-width: 1.0;"/><text fill="#000000" font-family="sans-serif" font-size="13" lengthAdjust="spacingAndGlyphs" textLength="23" x="163" y="221.02">has</text><text fill="#000000" font-family="sans-serif" font-size="13" lengthAdjust="spacingAndGlyphs" textLength="8" x="153.2125" y="109.7483">1</text><text fill="#000000" font-family="sans-serif" font-size="13" lengthAdjust="spacingAndGlyphs" textLength="23" x="136.6281" y="331.8498">0..*</text><!--link Row to Cell--><path d="M79.3402,266.3726 C89.0552,281.6031 100.1219,298.212 111,312.9531 C118.3413,322.9014 126.8241,333.3324 134.7385,342.6771 " fill="none" id="Row-Cell" style="stroke: #A80036; stroke-width: 1.0;"/><text fill="#000000" font-family="sans-serif" font-size="13" lengthAdjust="spacingAndGlyphs" textLength="23" x="112" y="309.02">has</text><text fill="#000000" font-family="sans-serif" font-size="13" lengthAdjust="spacingAndGlyphs" textLength="8" x="74.8797" y="286.1495">1</text><text fill="#000000" font-family="sans-serif" font-size="13" lengthAdjust="spacingAndGlyphs" textLength="23" x="104.1073" y="332.2407">0..*</text><!--link Column to Cell--><path d="M245.7482,240.6403 C228.446,268.0791 200.194,312.8829 181.3531,342.7618 " fill="none" id="Column-Cell" style="stroke: #A80036; stroke-width: 1.0;"/><text fill="#000000" font-family="sans-serif" font-size="13" lengthAdjust="spacingAndGlyphs" textLength="23" x="209" y="309.02">has</text><text fill="#000000" font-family="sans-serif" font-size="13" lengthAdjust="spacingAndGlyphs" textLength="8" x="233.0556" y="260.4472">1</text><text fill="#000000" font-family="sans-serif" font-size="13" lengthAdjust="spacingAndGlyphs" textLength="23" x="187.7166" y="331.9856">0..*</text><!--
@startuml
title Domain Model

class Table{
name
}


class Row{
name
type
allowsBlanks
defaultValue
}

class Cell{
value
}

class Column


Table "1" - - "0..*" Column: has
Table "1" - - "0..*" Row: has
Table "1" - - "0..*" Cell: has
Row "1" - - "0..*" Cell: has
Column "1" - - "0..*" Cell: has

@enduml

PlantUML version 1.2017.15(Mon Jul 03 18:45:34 CEST 2017)
(GPL source distribution)
Java Runtime: OpenJDK Runtime Environment
JVM: OpenJDK 64-Bit Server VM
Java Version: 10.0.2+13-Ubuntu-1ubuntu0.18.04.4
Operating System: Linux
OS Version: 4.15.0-46-generic
Default Encoding: UTF-8
Language: en
Country: US
--></g></svg>