<?xml version="1.0" encoding="UTF-8" standalone="no"?><svg xmlns="http://www.w3.org/2000/svg" xmlns:xlink="http://www.w3.org/1999/xlink" contentScriptType="application/ecmascript" contentStyleType="text/css" height="336px" preserveAspectRatio="none" style="width:593px;height:336px;" version="1.1" viewBox="0 0 593 336" width="593px" zoomAndPan="magnify"><defs><filter height="300%" id="f1krswu6qq6cir" width="300%" x="-1" y="-1"><feGaussianBlur result="blurOut" stdDeviation="2.0"/><feColorMatrix in="blurOut" result="blurOut2" type="matrix" values="0 0 0 0 0 0 0 0 0 0 0 0 0 0 0 0 0 0 .4 0"/><feOffset dx="4.0" dy="4.0" in="blurOut2" result="blurOut3"/><feBlend in="SourceGraphic" in2="blurOut3" mode="normal"/></filter></defs><g><rect fill="#FFFFFF" filter="url(#f1krswu6qq6cir)" height="106.3984" style="stroke: #A80036; stroke-width: 1.0;" width="10" x="226" y="117.2969"/><rect fill="#FFFFFF" filter="url(#f1krswu6qq6cir)" height="106.3984" style="stroke: #A80036; stroke-width: 1.0;" width="10" x="427" y="117.2969"/><line style="stroke: #A80036; stroke-width: 1.0; stroke-dasharray: 5.0,5.0;" x1="27" x2="27" y1="86.2969" y2="248.8281"/><line style="stroke: #A80036; stroke-width: 1.0; stroke-dasharray: 5.0,5.0;" x1="230.5" x2="230.5" y1="86.2969" y2="248.8281"/><line style="stroke: #A80036; stroke-width: 1.0; stroke-dasharray: 5.0,5.0;" x1="432" x2="432" y1="86.2969" y2="248.8281"/><text fill="#000000" font-family="sans-serif" font-size="14" lengthAdjust="spacingAndGlyphs" textLength="32" x="8" y="82.9951">User</text><ellipse cx="27" cy="13" fill="#FEFECE" filter="url(#f1krswu6qq6cir)" rx="8" ry="8" style="stroke: #A80036; stroke-width: 2.0;"/><path d="M27,21 L27,48 M14,29 L40,29 M27,48 L14,63 M27,48 L40,63 " fill="#FEFECE" filter="url(#f1krswu6qq6cir)" style="stroke: #A80036; stroke-width: 2.0;"/><text fill="#000000" font-family="sans-serif" font-size="14" lengthAdjust="spacingAndGlyphs" textLength="32" x="8" y="260.8232">User</text><ellipse cx="27" cy="274.125" fill="#FEFECE" filter="url(#f1krswu6qq6cir)" rx="8" ry="8" style="stroke: #A80036; stroke-width: 2.0;"/><path d="M27,282.125 L27,309.125 M14,290.125 L40,290.125 M27,309.125 L14,324.125 M27,309.125 L40,324.125 " fill="#FEFECE" filter="url(#f1krswu6qq6cir)" style="stroke: #A80036; stroke-width: 2.0;"/><rect fill="#FEFECE" filter="url(#f1krswu6qq6cir)" height="30.2969" style="stroke: #A80036; stroke-width: 1.5;" width="105" x="176.5" y="51"/><text fill="#000000" font-family="sans-serif" font-size="14" lengthAdjust="spacingAndGlyphs" textLength="91" x="183.5" y="70.9951">TableHandler</text><rect fill="#FEFECE" filter="url(#f1krswu6qq6cir)" height="30.2969" style="stroke: #A80036; stroke-width: 1.5;" width="105" x="176.5" y="247.8281"/><text fill="#000000" font-family="sans-serif" font-size="14" lengthAdjust="spacingAndGlyphs" textLength="91" x="183.5" y="267.8232">TableHandler</text><rect fill="#FEFECE" filter="url(#f1krswu6qq6cir)" height="30.2969" style="stroke: #A80036; stroke-width: 1.5;" width="52" x="404" y="51"/><text fill="#000000" font-family="sans-serif" font-size="14" lengthAdjust="spacingAndGlyphs" textLength="38" x="411" y="70.9951">Table</text><rect fill="#FEFECE" filter="url(#f1krswu6qq6cir)" height="30.2969" style="stroke: #A80036; stroke-width: 1.5;" width="52" x="404" y="247.8281"/><text fill="#000000" font-family="sans-serif" font-size="14" lengthAdjust="spacingAndGlyphs" textLength="38" x="411" y="267.8232">Table</text><rect fill="#FFFFFF" filter="url(#f1krswu6qq6cir)" height="106.3984" style="stroke: #A80036; stroke-width: 1.0;" width="10" x="226" y="117.2969"/><rect fill="#FFFFFF" filter="url(#f1krswu6qq6cir)" height="106.3984" style="stroke: #A80036; stroke-width: 1.0;" width="10" x="427" y="117.2969"/><polygon fill="#A80036" points="214,113.2969,224,117.2969,214,121.2969,218,117.2969" style="stroke: #A80036; stroke-width: 1.0;"/><line style="stroke: #A80036; stroke-width: 1.0;" x1="27" x2="220" y1="117.2969" y2="117.2969"/><text fill="#000000" font-family="sans-serif" font-size="13" lengthAdjust="spacingAndGlyphs" textLength="180" x="34" y="112.3638">setTableName(table, name)</text><line style="stroke: #A80036; stroke-width: 1.0;" x1="236" x2="278" y1="146.5625" y2="146.5625"/><line style="stroke: #A80036; stroke-width: 1.0;" x1="278" x2="278" y1="146.5625" y2="159.5625"/><line style="stroke: #A80036; stroke-width: 1.0;" x1="237" x2="278" y1="159.5625" y2="159.5625"/><polygon fill="#A80036" points="247,155.5625,237,159.5625,247,163.5625,243,159.5625" style="stroke: #A80036; stroke-width: 1.0;"/><text fill="#000000" font-family="sans-serif" font-size="13" lengthAdjust="spacingAndGlyphs" textLength="177" x="243" y="141.4966">isNameAlreadyUsed(name)</text><polygon fill="#A80036" points="415,184.5625,425,188.5625,415,192.5625,419,188.5625" style="stroke: #A80036; stroke-width: 1.0;"/><line style="stroke: #A80036; stroke-width: 1.0;" x1="236" x2="421" y1="188.5625" y2="188.5625"/><text fill="#000000" font-family="sans-serif" font-size="13" lengthAdjust="spacingAndGlyphs" textLength="106" x="243" y="183.6294">setName(name)</text><line style="stroke: #A80036; stroke-width: 1.0;" x1="437" x2="479" y1="222.8281" y2="222.8281"/><line style="stroke: #A80036; stroke-width: 1.0;" x1="479" x2="479" y1="222.8281" y2="235.8281"/><line style="stroke: #A80036; stroke-width: 1.0;" x1="432" x2="479" y1="235.8281" y2="235.8281"/><polygon fill="#A80036" points="442,231.8281,432,235.8281,442,239.8281,438,235.8281" style="stroke: #A80036; stroke-width: 1.0;"/><text fill="#000000" font-family="sans-serif" font-size="13" lengthAdjust="spacingAndGlyphs" textLength="137" x="444" y="217.7622">isNameEmpty(name)</text><!--
@startuml
actor User

User -> TableHandler: setTableName(table, name)
activate TableHandler
activate Table
TableHandler -> TableHandler: isNameAlreadyUsed(name)
TableHandler -> Table: setName(name)
Table -> Table: isNameEmpty(name)
deactivate Table
deactivate TableHandler


@enduml

PlantUML version 1.2017.15(Mon Jul 03 18:45:34 CEST 2017)
(GPL source distribution)
Java Runtime: OpenJDK Runtime Environment
JVM: OpenJDK 64-Bit Server VM
Java Version: 10.0.2+13-Ubuntu-1ubuntu0.18.04.4
Operating System: Linux
OS Version: 4.15.0-46-generic
Default Encoding: UTF-8
Language: en
Country: US
--></g></svg>