<?xml version="1.0" encoding="UTF-8" standalone="no"?><svg xmlns="http://www.w3.org/2000/svg" xmlns:xlink="http://www.w3.org/1999/xlink" contentScriptType="application/ecmascript" contentStyleType="text/css" height="517px" preserveAspectRatio="none" style="width:1086px;height:517px;" version="1.1" viewBox="0 0 1086 517" width="1086px" zoomAndPan="magnify"><defs><filter height="300%" id="fiv6y1aro2abh" width="300%" x="-1" y="-1"><feGaussianBlur result="blurOut" stdDeviation="2.0"/><feColorMatrix in="blurOut" result="blurOut2" type="matrix" values="0 0 0 0 0 0 0 0 0 0 0 0 0 0 0 0 0 0 .4 0"/><feOffset dx="4.0" dy="4.0" in="blurOut2" result="blurOut3"/><feBlend in="SourceGraphic" in2="blurOut3" mode="normal"/></filter></defs><g><text fill="#000000" font-family="sans-serif" font-size="14" font-weight="bold" lengthAdjust="spacingAndGlyphs" textLength="203" x="442.75" y="22.9951">Edit Column Default Value</text><rect fill="#FFFFFF" filter="url(#fiv6y1aro2abh)" height="273.3281" style="stroke: #A80036; stroke-width: 1.0;" width="10" x="186" y="147.5938"/><rect fill="#FFFFFF" filter="url(#fiv6y1aro2abh)" height="228.0625" style="stroke: #A80036; stroke-width: 1.0;" width="10" x="402" y="176.7266"/><rect fill="#FFFFFF" filter="url(#fiv6y1aro2abh)" height="169.7969" style="stroke: #A80036; stroke-width: 1.0;" width="10" x="697" y="205.8594"/><rect fill="#FFFFFF" filter="url(#fiv6y1aro2abh)" height="111.5313" style="stroke: #A80036; stroke-width: 1.0;" width="10" x="913" y="234.9922"/><rect fill="#FFFFFF" filter="url(#fiv6y1aro2abh)" height="53.2656" style="stroke: #A80036; stroke-width: 1.0;" width="10" x="1025" y="264.125"/><rect fill="#FFFFFF" filter="url(#fiv6y1aro2abh)" height="133.6641" style="stroke: #000000; stroke-width: 2.0;" width="947.5" x="128" y="279.2578"/><line style="stroke: #A80036; stroke-width: 1.0; stroke-dasharray: 5.0,5.0;" x1="27" x2="27" y1="116.5938" y2="429.9219"/><line style="stroke: #A80036; stroke-width: 1.0; stroke-dasharray: 5.0,5.0;" x1="191" x2="191" y1="116.5938" y2="429.9219"/><line style="stroke: #A80036; stroke-width: 1.0; stroke-dasharray: 5.0,5.0;" x1="407" x2="407" y1="116.5938" y2="429.9219"/><line style="stroke: #A80036; stroke-width: 1.0; stroke-dasharray: 5.0,5.0;" x1="565" x2="565" y1="116.5938" y2="429.9219"/><line style="stroke: #A80036; stroke-width: 1.0; stroke-dasharray: 5.0,5.0;" x1="702" x2="702" y1="116.5938" y2="429.9219"/><line style="stroke: #A80036; stroke-width: 1.0; stroke-dasharray: 5.0,5.0;" x1="918" x2="918" y1="116.5938" y2="429.9219"/><line style="stroke: #A80036; stroke-width: 1.0; stroke-dasharray: 5.0,5.0;" x1="1029.5" x2="1029.5" y1="116.5938" y2="429.9219"/><text fill="#000000" font-family="sans-serif" font-size="14" lengthAdjust="spacingAndGlyphs" textLength="32" x="8" y="113.292">User</text><ellipse cx="27" cy="43.2969" fill="#FEFECE" filter="url(#fiv6y1aro2abh)" rx="8" ry="8" style="stroke: #A80036; stroke-width: 2.0;"/><path d="M27,51.2969 L27,78.2969 M14,59.2969 L40,59.2969 M27,78.2969 L14,93.2969 M27,78.2969 L40,93.2969 " fill="#FEFECE" filter="url(#fiv6y1aro2abh)" style="stroke: #A80036; stroke-width: 2.0;"/><text fill="#000000" font-family="sans-serif" font-size="14" lengthAdjust="spacingAndGlyphs" textLength="32" x="8" y="441.917">User</text><ellipse cx="27" cy="455.2188" fill="#FEFECE" filter="url(#fiv6y1aro2abh)" rx="8" ry="8" style="stroke: #A80036; stroke-width: 2.0;"/><path d="M27,463.2188 L27,490.2188 M14,471.2188 L40,471.2188 M27,490.2188 L14,505.2188 M27,490.2188 L40,505.2188 " fill="#FEFECE" filter="url(#fiv6y1aro2abh)" style="stroke: #A80036; stroke-width: 2.0;"/><rect fill="#FEFECE" filter="url(#fiv6y1aro2abh)" height="30.2969" style="stroke: #A80036; stroke-width: 1.5;" width="102" x="138" y="81.2969"/><text fill="#000000" font-family="sans-serif" font-size="14" lengthAdjust="spacingAndGlyphs" textLength="88" x="145" y="101.292">EditorWidget</text><rect fill="#FEFECE" filter="url(#fiv6y1aro2abh)" height="30.2969" style="stroke: #A80036; stroke-width: 1.5;" width="102" x="138" y="428.9219"/><text fill="#000000" font-family="sans-serif" font-size="14" lengthAdjust="spacingAndGlyphs" textLength="88" x="145" y="448.917">EditorWidget</text><rect fill="#FEFECE" filter="url(#fiv6y1aro2abh)" height="30.2969" style="stroke: #A80036; stroke-width: 1.5;" width="154" x="328" y="81.2969"/><text fill="#000000" font-family="sans-serif" font-size="14" lengthAdjust="spacingAndGlyphs" textLength="140" x="335" y="101.292">TableDesignHandler</text><rect fill="#FEFECE" filter="url(#fiv6y1aro2abh)" height="30.2969" style="stroke: #A80036; stroke-width: 1.5;" width="154" x="328" y="428.9219"/><text fill="#000000" font-family="sans-serif" font-size="14" lengthAdjust="spacingAndGlyphs" textLength="140" x="335" y="448.917">TableDesignHandler</text><rect fill="#FEFECE" filter="url(#fiv6y1aro2abh)" height="30.2969" style="stroke: #A80036; stroke-width: 1.5;" width="134" x="496" y="81.2969"/><text fill="#000000" font-family="sans-serif" font-size="14" lengthAdjust="spacingAndGlyphs" textLength="120" x="503" y="101.292">UIWindowHandler</text><rect fill="#FEFECE" filter="url(#fiv6y1aro2abh)" height="30.2969" style="stroke: #A80036; stroke-width: 1.5;" width="134" x="496" y="428.9219"/><text fill="#000000" font-family="sans-serif" font-size="14" lengthAdjust="spacingAndGlyphs" textLength="120" x="503" y="448.917">UIWindowHandler</text><rect fill="#FEFECE" filter="url(#fiv6y1aro2abh)" height="30.2969" style="stroke: #A80036; stroke-width: 1.5;" width="112" x="644" y="81.2969"/><text fill="#000000" font-family="sans-serif" font-size="14" lengthAdjust="spacingAndGlyphs" textLength="98" x="651" y="101.292">TableManager</text><rect fill="#FEFECE" filter="url(#fiv6y1aro2abh)" height="30.2969" style="stroke: #A80036; stroke-width: 1.5;" width="112" x="644" y="428.9219"/><text fill="#000000" font-family="sans-serif" font-size="14" lengthAdjust="spacingAndGlyphs" textLength="98" x="651" y="448.917">TableManager</text><rect fill="#FEFECE" filter="url(#fiv6y1aro2abh)" height="30.2969" style="stroke: #A80036; stroke-width: 1.5;" width="52" x="890" y="81.2969"/><text fill="#000000" font-family="sans-serif" font-size="14" lengthAdjust="spacingAndGlyphs" textLength="38" x="897" y="101.292">Table</text><rect fill="#FEFECE" filter="url(#fiv6y1aro2abh)" height="30.2969" style="stroke: #A80036; stroke-width: 1.5;" width="52" x="890" y="428.9219"/><text fill="#000000" font-family="sans-serif" font-size="14" lengthAdjust="spacingAndGlyphs" textLength="38" x="897" y="448.917">Table</text><rect fill="#FEFECE" filter="url(#fiv6y1aro2abh)" height="30.2969" style="stroke: #A80036; stroke-width: 1.5;" width="67" x="994.5" y="81.2969"/><text fill="#000000" font-family="sans-serif" font-size="14" lengthAdjust="spacingAndGlyphs" textLength="53" x="1001.5" y="101.292">Column</text><rect fill="#FEFECE" filter="url(#fiv6y1aro2abh)" height="30.2969" style="stroke: #A80036; stroke-width: 1.5;" width="67" x="994.5" y="428.9219"/><text fill="#000000" font-family="sans-serif" font-size="14" lengthAdjust="spacingAndGlyphs" textLength="53" x="1001.5" y="448.917">Column</text><rect fill="#FFFFFF" filter="url(#fiv6y1aro2abh)" height="273.3281" style="stroke: #A80036; stroke-width: 1.0;" width="10" x="186" y="147.5938"/><rect fill="#FFFFFF" filter="url(#fiv6y1aro2abh)" height="228.0625" style="stroke: #A80036; stroke-width: 1.0;" width="10" x="402" y="176.7266"/><rect fill="#FFFFFF" filter="url(#fiv6y1aro2abh)" height="169.7969" style="stroke: #A80036; stroke-width: 1.0;" width="10" x="697" y="205.8594"/><rect fill="#FFFFFF" filter="url(#fiv6y1aro2abh)" height="111.5313" style="stroke: #A80036; stroke-width: 1.0;" width="10" x="913" y="234.9922"/><rect fill="#FFFFFF" filter="url(#fiv6y1aro2abh)" height="53.2656" style="stroke: #A80036; stroke-width: 1.0;" width="10" x="1025" y="264.125"/><polygon fill="#A80036" points="174,143.5938,184,147.5938,174,151.5938,178,147.5938" style="stroke: #A80036; stroke-width: 1.0;"/><line style="stroke: #A80036; stroke-width: 1.0;" x1="27" x2="180" y1="147.5938" y2="147.5938"/><text fill="#000000" font-family="sans-serif" font-size="13" lengthAdjust="spacingAndGlyphs" textLength="140" x="34" y="142.6606">changes default value</text><polygon fill="#A80036" points="390,172.7266,400,176.7266,390,180.7266,394,176.7266" style="stroke: #A80036; stroke-width: 1.0;"/><line style="stroke: #A80036; stroke-width: 1.0;" x1="196" x2="396" y1="176.7266" y2="176.7266"/><text fill="#000000" font-family="sans-serif" font-size="13" lengthAdjust="spacingAndGlyphs" textLength="187" x="203" y="171.7935">setColumnDV(column, value)</text><polygon fill="#A80036" points="685,201.8594,695,205.8594,685,209.8594,689,205.8594" style="stroke: #A80036; stroke-width: 1.0;"/><line style="stroke: #A80036; stroke-width: 1.0;" x1="412" x2="691" y1="205.8594" y2="205.8594"/><text fill="#000000" font-family="sans-serif" font-size="13" lengthAdjust="spacingAndGlyphs" textLength="187" x="419" y="200.9263">setColumnDV(column, value)</text><polygon fill="#A80036" points="901,230.9922,911,234.9922,901,238.9922,905,234.9922" style="stroke: #A80036; stroke-width: 1.0;"/><line style="stroke: #A80036; stroke-width: 1.0;" x1="707" x2="907" y1="234.9922" y2="234.9922"/><text fill="#000000" font-family="sans-serif" font-size="13" lengthAdjust="spacingAndGlyphs" textLength="187" x="714" y="230.0591">setColumnDV(column, value)</text><polygon fill="#A80036" points="1013,260.125,1023,264.125,1013,268.125,1017,264.125" style="stroke: #A80036; stroke-width: 1.0;"/><line style="stroke: #A80036; stroke-width: 1.0;" x1="923" x2="1019" y1="264.125" y2="264.125"/><text fill="#000000" font-family="sans-serif" font-size="13" lengthAdjust="spacingAndGlyphs" textLength="83" x="930" y="259.1919">setDV(value)</text><rect fill="none" height="133.6641" style="stroke: #000000; stroke-width: 2.0;" width="947.5" x="128" y="279.2578"/><polygon fill="#EEEEEE" points="128,279.2578,198,279.2578,198,286.2578,188,296.2578,128,296.2578,128,279.2578" style="stroke: #000000; stroke-width: 2.0;"/><text fill="#000000" font-family="sans-serif" font-size="13" font-weight="bold" lengthAdjust="spacingAndGlyphs" textLength="25" x="143" y="292.3247">opt</text><text fill="#000000" font-family="sans-serif" font-size="11" font-weight="bold" lengthAdjust="spacingAndGlyphs" textLength="166" x="213" y="291.4683">[!canHaveAsValue(value)]</text><polygon fill="#A80036" points="934,313.3906,924,317.3906,934,321.3906,930,317.3906" style="stroke: #A80036; stroke-width: 1.0;"/><line style="stroke: #A80036; stroke-width: 1.0;" x1="928" x2="1029" y1="317.3906" y2="317.3906"/><text fill="#000000" font-family="sans-serif" font-size="13" lengthAdjust="spacingAndGlyphs" textLength="42" x="940" y="312.4575">ERROR</text><polygon fill="#A80036" points="718,342.5234,708,346.5234,718,350.5234,714,346.5234" style="stroke: #A80036; stroke-width: 1.0;"/><line style="stroke: #A80036; stroke-width: 1.0;" x1="712" x2="917" y1="346.5234" y2="346.5234"/><text fill="#000000" font-family="sans-serif" font-size="13" lengthAdjust="spacingAndGlyphs" textLength="42" x="724" y="341.5903">ERROR</text><polygon fill="#A80036" points="423,371.6563,413,375.6563,423,379.6563,419,375.6563" style="stroke: #A80036; stroke-width: 1.0;"/><line style="stroke: #A80036; stroke-width: 1.0;" x1="417" x2="701" y1="375.6563" y2="375.6563"/><text fill="#000000" font-family="sans-serif" font-size="13" lengthAdjust="spacingAndGlyphs" textLength="42" x="429" y="370.7231">ERROR</text><polygon fill="#A80036" points="207,400.7891,197,404.7891,207,408.7891,203,404.7891" style="stroke: #A80036; stroke-width: 1.0;"/><line style="stroke: #A80036; stroke-width: 1.0;" x1="201" x2="406" y1="404.7891" y2="404.7891"/><text fill="#000000" font-family="sans-serif" font-size="13" lengthAdjust="spacingAndGlyphs" textLength="42" x="213" y="399.856">ERROR</text><!--
@startuml
title Edit Column Default Value
Actor User



User -> EditorWidget: changes default value
activate EditorWidget
EditorWidget -> TableDesignHandler: setColumnDV(column, value)
deactivate UIWindowHandler

activate TableDesignHandler
TableDesignHandler -> TableManager: setColumnDV(column, value)
activate TableManager
TableManager -> Table: setColumnDV(column, value)
activate Table
Table -> Column: setDV(value)
activate Column

opt !canHaveAsValue(value)
    Column -> Table: ERROR
    deactivate Column
    Table -> TableManager: ERROR
    deactivate Table
    TableManager -> TableDesignHandler: ERROR
    deactivate TableManager
    TableDesignHandler -> EditorWidget: ERROR
    deactivate TableDesignHandler
end

@enduml

PlantUML version 1.2017.15(Mon Jul 03 18:45:34 CEST 2017)
(GPL source distribution)
Java Runtime: OpenJDK Runtime Environment
JVM: OpenJDK 64-Bit Server VM
Java Version: 10.0.2+13-Ubuntu-1ubuntu0.18.04.4
Operating System: Linux
OS Version: 4.15.0-46-generic
Default Encoding: UTF-8
Language: en
Country: US
--></g></svg>