<?xml version="1.0" encoding="UTF-8" standalone="no"?><svg xmlns="http://www.w3.org/2000/svg" xmlns:xlink="http://www.w3.org/1999/xlink" contentScriptType="application/ecmascript" contentStyleType="text/css" height="457px" preserveAspectRatio="none" style="width:1147px;height:457px;" version="1.1" viewBox="0 0 1147 457" width="1147px" zoomAndPan="magnify"><defs><filter height="300%" id="f18b79bypyx181" width="300%" x="-1" y="-1"><feGaussianBlur result="blurOut" stdDeviation="2.0"/><feColorMatrix in="blurOut" result="blurOut2" type="matrix" values="0 0 0 0 0 0 0 0 0 0 0 0 0 0 0 0 0 0 .4 0"/><feOffset dx="4.0" dy="4.0" in="blurOut2" result="blurOut3"/><feBlend in="SourceGraphic" in2="blurOut3" mode="normal"/></filter></defs><g><text fill="#000000" font-family="sans-serif" font-size="14" font-weight="bold" lengthAdjust="spacingAndGlyphs" textLength="90" x="530.25" y="22.9951">Delete Row</text><text fill="#000000" font-family="sans-serif" font-size="14" font-weight="bold" lengthAdjust="spacingAndGlyphs" textLength="33" x="558.75" y="39.292">MSS</text><rect fill="#FFFFFF" filter="url(#f18b79bypyx181)" height="196.9297" style="stroke: #A80036; stroke-width: 1.0;" width="10" x="192" y="163.8906"/><rect fill="#FFFFFF" filter="url(#f18b79bypyx181)" height="151.6641" style="stroke: #A80036; stroke-width: 1.0;" width="10" x="460" y="193.0234"/><rect fill="#FFFFFF" filter="url(#f18b79bypyx181)" height="122.5313" style="stroke: #A80036; stroke-width: 1.0;" width="10" x="719.5" y="222.1563"/><rect fill="#FFFFFF" filter="url(#f18b79bypyx181)" height="64.2656" style="stroke: #A80036; stroke-width: 1.0;" width="10" x="868.5" y="280.4219"/><rect fill="#FFFFFF" filter="url(#f18b79bypyx181)" height="35.1328" style="stroke: #A80036; stroke-width: 1.0;" width="10" x="997.5" y="309.5547"/><line style="stroke: #A80036; stroke-width: 1.0; stroke-dasharray: 5.0,5.0;" x1="27" x2="27" y1="132.8906" y2="369.8203"/><line style="stroke: #A80036; stroke-width: 1.0; stroke-dasharray: 5.0,5.0;" x1="197" x2="197" y1="132.8906" y2="369.8203"/><line style="stroke: #A80036; stroke-width: 1.0; stroke-dasharray: 5.0,5.0;" x1="464.5" x2="464.5" y1="132.8906" y2="369.8203"/><line style="stroke: #A80036; stroke-width: 1.0; stroke-dasharray: 5.0,5.0;" x1="617.5" x2="617.5" y1="132.8906" y2="369.8203"/><line style="stroke: #A80036; stroke-width: 1.0; stroke-dasharray: 5.0,5.0;" x1="724.5" x2="724.5" y1="132.8906" y2="369.8203"/><line style="stroke: #A80036; stroke-width: 1.0; stroke-dasharray: 5.0,5.0;" x1="873" x2="873" y1="132.8906" y2="369.8203"/><line style="stroke: #A80036; stroke-width: 1.0; stroke-dasharray: 5.0,5.0;" x1="1002" x2="1002" y1="132.8906" y2="369.8203"/><text fill="#000000" font-family="sans-serif" font-size="14" lengthAdjust="spacingAndGlyphs" textLength="32" x="8" y="129.5889">User</text><ellipse cx="27" cy="59.5938" fill="#FEFECE" filter="url(#f18b79bypyx181)" rx="8" ry="8" style="stroke: #A80036; stroke-width: 2.0;"/><path d="M27,67.5938 L27,94.5938 M14,75.5938 L40,75.5938 M27,94.5938 L14,109.5938 M27,94.5938 L40,109.5938 " fill="#FEFECE" filter="url(#f18b79bypyx181)" style="stroke: #A80036; stroke-width: 2.0;"/><text fill="#000000" font-family="sans-serif" font-size="14" lengthAdjust="spacingAndGlyphs" textLength="32" x="8" y="381.8154">User</text><ellipse cx="27" cy="395.1172" fill="#FEFECE" filter="url(#f18b79bypyx181)" rx="8" ry="8" style="stroke: #A80036; stroke-width: 2.0;"/><path d="M27,403.1172 L27,430.1172 M14,411.1172 L40,411.1172 M27,430.1172 L14,445.1172 M27,430.1172 L40,445.1172 " fill="#FEFECE" filter="url(#f18b79bypyx181)" style="stroke: #A80036; stroke-width: 2.0;"/><rect fill="#FEFECE" filter="url(#f18b79bypyx181)" height="30.2969" style="stroke: #A80036; stroke-width: 1.5;" width="102" x="144" y="97.5938"/><text fill="#000000" font-family="sans-serif" font-size="14" lengthAdjust="spacingAndGlyphs" textLength="88" x="151" y="117.5889">EditorWidget</text><rect fill="#FEFECE" filter="url(#f18b79bypyx181)" height="30.2969" style="stroke: #A80036; stroke-width: 1.5;" width="102" x="144" y="368.8203"/><text fill="#000000" font-family="sans-serif" font-size="14" lengthAdjust="spacingAndGlyphs" textLength="88" x="151" y="388.8154">EditorWidget</text><rect fill="#FEFECE" filter="url(#f18b79bypyx181)" height="30.2969" style="stroke: #A80036; stroke-width: 1.5;" width="143" x="391.5" y="97.5938"/><text fill="#000000" font-family="sans-serif" font-size="14" lengthAdjust="spacingAndGlyphs" textLength="129" x="398.5" y="117.5889">TableRowsHandler</text><rect fill="#FEFECE" filter="url(#f18b79bypyx181)" height="30.2969" style="stroke: #A80036; stroke-width: 1.5;" width="143" x="391.5" y="368.8203"/><text fill="#000000" font-family="sans-serif" font-size="14" lengthAdjust="spacingAndGlyphs" textLength="129" x="398.5" y="388.8154">TableRowsHandler</text><rect fill="#FEFECE" filter="url(#f18b79bypyx181)" height="30.2969" style="stroke: #A80036; stroke-width: 1.5;" width="134" x="548.5" y="97.5938"/><text fill="#000000" font-family="sans-serif" font-size="14" lengthAdjust="spacingAndGlyphs" textLength="120" x="555.5" y="117.5889">UIWindowHandler</text><rect fill="#FEFECE" filter="url(#f18b79bypyx181)" height="30.2969" style="stroke: #A80036; stroke-width: 1.5;" width="134" x="548.5" y="368.8203"/><text fill="#000000" font-family="sans-serif" font-size="14" lengthAdjust="spacingAndGlyphs" textLength="120" x="555.5" y="388.8154">UIWindowHandler</text><rect fill="#FEFECE" filter="url(#f18b79bypyx181)" height="30.2969" style="stroke: #A80036; stroke-width: 1.5;" width="52" x="696.5" y="97.5938"/><text fill="#000000" font-family="sans-serif" font-size="14" lengthAdjust="spacingAndGlyphs" textLength="38" x="703.5" y="117.5889">Table</text><rect fill="#FEFECE" filter="url(#f18b79bypyx181)" height="30.2969" style="stroke: #A80036; stroke-width: 1.5;" width="52" x="696.5" y="368.8203"/><text fill="#000000" font-family="sans-serif" font-size="14" lengthAdjust="spacingAndGlyphs" textLength="38" x="703.5" y="388.8154">Table</text><rect fill="#FEFECE" filter="url(#f18b79bypyx181)" height="30.2969" style="stroke: #A80036; stroke-width: 1.5;" width="67" x="838" y="97.5938"/><text fill="#000000" font-family="sans-serif" font-size="14" lengthAdjust="spacingAndGlyphs" textLength="53" x="845" y="117.5889">Column</text><rect fill="#FEFECE" filter="url(#f18b79bypyx181)" height="30.2969" style="stroke: #A80036; stroke-width: 1.5;" width="67" x="838" y="368.8203"/><text fill="#000000" font-family="sans-serif" font-size="14" lengthAdjust="spacingAndGlyphs" textLength="53" x="845" y="388.8154">Column</text><rect fill="#FEFECE" filter="url(#f18b79bypyx181)" height="30.2969" style="stroke: #A80036; stroke-width: 1.5;" width="39" x="981" y="97.5938"/><text fill="#000000" font-family="sans-serif" font-size="14" lengthAdjust="spacingAndGlyphs" textLength="25" x="988" y="117.5889">Cell</text><rect fill="#FEFECE" filter="url(#f18b79bypyx181)" height="30.2969" style="stroke: #A80036; stroke-width: 1.5;" width="39" x="981" y="368.8203"/><text fill="#000000" font-family="sans-serif" font-size="14" lengthAdjust="spacingAndGlyphs" textLength="25" x="988" y="388.8154">Cell</text><rect fill="#FFFFFF" filter="url(#f18b79bypyx181)" height="196.9297" style="stroke: #A80036; stroke-width: 1.0;" width="10" x="192" y="163.8906"/><rect fill="#FFFFFF" filter="url(#f18b79bypyx181)" height="151.6641" style="stroke: #A80036; stroke-width: 1.0;" width="10" x="460" y="193.0234"/><rect fill="#FFFFFF" filter="url(#f18b79bypyx181)" height="122.5313" style="stroke: #A80036; stroke-width: 1.0;" width="10" x="719.5" y="222.1563"/><rect fill="#FFFFFF" filter="url(#f18b79bypyx181)" height="64.2656" style="stroke: #A80036; stroke-width: 1.0;" width="10" x="868.5" y="280.4219"/><rect fill="#FFFFFF" filter="url(#f18b79bypyx181)" height="35.1328" style="stroke: #A80036; stroke-width: 1.0;" width="10" x="997.5" y="309.5547"/><polygon fill="#A80036" points="180,159.8906,190,163.8906,180,167.8906,184,163.8906" style="stroke: #A80036; stroke-width: 1.0;"/><line style="stroke: #A80036; stroke-width: 1.0;" x1="27" x2="186" y1="163.8906" y2="163.8906"/><text fill="#000000" font-family="sans-serif" font-size="13" lengthAdjust="spacingAndGlyphs" textLength="146" x="34" y="158.9575">changes column name</text><polygon fill="#A80036" points="448,189.0234,458,193.0234,448,197.0234,452,193.0234" style="stroke: #A80036; stroke-width: 1.0;"/><line style="stroke: #A80036; stroke-width: 1.0;" x1="202" x2="454" y1="193.0234" y2="193.0234"/><text fill="#000000" font-family="sans-serif" font-size="13" lengthAdjust="spacingAndGlyphs" textLength="239" x="209" y="188.0903">setCellValue(columnName,row,value)</text><polygon fill="#A80036" points="707.5,218.1563,717.5,222.1563,707.5,226.1563,711.5,222.1563" style="stroke: #A80036; stroke-width: 1.0;"/><line style="stroke: #A80036; stroke-width: 1.0;" x1="470" x2="713.5" y1="222.1563" y2="222.1563"/><text fill="#000000" font-family="sans-serif" font-size="13" lengthAdjust="spacingAndGlyphs" textLength="137" x="477" y="217.2231">isValidCell(cell, value)</text><polygon fill="#A80036" points="707.5,247.2891,717.5,251.2891,707.5,255.2891,711.5,251.2891" style="stroke: #A80036; stroke-width: 1.0;"/><line style="stroke: #A80036; stroke-width: 1.0;" x1="470" x2="713.5" y1="251.2891" y2="251.2891"/><text fill="#000000" font-family="sans-serif" font-size="13" lengthAdjust="spacingAndGlyphs" textLength="120" x="477" y="246.356">editCell(cell, value)</text><polygon fill="#A80036" points="856.5,276.4219,866.5,280.4219,856.5,284.4219,860.5,280.4219" style="stroke: #A80036; stroke-width: 1.0;"/><line style="stroke: #A80036; stroke-width: 1.0;" x1="729.5" x2="862.5" y1="280.4219" y2="280.4219"/><text fill="#000000" font-family="sans-serif" font-size="13" lengthAdjust="spacingAndGlyphs" textLength="120" x="736.5" y="275.4888">editCell(cell, value)</text><polygon fill="#A80036" points="985.5,305.5547,995.5,309.5547,985.5,313.5547,989.5,309.5547" style="stroke: #A80036; stroke-width: 1.0;"/><line style="stroke: #A80036; stroke-width: 1.0;" x1="878.5" x2="991.5" y1="309.5547" y2="309.5547"/><text fill="#000000" font-family="sans-serif" font-size="13" lengthAdjust="spacingAndGlyphs" textLength="100" x="885.5" y="304.6216">setValue(value)</text><line style="stroke: #A80036; stroke-width: 1.0;" x1="1007.5" x2="1049.5" y1="343.8203" y2="343.8203"/><line style="stroke: #A80036; stroke-width: 1.0;" x1="1049.5" x2="1049.5" y1="343.8203" y2="356.8203"/><line style="stroke: #A80036; stroke-width: 1.0;" x1="1002.5" x2="1049.5" y1="356.8203" y2="356.8203"/><polygon fill="#A80036" points="1012.5,352.8203,1002.5,356.8203,1012.5,360.8203,1008.5,356.8203" style="stroke: #A80036; stroke-width: 1.0;"/><text fill="#000000" font-family="sans-serif" font-size="13" lengthAdjust="spacingAndGlyphs" textLength="121" x="1014.5" y="338.7544">isValidValue(value)</text><!--
@startuml
title Delete Row\nMSS
Actor User

User -> EditorWidget: changes column name
activate EditorWidget
EditorWidget -> TableRowsHandler: setCellValue(columnName,row,value)
deactivate UIWindowHandler

activate TableRowsHandler
TableRowsHandler -> Table: isValidCell(cell, value)
activate Table
TableRowsHandler -> Table: editCell(cell, value)

Table -> Column: editCell(cell, value)
activate Column
Column -> Cell: setValue(value)
activate Cell
Cell -> Cell: isValidValue(value)
deactivate Cell
deactivate Column

deactivate Table

deactivate TableRowsHandler
@enduml

PlantUML version 1.2017.15(Mon Jul 03 18:45:34 CEST 2017)
(GPL source distribution)
Java Runtime: OpenJDK Runtime Environment
JVM: OpenJDK 64-Bit Server VM
Java Version: 10.0.2+13-Ubuntu-1ubuntu0.18.04.4
Operating System: Linux
OS Version: 4.15.0-46-generic
Default Encoding: UTF-8
Language: en
Country: US
--></g></svg>