<?xml version="1.0" encoding="UTF-8" standalone="no"?><svg xmlns="http://www.w3.org/2000/svg" xmlns:xlink="http://www.w3.org/1999/xlink" contentScriptType="application/ecmascript" contentStyleType="text/css" height="579px" preserveAspectRatio="none" style="width:1197px;height:579px;" version="1.1" viewBox="0 0 1197 579" width="1197px" zoomAndPan="magnify"><defs><filter height="300%" id="f1ovcp0c96803h" width="300%" x="-1" y="-1"><feGaussianBlur result="blurOut" stdDeviation="2.0"/><feColorMatrix in="blurOut" result="blurOut2" type="matrix" values="0 0 0 0 0 0 0 0 0 0 0 0 0 0 0 0 0 0 .4 0"/><feOffset dx="4.0" dy="4.0" in="blurOut2" result="blurOut3"/><feBlend in="SourceGraphic" in2="blurOut3" mode="normal"/></filter></defs><g><text fill="#000000" font-family="sans-serif" font-size="14" font-weight="bold" lengthAdjust="spacingAndGlyphs" textLength="142" x="528.25" y="22.9951">Edit Column Name</text><rect fill="#FFFFFF" filter="url(#f1ovcp0c96803h)" height="335.5938" style="stroke: #A80036; stroke-width: 1.0;" width="10" x="217" y="147.5938"/><rect fill="#FFFFFF" filter="url(#f1ovcp0c96803h)" height="290.3281" style="stroke: #A80036; stroke-width: 1.0;" width="10" x="456" y="176.7266"/><rect fill="#FFFFFF" filter="url(#f1ovcp0c96803h)" height="193.9297" style="stroke: #A80036; stroke-width: 1.0;" width="10" x="751" y="205.8594"/><rect fill="#FFFFFF" filter="url(#f1ovcp0c96803h)" height="135.6641" style="stroke: #A80036; stroke-width: 1.0;" width="10" x="990" y="234.9922"/><rect fill="#FFFFFF" filter="url(#f1ovcp0c96803h)" height="53.2656" style="stroke: #A80036; stroke-width: 1.0;" width="10" x="1125" y="288.2578"/><rect fill="#FFFFFF" filter="url(#f1ovcp0c96803h)" height="225.0625" style="stroke: #000000; stroke-width: 2.0;" width="1172.5" x="13" y="250.125"/><rect fill="#FFFFFF" filter="url(#f1ovcp0c96803h)" height="133.6641" style="stroke: #000000; stroke-width: 2.0;" width="1152.5" x="23" y="303.3906"/><rect fill="#FFFFFF" height="31.1328" style="stroke: none; stroke-width: 1.0;" width="1172.5" x="13" y="444.0547"/><line style="stroke: #A80036; stroke-width: 1.0; stroke-dasharray: 5.0,5.0;" x1="52" x2="52" y1="116.5938" y2="492.1875"/><line style="stroke: #A80036; stroke-width: 1.0; stroke-dasharray: 5.0,5.0;" x1="222" x2="222" y1="116.5938" y2="492.1875"/><line style="stroke: #A80036; stroke-width: 1.0; stroke-dasharray: 5.0,5.0;" x1="461" x2="461" y1="116.5938" y2="492.1875"/><line style="stroke: #A80036; stroke-width: 1.0; stroke-dasharray: 5.0,5.0;" x1="619" x2="619" y1="116.5938" y2="492.1875"/><line style="stroke: #A80036; stroke-width: 1.0; stroke-dasharray: 5.0,5.0;" x1="756" x2="756" y1="116.5938" y2="492.1875"/><line style="stroke: #A80036; stroke-width: 1.0; stroke-dasharray: 5.0,5.0;" x1="995" x2="995" y1="116.5938" y2="492.1875"/><line style="stroke: #A80036; stroke-width: 1.0; stroke-dasharray: 5.0,5.0;" x1="1129.5" x2="1129.5" y1="116.5938" y2="492.1875"/><text fill="#000000" font-family="sans-serif" font-size="14" lengthAdjust="spacingAndGlyphs" textLength="32" x="33" y="113.292">User</text><ellipse cx="52" cy="43.2969" fill="#FEFECE" filter="url(#f1ovcp0c96803h)" rx="8" ry="8" style="stroke: #A80036; stroke-width: 2.0;"/><path d="M52,51.2969 L52,78.2969 M39,59.2969 L65,59.2969 M52,78.2969 L39,93.2969 M52,78.2969 L65,93.2969 " fill="#FEFECE" filter="url(#f1ovcp0c96803h)" style="stroke: #A80036; stroke-width: 2.0;"/><text fill="#000000" font-family="sans-serif" font-size="14" lengthAdjust="spacingAndGlyphs" textLength="32" x="33" y="504.1826">User</text><ellipse cx="52" cy="517.4844" fill="#FEFECE" filter="url(#f1ovcp0c96803h)" rx="8" ry="8" style="stroke: #A80036; stroke-width: 2.0;"/><path d="M52,525.4844 L52,552.4844 M39,533.4844 L65,533.4844 M52,552.4844 L39,567.4844 M52,552.4844 L65,567.4844 " fill="#FEFECE" filter="url(#f1ovcp0c96803h)" style="stroke: #A80036; stroke-width: 2.0;"/><rect fill="#FEFECE" filter="url(#f1ovcp0c96803h)" height="30.2969" style="stroke: #A80036; stroke-width: 1.5;" width="102" x="169" y="81.2969"/><text fill="#000000" font-family="sans-serif" font-size="14" lengthAdjust="spacingAndGlyphs" textLength="88" x="176" y="101.292">EditorWidget</text><rect fill="#FEFECE" filter="url(#f1ovcp0c96803h)" height="30.2969" style="stroke: #A80036; stroke-width: 1.5;" width="102" x="169" y="491.1875"/><text fill="#000000" font-family="sans-serif" font-size="14" lengthAdjust="spacingAndGlyphs" textLength="88" x="176" y="511.1826">EditorWidget</text><rect fill="#FEFECE" filter="url(#f1ovcp0c96803h)" height="30.2969" style="stroke: #A80036; stroke-width: 1.5;" width="154" x="382" y="81.2969"/><text fill="#000000" font-family="sans-serif" font-size="14" lengthAdjust="spacingAndGlyphs" textLength="140" x="389" y="101.292">TableDesignHandler</text><rect fill="#FEFECE" filter="url(#f1ovcp0c96803h)" height="30.2969" style="stroke: #A80036; stroke-width: 1.5;" width="154" x="382" y="491.1875"/><text fill="#000000" font-family="sans-serif" font-size="14" lengthAdjust="spacingAndGlyphs" textLength="140" x="389" y="511.1826">TableDesignHandler</text><rect fill="#FEFECE" filter="url(#f1ovcp0c96803h)" height="30.2969" style="stroke: #A80036; stroke-width: 1.5;" width="134" x="550" y="81.2969"/><text fill="#000000" font-family="sans-serif" font-size="14" lengthAdjust="spacingAndGlyphs" textLength="120" x="557" y="101.292">UIWindowHandler</text><rect fill="#FEFECE" filter="url(#f1ovcp0c96803h)" height="30.2969" style="stroke: #A80036; stroke-width: 1.5;" width="134" x="550" y="491.1875"/><text fill="#000000" font-family="sans-serif" font-size="14" lengthAdjust="spacingAndGlyphs" textLength="120" x="557" y="511.1826">UIWindowHandler</text><rect fill="#FEFECE" filter="url(#f1ovcp0c96803h)" height="30.2969" style="stroke: #A80036; stroke-width: 1.5;" width="112" x="698" y="81.2969"/><text fill="#000000" font-family="sans-serif" font-size="14" lengthAdjust="spacingAndGlyphs" textLength="98" x="705" y="101.292">TableManager</text><rect fill="#FEFECE" filter="url(#f1ovcp0c96803h)" height="30.2969" style="stroke: #A80036; stroke-width: 1.5;" width="112" x="698" y="491.1875"/><text fill="#000000" font-family="sans-serif" font-size="14" lengthAdjust="spacingAndGlyphs" textLength="98" x="705" y="511.1826">TableManager</text><rect fill="#FEFECE" filter="url(#f1ovcp0c96803h)" height="30.2969" style="stroke: #A80036; stroke-width: 1.5;" width="52" x="967" y="81.2969"/><text fill="#000000" font-family="sans-serif" font-size="14" lengthAdjust="spacingAndGlyphs" textLength="38" x="974" y="101.292">Table</text><rect fill="#FEFECE" filter="url(#f1ovcp0c96803h)" height="30.2969" style="stroke: #A80036; stroke-width: 1.5;" width="52" x="967" y="491.1875"/><text fill="#000000" font-family="sans-serif" font-size="14" lengthAdjust="spacingAndGlyphs" textLength="38" x="974" y="511.1826">Table</text><rect fill="#FEFECE" filter="url(#f1ovcp0c96803h)" height="30.2969" style="stroke: #A80036; stroke-width: 1.5;" width="67" x="1094.5" y="81.2969"/><text fill="#000000" font-family="sans-serif" font-size="14" lengthAdjust="spacingAndGlyphs" textLength="53" x="1101.5" y="101.292">Column</text><rect fill="#FEFECE" filter="url(#f1ovcp0c96803h)" height="30.2969" style="stroke: #A80036; stroke-width: 1.5;" width="67" x="1094.5" y="491.1875"/><text fill="#000000" font-family="sans-serif" font-size="14" lengthAdjust="spacingAndGlyphs" textLength="53" x="1101.5" y="511.1826">Column</text><rect fill="#FFFFFF" filter="url(#f1ovcp0c96803h)" height="335.5938" style="stroke: #A80036; stroke-width: 1.0;" width="10" x="217" y="147.5938"/><rect fill="#FFFFFF" filter="url(#f1ovcp0c96803h)" height="290.3281" style="stroke: #A80036; stroke-width: 1.0;" width="10" x="456" y="176.7266"/><rect fill="#FFFFFF" filter="url(#f1ovcp0c96803h)" height="193.9297" style="stroke: #A80036; stroke-width: 1.0;" width="10" x="751" y="205.8594"/><rect fill="#FFFFFF" filter="url(#f1ovcp0c96803h)" height="135.6641" style="stroke: #A80036; stroke-width: 1.0;" width="10" x="990" y="234.9922"/><rect fill="#FFFFFF" filter="url(#f1ovcp0c96803h)" height="53.2656" style="stroke: #A80036; stroke-width: 1.0;" width="10" x="1125" y="288.2578"/><polygon fill="#A80036" points="205,143.5938,215,147.5938,205,151.5938,209,147.5938" style="stroke: #A80036; stroke-width: 1.0;"/><line style="stroke: #A80036; stroke-width: 1.0;" x1="52" x2="211" y1="147.5938" y2="147.5938"/><text fill="#000000" font-family="sans-serif" font-size="13" lengthAdjust="spacingAndGlyphs" textLength="146" x="59" y="142.6606">changes column name</text><polygon fill="#A80036" points="444,172.7266,454,176.7266,444,180.7266,448,176.7266" style="stroke: #A80036; stroke-width: 1.0;"/><line style="stroke: #A80036; stroke-width: 1.0;" x1="227" x2="450" y1="176.7266" y2="176.7266"/><text fill="#000000" font-family="sans-serif" font-size="13" lengthAdjust="spacingAndGlyphs" textLength="210" x="234" y="171.7935">setColumnName(column, name)</text><polygon fill="#A80036" points="739,201.8594,749,205.8594,739,209.8594,743,205.8594" style="stroke: #A80036; stroke-width: 1.0;"/><line style="stroke: #A80036; stroke-width: 1.0;" x1="466" x2="745" y1="205.8594" y2="205.8594"/><text fill="#000000" font-family="sans-serif" font-size="13" lengthAdjust="spacingAndGlyphs" textLength="210" x="473" y="200.9263">setColumnName(column, name)</text><polygon fill="#A80036" points="978,230.9922,988,234.9922,978,238.9922,982,234.9922" style="stroke: #A80036; stroke-width: 1.0;"/><line style="stroke: #A80036; stroke-width: 1.0;" x1="761" x2="984" y1="234.9922" y2="234.9922"/><text fill="#000000" font-family="sans-serif" font-size="13" lengthAdjust="spacingAndGlyphs" textLength="210" x="768" y="230.0591">setColumnName(column, name)</text><rect fill="none" height="225.0625" style="stroke: #000000; stroke-width: 2.0;" width="1172.5" x="13" y="250.125"/><polygon fill="#EEEEEE" points="13,250.125,77,250.125,77,257.125,67,267.125,13,267.125,13,250.125" style="stroke: #000000; stroke-width: 2.0;"/><text fill="#000000" font-family="sans-serif" font-size="13" font-weight="bold" lengthAdjust="spacingAndGlyphs" textLength="19" x="28" y="263.1919">alt</text><text fill="#000000" font-family="sans-serif" font-size="11" font-weight="bold" lengthAdjust="spacingAndGlyphs" textLength="242" x="92" y="262.3354">[!isAllReadyUsedColumnName(name)]</text><polygon fill="#A80036" points="1113,284.2578,1123,288.2578,1113,292.2578,1117,288.2578" style="stroke: #A80036; stroke-width: 1.0;"/><line style="stroke: #A80036; stroke-width: 1.0;" x1="1000" x2="1119" y1="288.2578" y2="288.2578"/><text fill="#000000" font-family="sans-serif" font-size="13" lengthAdjust="spacingAndGlyphs" textLength="106" x="1007" y="283.3247">setName(name)</text><rect fill="none" height="133.6641" style="stroke: #000000; stroke-width: 2.0;" width="1152.5" x="23" y="303.3906"/><polygon fill="#EEEEEE" points="23,303.3906,93,303.3906,93,310.3906,83,320.3906,23,320.3906,23,303.3906" style="stroke: #000000; stroke-width: 2.0;"/><text fill="#000000" font-family="sans-serif" font-size="13" font-weight="bold" lengthAdjust="spacingAndGlyphs" textLength="25" x="38" y="316.4575">opt</text><text fill="#000000" font-family="sans-serif" font-size="11" font-weight="bold" lengthAdjust="spacingAndGlyphs" textLength="166" x="108" y="315.6011">[!canHaveAsName(name)]</text><polygon fill="#A80036" points="1011,337.5234,1001,341.5234,1011,345.5234,1007,341.5234" style="stroke: #A80036; stroke-width: 1.0;"/><line style="stroke: #A80036; stroke-width: 1.0;" x1="1005" x2="1129" y1="341.5234" y2="341.5234"/><text fill="#000000" font-family="sans-serif" font-size="13" lengthAdjust="spacingAndGlyphs" textLength="42" x="1017" y="336.5903">ERROR</text><polygon fill="#A80036" points="772,366.6563,762,370.6563,772,374.6563,768,370.6563" style="stroke: #A80036; stroke-width: 1.0;"/><line style="stroke: #A80036; stroke-width: 1.0;" x1="766" x2="994" y1="370.6563" y2="370.6563"/><text fill="#000000" font-family="sans-serif" font-size="13" lengthAdjust="spacingAndGlyphs" textLength="42" x="778" y="365.7231">ERROR</text><polygon fill="#A80036" points="477,395.7891,467,399.7891,477,403.7891,473,399.7891" style="stroke: #A80036; stroke-width: 1.0;"/><line style="stroke: #A80036; stroke-width: 1.0;" x1="471" x2="755" y1="399.7891" y2="399.7891"/><text fill="#000000" font-family="sans-serif" font-size="13" lengthAdjust="spacingAndGlyphs" textLength="42" x="483" y="394.856">ERROR</text><polygon fill="#A80036" points="63,424.9219,53,428.9219,63,432.9219,59,428.9219" style="stroke: #A80036; stroke-width: 1.0;"/><line style="stroke: #A80036; stroke-width: 1.0;" x1="57" x2="455" y1="428.9219" y2="428.9219"/><text fill="#000000" font-family="sans-serif" font-size="13" lengthAdjust="spacingAndGlyphs" textLength="42" x="69" y="423.9888">ERROR</text><line style="stroke: #000000; stroke-width: 1.0; stroke-dasharray: 2.0,2.0;" x1="13" x2="1185.5" y1="445.0547" y2="445.0547"/><polygon fill="#A80036" points="63,463.0547,53,467.0547,63,471.0547,59,467.0547" style="stroke: #A80036; stroke-width: 1.0;"/><line style="stroke: #A80036; stroke-width: 1.0;" x1="57" x2="460" y1="467.0547" y2="467.0547"/><text fill="#000000" font-family="sans-serif" font-size="13" lengthAdjust="spacingAndGlyphs" textLength="42" x="69" y="462.1216">ERROR</text><!--
@startuml
title Edit Column Name
Actor User


User -> EditorWidget: changes column name
activate EditorWidget
EditorWidget -> TableDesignHandler: setColumnName(column, name)
deactivate UIWindowHandler

activate TableDesignHandler
TableDesignHandler -> TableManager: setColumnName(column, name)
activate TableManager
TableManager -> Table: setColumnName(column, name)

activate Table
alt !isAllReadyUsedColumnName(name)
    Table -> Column: setName(name)
    activate Column

    opt !canHaveAsName(name)
        Column -> Table: ERROR
        deactivate Column
        Table -> TableManager: ERROR
        deactivate Table
        TableManager -> TableDesignHandler: ERROR
        deactivate TableManager
        TableDesignHandler -> User: ERROR
    end
else
TableDesignHandler -> User: ERROR
deactivate TableDesignHandler
end



@enduml

PlantUML version 1.2017.15(Mon Jul 03 18:45:34 CEST 2017)
(GPL source distribution)
Java Runtime: OpenJDK Runtime Environment
JVM: OpenJDK 64-Bit Server VM
Java Version: 10.0.2+13-Ubuntu-1ubuntu0.18.04.4
Operating System: Linux
OS Version: 4.15.0-46-generic
Default Encoding: UTF-8
Language: en
Country: US
--></g></svg>