<?xml version="1.0" encoding="UTF-8" standalone="no"?><svg xmlns="http://www.w3.org/2000/svg" xmlns:xlink="http://www.w3.org/1999/xlink" contentScriptType="application/ecmascript" contentStyleType="text/css" height="539px" preserveAspectRatio="none" style="width:1126px;height:539px;" version="1.1" viewBox="0 0 1126 539" width="1126px" zoomAndPan="magnify"><defs><filter height="300%" id="f1anu7zzvaf7db" width="300%" x="-1" y="-1"><feGaussianBlur result="blurOut" stdDeviation="2.0"/><feColorMatrix in="blurOut" result="blurOut2" type="matrix" values="0 0 0 0 0 0 0 0 0 0 0 0 0 0 0 0 0 0 .4 0"/><feOffset dx="4.0" dy="4.0" in="blurOut2" result="blurOut3"/><feBlend in="SourceGraphic" in2="blurOut3" mode="normal"/></filter></defs><g><rect fill="#FFFFFF" filter="url(#f1anu7zzvaf7db)" height="145.6641" style="stroke: #A80036; stroke-width: 1.0;" width="10" x="189" y="117.2969"/><rect fill="#FFFFFF" filter="url(#f1anu7zzvaf7db)" height="29.1328" style="stroke: #A80036; stroke-width: 1.0;" width="10" x="504" y="146.4297"/><rect fill="#FFFFFF" filter="url(#f1anu7zzvaf7db)" height="29.1328" style="stroke: #A80036; stroke-width: 1.0;" width="10" x="504" y="204.6953"/><rect fill="#FFFFFF" filter="url(#f1anu7zzvaf7db)" height="66.3984" style="stroke: #FFFFFF; stroke-width: 1.0;" width="10" x="637.5" y="262.9609"/><line style="stroke: #A80036; stroke-width: 1.0;" x1="637.5" x2="637.5" y1="262.9609" y2="329.3594"/><line style="stroke: #A80036; stroke-width: 1.0;" x1="647.5" x2="647.5" y1="262.9609" y2="329.3594"/><line style="stroke: #A80036; stroke-width: 1.0;" x1="637.5" x2="647.5" y1="262.9609" y2="262.9609"/><rect fill="#FFFFFF" filter="url(#f1anu7zzvaf7db)" height="70.1328" style="stroke: #FFFFFF; stroke-width: 1.0;" width="10" x="637.5" y="357.3594"/><line style="stroke: #A80036; stroke-width: 1.0;" x1="637.5" x2="637.5" y1="357.3594" y2="427.4922"/><line style="stroke: #A80036; stroke-width: 1.0;" x1="647.5" x2="647.5" y1="357.3594" y2="427.4922"/><line style="stroke: #A80036; stroke-width: 1.0;" x1="637.5" x2="647.5" y1="427.4922" y2="427.4922"/><rect fill="#FFFFFF" filter="url(#f1anu7zzvaf7db)" height="37.2656" style="stroke: #FFFFFF; stroke-width: 1.0;" width="10" x="866.5" y="292.0938"/><line style="stroke: #A80036; stroke-width: 1.0;" x1="866.5" x2="866.5" y1="292.0938" y2="329.3594"/><line style="stroke: #A80036; stroke-width: 1.0;" x1="876.5" x2="876.5" y1="292.0938" y2="329.3594"/><line style="stroke: #A80036; stroke-width: 1.0;" x1="866.5" x2="876.5" y1="292.0938" y2="292.0938"/><rect fill="#FFFFFF" filter="url(#f1anu7zzvaf7db)" height="35" style="stroke: #FFFFFF; stroke-width: 1.0;" width="10" x="866.5" y="357.3594"/><line style="stroke: #A80036; stroke-width: 1.0;" x1="866.5" x2="866.5" y1="357.3594" y2="392.3594"/><line style="stroke: #A80036; stroke-width: 1.0;" x1="876.5" x2="876.5" y1="357.3594" y2="392.3594"/><line style="stroke: #A80036; stroke-width: 1.0;" x1="866.5" x2="876.5" y1="392.3594" y2="392.3594"/><rect fill="#FFFFFF" filter="url(#f1anu7zzvaf7db)" height="8.1328" style="stroke: #FFFFFF; stroke-width: 1.0;" width="10" x="1035" y="321.2266"/><line style="stroke: #A80036; stroke-width: 1.0;" x1="1035" x2="1035" y1="321.2266" y2="329.3594"/><line style="stroke: #A80036; stroke-width: 1.0;" x1="1045" x2="1045" y1="321.2266" y2="329.3594"/><line style="stroke: #A80036; stroke-width: 1.0;" x1="1035" x2="1045" y1="321.2266" y2="321.2266"/><rect fill="#FFFFFF" filter="url(#f1anu7zzvaf7db)" height="6" style="stroke: #FFFFFF; stroke-width: 1.0;" width="10" x="1035" y="357.3594"/><line style="stroke: #A80036; stroke-width: 1.0;" x1="1035" x2="1035" y1="357.3594" y2="363.3594"/><line style="stroke: #A80036; stroke-width: 1.0;" x1="1045" x2="1045" y1="357.3594" y2="363.3594"/><line style="stroke: #A80036; stroke-width: 1.0;" x1="1035" x2="1045" y1="363.3594" y2="363.3594"/><line style="stroke: #A80036; stroke-width: 1.0;" x1="27" x2="27" y1="86.2969" y2="329.3594"/><line style="stroke: #A80036; stroke-width: 1.0; stroke-dasharray: 1.0,4.0;" x1="27" x2="27" y1="329.3594" y2="357.3594"/><line style="stroke: #A80036; stroke-width: 1.0;" x1="27" x2="27" y1="357.3594" y2="452.625"/><line style="stroke: #A80036; stroke-width: 1.0;" x1="193.5" x2="193.5" y1="86.2969" y2="329.3594"/><line style="stroke: #A80036; stroke-width: 1.0; stroke-dasharray: 1.0,4.0;" x1="193.5" x2="193.5" y1="329.3594" y2="357.3594"/><line style="stroke: #A80036; stroke-width: 1.0;" x1="193.5" x2="193.5" y1="357.3594" y2="452.625"/><line style="stroke: #A80036; stroke-width: 1.0;" x1="508.5" x2="508.5" y1="86.2969" y2="329.3594"/><line style="stroke: #A80036; stroke-width: 1.0; stroke-dasharray: 1.0,4.0;" x1="508.5" x2="508.5" y1="329.3594" y2="357.3594"/><line style="stroke: #A80036; stroke-width: 1.0;" x1="508.5" x2="508.5" y1="357.3594" y2="452.625"/><line style="stroke: #A80036; stroke-width: 1.0;" x1="642.5" x2="642.5" y1="86.2969" y2="329.3594"/><line style="stroke: #A80036; stroke-width: 1.0; stroke-dasharray: 1.0,4.0;" x1="642.5" x2="642.5" y1="329.3594" y2="357.3594"/><line style="stroke: #A80036; stroke-width: 1.0;" x1="642.5" x2="642.5" y1="357.3594" y2="452.625"/><line style="stroke: #A80036; stroke-width: 1.0;" x1="871" x2="871" y1="86.2969" y2="329.3594"/><line style="stroke: #A80036; stroke-width: 1.0; stroke-dasharray: 1.0,4.0;" x1="871" x2="871" y1="329.3594" y2="357.3594"/><line style="stroke: #A80036; stroke-width: 1.0;" x1="871" x2="871" y1="357.3594" y2="452.625"/><line style="stroke: #A80036; stroke-width: 1.0;" x1="1040" x2="1040" y1="86.2969" y2="329.3594"/><line style="stroke: #A80036; stroke-width: 1.0; stroke-dasharray: 1.0,4.0;" x1="1040" x2="1040" y1="329.3594" y2="357.3594"/><line style="stroke: #A80036; stroke-width: 1.0;" x1="1040" x2="1040" y1="357.3594" y2="452.625"/><text fill="#000000" font-family="sans-serif" font-size="14" lengthAdjust="spacingAndGlyphs" textLength="32" x="8" y="82.9951">User</text><ellipse cx="27" cy="13" fill="#FEFECE" filter="url(#f1anu7zzvaf7db)" rx="8" ry="8" style="stroke: #A80036; stroke-width: 2.0;"/><path d="M27,21 L27,48 M14,29 L40,29 M27,48 L14,63 M27,48 L40,63 " fill="#FEFECE" filter="url(#f1anu7zzvaf7db)" style="stroke: #A80036; stroke-width: 2.0;"/><text fill="#000000" font-family="sans-serif" font-size="14" lengthAdjust="spacingAndGlyphs" textLength="32" x="8" y="464.6201">User</text><ellipse cx="27" cy="477.9219" fill="#FEFECE" filter="url(#f1anu7zzvaf7db)" rx="8" ry="8" style="stroke: #A80036; stroke-width: 2.0;"/><path d="M27,485.9219 L27,512.9219 M14,493.9219 L40,493.9219 M27,512.9219 L14,527.9219 M27,512.9219 L40,527.9219 " fill="#FEFECE" filter="url(#f1anu7zzvaf7db)" style="stroke: #A80036; stroke-width: 2.0;"/><rect fill="#FEFECE" filter="url(#f1anu7zzvaf7db)" height="30.2969" style="stroke: #A80036; stroke-width: 1.5;" width="109" x="137.5" y="51"/><text fill="#000000" font-family="sans-serif" font-size="14" lengthAdjust="spacingAndGlyphs" textLength="95" x="144.5" y="70.9951">ButtonWidget</text><rect fill="#FEFECE" filter="url(#f1anu7zzvaf7db)" height="30.2969" style="stroke: #A80036; stroke-width: 1.5;" width="109" x="137.5" y="451.625"/><text fill="#000000" font-family="sans-serif" font-size="14" lengthAdjust="spacingAndGlyphs" textLength="95" x="144.5" y="471.6201">ButtonWidget</text><rect fill="#FEFECE" filter="url(#f1anu7zzvaf7db)" height="30.2969" style="stroke: #A80036; stroke-width: 1.5;" width="105" x="454.5" y="51"/><text fill="#000000" font-family="sans-serif" font-size="14" lengthAdjust="spacingAndGlyphs" textLength="91" x="461.5" y="70.9951">TableHandler</text><rect fill="#FEFECE" filter="url(#f1anu7zzvaf7db)" height="30.2969" style="stroke: #A80036; stroke-width: 1.5;" width="105" x="454.5" y="451.625"/><text fill="#000000" font-family="sans-serif" font-size="14" lengthAdjust="spacingAndGlyphs" textLength="91" x="461.5" y="471.6201">TableHandler</text><rect fill="#FEFECE" filter="url(#f1anu7zzvaf7db)" height="30.2969" style="stroke: #A80036; stroke-width: 1.5;" width="134" x="573.5" y="51"/><text fill="#000000" font-family="sans-serif" font-size="14" lengthAdjust="spacingAndGlyphs" textLength="120" x="580.5" y="70.9951">UIWindowHandler</text><rect fill="#FEFECE" filter="url(#f1anu7zzvaf7db)" height="30.2969" style="stroke: #A80036; stroke-width: 1.5;" width="134" x="573.5" y="451.625"/><text fill="#000000" font-family="sans-serif" font-size="14" lengthAdjust="spacingAndGlyphs" textLength="120" x="580.5" y="471.6201">UIWindowHandler</text><rect fill="#FEFECE" filter="url(#f1anu7zzvaf7db)" height="30.2969" style="stroke: #A80036; stroke-width: 1.5;" width="155" x="792" y="51"/><text fill="#000000" font-family="sans-serif" font-size="14" lengthAdjust="spacingAndGlyphs" textLength="141" x="799" y="70.9951">TableDesignWindow</text><rect fill="#FEFECE" filter="url(#f1anu7zzvaf7db)" height="30.2969" style="stroke: #A80036; stroke-width: 1.5;" width="155" x="792" y="451.625"/><text fill="#000000" font-family="sans-serif" font-size="14" lengthAdjust="spacingAndGlyphs" textLength="141" x="799" y="471.6201">TableDesignWindow</text><rect fill="#FEFECE" filter="url(#f1anu7zzvaf7db)" height="30.2969" style="stroke: #A80036; stroke-width: 1.5;" width="154" x="961" y="51"/><text fill="#000000" font-family="sans-serif" font-size="14" lengthAdjust="spacingAndGlyphs" textLength="140" x="968" y="70.9951">TableDesignHandler</text><rect fill="#FEFECE" filter="url(#f1anu7zzvaf7db)" height="30.2969" style="stroke: #A80036; stroke-width: 1.5;" width="154" x="961" y="451.625"/><text fill="#000000" font-family="sans-serif" font-size="14" lengthAdjust="spacingAndGlyphs" textLength="140" x="968" y="471.6201">TableDesignHandler</text><rect fill="#FFFFFF" filter="url(#f1anu7zzvaf7db)" height="145.6641" style="stroke: #A80036; stroke-width: 1.0;" width="10" x="189" y="117.2969"/><rect fill="#FFFFFF" filter="url(#f1anu7zzvaf7db)" height="29.1328" style="stroke: #A80036; stroke-width: 1.0;" width="10" x="504" y="146.4297"/><rect fill="#FFFFFF" filter="url(#f1anu7zzvaf7db)" height="29.1328" style="stroke: #A80036; stroke-width: 1.0;" width="10" x="504" y="204.6953"/><rect fill="#FFFFFF" filter="url(#f1anu7zzvaf7db)" height="66.3984" style="stroke: #FFFFFF; stroke-width: 1.0;" width="10" x="637.5" y="262.9609"/><line style="stroke: #A80036; stroke-width: 1.0;" x1="637.5" x2="637.5" y1="262.9609" y2="329.3594"/><line style="stroke: #A80036; stroke-width: 1.0;" x1="647.5" x2="647.5" y1="262.9609" y2="329.3594"/><line style="stroke: #A80036; stroke-width: 1.0;" x1="637.5" x2="647.5" y1="262.9609" y2="262.9609"/><rect fill="#FFFFFF" filter="url(#f1anu7zzvaf7db)" height="70.1328" style="stroke: #FFFFFF; stroke-width: 1.0;" width="10" x="637.5" y="357.3594"/><line style="stroke: #A80036; stroke-width: 1.0;" x1="637.5" x2="637.5" y1="357.3594" y2="427.4922"/><line style="stroke: #A80036; stroke-width: 1.0;" x1="647.5" x2="647.5" y1="357.3594" y2="427.4922"/><line style="stroke: #A80036; stroke-width: 1.0;" x1="637.5" x2="647.5" y1="427.4922" y2="427.4922"/><rect fill="#FFFFFF" filter="url(#f1anu7zzvaf7db)" height="37.2656" style="stroke: #FFFFFF; stroke-width: 1.0;" width="10" x="866.5" y="292.0938"/><line style="stroke: #A80036; stroke-width: 1.0;" x1="866.5" x2="866.5" y1="292.0938" y2="329.3594"/><line style="stroke: #A80036; stroke-width: 1.0;" x1="876.5" x2="876.5" y1="292.0938" y2="329.3594"/><line style="stroke: #A80036; stroke-width: 1.0;" x1="866.5" x2="876.5" y1="292.0938" y2="292.0938"/><rect fill="#FFFFFF" filter="url(#f1anu7zzvaf7db)" height="35" style="stroke: #FFFFFF; stroke-width: 1.0;" width="10" x="866.5" y="357.3594"/><line style="stroke: #A80036; stroke-width: 1.0;" x1="866.5" x2="866.5" y1="357.3594" y2="392.3594"/><line style="stroke: #A80036; stroke-width: 1.0;" x1="876.5" x2="876.5" y1="357.3594" y2="392.3594"/><line style="stroke: #A80036; stroke-width: 1.0;" x1="866.5" x2="876.5" y1="392.3594" y2="392.3594"/><rect fill="#FFFFFF" filter="url(#f1anu7zzvaf7db)" height="8.1328" style="stroke: #FFFFFF; stroke-width: 1.0;" width="10" x="1035" y="321.2266"/><line style="stroke: #A80036; stroke-width: 1.0;" x1="1035" x2="1035" y1="321.2266" y2="329.3594"/><line style="stroke: #A80036; stroke-width: 1.0;" x1="1045" x2="1045" y1="321.2266" y2="329.3594"/><line style="stroke: #A80036; stroke-width: 1.0;" x1="1035" x2="1045" y1="321.2266" y2="321.2266"/><rect fill="#FFFFFF" filter="url(#f1anu7zzvaf7db)" height="6" style="stroke: #FFFFFF; stroke-width: 1.0;" width="10" x="1035" y="357.3594"/><line style="stroke: #A80036; stroke-width: 1.0;" x1="1035" x2="1035" y1="357.3594" y2="363.3594"/><line style="stroke: #A80036; stroke-width: 1.0;" x1="1045" x2="1045" y1="357.3594" y2="363.3594"/><line style="stroke: #A80036; stroke-width: 1.0;" x1="1035" x2="1045" y1="363.3594" y2="363.3594"/><polygon fill="#A80036" points="177,113.2969,187,117.2969,177,121.2969,181,117.2969" style="stroke: #A80036; stroke-width: 1.0;"/><line style="stroke: #A80036; stroke-width: 1.0; stroke-dasharray: 2.0,2.0;" x1="27" x2="183" y1="117.2969" y2="117.2969"/><text fill="#000000" font-family="sans-serif" font-size="13" lengthAdjust="spacingAndGlyphs" textLength="143" x="34" y="112.3638">handleMouseEvent(...)</text><polygon fill="#A80036" points="492,142.4297,502,146.4297,492,150.4297,496,146.4297" style="stroke: #A80036; stroke-width: 1.0;"/><line style="stroke: #A80036; stroke-width: 1.0;" x1="199" x2="498" y1="146.4297" y2="146.4297"/><text fill="#000000" font-family="sans-serif" font-size="13" lengthAdjust="spacingAndGlyphs" textLength="222" x="206" y="141.4966">isEmptyTable(selectedTableName)</text><polygon fill="#A80036" points="210,171.5625,200,175.5625,210,179.5625,206,175.5625" style="stroke: #A80036; stroke-width: 1.0;"/><line style="stroke: #A80036; stroke-width: 1.0; stroke-dasharray: 2.0,2.0;" x1="204" x2="508" y1="175.5625" y2="175.5625"/><text fill="#000000" font-family="sans-serif" font-size="13" lengthAdjust="spacingAndGlyphs" textLength="28" x="216" y="170.6294">True</text><polygon fill="#A80036" points="492,200.6953,502,204.6953,492,208.6953,496,204.6953" style="stroke: #A80036; stroke-width: 1.0;"/><line style="stroke: #A80036; stroke-width: 1.0;" x1="199" x2="498" y1="204.6953" y2="204.6953"/><text fill="#000000" font-family="sans-serif" font-size="13" lengthAdjust="spacingAndGlyphs" textLength="286" x="206" y="199.7622">getTableDesignHandler(selectedTableName)</text><polygon fill="#A80036" points="210,229.8281,200,233.8281,210,237.8281,206,233.8281" style="stroke: #A80036; stroke-width: 1.0;"/><line style="stroke: #A80036; stroke-width: 1.0; stroke-dasharray: 2.0,2.0;" x1="204" x2="508" y1="233.8281" y2="233.8281"/><text fill="#000000" font-family="sans-serif" font-size="13" lengthAdjust="spacingAndGlyphs" textLength="126" x="216" y="228.895">tableDesignHandler</text><polygon fill="#A80036" points="625.5,258.9609,635.5,262.9609,625.5,266.9609,629.5,262.9609" style="stroke: #A80036; stroke-width: 1.0;"/><line style="stroke: #A80036; stroke-width: 1.0;" x1="194" x2="631.5" y1="262.9609" y2="262.9609"/><text fill="#000000" font-family="sans-serif" font-size="13" lengthAdjust="spacingAndGlyphs" textLength="315" x="201" y="258.0278">switchToTableDesignWindow(tableDesignHandler)</text><polygon fill="#A80036" points="854.5,288.0938,864.5,292.0938,854.5,296.0938,858.5,292.0938" style="stroke: #A80036; stroke-width: 1.0;"/><line style="stroke: #A80036; stroke-width: 1.0;" x1="647.5" x2="860.5" y1="292.0938" y2="292.0938"/><text fill="#000000" font-family="sans-serif" font-size="13" lengthAdjust="spacingAndGlyphs" textLength="200" x="654.5" y="287.1606">getLayout(tableDesignHandler)</text><polygon fill="#A80036" points="1023,317.2266,1033,321.2266,1023,325.2266,1027,321.2266" style="stroke: #A80036; stroke-width: 1.0;"/><line style="stroke: #A80036; stroke-width: 1.0;" x1="876.5" x2="1029" y1="321.2266" y2="321.2266"/><text fill="#000000" font-family="sans-serif" font-size="13" lengthAdjust="spacingAndGlyphs" textLength="87" x="883.5" y="316.2935">getColumns()</text><polygon fill="#A80036" points="887.5,359.3594,877.5,363.3594,887.5,367.3594,883.5,363.3594" style="stroke: #A80036; stroke-width: 1.0;"/><line style="stroke: #A80036; stroke-width: 1.0; stroke-dasharray: 2.0,2.0;" x1="881.5" x2="1039" y1="363.3594" y2="363.3594"/><polygon fill="#A80036" points="658.5,388.3594,648.5,392.3594,658.5,396.3594,654.5,392.3594" style="stroke: #A80036; stroke-width: 1.0;"/><line style="stroke: #A80036; stroke-width: 1.0; stroke-dasharray: 2.0,2.0;" x1="652.5" x2="870.5" y1="392.3594" y2="392.3594"/><text fill="#000000" font-family="sans-serif" font-size="13" lengthAdjust="spacingAndGlyphs" textLength="39" x="664.5" y="387.4263">layout</text><line style="stroke: #A80036; stroke-width: 1.0;" x1="647.5" x2="689.5" y1="426.625" y2="426.625"/><line style="stroke: #A80036; stroke-width: 1.0;" x1="689.5" x2="689.5" y1="426.625" y2="439.625"/><line style="stroke: #A80036; stroke-width: 1.0;" x1="642.5" x2="689.5" y1="439.625" y2="439.625"/><polygon fill="#A80036" points="652.5,435.625,642.5,439.625,652.5,443.625,648.5,439.625" style="stroke: #A80036; stroke-width: 1.0;"/><text fill="#000000" font-family="sans-serif" font-size="13" lengthAdjust="spacingAndGlyphs" textLength="112" x="654.5" y="421.5591">setLayout(layout)</text><!--
@startuml
Actor User
User - -> ButtonWidget: handleMouseEvent(...)
activate ButtonWidget

ButtonWidget -> TableHandler: isEmptyTable(selectedTableName)
activate TableHandler
ButtonWidget <- - TableHandler: True
deactivate TableHandler
ButtonWidget -> TableHandler: getTableDesignHandler(selectedTableName)
activate TableHandler
ButtonWidget <- - TableHandler: tableDesignHandler
deactivate TableHandler
ButtonWidget -> UIWindowHandler: switchToTableDesignWindow(tableDesignHandler)
deactivate ButtonWidget
activate UIWindowHandler
UIWindowHandler -> TableDesignWindow: getLayout(tableDesignHandler)
activate TableDesignWindow
TableDesignWindow -> TableDesignHandler: getColumns()
activate TableDesignHandler
...
TableDesignWindow <- - TableDesignHandler:
deactivate TableDesignHandler
UIWindowHandler <- - TableDesignWindow: layout
deactivate TableDesignWindow
UIWindowHandler -> UIWindowHandler: setLayout(layout)
deactivate UIWindowHandler

@enduml

PlantUML version 1.2017.15(Mon Jul 03 18:45:34 CEST 2017)
(GPL source distribution)
Java Runtime: OpenJDK Runtime Environment
JVM: OpenJDK 64-Bit Server VM
Java Version: 10.0.2+13-Ubuntu-1ubuntu0.18.04.4
Operating System: Linux
OS Version: 4.15.0-46-generic
Default Encoding: UTF-8
Language: en
Country: US
--></g></svg>