<?xml version="1.0" encoding="UTF-8" standalone="no"?><svg xmlns="http://www.w3.org/2000/svg" xmlns:xlink="http://www.w3.org/1999/xlink" contentScriptType="application/ecmascript" contentStyleType="text/css" height="481px" preserveAspectRatio="none" style="width:1016px;height:481px;" version="1.1" viewBox="0 0 1016 481" width="1016px" zoomAndPan="magnify"><defs><filter height="300%" id="f1fyx32g2h340h" width="300%" x="-1" y="-1"><feGaussianBlur result="blurOut" stdDeviation="2.0"/><feColorMatrix in="blurOut" result="blurOut2" type="matrix" values="0 0 0 0 0 0 0 0 0 0 0 0 0 0 0 0 0 0 .4 0"/><feOffset dx="4.0" dy="4.0" in="blurOut2" result="blurOut3"/><feBlend in="SourceGraphic" in2="blurOut3" mode="normal"/></filter></defs><g><rect fill="#FFFFFF" filter="url(#f1fyx32g2h340h)" height="87.3984" style="stroke: #A80036; stroke-width: 1.0;" width="10" x="189" y="117.2969"/><rect fill="#FFFFFF" filter="url(#f1fyx32g2h340h)" height="29.1328" style="stroke: #A80036; stroke-width: 1.0;" width="10" x="398" y="146.4297"/><rect fill="#FFFFFF" filter="url(#f1fyx32g2h340h)" height="66.3984" style="stroke: #FFFFFF; stroke-width: 1.0;" width="10" x="556" y="204.6953"/><line style="stroke: #A80036; stroke-width: 1.0;" x1="556" x2="556" y1="204.6953" y2="271.0938"/><line style="stroke: #A80036; stroke-width: 1.0;" x1="566" x2="566" y1="204.6953" y2="271.0938"/><line style="stroke: #A80036; stroke-width: 1.0;" x1="556" x2="566" y1="204.6953" y2="204.6953"/><rect fill="#FFFFFF" filter="url(#f1fyx32g2h340h)" height="70.1328" style="stroke: #FFFFFF; stroke-width: 1.0;" width="10" x="556" y="299.0938"/><line style="stroke: #A80036; stroke-width: 1.0;" x1="556" x2="556" y1="299.0938" y2="369.2266"/><line style="stroke: #A80036; stroke-width: 1.0;" x1="566" x2="566" y1="299.0938" y2="369.2266"/><line style="stroke: #A80036; stroke-width: 1.0;" x1="556" x2="566" y1="369.2266" y2="369.2266"/><rect fill="#FFFFFF" filter="url(#f1fyx32g2h340h)" height="37.2656" style="stroke: #FFFFFF; stroke-width: 1.0;" width="10" x="773" y="233.8281"/><line style="stroke: #A80036; stroke-width: 1.0;" x1="773" x2="773" y1="233.8281" y2="271.0938"/><line style="stroke: #A80036; stroke-width: 1.0;" x1="783" x2="783" y1="233.8281" y2="271.0938"/><line style="stroke: #A80036; stroke-width: 1.0;" x1="773" x2="783" y1="233.8281" y2="233.8281"/><rect fill="#FFFFFF" filter="url(#f1fyx32g2h340h)" height="35" style="stroke: #FFFFFF; stroke-width: 1.0;" width="10" x="773" y="299.0938"/><line style="stroke: #A80036; stroke-width: 1.0;" x1="773" x2="773" y1="299.0938" y2="334.0938"/><line style="stroke: #A80036; stroke-width: 1.0;" x1="783" x2="783" y1="299.0938" y2="334.0938"/><line style="stroke: #A80036; stroke-width: 1.0;" x1="773" x2="783" y1="334.0938" y2="334.0938"/><rect fill="#FFFFFF" filter="url(#f1fyx32g2h340h)" height="8.1328" style="stroke: #FFFFFF; stroke-width: 1.0;" width="10" x="930.5" y="262.9609"/><line style="stroke: #A80036; stroke-width: 1.0;" x1="930.5" x2="930.5" y1="262.9609" y2="271.0938"/><line style="stroke: #A80036; stroke-width: 1.0;" x1="940.5" x2="940.5" y1="262.9609" y2="271.0938"/><line style="stroke: #A80036; stroke-width: 1.0;" x1="930.5" x2="940.5" y1="262.9609" y2="262.9609"/><rect fill="#FFFFFF" filter="url(#f1fyx32g2h340h)" height="6" style="stroke: #FFFFFF; stroke-width: 1.0;" width="10" x="930.5" y="299.0938"/><line style="stroke: #A80036; stroke-width: 1.0;" x1="930.5" x2="930.5" y1="299.0938" y2="305.0938"/><line style="stroke: #A80036; stroke-width: 1.0;" x1="940.5" x2="940.5" y1="299.0938" y2="305.0938"/><line style="stroke: #A80036; stroke-width: 1.0;" x1="930.5" x2="940.5" y1="305.0938" y2="305.0938"/><line style="stroke: #A80036; stroke-width: 1.0;" x1="27" x2="27" y1="86.2969" y2="271.0938"/><line style="stroke: #A80036; stroke-width: 1.0; stroke-dasharray: 1.0,4.0;" x1="27" x2="27" y1="271.0938" y2="299.0938"/><line style="stroke: #A80036; stroke-width: 1.0;" x1="27" x2="27" y1="299.0938" y2="394.3594"/><line style="stroke: #A80036; stroke-width: 1.0;" x1="193.5" x2="193.5" y1="86.2969" y2="271.0938"/><line style="stroke: #A80036; stroke-width: 1.0; stroke-dasharray: 1.0,4.0;" x1="193.5" x2="193.5" y1="271.0938" y2="299.0938"/><line style="stroke: #A80036; stroke-width: 1.0;" x1="193.5" x2="193.5" y1="299.0938" y2="394.3594"/><line style="stroke: #A80036; stroke-width: 1.0;" x1="403" x2="403" y1="86.2969" y2="271.0938"/><line style="stroke: #A80036; stroke-width: 1.0; stroke-dasharray: 1.0,4.0;" x1="403" x2="403" y1="271.0938" y2="299.0938"/><line style="stroke: #A80036; stroke-width: 1.0;" x1="403" x2="403" y1="299.0938" y2="394.3594"/><line style="stroke: #A80036; stroke-width: 1.0;" x1="561" x2="561" y1="86.2969" y2="271.0938"/><line style="stroke: #A80036; stroke-width: 1.0; stroke-dasharray: 1.0,4.0;" x1="561" x2="561" y1="271.0938" y2="299.0938"/><line style="stroke: #A80036; stroke-width: 1.0;" x1="561" x2="561" y1="299.0938" y2="394.3594"/><line style="stroke: #A80036; stroke-width: 1.0;" x1="778" x2="778" y1="86.2969" y2="271.0938"/><line style="stroke: #A80036; stroke-width: 1.0; stroke-dasharray: 1.0,4.0;" x1="778" x2="778" y1="271.0938" y2="299.0938"/><line style="stroke: #A80036; stroke-width: 1.0;" x1="778" x2="778" y1="299.0938" y2="394.3594"/><line style="stroke: #A80036; stroke-width: 1.0;" x1="935" x2="935" y1="86.2969" y2="271.0938"/><line style="stroke: #A80036; stroke-width: 1.0; stroke-dasharray: 1.0,4.0;" x1="935" x2="935" y1="271.0938" y2="299.0938"/><line style="stroke: #A80036; stroke-width: 1.0;" x1="935" x2="935" y1="299.0938" y2="394.3594"/><text fill="#000000" font-family="sans-serif" font-size="14" lengthAdjust="spacingAndGlyphs" textLength="32" x="8" y="82.9951">User</text><ellipse cx="27" cy="13" fill="#FEFECE" filter="url(#f1fyx32g2h340h)" rx="8" ry="8" style="stroke: #A80036; stroke-width: 2.0;"/><path d="M27,21 L27,48 M14,29 L40,29 M27,48 L14,63 M27,48 L40,63 " fill="#FEFECE" filter="url(#f1fyx32g2h340h)" style="stroke: #A80036; stroke-width: 2.0;"/><text fill="#000000" font-family="sans-serif" font-size="14" lengthAdjust="spacingAndGlyphs" textLength="32" x="8" y="406.3545">User</text><ellipse cx="27" cy="419.6563" fill="#FEFECE" filter="url(#f1fyx32g2h340h)" rx="8" ry="8" style="stroke: #A80036; stroke-width: 2.0;"/><path d="M27,427.6563 L27,454.6563 M14,435.6563 L40,435.6563 M27,454.6563 L14,469.6563 M27,454.6563 L40,469.6563 " fill="#FEFECE" filter="url(#f1fyx32g2h340h)" style="stroke: #A80036; stroke-width: 2.0;"/><rect fill="#FEFECE" filter="url(#f1fyx32g2h340h)" height="30.2969" style="stroke: #A80036; stroke-width: 1.5;" width="109" x="137.5" y="51"/><text fill="#000000" font-family="sans-serif" font-size="14" lengthAdjust="spacingAndGlyphs" textLength="95" x="144.5" y="70.9951">ButtonWidget</text><rect fill="#FEFECE" filter="url(#f1fyx32g2h340h)" height="30.2969" style="stroke: #A80036; stroke-width: 1.5;" width="109" x="137.5" y="393.3594"/><text fill="#000000" font-family="sans-serif" font-size="14" lengthAdjust="spacingAndGlyphs" textLength="95" x="144.5" y="413.3545">ButtonWidget</text><rect fill="#FEFECE" filter="url(#f1fyx32g2h340h)" height="30.2969" style="stroke: #A80036; stroke-width: 1.5;" width="154" x="324" y="51"/><text fill="#000000" font-family="sans-serif" font-size="14" lengthAdjust="spacingAndGlyphs" textLength="140" x="331" y="70.9951">TableDesignHandler</text><rect fill="#FEFECE" filter="url(#f1fyx32g2h340h)" height="30.2969" style="stroke: #A80036; stroke-width: 1.5;" width="154" x="324" y="393.3594"/><text fill="#000000" font-family="sans-serif" font-size="14" lengthAdjust="spacingAndGlyphs" textLength="140" x="331" y="413.3545">TableDesignHandler</text><rect fill="#FEFECE" filter="url(#f1fyx32g2h340h)" height="30.2969" style="stroke: #A80036; stroke-width: 1.5;" width="134" x="492" y="51"/><text fill="#000000" font-family="sans-serif" font-size="14" lengthAdjust="spacingAndGlyphs" textLength="120" x="499" y="70.9951">UIWindowHandler</text><rect fill="#FEFECE" filter="url(#f1fyx32g2h340h)" height="30.2969" style="stroke: #A80036; stroke-width: 1.5;" width="134" x="492" y="393.3594"/><text fill="#000000" font-family="sans-serif" font-size="14" lengthAdjust="spacingAndGlyphs" textLength="120" x="499" y="413.3545">UIWindowHandler</text><rect fill="#FEFECE" filter="url(#f1fyx32g2h340h)" height="30.2969" style="stroke: #A80036; stroke-width: 1.5;" width="144" x="704" y="51"/><text fill="#000000" font-family="sans-serif" font-size="14" lengthAdjust="spacingAndGlyphs" textLength="130" x="711" y="70.9951">TableRowsWindow</text><rect fill="#FEFECE" filter="url(#f1fyx32g2h340h)" height="30.2969" style="stroke: #A80036; stroke-width: 1.5;" width="144" x="704" y="393.3594"/><text fill="#000000" font-family="sans-serif" font-size="14" lengthAdjust="spacingAndGlyphs" textLength="130" x="711" y="413.3545">TableRowsWindow</text><rect fill="#FEFECE" filter="url(#f1fyx32g2h340h)" height="30.2969" style="stroke: #A80036; stroke-width: 1.5;" width="143" x="862" y="51"/><text fill="#000000" font-family="sans-serif" font-size="14" lengthAdjust="spacingAndGlyphs" textLength="129" x="869" y="70.9951">TableRowsHandler</text><rect fill="#FEFECE" filter="url(#f1fyx32g2h340h)" height="30.2969" style="stroke: #A80036; stroke-width: 1.5;" width="143" x="862" y="393.3594"/><text fill="#000000" font-family="sans-serif" font-size="14" lengthAdjust="spacingAndGlyphs" textLength="129" x="869" y="413.3545">TableRowsHandler</text><rect fill="#FFFFFF" filter="url(#f1fyx32g2h340h)" height="87.3984" style="stroke: #A80036; stroke-width: 1.0;" width="10" x="189" y="117.2969"/><rect fill="#FFFFFF" filter="url(#f1fyx32g2h340h)" height="29.1328" style="stroke: #A80036; stroke-width: 1.0;" width="10" x="398" y="146.4297"/><rect fill="#FFFFFF" filter="url(#f1fyx32g2h340h)" height="66.3984" style="stroke: #FFFFFF; stroke-width: 1.0;" width="10" x="556" y="204.6953"/><line style="stroke: #A80036; stroke-width: 1.0;" x1="556" x2="556" y1="204.6953" y2="271.0938"/><line style="stroke: #A80036; stroke-width: 1.0;" x1="566" x2="566" y1="204.6953" y2="271.0938"/><line style="stroke: #A80036; stroke-width: 1.0;" x1="556" x2="566" y1="204.6953" y2="204.6953"/><rect fill="#FFFFFF" filter="url(#f1fyx32g2h340h)" height="70.1328" style="stroke: #FFFFFF; stroke-width: 1.0;" width="10" x="556" y="299.0938"/><line style="stroke: #A80036; stroke-width: 1.0;" x1="556" x2="556" y1="299.0938" y2="369.2266"/><line style="stroke: #A80036; stroke-width: 1.0;" x1="566" x2="566" y1="299.0938" y2="369.2266"/><line style="stroke: #A80036; stroke-width: 1.0;" x1="556" x2="566" y1="369.2266" y2="369.2266"/><rect fill="#FFFFFF" filter="url(#f1fyx32g2h340h)" height="37.2656" style="stroke: #FFFFFF; stroke-width: 1.0;" width="10" x="773" y="233.8281"/><line style="stroke: #A80036; stroke-width: 1.0;" x1="773" x2="773" y1="233.8281" y2="271.0938"/><line style="stroke: #A80036; stroke-width: 1.0;" x1="783" x2="783" y1="233.8281" y2="271.0938"/><line style="stroke: #A80036; stroke-width: 1.0;" x1="773" x2="783" y1="233.8281" y2="233.8281"/><rect fill="#FFFFFF" filter="url(#f1fyx32g2h340h)" height="35" style="stroke: #FFFFFF; stroke-width: 1.0;" width="10" x="773" y="299.0938"/><line style="stroke: #A80036; stroke-width: 1.0;" x1="773" x2="773" y1="299.0938" y2="334.0938"/><line style="stroke: #A80036; stroke-width: 1.0;" x1="783" x2="783" y1="299.0938" y2="334.0938"/><line style="stroke: #A80036; stroke-width: 1.0;" x1="773" x2="783" y1="334.0938" y2="334.0938"/><rect fill="#FFFFFF" filter="url(#f1fyx32g2h340h)" height="8.1328" style="stroke: #FFFFFF; stroke-width: 1.0;" width="10" x="930.5" y="262.9609"/><line style="stroke: #A80036; stroke-width: 1.0;" x1="930.5" x2="930.5" y1="262.9609" y2="271.0938"/><line style="stroke: #A80036; stroke-width: 1.0;" x1="940.5" x2="940.5" y1="262.9609" y2="271.0938"/><line style="stroke: #A80036; stroke-width: 1.0;" x1="930.5" x2="940.5" y1="262.9609" y2="262.9609"/><rect fill="#FFFFFF" filter="url(#f1fyx32g2h340h)" height="6" style="stroke: #FFFFFF; stroke-width: 1.0;" width="10" x="930.5" y="299.0938"/><line style="stroke: #A80036; stroke-width: 1.0;" x1="930.5" x2="930.5" y1="299.0938" y2="305.0938"/><line style="stroke: #A80036; stroke-width: 1.0;" x1="940.5" x2="940.5" y1="299.0938" y2="305.0938"/><line style="stroke: #A80036; stroke-width: 1.0;" x1="930.5" x2="940.5" y1="305.0938" y2="305.0938"/><polygon fill="#A80036" points="177,113.2969,187,117.2969,177,121.2969,181,117.2969" style="stroke: #A80036; stroke-width: 1.0;"/><line style="stroke: #A80036; stroke-width: 1.0; stroke-dasharray: 2.0,2.0;" x1="27" x2="183" y1="117.2969" y2="117.2969"/><text fill="#000000" font-family="sans-serif" font-size="13" lengthAdjust="spacingAndGlyphs" textLength="143" x="34" y="112.3638">handleMouseEvent(...)</text><polygon fill="#A80036" points="386,142.4297,396,146.4297,386,150.4297,390,146.4297" style="stroke: #A80036; stroke-width: 1.0;"/><line style="stroke: #A80036; stroke-width: 1.0;" x1="199" x2="392" y1="146.4297" y2="146.4297"/><text fill="#000000" font-family="sans-serif" font-size="13" lengthAdjust="spacingAndGlyphs" textLength="180" x="206" y="141.4966">switchToTableRowsHandler()</text><polygon fill="#A80036" points="210,171.5625,200,175.5625,210,179.5625,206,175.5625" style="stroke: #A80036; stroke-width: 1.0;"/><line style="stroke: #A80036; stroke-width: 1.0; stroke-dasharray: 2.0,2.0;" x1="204" x2="402" y1="175.5625" y2="175.5625"/><text fill="#000000" font-family="sans-serif" font-size="13" lengthAdjust="spacingAndGlyphs" textLength="114" x="216" y="170.6294">tableRowsHandler</text><polygon fill="#A80036" points="544,200.6953,554,204.6953,544,208.6953,548,204.6953" style="stroke: #A80036; stroke-width: 1.0;"/><line style="stroke: #A80036; stroke-width: 1.0;" x1="194" x2="550" y1="204.6953" y2="204.6953"/><text fill="#000000" font-family="sans-serif" font-size="13" lengthAdjust="spacingAndGlyphs" textLength="291" x="201" y="199.7622">switchToTableRowsWindow(tableRowsHandler)</text><polygon fill="#A80036" points="761,229.8281,771,233.8281,761,237.8281,765,233.8281" style="stroke: #A80036; stroke-width: 1.0;"/><line style="stroke: #A80036; stroke-width: 1.0;" x1="566" x2="767" y1="233.8281" y2="233.8281"/><text fill="#000000" font-family="sans-serif" font-size="13" lengthAdjust="spacingAndGlyphs" textLength="188" x="573" y="228.895">getLayout(tableRowsHandler)</text><polygon fill="#A80036" points="918.5,258.9609,928.5,262.9609,918.5,266.9609,922.5,262.9609" style="stroke: #A80036; stroke-width: 1.0;"/><line style="stroke: #A80036; stroke-width: 1.0;" x1="783" x2="924.5" y1="262.9609" y2="262.9609"/><text fill="#000000" font-family="sans-serif" font-size="13" lengthAdjust="spacingAndGlyphs" textLength="63" x="790" y="258.0278">getRows()</text><polygon fill="#A80036" points="794,301.0938,784,305.0938,794,309.0938,790,305.0938" style="stroke: #A80036; stroke-width: 1.0;"/><line style="stroke: #A80036; stroke-width: 1.0; stroke-dasharray: 2.0,2.0;" x1="788" x2="934.5" y1="305.0938" y2="305.0938"/><polygon fill="#A80036" points="577,330.0938,567,334.0938,577,338.0938,573,334.0938" style="stroke: #A80036; stroke-width: 1.0;"/><line style="stroke: #A80036; stroke-width: 1.0; stroke-dasharray: 2.0,2.0;" x1="571" x2="777" y1="334.0938" y2="334.0938"/><text fill="#000000" font-family="sans-serif" font-size="13" lengthAdjust="spacingAndGlyphs" textLength="39" x="583" y="329.1606">layout</text><line style="stroke: #A80036; stroke-width: 1.0;" x1="566" x2="608" y1="368.3594" y2="368.3594"/><line style="stroke: #A80036; stroke-width: 1.0;" x1="608" x2="608" y1="368.3594" y2="381.3594"/><line style="stroke: #A80036; stroke-width: 1.0;" x1="561" x2="608" y1="381.3594" y2="381.3594"/><polygon fill="#A80036" points="571,377.3594,561,381.3594,571,385.3594,567,381.3594" style="stroke: #A80036; stroke-width: 1.0;"/><text fill="#000000" font-family="sans-serif" font-size="13" lengthAdjust="spacingAndGlyphs" textLength="112" x="573" y="363.2935">setLayout(layout)</text><!--
@startuml
Actor User
User - -> ButtonWidget: handleMouseEvent(...)
activate ButtonWidget

ButtonWidget -> TableDesignHandler: switchToTableRowsHandler()
activate TableDesignHandler
ButtonWidget <- - TableDesignHandler: tableRowsHandler
deactivate TableDesignHandler
ButtonWidget -> UIWindowHandler: switchToTableRowsWindow(tableRowsHandler)
deactivate ButtonWidget
activate UIWindowHandler
UIWindowHandler -> TableRowsWindow: getLayout(tableRowsHandler)
activate TableRowsWindow
TableRowsWindow -> TableRowsHandler: getRows()
activate TableRowsHandler
...
TableRowsWindow <- - TableRowsHandler:
deactivate TableRowsHandler
UIWindowHandler <- - TableRowsWindow: layout
deactivate TableRowsWindow
UIWindowHandler -> UIWindowHandler: setLayout(layout)
deactivate UIWindowHandler

@enduml

PlantUML version 1.2017.15(Mon Jul 03 18:45:34 CEST 2017)
(GPL source distribution)
Java Runtime: OpenJDK Runtime Environment
JVM: OpenJDK 64-Bit Server VM
Java Version: 10.0.2+13-Ubuntu-1ubuntu0.18.04.4
Operating System: Linux
OS Version: 4.15.0-46-generic
Default Encoding: UTF-8
Language: en
Country: US
--></g></svg>