<?xml version="1.0" encoding="UTF-8" standalone="no"?><svg xmlns="http://www.w3.org/2000/svg" xmlns:xlink="http://www.w3.org/1999/xlink" contentScriptType="application/ecmascript" contentStyleType="text/css" height="356px" preserveAspectRatio="none" style="width:233px;height:356px;" version="1.1" viewBox="0 0 233 356" width="233px" zoomAndPan="magnify"><defs><filter height="300%" id="f1ojgn146lcptg" width="300%" x="-1" y="-1"><feGaussianBlur result="blurOut" stdDeviation="2.0"/><feColorMatrix in="blurOut" result="blurOut2" type="matrix" values="0 0 0 0 0 0 0 0 0 0 0 0 0 0 0 0 0 0 .4 0"/><feOffset dx="4.0" dy="4.0" in="blurOut2" result="blurOut3"/><feBlend in="SourceGraphic" in2="blurOut3" mode="normal"/></filter></defs><g><text fill="#000000" font-family="sans-serif" font-size="14" font-weight="bold" lengthAdjust="spacingAndGlyphs" textLength="87" x="71.75" y="22.9951">Delete row</text><text fill="#000000" font-family="sans-serif" font-size="14" font-weight="bold" lengthAdjust="spacingAndGlyphs" textLength="33" x="103.75" y="39.292">MSS</text><line style="stroke: #A80036; stroke-width: 1.0; stroke-dasharray: 5.0,5.0;" x1="27" x2="27" y1="132.8906" y2="269.4219"/><line style="stroke: #A80036; stroke-width: 1.0; stroke-dasharray: 5.0,5.0;" x1="198.5" x2="198.5" y1="132.8906" y2="269.4219"/><text fill="#000000" font-family="sans-serif" font-size="14" lengthAdjust="spacingAndGlyphs" textLength="32" x="8" y="129.5889">User</text><ellipse cx="27" cy="59.5938" fill="#FEFECE" filter="url(#f1ojgn146lcptg)" rx="8" ry="8" style="stroke: #A80036; stroke-width: 2.0;"/><path d="M27,67.5938 L27,94.5938 M14,75.5938 L40,75.5938 M27,94.5938 L14,109.5938 M27,94.5938 L40,109.5938 " fill="#FEFECE" filter="url(#f1ojgn146lcptg)" style="stroke: #A80036; stroke-width: 2.0;"/><text fill="#000000" font-family="sans-serif" font-size="14" lengthAdjust="spacingAndGlyphs" textLength="32" x="8" y="281.417">User</text><ellipse cx="27" cy="294.7188" fill="#FEFECE" filter="url(#f1ojgn146lcptg)" rx="8" ry="8" style="stroke: #A80036; stroke-width: 2.0;"/><path d="M27,302.7188 L27,329.7188 M14,310.7188 L40,310.7188 M27,329.7188 L14,344.7188 M27,329.7188 L40,344.7188 " fill="#FEFECE" filter="url(#f1ojgn146lcptg)" style="stroke: #A80036; stroke-width: 2.0;"/><text fill="#000000" font-family="sans-serif" font-size="14" lengthAdjust="spacingAndGlyphs" textLength="51" x="170.5" y="129.5889">System</text><path d="M178.5,88.5938 L178.5,112.5938 M178.5,100.5938 L195.5,100.5938 " fill="#FEFECE" filter="url(#f1ojgn146lcptg)" style="stroke: #A80036; stroke-width: 2.0;"/><ellipse cx="207.5" cy="100.5938" fill="#FEFECE" filter="url(#f1ojgn146lcptg)" rx="12" ry="12" style="stroke: #A80036; stroke-width: 2.0;"/><text fill="#000000" font-family="sans-serif" font-size="14" lengthAdjust="spacingAndGlyphs" textLength="51" x="170.5" y="281.417">System</text><path d="M178.5,288.7188 L178.5,312.7188 M178.5,300.7188 L195.5,300.7188 " fill="#FEFECE" filter="url(#f1ojgn146lcptg)" style="stroke: #A80036; stroke-width: 2.0;"/><ellipse cx="207.5" cy="300.7188" fill="#FEFECE" filter="url(#f1ojgn146lcptg)" rx="12" ry="12" style="stroke: #A80036; stroke-width: 2.0;"/><polygon fill="#A80036" points="187,159.8906,197,163.8906,187,167.8906,191,163.8906" style="stroke: #A80036; stroke-width: 1.0;"/><line style="stroke: #A80036; stroke-width: 1.0;" x1="27" x2="193" y1="163.8906" y2="163.8906"/><text fill="#000000" font-family="sans-serif" font-size="13" lengthAdjust="spacingAndGlyphs" textLength="95" x="34" y="158.9575">selectRow(row)</text><polygon fill="#A80036" points="38,189.0234,28,193.0234,38,197.0234,34,193.0234" style="stroke: #A80036; stroke-width: 1.0;"/><line style="stroke: #A80036; stroke-width: 1.0; stroke-dasharray: 2.0,2.0;" x1="32" x2="198" y1="193.0234" y2="193.0234"/><text fill="#000000" font-family="sans-serif" font-size="13" lengthAdjust="spacingAndGlyphs" textLength="148" x="44" y="188.0903">indicates selected rows</text><polygon fill="#A80036" points="187,218.1563,197,222.1563,187,226.1563,191,222.1563" style="stroke: #A80036; stroke-width: 1.0;"/><line style="stroke: #A80036; stroke-width: 1.0;" x1="27" x2="193" y1="222.1563" y2="222.1563"/><text fill="#000000" font-family="sans-serif" font-size="13" lengthAdjust="spacingAndGlyphs" textLength="109" x="34" y="217.2231">deleteSelection()</text><polygon fill="#A80036" points="38,247.2891,28,251.2891,38,255.2891,34,251.2891" style="stroke: #A80036; stroke-width: 1.0;"/><line style="stroke: #A80036; stroke-width: 1.0; stroke-dasharray: 2.0,2.0;" x1="32" x2="198" y1="251.2891" y2="251.2891"/><text fill="#000000" font-family="sans-serif" font-size="13" lengthAdjust="spacingAndGlyphs" textLength="86" x="44" y="246.356">updated rows</text><!--
@startuml
title Delete row \n MSS
Actor User
Boundary System
User-> System: selectRow(row)
System - -> User: indicates selected rows
User -> System: deleteSelection()
System - -> User: updated rows

@enduml

PlantUML version 1.2017.15(Mon Jul 03 18:45:34 CEST 2017)
(GPL source distribution)
Java Runtime: OpenJDK Runtime Environment
JVM: OpenJDK 64-Bit Server VM
Java Version: 10.0.2+13-Ubuntu-1ubuntu0.18.04.4
Operating System: Linux
OS Version: 4.15.0-46-generic
Default Encoding: UTF-8
Language: en
Country: US
--></g></svg>