<?xml version="1.0" encoding="UTF-8" standalone="no"?><svg xmlns="http://www.w3.org/2000/svg" xmlns:xlink="http://www.w3.org/1999/xlink" contentScriptType="application/ecmascript" contentStyleType="text/css" height="1040px" preserveAspectRatio="none" style="width:475px;height:1040px;" version="1.1" viewBox="0 0 475 1040" width="475px" zoomAndPan="magnify"><defs><filter height="300%" id="f1ao8e3lc2ime6" width="300%" x="-1" y="-1"><feGaussianBlur result="blurOut" stdDeviation="2.0"/><feColorMatrix in="blurOut" result="blurOut2" type="matrix" values="0 0 0 0 0 0 0 0 0 0 0 0 0 0 0 0 0 0 .4 0"/><feOffset dx="4.0" dy="4.0" in="blurOut2" result="blurOut3"/><feBlend in="SourceGraphic" in2="blurOut3" mode="normal"/></filter></defs><g><text fill="#000000" font-family="sans-serif" font-size="14" font-weight="bold" lengthAdjust="spacingAndGlyphs" textLength="131" x="170.75" y="22.9951">Edit column type</text><text fill="#000000" font-family="sans-serif" font-size="14" font-weight="bold" lengthAdjust="spacingAndGlyphs" textLength="0" x="241.25" y="39.292"/><text fill="#000000" font-family="sans-serif" font-size="14" font-weight="bold" lengthAdjust="spacingAndGlyphs" textLength="181" x="150.75" y="55.5889">Main Success Scenario</text><rect fill="#FFFFFF" filter="url(#f1ao8e3lc2ime6)" height="178.0781" style="stroke: #000000; stroke-width: 2.0;" width="267.5" x="187" y="195.3203"/><rect fill="#FFFFFF" height="43.9375" style="stroke: none; stroke-width: 1.0;" width="267.5" x="187" y="241.5859"/><rect fill="#FFFFFF" height="43.9375" style="stroke: none; stroke-width: 1.0;" width="267.5" x="187" y="285.5234"/><rect fill="#FFFFFF" height="43.9375" style="stroke: none; stroke-width: 1.0;" width="267.5" x="187" y="329.4609"/><rect fill="#FFFFFF" filter="url(#f1ao8e3lc2ime6)" height="267.4766" style="stroke: #000000; stroke-width: 2.0;" width="287.5" x="177" y="668.6563"/><rect fill="#FFFFFF" filter="url(#f1ao8e3lc2ime6)" height="178.0781" style="stroke: #000000; stroke-width: 2.0;" width="267.5" x="187" y="721.9219"/><rect fill="#FFFFFF" height="43.9375" style="stroke: none; stroke-width: 1.0;" width="267.5" x="187" y="768.1875"/><rect fill="#FFFFFF" height="43.9375" style="stroke: none; stroke-width: 1.0;" width="267.5" x="187" y="812.125"/><rect fill="#FFFFFF" height="43.9375" style="stroke: none; stroke-width: 1.0;" width="267.5" x="187" y="856.0625"/><line style="stroke: #A80036; stroke-width: 1.0; stroke-dasharray: 5.0,5.0;" x1="216" x2="216" y1="149.1875" y2="953.1328"/><line style="stroke: #A80036; stroke-width: 1.0; stroke-dasharray: 5.0,5.0;" x1="415.5" x2="415.5" y1="149.1875" y2="953.1328"/><text fill="#000000" font-family="sans-serif" font-size="14" lengthAdjust="spacingAndGlyphs" textLength="32" x="197" y="145.8857">User</text><ellipse cx="216" cy="75.8906" fill="#FEFECE" filter="url(#f1ao8e3lc2ime6)" rx="8" ry="8" style="stroke: #A80036; stroke-width: 2.0;"/><path d="M216,83.8906 L216,110.8906 M203,91.8906 L229,91.8906 M216,110.8906 L203,125.8906 M216,110.8906 L229,125.8906 " fill="#FEFECE" filter="url(#f1ao8e3lc2ime6)" style="stroke: #A80036; stroke-width: 2.0;"/><text fill="#000000" font-family="sans-serif" font-size="14" lengthAdjust="spacingAndGlyphs" textLength="32" x="197" y="965.1279">User</text><ellipse cx="216" cy="978.4297" fill="#FEFECE" filter="url(#f1ao8e3lc2ime6)" rx="8" ry="8" style="stroke: #A80036; stroke-width: 2.0;"/><path d="M216,986.4297 L216,1013.4297 M203,994.4297 L229,994.4297 M216,1013.4297 L203,1028.4297 M216,1013.4297 L229,1028.4297 " fill="#FEFECE" filter="url(#f1ao8e3lc2ime6)" style="stroke: #A80036; stroke-width: 2.0;"/><text fill="#000000" font-family="sans-serif" font-size="14" lengthAdjust="spacingAndGlyphs" textLength="51" x="387.5" y="145.8857">System</text><path d="M395.5,104.8906 L395.5,128.8906 M395.5,116.8906 L412.5,116.8906 " fill="#FEFECE" filter="url(#f1ao8e3lc2ime6)" style="stroke: #A80036; stroke-width: 2.0;"/><ellipse cx="424.5" cy="116.8906" fill="#FEFECE" filter="url(#f1ao8e3lc2ime6)" rx="12" ry="12" style="stroke: #A80036; stroke-width: 2.0;"/><text fill="#000000" font-family="sans-serif" font-size="14" lengthAdjust="spacingAndGlyphs" textLength="51" x="387.5" y="965.1279">System</text><path d="M395.5,972.4297 L395.5,996.4297 M395.5,984.4297 L412.5,984.4297 " fill="#FEFECE" filter="url(#f1ao8e3lc2ime6)" style="stroke: #A80036; stroke-width: 2.0;"/><ellipse cx="424.5" cy="984.4297" fill="#FEFECE" filter="url(#f1ao8e3lc2ime6)" rx="12" ry="12" style="stroke: #A80036; stroke-width: 2.0;"/><polygon fill="#A80036" points="404,176.1875,414,180.1875,404,184.1875,408,180.1875" style="stroke: #A80036; stroke-width: 1.0;"/><line style="stroke: #A80036; stroke-width: 1.0;" x1="216" x2="410" y1="180.1875" y2="180.1875"/><text fill="#000000" font-family="sans-serif" font-size="13" lengthAdjust="spacingAndGlyphs" textLength="176" x="223" y="175.2544">selectColumnType(Column)</text><rect fill="none" height="178.0781" style="stroke: #000000; stroke-width: 2.0;" width="267.5" x="187" y="195.3203"/><polygon fill="#EEEEEE" points="187,195.3203,251,195.3203,251,202.3203,241,212.3203,187,212.3203,187,195.3203" style="stroke: #000000; stroke-width: 2.0;"/><text fill="#000000" font-family="sans-serif" font-size="13" font-weight="bold" lengthAdjust="spacingAndGlyphs" textLength="19" x="202" y="208.3872">alt</text><text fill="#000000" font-family="sans-serif" font-size="11" font-weight="bold" lengthAdjust="spacingAndGlyphs" textLength="105" x="266" y="207.5308">[Type == String]</text><polygon fill="#A80036" points="227,229.4531,217,233.4531,227,237.4531,223,233.4531" style="stroke: #A80036; stroke-width: 1.0;"/><line style="stroke: #A80036; stroke-width: 1.0; stroke-dasharray: 2.0,2.0;" x1="221" x2="415" y1="233.4531" y2="233.4531"/><text fill="#000000" font-family="sans-serif" font-size="13" lengthAdjust="spacingAndGlyphs" textLength="95" x="233" y="228.52">Type == Email</text><line style="stroke: #000000; stroke-width: 1.0; stroke-dasharray: 2.0,2.0;" x1="187" x2="454.5" y1="242.5859" y2="242.5859"/><text fill="#000000" font-family="sans-serif" font-size="11" font-weight="bold" lengthAdjust="spacingAndGlyphs" textLength="102" x="192" y="252.7964">[Type == Email]</text><polygon fill="#A80036" points="227,273.3906,217,277.3906,227,281.3906,223,277.3906" style="stroke: #A80036; stroke-width: 1.0;"/><line style="stroke: #A80036; stroke-width: 1.0; stroke-dasharray: 2.0,2.0;" x1="221" x2="415" y1="277.3906" y2="277.3906"/><text fill="#000000" font-family="sans-serif" font-size="13" lengthAdjust="spacingAndGlyphs" textLength="112" x="233" y="272.4575">Type == Boolean</text><line style="stroke: #000000; stroke-width: 1.0; stroke-dasharray: 2.0,2.0;" x1="187" x2="454.5" y1="286.5234" y2="286.5234"/><text fill="#000000" font-family="sans-serif" font-size="11" font-weight="bold" lengthAdjust="spacingAndGlyphs" textLength="120" x="192" y="296.7339">[Type == Boolean]</text><polygon fill="#A80036" points="227,317.3281,217,321.3281,227,325.3281,223,321.3281" style="stroke: #A80036; stroke-width: 1.0;"/><line style="stroke: #A80036; stroke-width: 1.0; stroke-dasharray: 2.0,2.0;" x1="221" x2="415" y1="321.3281" y2="321.3281"/><text fill="#000000" font-family="sans-serif" font-size="13" lengthAdjust="spacingAndGlyphs" textLength="105" x="233" y="316.395">Type == Integer</text><line style="stroke: #000000; stroke-width: 1.0; stroke-dasharray: 2.0,2.0;" x1="187" x2="454.5" y1="330.4609" y2="330.4609"/><text fill="#000000" font-family="sans-serif" font-size="11" font-weight="bold" lengthAdjust="spacingAndGlyphs" textLength="113" x="192" y="340.6714">[Type == Integer]</text><polygon fill="#A80036" points="227,361.2656,217,365.2656,227,369.2656,223,365.2656" style="stroke: #A80036; stroke-width: 1.0;"/><line style="stroke: #A80036; stroke-width: 1.0; stroke-dasharray: 2.0,2.0;" x1="221" x2="415" y1="365.2656" y2="365.2656"/><text fill="#000000" font-family="sans-serif" font-size="13" lengthAdjust="spacingAndGlyphs" textLength="98" x="233" y="360.3325">Type == String</text><polygon fill="#A80036" points="227,523.4609,217,527.4609,227,531.4609,223,527.4609" style="stroke: #A80036; stroke-width: 1.0;"/><line style="stroke: #A80036; stroke-width: 1.0;" x1="221" x2="415" y1="527.4609" y2="527.4609"/><text fill="#000000" font-family="sans-serif" font-size="13" lengthAdjust="spacingAndGlyphs" textLength="77" x="233" y="522.5278">valid, invalid</text><polygon fill="#FBFB77" filter="url(#f1ao8e3lc2ime6)" points="8,385.3984,8,652.3984,207,652.3984,207,395.3984,197,385.3984,8,385.3984" style="stroke: #A80036; stroke-width: 1.0;"/><line style="stroke: #A80036; stroke-width: 1.0;" x1="197" x2="197" y1="385.3984" y2="395.3984"/><line style="stroke: #A80036; stroke-width: 1.0;" x1="207" x2="197" y1="395.3984" y2="395.3984"/><text fill="#000000" font-family="sans-serif" font-size="13" lengthAdjust="spacingAndGlyphs" textLength="138" x="14" y="402.4653">Ik weet dat dit lelijk is,</text><text fill="#000000" font-family="sans-serif" font-size="13" lengthAdjust="spacingAndGlyphs" textLength="142" x="14" y="417.5981">maar je hebt niet echt</text><text fill="#000000" font-family="sans-serif" font-size="13" lengthAdjust="spacingAndGlyphs" textLength="123" x="14" y="432.731">een do-while hierin,</text><text fill="#000000" font-family="sans-serif" font-size="13" lengthAdjust="spacingAndGlyphs" textLength="121" x="14" y="447.8638">plus zeggen invalid</text><text fill="#000000" font-family="sans-serif" font-size="13" lengthAdjust="spacingAndGlyphs" textLength="122" x="14" y="462.9966">of 1e iteratie is ook</text><text fill="#000000" font-family="sans-serif" font-size="13" lengthAdjust="spacingAndGlyphs" textLength="51" x="14" y="478.1294">zo brak.</text><text fill="#000000" font-family="sans-serif" font-size="13" lengthAdjust="spacingAndGlyphs" textLength="141" x="14" y="493.2622">Op deze manier wordt</text><text fill="#000000" font-family="sans-serif" font-size="13" lengthAdjust="spacingAndGlyphs" textLength="134" x="14" y="508.395">ook benadrukt dat er</text><text fill="#000000" font-family="sans-serif" font-size="13" lengthAdjust="spacingAndGlyphs" textLength="162" x="14" y="523.5278">niets anders mag worden</text><text fill="#000000" font-family="sans-serif" font-size="13" lengthAdjust="spacingAndGlyphs" textLength="139" x="14" y="538.6606">gedaan als het invalid</text><text fill="#000000" font-family="sans-serif" font-size="13" lengthAdjust="spacingAndGlyphs" textLength="14" x="14" y="553.7935">is.</text><text fill="#000000" font-family="sans-serif" font-size="13" lengthAdjust="spacingAndGlyphs" textLength="133" x="14" y="568.9263">In principe zou ik ook</text><text fill="#000000" font-family="sans-serif" font-size="13" lengthAdjust="spacingAndGlyphs" textLength="109" x="14" y="584.0591">van het onderste</text><text fill="#000000" font-family="sans-serif" font-size="13" lengthAdjust="spacingAndGlyphs" textLength="131" x="14" y="599.1919">Een aparte use case</text><text fill="#000000" font-family="sans-serif" font-size="13" lengthAdjust="spacingAndGlyphs" textLength="112" x="14" y="614.3247">trekt ook op niets</text><text fill="#000000" font-family="sans-serif" font-size="13" lengthAdjust="spacingAndGlyphs" textLength="171" x="14" y="629.4575">want dat is exact hetzelfde</text><text fill="#000000" font-family="sans-serif" font-size="13" lengthAdjust="spacingAndGlyphs" textLength="178" x="14" y="644.5903">maar met enkel invalid hier.</text><rect fill="none" height="267.4766" style="stroke: #000000; stroke-width: 2.0;" width="287.5" x="177" y="668.6563"/><polygon fill="#EEEEEE" points="177,668.6563,254,668.6563,254,675.6563,244,685.6563,177,685.6563,177,668.6563" style="stroke: #000000; stroke-width: 2.0;"/><text fill="#000000" font-family="sans-serif" font-size="13" font-weight="bold" lengthAdjust="spacingAndGlyphs" textLength="32" x="192" y="681.7231">loop</text><text fill="#000000" font-family="sans-serif" font-size="11" font-weight="bold" lengthAdjust="spacingAndGlyphs" textLength="53" x="269" y="680.8667">[invalid]</text><polygon fill="#A80036" points="404,702.7891,414,706.7891,404,710.7891,408,706.7891" style="stroke: #A80036; stroke-width: 1.0;"/><line style="stroke: #A80036; stroke-width: 1.0;" x1="216" x2="410" y1="706.7891" y2="706.7891"/><text fill="#000000" font-family="sans-serif" font-size="13" lengthAdjust="spacingAndGlyphs" textLength="176" x="223" y="701.856">selectColumnType(Column)</text><rect fill="none" height="178.0781" style="stroke: #000000; stroke-width: 2.0;" width="267.5" x="187" y="721.9219"/><polygon fill="#EEEEEE" points="187,721.9219,251,721.9219,251,728.9219,241,738.9219,187,738.9219,187,721.9219" style="stroke: #000000; stroke-width: 2.0;"/><text fill="#000000" font-family="sans-serif" font-size="13" font-weight="bold" lengthAdjust="spacingAndGlyphs" textLength="19" x="202" y="734.9888">alt</text><text fill="#000000" font-family="sans-serif" font-size="11" font-weight="bold" lengthAdjust="spacingAndGlyphs" textLength="105" x="266" y="734.1323">[Type == String]</text><polygon fill="#A80036" points="227,756.0547,217,760.0547,227,764.0547,223,760.0547" style="stroke: #A80036; stroke-width: 1.0;"/><line style="stroke: #A80036; stroke-width: 1.0; stroke-dasharray: 2.0,2.0;" x1="221" x2="415" y1="760.0547" y2="760.0547"/><text fill="#000000" font-family="sans-serif" font-size="13" lengthAdjust="spacingAndGlyphs" textLength="95" x="233" y="755.1216">Type == Email</text><line style="stroke: #000000; stroke-width: 1.0; stroke-dasharray: 2.0,2.0;" x1="187" x2="454.5" y1="769.1875" y2="769.1875"/><text fill="#000000" font-family="sans-serif" font-size="11" font-weight="bold" lengthAdjust="spacingAndGlyphs" textLength="102" x="192" y="779.3979">[Type == Email]</text><polygon fill="#A80036" points="227,799.9922,217,803.9922,227,807.9922,223,803.9922" style="stroke: #A80036; stroke-width: 1.0;"/><line style="stroke: #A80036; stroke-width: 1.0; stroke-dasharray: 2.0,2.0;" x1="221" x2="415" y1="803.9922" y2="803.9922"/><text fill="#000000" font-family="sans-serif" font-size="13" lengthAdjust="spacingAndGlyphs" textLength="112" x="233" y="799.0591">Type == Boolean</text><line style="stroke: #000000; stroke-width: 1.0; stroke-dasharray: 2.0,2.0;" x1="187" x2="454.5" y1="813.125" y2="813.125"/><text fill="#000000" font-family="sans-serif" font-size="11" font-weight="bold" lengthAdjust="spacingAndGlyphs" textLength="120" x="192" y="823.3354">[Type == Boolean]</text><polygon fill="#A80036" points="227,843.9297,217,847.9297,227,851.9297,223,847.9297" style="stroke: #A80036; stroke-width: 1.0;"/><line style="stroke: #A80036; stroke-width: 1.0; stroke-dasharray: 2.0,2.0;" x1="221" x2="415" y1="847.9297" y2="847.9297"/><text fill="#000000" font-family="sans-serif" font-size="13" lengthAdjust="spacingAndGlyphs" textLength="105" x="233" y="842.9966">Type == Integer</text><line style="stroke: #000000; stroke-width: 1.0; stroke-dasharray: 2.0,2.0;" x1="187" x2="454.5" y1="857.0625" y2="857.0625"/><text fill="#000000" font-family="sans-serif" font-size="11" font-weight="bold" lengthAdjust="spacingAndGlyphs" textLength="113" x="192" y="867.2729">[Type == Integer]</text><polygon fill="#A80036" points="227,887.8672,217,891.8672,227,895.8672,223,891.8672" style="stroke: #A80036; stroke-width: 1.0;"/><line style="stroke: #A80036; stroke-width: 1.0; stroke-dasharray: 2.0,2.0;" x1="221" x2="415" y1="891.8672" y2="891.8672"/><text fill="#000000" font-family="sans-serif" font-size="13" lengthAdjust="spacingAndGlyphs" textLength="98" x="233" y="886.9341">Type == String</text><polygon fill="#A80036" points="227,924,217,928,227,932,223,928" style="stroke: #A80036; stroke-width: 1.0;"/><line style="stroke: #A80036; stroke-width: 1.0;" x1="221" x2="415" y1="928" y2="928"/><text fill="#000000" font-family="sans-serif" font-size="13" lengthAdjust="spacingAndGlyphs" textLength="77" x="233" y="923.0669">valid, invalid</text><!--
@startuml
title Edit column type \n \n Main Success Scenario
Actor User
Boundary System
User -> System: selectColumnType(Column)
alt Type == String
        System - -> User: Type == Email
    else Type == Email
        System - -> User: Type == Boolean
    else Type == Boolean
        System - -> User: Type == Integer
    else Type == Integer
        System - -> User: Type == String

    end

System -> User: valid, invalid
note left
    Ik weet dat dit lelijk is,
    maar je hebt niet echt
    een do-while hierin,
    plus zeggen invalid
    of 1e iteratie is ook
    zo brak.
    Op deze manier wordt
    ook benadrukt dat er
    niets anders mag worden
    gedaan als het invalid
    is.
    In principe zou ik ook
    van het onderste
    Een aparte use case
    trekt ook op niets
    want dat is exact hetzelfde
    maar met enkel invalid hier.
end note
loop invalid
    User -> System: selectColumnType(Column)
    alt Type == String
        System - -> User: Type == Email
    else Type == Email
        System - -> User: Type == Boolean
    else Type == Boolean
        System - -> User: Type == Integer
    else Type == Integer
        System - -> User: Type == String

    end

System -> User: valid, invalid
end
@enduml

PlantUML version 1.2017.15(Mon Jul 03 18:45:34 CEST 2017)
(GPL source distribution)
Java Runtime: OpenJDK Runtime Environment
JVM: OpenJDK 64-Bit Server VM
Java Version: 10.0.2+13-Ubuntu-1ubuntu0.18.04.4
Operating System: Linux
OS Version: 4.15.0-46-generic
Default Encoding: UTF-8
Language: en
Country: US
--></g></svg>