<?xml version="1.0" encoding="UTF-8" standalone="no"?><svg xmlns="http://www.w3.org/2000/svg" xmlns:xlink="http://www.w3.org/1999/xlink" contentScriptType="application/ecmascript" contentStyleType="text/css" height="463px" preserveAspectRatio="none" style="width:476px;height:463px;" version="1.1" viewBox="0 0 476 463" width="476px" zoomAndPan="magnify"><defs><filter height="300%" id="f10lrk6k5iuuup" width="300%" x="-1" y="-1"><feGaussianBlur result="blurOut" stdDeviation="2.0"/><feColorMatrix in="blurOut" result="blurOut2" type="matrix" values="0 0 0 0 0 0 0 0 0 0 0 0 0 0 0 0 0 0 .4 0"/><feOffset dx="4.0" dy="4.0" in="blurOut2" result="blurOut3"/><feBlend in="SourceGraphic" in2="blurOut3" mode="normal"/></filter></defs><g><text fill="#000000" font-family="sans-serif" font-size="14" font-weight="bold" lengthAdjust="spacingAndGlyphs" textLength="181" x="143.25" y="22.9951">User tries invalid name</text><rect fill="#FFFFFF" filter="url(#f10lrk6k5iuuup)" height="164.7969" style="stroke: #000000; stroke-width: 2.0;" width="309.5" x="145" y="164.7266"/><rect fill="#FFFFFF" filter="url(#f10lrk6k5iuuup)" height="75.3984" style="stroke: #000000; stroke-width: 2.0;" width="289.5" x="155" y="188.8594"/><line style="stroke: #A80036; stroke-width: 1.0; stroke-dasharray: 5.0,5.0;" x1="184" x2="184" y1="116.5938" y2="376.6563"/><line style="stroke: #A80036; stroke-width: 1.0; stroke-dasharray: 5.0,5.0;" x1="405.5" x2="405.5" y1="116.5938" y2="376.6563"/><text fill="#000000" font-family="sans-serif" font-size="14" lengthAdjust="spacingAndGlyphs" textLength="32" x="165" y="113.292">User</text><ellipse cx="184" cy="43.2969" fill="#FEFECE" filter="url(#f10lrk6k5iuuup)" rx="8" ry="8" style="stroke: #A80036; stroke-width: 2.0;"/><path d="M184,51.2969 L184,78.2969 M171,59.2969 L197,59.2969 M184,78.2969 L171,93.2969 M184,78.2969 L197,93.2969 " fill="#FEFECE" filter="url(#f10lrk6k5iuuup)" style="stroke: #A80036; stroke-width: 2.0;"/><text fill="#000000" font-family="sans-serif" font-size="14" lengthAdjust="spacingAndGlyphs" textLength="32" x="165" y="388.6514">User</text><ellipse cx="184" cy="401.9531" fill="#FEFECE" filter="url(#f10lrk6k5iuuup)" rx="8" ry="8" style="stroke: #A80036; stroke-width: 2.0;"/><path d="M184,409.9531 L184,436.9531 M171,417.9531 L197,417.9531 M184,436.9531 L171,451.9531 M184,436.9531 L197,451.9531 " fill="#FEFECE" filter="url(#f10lrk6k5iuuup)" style="stroke: #A80036; stroke-width: 2.0;"/><text fill="#000000" font-family="sans-serif" font-size="14" lengthAdjust="spacingAndGlyphs" textLength="51" x="377.5" y="113.292">System</text><path d="M385.5,72.2969 L385.5,96.2969 M385.5,84.2969 L402.5,84.2969 " fill="#FEFECE" filter="url(#f10lrk6k5iuuup)" style="stroke: #A80036; stroke-width: 2.0;"/><ellipse cx="414.5" cy="84.2969" fill="#FEFECE" filter="url(#f10lrk6k5iuuup)" rx="12" ry="12" style="stroke: #A80036; stroke-width: 2.0;"/><text fill="#000000" font-family="sans-serif" font-size="14" lengthAdjust="spacingAndGlyphs" textLength="51" x="377.5" y="388.6514">System</text><path d="M385.5,395.9531 L385.5,419.9531 M385.5,407.9531 L402.5,407.9531 " fill="#FEFECE" filter="url(#f10lrk6k5iuuup)" style="stroke: #A80036; stroke-width: 2.0;"/><ellipse cx="414.5" cy="407.9531" fill="#FEFECE" filter="url(#f10lrk6k5iuuup)" rx="12" ry="12" style="stroke: #A80036; stroke-width: 2.0;"/><line style="stroke: #000000; stroke-width: 1.0; stroke-dasharray: 2.0,2.0;" x1="3" x2="464.5" y1="127.5938" y2="127.5938"/><polygon fill="#A80036" points="394,145.5938,404,149.5938,394,153.5938,398,149.5938" style="stroke: #A80036; stroke-width: 1.0;"/><line style="stroke: #A80036; stroke-width: 1.0;" x1="184" x2="400" y1="149.5938" y2="149.5938"/><text fill="#000000" font-family="sans-serif" font-size="13" lengthAdjust="spacingAndGlyphs" textLength="185" x="191" y="144.6606">selectColumnName(Column)</text><rect fill="none" height="164.7969" style="stroke: #000000; stroke-width: 2.0;" width="309.5" x="145" y="164.7266"/><polygon fill="#EEEEEE" points="145,164.7266,222,164.7266,222,171.7266,212,181.7266,145,181.7266,145,164.7266" style="stroke: #000000; stroke-width: 2.0;"/><text fill="#000000" font-family="sans-serif" font-size="13" font-weight="bold" lengthAdjust="spacingAndGlyphs" textLength="32" x="160" y="177.7935">loop</text><text fill="#000000" font-family="sans-serif" font-size="11" font-weight="bold" lengthAdjust="spacingAndGlyphs" textLength="53" x="237" y="176.937">[invalid]</text><rect fill="none" height="75.3984" style="stroke: #000000; stroke-width: 2.0;" width="289.5" x="155" y="188.8594"/><polygon fill="#EEEEEE" points="155,188.8594,232,188.8594,232,195.8594,222,205.8594,155,205.8594,155,188.8594" style="stroke: #000000; stroke-width: 2.0;"/><text fill="#000000" font-family="sans-serif" font-size="13" font-weight="bold" lengthAdjust="spacingAndGlyphs" textLength="32" x="170" y="201.9263">loop</text><polygon fill="#A80036" points="394,222.9922,404,226.9922,394,230.9922,398,226.9922" style="stroke: #A80036; stroke-width: 1.0;"/><line style="stroke: #A80036; stroke-width: 1.0;" x1="184" x2="400" y1="226.9922" y2="226.9922"/><text fill="#000000" font-family="sans-serif" font-size="13" lengthAdjust="spacingAndGlyphs" textLength="186" x="191" y="222.0591">editColumnName(newName)</text><polygon fill="#A80036" points="195,252.125,185,256.125,195,260.125,191,256.125" style="stroke: #A80036; stroke-width: 1.0;"/><line style="stroke: #A80036; stroke-width: 1.0; stroke-dasharray: 2.0,2.0;" x1="189" x2="405" y1="256.125" y2="256.125"/><text fill="#000000" font-family="sans-serif" font-size="13" lengthAdjust="spacingAndGlyphs" textLength="77" x="201" y="251.1919">valid, invalid</text><polygon fill="#A80036" points="394,288.2578,404,292.2578,394,296.2578,398,292.2578" style="stroke: #A80036; stroke-width: 1.0;"/><line style="stroke: #A80036; stroke-width: 1.0;" x1="184" x2="400" y1="292.2578" y2="292.2578"/><text fill="#000000" font-family="sans-serif" font-size="13" lengthAdjust="spacingAndGlyphs" textLength="78" x="191" y="287.3247">tryToFinish()</text><polygon fill="#A80036" points="195,317.3906,185,321.3906,195,325.3906,191,321.3906" style="stroke: #A80036; stroke-width: 1.0;"/><line style="stroke: #A80036; stroke-width: 1.0; stroke-dasharray: 2.0,2.0;" x1="189" x2="405" y1="321.3906" y2="321.3906"/><text fill="#000000" font-family="sans-serif" font-size="13" lengthAdjust="spacingAndGlyphs" textLength="77" x="201" y="316.4575">valid, invalid</text><polygon fill="#A80036" points="195,353.5234,185,357.5234,195,361.5234,191,357.5234" style="stroke: #A80036; stroke-width: 1.0;"/><line style="stroke: #A80036; stroke-width: 1.0; stroke-dasharray: 2.0,2.0;" x1="189" x2="405" y1="357.5234" y2="357.5234"/><text fill="#000000" font-family="sans-serif" font-size="13" lengthAdjust="spacingAndGlyphs" textLength="88" x="201" y="352.5903">column name</text><line style="stroke: #000000; stroke-width: 1.0; stroke-dasharray: 2.0,2.0;" x1="3" x2="464.5" y1="365.6563" y2="365.6563"/><!--
@startuml
title Edit Column Name  \n\nMain Success Scenario
Actor User
Boundary System
User -> System: selectColumnName(Column)
note left
    I try to put all
    the SSDs in the
    same image here.
end note
loop
    User -> System: editColumnName(newName)
    System - -> User: valid, not valid
end
System - -> User: valid
User -> System: finishEditing()
System - -> User: column name




newpage User tries invalid name
User -> System: selectColumnName(Column)
loop invalid
    loop
        User -> System: editColumnName(newName)
        System - -> User: valid, invalid
    end
    User -> System: tryToFinish()
    System - -> User: valid, invalid
end

System - -> User: column name

newpage User cancels editing
User -> System: selectColumnName(Column)
loop
    User -> System: editColumnName(newName)
    System - -> User: valid, not valid
end
User -> System: cancelEditing()
note left
    I think we do not need
    the valid confirmation.
    It can be invalid also
    when the user cancels.
end note
System - -> User: original unedited column name
@enduml

PlantUML version 1.2017.15(Mon Jul 03 18:45:34 CEST 2017)
(GPL source distribution)
Java Runtime: OpenJDK Runtime Environment
JVM: OpenJDK 64-Bit Server VM
Java Version: 10.0.2+13-Ubuntu-1ubuntu0.18.04.4
Operating System: Linux
OS Version: 4.15.0-46-generic
Default Encoding: UTF-8
Language: en
Country: US
--></g></svg>