<?xml version="1.0" encoding="UTF-8" standalone="no"?><svg xmlns="http://www.w3.org/2000/svg" xmlns:xlink="http://www.w3.org/1999/xlink" contentScriptType="application/ecmascript" contentStyleType="text/css" height="298px" preserveAspectRatio="none" style="width:294px;height:298px;" version="1.1" viewBox="0 0 294 298" width="294px" zoomAndPan="magnify"><defs><filter height="300%" id="f9zdrcotrxrs1" width="300%" x="-1" y="-1"><feGaussianBlur result="blurOut" stdDeviation="2.0"/><feColorMatrix in="blurOut" result="blurOut2" type="matrix" values="0 0 0 0 0 0 0 0 0 0 0 0 0 0 0 0 0 0 .4 0"/><feOffset dx="4.0" dy="4.0" in="blurOut2" result="blurOut3"/><feBlend in="SourceGraphic" in2="blurOut3" mode="normal"/></filter></defs><g><text fill="#000000" font-family="sans-serif" font-size="14" font-weight="bold" lengthAdjust="spacingAndGlyphs" textLength="93" x="99.25" y="22.9951">Add column</text><text fill="#000000" font-family="sans-serif" font-size="14" font-weight="bold" lengthAdjust="spacingAndGlyphs" textLength="33" x="134.25" y="39.292">MSS</text><line style="stroke: #A80036; stroke-width: 1.0; stroke-dasharray: 5.0,5.0;" x1="27" x2="27" y1="132.8906" y2="211.1563"/><line style="stroke: #A80036; stroke-width: 1.0; stroke-dasharray: 5.0,5.0;" x1="259.5" x2="259.5" y1="132.8906" y2="211.1563"/><text fill="#000000" font-family="sans-serif" font-size="14" lengthAdjust="spacingAndGlyphs" textLength="32" x="8" y="129.5889">User</text><ellipse cx="27" cy="59.5938" fill="#FEFECE" filter="url(#f9zdrcotrxrs1)" rx="8" ry="8" style="stroke: #A80036; stroke-width: 2.0;"/><path d="M27,67.5938 L27,94.5938 M14,75.5938 L40,75.5938 M27,94.5938 L14,109.5938 M27,94.5938 L40,109.5938 " fill="#FEFECE" filter="url(#f9zdrcotrxrs1)" style="stroke: #A80036; stroke-width: 2.0;"/><text fill="#000000" font-family="sans-serif" font-size="14" lengthAdjust="spacingAndGlyphs" textLength="32" x="8" y="223.1514">User</text><ellipse cx="27" cy="236.4531" fill="#FEFECE" filter="url(#f9zdrcotrxrs1)" rx="8" ry="8" style="stroke: #A80036; stroke-width: 2.0;"/><path d="M27,244.4531 L27,271.4531 M14,252.4531 L40,252.4531 M27,271.4531 L14,286.4531 M27,271.4531 L40,286.4531 " fill="#FEFECE" filter="url(#f9zdrcotrxrs1)" style="stroke: #A80036; stroke-width: 2.0;"/><text fill="#000000" font-family="sans-serif" font-size="14" lengthAdjust="spacingAndGlyphs" textLength="51" x="231.5" y="129.5889">System</text><path d="M239.5,88.5938 L239.5,112.5938 M239.5,100.5938 L256.5,100.5938 " fill="#FEFECE" filter="url(#f9zdrcotrxrs1)" style="stroke: #A80036; stroke-width: 2.0;"/><ellipse cx="268.5" cy="100.5938" fill="#FEFECE" filter="url(#f9zdrcotrxrs1)" rx="12" ry="12" style="stroke: #A80036; stroke-width: 2.0;"/><text fill="#000000" font-family="sans-serif" font-size="14" lengthAdjust="spacingAndGlyphs" textLength="51" x="231.5" y="223.1514">System</text><path d="M239.5,230.4531 L239.5,254.4531 M239.5,242.4531 L256.5,242.4531 " fill="#FEFECE" filter="url(#f9zdrcotrxrs1)" style="stroke: #A80036; stroke-width: 2.0;"/><ellipse cx="268.5" cy="242.4531" fill="#FEFECE" filter="url(#f9zdrcotrxrs1)" rx="12" ry="12" style="stroke: #A80036; stroke-width: 2.0;"/><polygon fill="#A80036" points="248,159.8906,258,163.8906,248,167.8906,252,163.8906" style="stroke: #A80036; stroke-width: 1.0;"/><line style="stroke: #A80036; stroke-width: 1.0;" x1="27" x2="254" y1="163.8906" y2="163.8906"/><text fill="#000000" font-family="sans-serif" font-size="13" lengthAdjust="spacingAndGlyphs" textLength="127" x="34" y="158.9575">createNewColumn()</text><polygon fill="#A80036" points="38,189.0234,28,193.0234,38,197.0234,34,193.0234" style="stroke: #A80036; stroke-width: 1.0;"/><line style="stroke: #A80036; stroke-width: 1.0; stroke-dasharray: 2.0,2.0;" x1="32" x2="259" y1="193.0234" y2="193.0234"/><text fill="#000000" font-family="sans-serif" font-size="13" lengthAdjust="spacingAndGlyphs" textLength="209" x="44" y="188.0903">column list including new column</text><!--
@startuml
title Add column \n MSS
Actor User
Boundary System
User -> System: createNewColumn()
System - -> User: column list including new column


@enduml

PlantUML version 1.2017.15(Mon Jul 03 18:45:34 CEST 2017)
(GPL source distribution)
Java Runtime: OpenJDK Runtime Environment
JVM: OpenJDK 64-Bit Server VM
Java Version: 10.0.2+13-Ubuntu-1ubuntu0.18.04.4
Operating System: Linux
OS Version: 4.15.0-46-generic
Default Encoding: UTF-8
Language: en
Country: US
--></g></svg>