<?xml version="1.0" encoding="UTF-8" standalone="no"?><svg xmlns="http://www.w3.org/2000/svg" xmlns:xlink="http://www.w3.org/1999/xlink" contentScriptType="application/ecmascript" contentStyleType="text/css" height="282px" preserveAspectRatio="none" style="width:193px;height:282px;" version="1.1" viewBox="0 0 193 282" width="193px" zoomAndPan="magnify"><defs><filter height="300%" id="f4cmowl133rd8" width="300%" x="-1" y="-1"><feGaussianBlur result="blurOut" stdDeviation="2.0"/><feColorMatrix in="blurOut" result="blurOut2" type="matrix" values="0 0 0 0 0 0 0 0 0 0 0 0 0 0 0 0 0 0 .4 0"/><feOffset dx="4.0" dy="4.0" in="blurOut2" result="blurOut3"/><feBlend in="SourceGraphic" in2="blurOut3" mode="normal"/></filter></defs><g><text fill="#000000" font-family="sans-serif" font-size="14" font-weight="bold" lengthAdjust="spacingAndGlyphs" textLength="67" x="64.25" y="22.9951">Add row</text><line style="stroke: #A80036; stroke-width: 1.0; stroke-dasharray: 5.0,5.0;" x1="27" x2="27" y1="116.5938" y2="194.8594"/><line style="stroke: #A80036; stroke-width: 1.0; stroke-dasharray: 5.0,5.0;" x1="158.5" x2="158.5" y1="116.5938" y2="194.8594"/><text fill="#000000" font-family="sans-serif" font-size="14" lengthAdjust="spacingAndGlyphs" textLength="32" x="8" y="113.292">User</text><ellipse cx="27" cy="43.2969" fill="#FEFECE" filter="url(#f4cmowl133rd8)" rx="8" ry="8" style="stroke: #A80036; stroke-width: 2.0;"/><path d="M27,51.2969 L27,78.2969 M14,59.2969 L40,59.2969 M27,78.2969 L14,93.2969 M27,78.2969 L40,93.2969 " fill="#FEFECE" filter="url(#f4cmowl133rd8)" style="stroke: #A80036; stroke-width: 2.0;"/><text fill="#000000" font-family="sans-serif" font-size="14" lengthAdjust="spacingAndGlyphs" textLength="32" x="8" y="206.8545">User</text><ellipse cx="27" cy="220.1563" fill="#FEFECE" filter="url(#f4cmowl133rd8)" rx="8" ry="8" style="stroke: #A80036; stroke-width: 2.0;"/><path d="M27,228.1563 L27,255.1563 M14,236.1563 L40,236.1563 M27,255.1563 L14,270.1563 M27,255.1563 L40,270.1563 " fill="#FEFECE" filter="url(#f4cmowl133rd8)" style="stroke: #A80036; stroke-width: 2.0;"/><text fill="#000000" font-family="sans-serif" font-size="14" lengthAdjust="spacingAndGlyphs" textLength="51" x="130.5" y="113.292">System</text><path d="M138.5,72.2969 L138.5,96.2969 M138.5,84.2969 L155.5,84.2969 " fill="#FEFECE" filter="url(#f4cmowl133rd8)" style="stroke: #A80036; stroke-width: 2.0;"/><ellipse cx="167.5" cy="84.2969" fill="#FEFECE" filter="url(#f4cmowl133rd8)" rx="12" ry="12" style="stroke: #A80036; stroke-width: 2.0;"/><text fill="#000000" font-family="sans-serif" font-size="14" lengthAdjust="spacingAndGlyphs" textLength="51" x="130.5" y="206.8545">System</text><path d="M138.5,214.1563 L138.5,238.1563 M138.5,226.1563 L155.5,226.1563 " fill="#FEFECE" filter="url(#f4cmowl133rd8)" style="stroke: #A80036; stroke-width: 2.0;"/><ellipse cx="167.5" cy="226.1563" fill="#FEFECE" filter="url(#f4cmowl133rd8)" rx="12" ry="12" style="stroke: #A80036; stroke-width: 2.0;"/><polygon fill="#A80036" points="147,143.5938,157,147.5938,147,151.5938,151,147.5938" style="stroke: #A80036; stroke-width: 1.0;"/><line style="stroke: #A80036; stroke-width: 1.0;" x1="27" x2="153" y1="147.5938" y2="147.5938"/><text fill="#000000" font-family="sans-serif" font-size="13" lengthAdjust="spacingAndGlyphs" textLength="59" x="34" y="142.6606">addRow()</text><polygon fill="#A80036" points="38,172.7266,28,176.7266,38,180.7266,34,176.7266" style="stroke: #A80036; stroke-width: 1.0;"/><line style="stroke: #A80036; stroke-width: 1.0; stroke-dasharray: 2.0,2.0;" x1="32" x2="158" y1="176.7266" y2="176.7266"/><text fill="#000000" font-family="sans-serif" font-size="13" lengthAdjust="spacingAndGlyphs" textLength="108" x="44" y="171.7935">updated rows list</text><!--
@startuml
titleLabel Add row
Actor User
Boundary System
User -> System: addRow()
System - -> User: updated rows list


@enduml

PlantUML version 1.2017.15(Mon Jul 03 18:45:34 CEST 2017)
(GPL source distribution)
Java Runtime: OpenJDK Runtime Environment
JVM: OpenJDK 64-Bit Server VM
Java Version: 10.0.2+13-Ubuntu-1ubuntu0.18.04.4
Operating System: Linux
OS Version: 4.15.0-46-generic
Default Encoding: UTF-8
Language: en
Country: US
--></g></svg>