<?xml version="1.0" encoding="UTF-8" standalone="no"?><svg xmlns="http://www.w3.org/2000/svg" xmlns:xlink="http://www.w3.org/1999/xlink" contentScriptType="application/ecmascript" contentStyleType="text/css" height="356px" preserveAspectRatio="none" style="width:229px;height:356px;" version="1.1" viewBox="0 0 229 356" width="229px" zoomAndPan="magnify"><defs><filter height="300%" id="f1r87i10dir0an" width="300%" x="-1" y="-1"><feGaussianBlur result="blurOut" stdDeviation="2.0"/><feColorMatrix in="blurOut" result="blurOut2" type="matrix" values="0 0 0 0 0 0 0 0 0 0 0 0 0 0 0 0 0 0 .4 0"/><feOffset dx="4.0" dy="4.0" in="blurOut2" result="blurOut3"/><feBlend in="SourceGraphic" in2="blurOut3" mode="normal"/></filter></defs><g><text fill="#000000" font-family="sans-serif" font-size="14" font-weight="bold" lengthAdjust="spacingAndGlyphs" textLength="113" x="59.25" y="22.9951">Delete column</text><text fill="#000000" font-family="sans-serif" font-size="14" font-weight="bold" lengthAdjust="spacingAndGlyphs" textLength="33" x="99.25" y="39.292">MSS</text><line style="stroke: #A80036; stroke-width: 1.0; stroke-dasharray: 5.0,5.0;" x1="27" x2="27" y1="132.8906" y2="269.4219"/><line style="stroke: #A80036; stroke-width: 1.0; stroke-dasharray: 5.0,5.0;" x1="194.5" x2="194.5" y1="132.8906" y2="269.4219"/><text fill="#000000" font-family="sans-serif" font-size="14" lengthAdjust="spacingAndGlyphs" textLength="32" x="8" y="129.5889">User</text><ellipse cx="27" cy="59.5938" fill="#FEFECE" filter="url(#f1r87i10dir0an)" rx="8" ry="8" style="stroke: #A80036; stroke-width: 2.0;"/><path d="M27,67.5938 L27,94.5938 M14,75.5938 L40,75.5938 M27,94.5938 L14,109.5938 M27,94.5938 L40,109.5938 " fill="#FEFECE" filter="url(#f1r87i10dir0an)" style="stroke: #A80036; stroke-width: 2.0;"/><text fill="#000000" font-family="sans-serif" font-size="14" lengthAdjust="spacingAndGlyphs" textLength="32" x="8" y="281.417">User</text><ellipse cx="27" cy="294.7188" fill="#FEFECE" filter="url(#f1r87i10dir0an)" rx="8" ry="8" style="stroke: #A80036; stroke-width: 2.0;"/><path d="M27,302.7188 L27,329.7188 M14,310.7188 L40,310.7188 M27,329.7188 L14,344.7188 M27,329.7188 L40,344.7188 " fill="#FEFECE" filter="url(#f1r87i10dir0an)" style="stroke: #A80036; stroke-width: 2.0;"/><text fill="#000000" font-family="sans-serif" font-size="14" lengthAdjust="spacingAndGlyphs" textLength="51" x="166.5" y="129.5889">System</text><path d="M174.5,88.5938 L174.5,112.5938 M174.5,100.5938 L191.5,100.5938 " fill="#FEFECE" filter="url(#f1r87i10dir0an)" style="stroke: #A80036; stroke-width: 2.0;"/><ellipse cx="203.5" cy="100.5938" fill="#FEFECE" filter="url(#f1r87i10dir0an)" rx="12" ry="12" style="stroke: #A80036; stroke-width: 2.0;"/><text fill="#000000" font-family="sans-serif" font-size="14" lengthAdjust="spacingAndGlyphs" textLength="51" x="166.5" y="281.417">System</text><path d="M174.5,288.7188 L174.5,312.7188 M174.5,300.7188 L191.5,300.7188 " fill="#FEFECE" filter="url(#f1r87i10dir0an)" style="stroke: #A80036; stroke-width: 2.0;"/><ellipse cx="203.5" cy="300.7188" fill="#FEFECE" filter="url(#f1r87i10dir0an)" rx="12" ry="12" style="stroke: #A80036; stroke-width: 2.0;"/><polygon fill="#A80036" points="183,159.8906,193,163.8906,183,167.8906,187,163.8906" style="stroke: #A80036; stroke-width: 1.0;"/><line style="stroke: #A80036; stroke-width: 1.0;" x1="27" x2="189" y1="163.8906" y2="163.8906"/><text fill="#000000" font-family="sans-serif" font-size="13" lengthAdjust="spacingAndGlyphs" textLength="144" x="34" y="158.9575">selectColumn(column)</text><polygon fill="#A80036" points="38,189.0234,28,193.0234,38,197.0234,34,193.0234" style="stroke: #A80036; stroke-width: 1.0;"/><line style="stroke: #A80036; stroke-width: 1.0; stroke-dasharray: 2.0,2.0;" x1="32" x2="194" y1="193.0234" y2="193.0234"/><text fill="#000000" font-family="sans-serif" font-size="13" lengthAdjust="spacingAndGlyphs" textLength="106" x="44" y="188.0903">indicateSelected</text><polygon fill="#A80036" points="183,218.1563,193,222.1563,183,226.1563,187,222.1563" style="stroke: #A80036; stroke-width: 1.0;"/><line style="stroke: #A80036; stroke-width: 1.0;" x1="27" x2="189" y1="222.1563" y2="222.1563"/><text fill="#000000" font-family="sans-serif" font-size="13" lengthAdjust="spacingAndGlyphs" textLength="99" x="34" y="217.2231">deleteColumn()</text><polygon fill="#A80036" points="38,247.2891,28,251.2891,38,255.2891,34,251.2891" style="stroke: #A80036; stroke-width: 1.0;"/><line style="stroke: #A80036; stroke-width: 1.0; stroke-dasharray: 2.0,2.0;" x1="32" x2="194" y1="251.2891" y2="251.2891"/><text fill="#000000" font-family="sans-serif" font-size="13" lengthAdjust="spacingAndGlyphs" textLength="133" x="44" y="246.356">updated columns list</text><!--
@startuml
title Delete column\nMSS
Actor User
Boundary System
User -> System: selectColumn(column)
System - -> User: indicateSelected
User -> System: deleteColumn()
System - -> User: updated columns list


@enduml

PlantUML version 1.2017.15(Mon Jul 03 18:45:34 CEST 2017)
(GPL source distribution)
Java Runtime: OpenJDK Runtime Environment
JVM: OpenJDK 64-Bit Server VM
Java Version: 10.0.2+13-Ubuntu-1ubuntu0.18.04.4
Operating System: Linux
OS Version: 4.15.0-46-generic
Default Encoding: UTF-8
Language: en
Country: US
--></g></svg>