<?xml version="1.0" encoding="UTF-8" standalone="no"?><svg xmlns="http://www.w3.org/2000/svg" xmlns:xlink="http://www.w3.org/1999/xlink" contentScriptType="application/ecmascript" contentStyleType="text/css" height="323px" preserveAspectRatio="none" style="width:326px;height:323px;" version="1.1" viewBox="0 0 326 323" width="326px" zoomAndPan="magnify"><defs><filter height="300%" id="f1ehjllycxqn3q" width="300%" x="-1" y="-1"><feGaussianBlur result="blurOut" stdDeviation="2.0"/><feColorMatrix in="blurOut" result="blurOut2" type="matrix" values="0 0 0 0 0 0 0 0 0 0 0 0 0 0 0 0 0 0 .4 0"/><feOffset dx="4.0" dy="4.0" in="blurOut2" result="blurOut3"/><feBlend in="SourceGraphic" in2="blurOut3" mode="normal"/></filter></defs><g><text fill="#000000" font-family="sans-serif" font-size="14" font-weight="bold" lengthAdjust="spacingAndGlyphs" textLength="112" x="105.75" y="22.9951">Edit row value</text><text fill="#000000" font-family="sans-serif" font-size="14" font-weight="bold" lengthAdjust="spacingAndGlyphs" textLength="33" x="150.25" y="39.292">MSS</text><line style="stroke: #A80036; stroke-width: 1.0; stroke-dasharray: 5.0,5.0;" x1="138" x2="138" y1="132.8906" y2="236.2891"/><line style="stroke: #A80036; stroke-width: 1.0; stroke-dasharray: 5.0,5.0;" x1="291.5" x2="291.5" y1="132.8906" y2="236.2891"/><text fill="#000000" font-family="sans-serif" font-size="14" lengthAdjust="spacingAndGlyphs" textLength="32" x="119" y="129.5889">User</text><ellipse cx="138" cy="59.5938" fill="#FEFECE" filter="url(#f1ehjllycxqn3q)" rx="8" ry="8" style="stroke: #A80036; stroke-width: 2.0;"/><path d="M138,67.5938 L138,94.5938 M125,75.5938 L151,75.5938 M138,94.5938 L125,109.5938 M138,94.5938 L151,109.5938 " fill="#FEFECE" filter="url(#f1ehjllycxqn3q)" style="stroke: #A80036; stroke-width: 2.0;"/><text fill="#000000" font-family="sans-serif" font-size="14" lengthAdjust="spacingAndGlyphs" textLength="32" x="119" y="248.2842">User</text><ellipse cx="138" cy="261.5859" fill="#FEFECE" filter="url(#f1ehjllycxqn3q)" rx="8" ry="8" style="stroke: #A80036; stroke-width: 2.0;"/><path d="M138,269.5859 L138,296.5859 M125,277.5859 L151,277.5859 M138,296.5859 L125,311.5859 M138,296.5859 L151,311.5859 " fill="#FEFECE" filter="url(#f1ehjllycxqn3q)" style="stroke: #A80036; stroke-width: 2.0;"/><text fill="#000000" font-family="sans-serif" font-size="14" lengthAdjust="spacingAndGlyphs" textLength="51" x="263.5" y="129.5889">System</text><path d="M271.5,88.5938 L271.5,112.5938 M271.5,100.5938 L288.5,100.5938 " fill="#FEFECE" filter="url(#f1ehjllycxqn3q)" style="stroke: #A80036; stroke-width: 2.0;"/><ellipse cx="300.5" cy="100.5938" fill="#FEFECE" filter="url(#f1ehjllycxqn3q)" rx="12" ry="12" style="stroke: #A80036; stroke-width: 2.0;"/><text fill="#000000" font-family="sans-serif" font-size="14" lengthAdjust="spacingAndGlyphs" textLength="51" x="263.5" y="248.2842">System</text><path d="M271.5,255.5859 L271.5,279.5859 M271.5,267.5859 L288.5,267.5859 " fill="#FEFECE" filter="url(#f1ehjllycxqn3q)" style="stroke: #A80036; stroke-width: 2.0;"/><ellipse cx="300.5" cy="267.5859" fill="#FEFECE" filter="url(#f1ehjllycxqn3q)" rx="12" ry="12" style="stroke: #A80036; stroke-width: 2.0;"/><polygon fill="#A80036" points="280,172.457,290,176.457,280,180.457,284,176.457" style="stroke: #A80036; stroke-width: 1.0;"/><line style="stroke: #A80036; stroke-width: 1.0;" x1="138" x2="286" y1="176.457" y2="176.457"/><text fill="#000000" font-family="sans-serif" font-size="13" lengthAdjust="spacingAndGlyphs" textLength="130" x="145" y="171.5239">editCell(column,row)</text><polygon fill="#FBFB77" filter="url(#f1ehjllycxqn3q)" points="8,147.8906,8,187.8906,129,187.8906,129,157.8906,119,147.8906,8,147.8906" style="stroke: #A80036; stroke-width: 1.0;"/><line style="stroke: #A80036; stroke-width: 1.0;" x1="119" x2="119" y1="147.8906" y2="157.8906"/><line style="stroke: #A80036; stroke-width: 1.0;" x1="129" x2="119" y1="157.8906" y2="157.8906"/><text fill="#000000" font-family="sans-serif" font-size="13" lengthAdjust="spacingAndGlyphs" textLength="100" x="14" y="164.9575">Zie edit column</text><text fill="#000000" font-family="sans-serif" font-size="13" lengthAdjust="spacingAndGlyphs" textLength="82" x="14" y="180.0903">default value</text><polygon fill="#A80036" points="149,214.1563,139,218.1563,149,222.1563,145,218.1563" style="stroke: #A80036; stroke-width: 1.0;"/><line style="stroke: #A80036; stroke-width: 1.0; stroke-dasharray: 2.0,2.0;" x1="143" x2="291" y1="218.1563" y2="218.1563"/><text fill="#000000" font-family="sans-serif" font-size="13" lengthAdjust="spacingAndGlyphs" textLength="91" x="155" y="213.2231">updated value</text><!--
@startuml
titleLabel Edit row value \n MSS
Actor User
Boundary System
User -> System: editCell(column,row)
note left
    Zie edit column
    default value
end note
System - -> User: updated value
@enduml

PlantUML version 1.2017.15(Mon Jul 03 18:45:34 CEST 2017)
(GPL source distribution)
Java Runtime: OpenJDK Runtime Environment
JVM: OpenJDK 64-Bit Server VM
Java Version: 10.0.2+13-Ubuntu-1ubuntu0.18.04.4
Operating System: Linux
OS Version: 4.15.0-46-generic
Default Encoding: UTF-8
Language: en
Country: US
--></g></svg>