<?xml version="1.0" encoding="UTF-8" standalone="no"?><svg xmlns="http://www.w3.org/2000/svg" xmlns:xlink="http://www.w3.org/1999/xlink" contentScriptType="application/ecmascript" contentStyleType="text/css" height="399px" preserveAspectRatio="none" style="width:292px;height:399px;" version="1.1" viewBox="0 0 292 399" width="292px" zoomAndPan="magnify"><defs><filter height="300%" id="f175bbph0gqui7" width="300%" x="-1" y="-1"><feGaussianBlur result="blurOut" stdDeviation="2.0"/><feColorMatrix in="blurOut" result="blurOut2" type="matrix" values="0 0 0 0 0 0 0 0 0 0 0 0 0 0 0 0 0 0 .4 0"/><feOffset dx="4.0" dy="4.0" in="blurOut2" result="blurOut3"/><feBlend in="SourceGraphic" in2="blurOut3" mode="normal"/></filter></defs><g><rect fill="#FFFFFF" filter="url(#f175bbph0gqui7)" height="75.3984" style="stroke: #000000; stroke-width: 2.0;" width="268.5" x="13" y="132.4297"/><line style="stroke: #A80036; stroke-width: 1.0; stroke-dasharray: 5.0,5.0;" x1="42" x2="42" y1="86.2969" y2="312.2266"/><line style="stroke: #A80036; stroke-width: 1.0; stroke-dasharray: 5.0,5.0;" x1="236.5" x2="236.5" y1="86.2969" y2="312.2266"/><text fill="#000000" font-family="sans-serif" font-size="14" lengthAdjust="spacingAndGlyphs" textLength="32" x="23" y="82.9951">User</text><ellipse cx="42" cy="13" fill="#FEFECE" filter="url(#f175bbph0gqui7)" rx="8" ry="8" style="stroke: #A80036; stroke-width: 2.0;"/><path d="M42,21 L42,48 M29,29 L55,29 M42,48 L29,63 M42,48 L55,63 " fill="#FEFECE" filter="url(#f175bbph0gqui7)" style="stroke: #A80036; stroke-width: 2.0;"/><text fill="#000000" font-family="sans-serif" font-size="14" lengthAdjust="spacingAndGlyphs" textLength="32" x="23" y="324.2217">User</text><ellipse cx="42" cy="337.5234" fill="#FEFECE" filter="url(#f175bbph0gqui7)" rx="8" ry="8" style="stroke: #A80036; stroke-width: 2.0;"/><path d="M42,345.5234 L42,372.5234 M29,353.5234 L55,353.5234 M42,372.5234 L29,387.5234 M42,372.5234 L55,387.5234 " fill="#FEFECE" filter="url(#f175bbph0gqui7)" style="stroke: #A80036; stroke-width: 2.0;"/><rect fill="#FEFECE" filter="url(#f175bbph0gqui7)" height="30.2969" style="stroke: #A80036; stroke-width: 1.5;" width="65" x="202.5" y="51"/><text fill="#000000" font-family="sans-serif" font-size="14" lengthAdjust="spacingAndGlyphs" textLength="51" x="209.5" y="70.9951">System</text><rect fill="#FEFECE" filter="url(#f175bbph0gqui7)" height="30.2969" style="stroke: #A80036; stroke-width: 1.5;" width="65" x="202.5" y="311.2266"/><text fill="#000000" font-family="sans-serif" font-size="14" lengthAdjust="spacingAndGlyphs" textLength="51" x="209.5" y="331.2217">System</text><polygon fill="#A80036" points="225,113.2969,235,117.2969,225,121.2969,229,117.2969" style="stroke: #A80036; stroke-width: 1.0;"/><line style="stroke: #A80036; stroke-width: 1.0;" x1="42" x2="231" y1="117.2969" y2="117.2969"/><text fill="#000000" font-family="sans-serif" font-size="13" lengthAdjust="spacingAndGlyphs" textLength="121" x="49" y="112.3638">selectTableName()</text><rect fill="none" height="75.3984" style="stroke: #000000; stroke-width: 2.0;" width="268.5" x="13" y="132.4297"/><polygon fill="#EEEEEE" points="13,132.4297,90,132.4297,90,139.4297,80,149.4297,13,149.4297,13,132.4297" style="stroke: #000000; stroke-width: 2.0;"/><text fill="#000000" font-family="sans-serif" font-size="13" font-weight="bold" lengthAdjust="spacingAndGlyphs" textLength="32" x="28" y="145.4966">loop</text><polygon fill="#A80036" points="225,166.5625,235,170.5625,225,174.5625,229,170.5625" style="stroke: #A80036; stroke-width: 1.0;"/><line style="stroke: #A80036; stroke-width: 1.0;" x1="42" x2="231" y1="170.5625" y2="170.5625"/><text fill="#000000" font-family="sans-serif" font-size="13" lengthAdjust="spacingAndGlyphs" textLength="171" x="49" y="165.6294">editTableName(newName)</text><polygon fill="#A80036" points="53,195.6953,43,199.6953,53,203.6953,49,199.6953" style="stroke: #A80036; stroke-width: 1.0;"/><line style="stroke: #A80036; stroke-width: 1.0; stroke-dasharray: 2.0,2.0;" x1="47" x2="236" y1="199.6953" y2="199.6953"/><text fill="#000000" font-family="sans-serif" font-size="13" lengthAdjust="spacingAndGlyphs" textLength="91" x="59" y="194.7622">valid, not valid</text><polygon fill="#A80036" points="53,231.8281,43,235.8281,53,239.8281,49,235.8281" style="stroke: #A80036; stroke-width: 1.0;"/><line style="stroke: #A80036; stroke-width: 1.0; stroke-dasharray: 2.0,2.0;" x1="47" x2="236" y1="235.8281" y2="235.8281"/><text fill="#000000" font-family="sans-serif" font-size="13" lengthAdjust="spacingAndGlyphs" textLength="29" x="59" y="230.895">valid</text><polygon fill="#A80036" points="225,260.9609,235,264.9609,225,268.9609,229,264.9609" style="stroke: #A80036; stroke-width: 1.0;"/><line style="stroke: #A80036; stroke-width: 1.0;" x1="42" x2="231" y1="264.9609" y2="264.9609"/><text fill="#000000" font-family="sans-serif" font-size="13" lengthAdjust="spacingAndGlyphs" textLength="86" x="49" y="260.0278">finishEditing()</text><polygon fill="#A80036" points="53,290.0938,43,294.0938,53,298.0938,49,294.0938" style="stroke: #A80036; stroke-width: 1.0;"/><line style="stroke: #A80036; stroke-width: 1.0; stroke-dasharray: 2.0,2.0;" x1="47" x2="236" y1="294.0938" y2="294.0938"/><text fill="#000000" font-family="sans-serif" font-size="13" lengthAdjust="spacingAndGlyphs" textLength="73" x="59" y="289.1606">table name</text><!--
@startuml
Actor User
User -> System: selectTableName()
loop
    User -> System: editTableName(newName)
    System - -> User: valid, not valid
end
System - -> User: valid
User -> System: finishEditing()
System - -> User: table name

@enduml

PlantUML version 1.2017.15(Mon Jul 03 18:45:34 CEST 2017)
(GPL source distribution)
Java Runtime: OpenJDK Runtime Environment
JVM: OpenJDK 64-Bit Server VM
Java Version: 10.0.2+13-Ubuntu-1ubuntu0.18.04.4
Operating System: Linux
OS Version: 4.15.0-46-generic
Default Encoding: UTF-8
Language: en
Country: US
--></g></svg>