<?xml version="1.0" encoding="UTF-8" standalone="no"?><svg xmlns="http://www.w3.org/2000/svg" xmlns:xlink="http://www.w3.org/1999/xlink" contentScriptType="application/ecmascript" contentStyleType="text/css" height="503px" preserveAspectRatio="none" style="width:476px;height:503px;" version="1.1" viewBox="0 0 476 503" width="476px" zoomAndPan="magnify"><defs><filter height="300%" id="f10lrk6k5iuuup" width="300%" x="-1" y="-1"><feGaussianBlur result="blurOut" stdDeviation="2.0"/><feColorMatrix in="blurOut" result="blurOut2" type="matrix" values="0 0 0 0 0 0 0 0 0 0 0 0 0 0 0 0 0 0 .4 0"/><feOffset dx="4.0" dy="4.0" in="blurOut2" result="blurOut3"/><feBlend in="SourceGraphic" in2="blurOut3" mode="normal"/></filter></defs><g><text fill="#000000" font-family="sans-serif" font-size="14" font-weight="bold" lengthAdjust="spacingAndGlyphs" textLength="142" x="157.75" y="22.9951">Edit Column Name</text><text fill="#000000" font-family="sans-serif" font-size="14" font-weight="bold" lengthAdjust="spacingAndGlyphs" textLength="0" x="236.25" y="39.292"/><text fill="#000000" font-family="sans-serif" font-size="14" font-weight="bold" lengthAdjust="spacingAndGlyphs" textLength="181" x="143.25" y="55.5889">Main Success Scenario</text><rect fill="#FFFFFF" filter="url(#f10lrk6k5iuuup)" height="75.3984" style="stroke: #000000; stroke-width: 2.0;" width="289.5" x="155" y="235.5859"/><line style="stroke: #A80036; stroke-width: 1.0; stroke-dasharray: 5.0,5.0;" x1="184" x2="184" y1="149.1875" y2="416.3828"/><line style="stroke: #A80036; stroke-width: 1.0; stroke-dasharray: 5.0,5.0;" x1="405.5" x2="405.5" y1="149.1875" y2="416.3828"/><text fill="#000000" font-family="sans-serif" font-size="14" lengthAdjust="spacingAndGlyphs" textLength="32" x="165" y="145.8857">User</text><ellipse cx="184" cy="75.8906" fill="#FEFECE" filter="url(#f10lrk6k5iuuup)" rx="8" ry="8" style="stroke: #A80036; stroke-width: 2.0;"/><path d="M184,83.8906 L184,110.8906 M171,91.8906 L197,91.8906 M184,110.8906 L171,125.8906 M184,110.8906 L197,125.8906 " fill="#FEFECE" filter="url(#f10lrk6k5iuuup)" style="stroke: #A80036; stroke-width: 2.0;"/><text fill="#000000" font-family="sans-serif" font-size="14" lengthAdjust="spacingAndGlyphs" textLength="32" x="165" y="428.3779">User</text><ellipse cx="184" cy="441.6797" fill="#FEFECE" filter="url(#f10lrk6k5iuuup)" rx="8" ry="8" style="stroke: #A80036; stroke-width: 2.0;"/><path d="M184,449.6797 L184,476.6797 M171,457.6797 L197,457.6797 M184,476.6797 L171,491.6797 M184,476.6797 L197,491.6797 " fill="#FEFECE" filter="url(#f10lrk6k5iuuup)" style="stroke: #A80036; stroke-width: 2.0;"/><text fill="#000000" font-family="sans-serif" font-size="14" lengthAdjust="spacingAndGlyphs" textLength="51" x="377.5" y="145.8857">System</text><path d="M385.5,104.8906 L385.5,128.8906 M385.5,116.8906 L402.5,116.8906 " fill="#FEFECE" filter="url(#f10lrk6k5iuuup)" style="stroke: #A80036; stroke-width: 2.0;"/><ellipse cx="414.5" cy="116.8906" fill="#FEFECE" filter="url(#f10lrk6k5iuuup)" rx="12" ry="12" style="stroke: #A80036; stroke-width: 2.0;"/><text fill="#000000" font-family="sans-serif" font-size="14" lengthAdjust="spacingAndGlyphs" textLength="51" x="377.5" y="428.3779">System</text><path d="M385.5,435.6797 L385.5,459.6797 M385.5,447.6797 L402.5,447.6797 " fill="#FEFECE" filter="url(#f10lrk6k5iuuup)" style="stroke: #A80036; stroke-width: 2.0;"/><ellipse cx="414.5" cy="447.6797" fill="#FEFECE" filter="url(#f10lrk6k5iuuup)" rx="12" ry="12" style="stroke: #A80036; stroke-width: 2.0;"/><polygon fill="#A80036" points="394,196.3203,404,200.3203,394,204.3203,398,200.3203" style="stroke: #A80036; stroke-width: 1.0;"/><line style="stroke: #A80036; stroke-width: 1.0;" x1="184" x2="400" y1="200.3203" y2="200.3203"/><text fill="#000000" font-family="sans-serif" font-size="13" lengthAdjust="spacingAndGlyphs" textLength="185" x="191" y="195.3872">selectColumnName(Column)</text><polygon fill="#FBFB77" filter="url(#f10lrk6k5iuuup)" points="37,164.1875,37,219.1875,175,219.1875,175,174.1875,165,164.1875,37,164.1875" style="stroke: #A80036; stroke-width: 1.0;"/><line style="stroke: #A80036; stroke-width: 1.0;" x1="165" x2="165" y1="164.1875" y2="174.1875"/><line style="stroke: #A80036; stroke-width: 1.0;" x1="175" x2="165" y1="174.1875" y2="174.1875"/><text fill="#000000" font-family="sans-serif" font-size="13" lengthAdjust="spacingAndGlyphs" textLength="84" x="43" y="181.2544">I try to put all</text><text fill="#000000" font-family="sans-serif" font-size="13" lengthAdjust="spacingAndGlyphs" textLength="100" x="43" y="196.3872">the SSDs in the</text><text fill="#000000" font-family="sans-serif" font-size="13" lengthAdjust="spacingAndGlyphs" textLength="117" x="43" y="211.52">same image here.</text><rect fill="none" height="75.3984" style="stroke: #000000; stroke-width: 2.0;" width="289.5" x="155" y="235.5859"/><polygon fill="#EEEEEE" points="155,235.5859,232,235.5859,232,242.5859,222,252.5859,155,252.5859,155,235.5859" style="stroke: #000000; stroke-width: 2.0;"/><text fill="#000000" font-family="sans-serif" font-size="13" font-weight="bold" lengthAdjust="spacingAndGlyphs" textLength="32" x="170" y="248.6528">loop</text><polygon fill="#A80036" points="394,269.7188,404,273.7188,394,277.7188,398,273.7188" style="stroke: #A80036; stroke-width: 1.0;"/><line style="stroke: #A80036; stroke-width: 1.0;" x1="184" x2="400" y1="273.7188" y2="273.7188"/><text fill="#000000" font-family="sans-serif" font-size="13" lengthAdjust="spacingAndGlyphs" textLength="186" x="191" y="268.7856">editColumnName(newName)</text><polygon fill="#A80036" points="195,298.8516,185,302.8516,195,306.8516,191,302.8516" style="stroke: #A80036; stroke-width: 1.0;"/><line style="stroke: #A80036; stroke-width: 1.0; stroke-dasharray: 2.0,2.0;" x1="189" x2="405" y1="302.8516" y2="302.8516"/><text fill="#000000" font-family="sans-serif" font-size="13" lengthAdjust="spacingAndGlyphs" textLength="91" x="201" y="297.9185">valid, not valid</text><polygon fill="#A80036" points="195,334.9844,185,338.9844,195,342.9844,191,338.9844" style="stroke: #A80036; stroke-width: 1.0;"/><line style="stroke: #A80036; stroke-width: 1.0; stroke-dasharray: 2.0,2.0;" x1="189" x2="405" y1="338.9844" y2="338.9844"/><text fill="#000000" font-family="sans-serif" font-size="13" lengthAdjust="spacingAndGlyphs" textLength="29" x="201" y="334.0513">valid</text><polygon fill="#A80036" points="394,364.1172,404,368.1172,394,372.1172,398,368.1172" style="stroke: #A80036; stroke-width: 1.0;"/><line style="stroke: #A80036; stroke-width: 1.0;" x1="184" x2="400" y1="368.1172" y2="368.1172"/><text fill="#000000" font-family="sans-serif" font-size="13" lengthAdjust="spacingAndGlyphs" textLength="86" x="191" y="363.1841">finishEditing()</text><polygon fill="#A80036" points="195,393.25,185,397.25,195,401.25,191,397.25" style="stroke: #A80036; stroke-width: 1.0;"/><line style="stroke: #A80036; stroke-width: 1.0; stroke-dasharray: 2.0,2.0;" x1="189" x2="405" y1="397.25" y2="397.25"/><text fill="#000000" font-family="sans-serif" font-size="13" lengthAdjust="spacingAndGlyphs" textLength="88" x="201" y="392.3169">column name</text><line style="stroke: #000000; stroke-width: 1.0; stroke-dasharray: 2.0,2.0;" x1="3" x2="464.5" y1="405.3828" y2="405.3828"/><!--
@startuml
title Edit Column Name  \n\nMain Success Scenario
Actor User
Boundary System
User -> System: selectColumnName(Column)
note left
    I try to put all
    the SSDs in the
    same image here.
end note
loop
    User -> System: editColumnName(newName)
    System - -> User: valid, not valid
end
System - -> User: valid
User -> System: finishEditing()
System - -> User: column name




newpage User tries invalid name
User -> System: selectColumnName(Column)
loop invalid
    loop
        User -> System: editColumnName(newName)
        System - -> User: valid, invalid
    end
    User -> System: tryToFinish()
    System - -> User: valid, invalid
end

System - -> User: column name

newpage User cancels editing
User -> System: selectColumnName(Column)
loop
    User -> System: editColumnName(newName)
    System - -> User: valid, not valid
end
User -> System: cancelEditing()
note left
    I think we do not need
    the valid confirmation.
    It can be invalid also
    when the user cancels.
end note
System - -> User: original unedited column name
@enduml

PlantUML version 1.2017.15(Mon Jul 03 18:45:34 CEST 2017)
(GPL source distribution)
Java Runtime: OpenJDK Runtime Environment
JVM: OpenJDK 64-Bit Server VM
Java Version: 10.0.2+13-Ubuntu-1ubuntu0.18.04.4
Operating System: Linux
OS Version: 4.15.0-46-generic
Default Encoding: UTF-8
Language: en
Country: US
--></g></svg>