<?xml version="1.0" encoding="UTF-8" standalone="no"?><svg xmlns="http://www.w3.org/2000/svg" xmlns:xlink="http://www.w3.org/1999/xlink" contentScriptType="application/ecmascript" contentStyleType="text/css" height="458px" preserveAspectRatio="none" style="width:476px;height:458px;" version="1.1" viewBox="0 0 476 458" width="476px" zoomAndPan="magnify"><defs><filter height="300%" id="f10lrk6k5iuuup" width="300%" x="-1" y="-1"><feGaussianBlur result="blurOut" stdDeviation="2.0"/><feColorMatrix in="blurOut" result="blurOut2" type="matrix" values="0 0 0 0 0 0 0 0 0 0 0 0 0 0 0 0 0 0 .4 0"/><feOffset dx="4.0" dy="4.0" in="blurOut2" result="blurOut3"/><feBlend in="SourceGraphic" in2="blurOut3" mode="normal"/></filter></defs><g><text fill="#000000" font-family="sans-serif" font-size="14" font-weight="bold" lengthAdjust="spacingAndGlyphs" textLength="161" x="153.25" y="22.9951">User cancels editing</text><rect fill="#FFFFFF" filter="url(#f10lrk6k5iuuup)" height="75.3984" style="stroke: #000000; stroke-width: 2.0;" width="289.5" x="155" y="164.7266"/><line style="stroke: #A80036; stroke-width: 1.0; stroke-dasharray: 5.0,5.0;" x1="184" x2="184" y1="116.5938" y2="370.7891"/><line style="stroke: #A80036; stroke-width: 1.0; stroke-dasharray: 5.0,5.0;" x1="405.5" x2="405.5" y1="116.5938" y2="370.7891"/><text fill="#000000" font-family="sans-serif" font-size="14" lengthAdjust="spacingAndGlyphs" textLength="32" x="165" y="113.292">User</text><ellipse cx="184" cy="43.2969" fill="#FEFECE" filter="url(#f10lrk6k5iuuup)" rx="8" ry="8" style="stroke: #A80036; stroke-width: 2.0;"/><path d="M184,51.2969 L184,78.2969 M171,59.2969 L197,59.2969 M184,78.2969 L171,93.2969 M184,78.2969 L197,93.2969 " fill="#FEFECE" filter="url(#f10lrk6k5iuuup)" style="stroke: #A80036; stroke-width: 2.0;"/><text fill="#000000" font-family="sans-serif" font-size="14" lengthAdjust="spacingAndGlyphs" textLength="32" x="165" y="382.7842">User</text><ellipse cx="184" cy="396.0859" fill="#FEFECE" filter="url(#f10lrk6k5iuuup)" rx="8" ry="8" style="stroke: #A80036; stroke-width: 2.0;"/><path d="M184,404.0859 L184,431.0859 M171,412.0859 L197,412.0859 M184,431.0859 L171,446.0859 M184,431.0859 L197,446.0859 " fill="#FEFECE" filter="url(#f10lrk6k5iuuup)" style="stroke: #A80036; stroke-width: 2.0;"/><text fill="#000000" font-family="sans-serif" font-size="14" lengthAdjust="spacingAndGlyphs" textLength="51" x="377.5" y="113.292">System</text><path d="M385.5,72.2969 L385.5,96.2969 M385.5,84.2969 L402.5,84.2969 " fill="#FEFECE" filter="url(#f10lrk6k5iuuup)" style="stroke: #A80036; stroke-width: 2.0;"/><ellipse cx="414.5" cy="84.2969" fill="#FEFECE" filter="url(#f10lrk6k5iuuup)" rx="12" ry="12" style="stroke: #A80036; stroke-width: 2.0;"/><text fill="#000000" font-family="sans-serif" font-size="14" lengthAdjust="spacingAndGlyphs" textLength="51" x="377.5" y="382.7842">System</text><path d="M385.5,390.0859 L385.5,414.0859 M385.5,402.0859 L402.5,402.0859 " fill="#FEFECE" filter="url(#f10lrk6k5iuuup)" style="stroke: #A80036; stroke-width: 2.0;"/><ellipse cx="414.5" cy="402.0859" fill="#FEFECE" filter="url(#f10lrk6k5iuuup)" rx="12" ry="12" style="stroke: #A80036; stroke-width: 2.0;"/><line style="stroke: #000000; stroke-width: 1.0; stroke-dasharray: 2.0,2.0;" x1="3" x2="464.5" y1="127.5938" y2="127.5938"/><polygon fill="#A80036" points="394,145.5938,404,149.5938,394,153.5938,398,149.5938" style="stroke: #A80036; stroke-width: 1.0;"/><line style="stroke: #A80036; stroke-width: 1.0;" x1="184" x2="400" y1="149.5938" y2="149.5938"/><text fill="#000000" font-family="sans-serif" font-size="13" lengthAdjust="spacingAndGlyphs" textLength="185" x="191" y="144.6606">selectColumnName(Column)</text><rect fill="none" height="75.3984" style="stroke: #000000; stroke-width: 2.0;" width="289.5" x="155" y="164.7266"/><polygon fill="#EEEEEE" points="155,164.7266,232,164.7266,232,171.7266,222,181.7266,155,181.7266,155,164.7266" style="stroke: #000000; stroke-width: 2.0;"/><text fill="#000000" font-family="sans-serif" font-size="13" font-weight="bold" lengthAdjust="spacingAndGlyphs" textLength="32" x="170" y="177.7935">loop</text><polygon fill="#A80036" points="394,198.8594,404,202.8594,394,206.8594,398,202.8594" style="stroke: #A80036; stroke-width: 1.0;"/><line style="stroke: #A80036; stroke-width: 1.0;" x1="184" x2="400" y1="202.8594" y2="202.8594"/><text fill="#000000" font-family="sans-serif" font-size="13" lengthAdjust="spacingAndGlyphs" textLength="186" x="191" y="197.9263">editColumnName(newName)</text><polygon fill="#A80036" points="195,227.9922,185,231.9922,195,235.9922,191,231.9922" style="stroke: #A80036; stroke-width: 1.0;"/><line style="stroke: #A80036; stroke-width: 1.0; stroke-dasharray: 2.0,2.0;" x1="189" x2="405" y1="231.9922" y2="231.9922"/><text fill="#000000" font-family="sans-serif" font-size="13" lengthAdjust="spacingAndGlyphs" textLength="91" x="201" y="227.0591">valid, not valid</text><polygon fill="#A80036" points="394,291.8242,404,295.8242,394,299.8242,398,295.8242" style="stroke: #A80036; stroke-width: 1.0;"/><line style="stroke: #A80036; stroke-width: 1.0;" x1="184" x2="400" y1="295.8242" y2="295.8242"/><text fill="#000000" font-family="sans-serif" font-size="13" lengthAdjust="spacingAndGlyphs" textLength="94" x="191" y="290.8911">cancelEditing()</text><polygon fill="#FBFB77" filter="url(#f10lrk6k5iuuup)" points="8,252.125,8,322.125,175,322.125,175,262.125,165,252.125,8,252.125" style="stroke: #A80036; stroke-width: 1.0;"/><line style="stroke: #A80036; stroke-width: 1.0;" x1="165" x2="165" y1="252.125" y2="262.125"/><line style="stroke: #A80036; stroke-width: 1.0;" x1="175" x2="165" y1="262.125" y2="262.125"/><text fill="#000000" font-family="sans-serif" font-size="13" lengthAdjust="spacingAndGlyphs" textLength="140" x="14" y="269.1919">I think we do not need</text><text fill="#000000" font-family="sans-serif" font-size="13" lengthAdjust="spacingAndGlyphs" textLength="142" x="14" y="284.3247">the valid confirmation.</text><text fill="#000000" font-family="sans-serif" font-size="13" lengthAdjust="spacingAndGlyphs" textLength="129" x="14" y="299.4575">It can be invalid also</text><text fill="#000000" font-family="sans-serif" font-size="13" lengthAdjust="spacingAndGlyphs" textLength="146" x="14" y="314.5903">when the user cancels.</text><polygon fill="#A80036" points="195,348.6563,185,352.6563,195,356.6563,191,352.6563" style="stroke: #A80036; stroke-width: 1.0;"/><line style="stroke: #A80036; stroke-width: 1.0; stroke-dasharray: 2.0,2.0;" x1="189" x2="405" y1="352.6563" y2="352.6563"/><text fill="#000000" font-family="sans-serif" font-size="13" lengthAdjust="spacingAndGlyphs" textLength="198" x="201" y="347.7231">original unedited column name</text><!--
@startuml
titleLabel Edit Column Name  \n\nMain Success Scenario
Actor User
Boundary System
User -> System: selectColumnName(Column)
note left
    I try to put all
    the SSDs in the
    same image here.
end note
loop
    User -> System: editColumnName(newName)
    System - -> User: valid, not valid
end
System - -> User: valid
User -> System: finishEditing()
System - -> User: column name




newpage User tries invalid name
User -> System: selectColumnName(Column)
loop invalid
    loop
        User -> System: editColumnName(newName)
        System - -> User: valid, invalid
    end
    User -> System: tryToFinish()
    System - -> User: valid, invalid
end

System - -> User: column name

newpage User cancels editing
User -> System: selectColumnName(Column)
loop
    User -> System: editColumnName(newName)
    System - -> User: valid, not valid
end
User -> System: cancelEditing()
note left
    I think we do not need
    the valid confirmation.
    It can be invalid also
    when the user cancels.
end note
System - -> User: original unedited column name
@enduml

PlantUML version 1.2017.15(Mon Jul 03 18:45:34 CEST 2017)
(GPL source distribution)
Java Runtime: OpenJDK Runtime Environment
JVM: OpenJDK 64-Bit Server VM
Java Version: 10.0.2+13-Ubuntu-1ubuntu0.18.04.4
Operating System: Linux
OS Version: 4.15.0-46-generic
Default Encoding: UTF-8
Language: en
Country: US
--></g></svg>