<?xml version="1.0" encoding="UTF-8" standalone="no"?><svg xmlns="http://www.w3.org/2000/svg" xmlns:xlink="http://www.w3.org/1999/xlink" contentScriptType="application/ecmascript" contentStyleType="text/css" height="390px" preserveAspectRatio="none" style="width:267px;height:390px;" version="1.1" viewBox="0 0 267 390" width="267px" zoomAndPan="magnify"><defs><filter height="300%" id="f1nk9qyaxdqfk2" width="300%" x="-1" y="-1"><feGaussianBlur result="blurOut" stdDeviation="2.0"/><feColorMatrix in="blurOut" result="blurOut2" type="matrix" values="0 0 0 0 0 0 0 0 0 0 0 0 0 0 0 0 0 0 .4 0"/><feOffset dx="4.0" dy="4.0" in="blurOut2" result="blurOut3"/><feBlend in="SourceGraphic" in2="blurOut3" mode="normal"/></filter></defs><g><text fill="#000000" font-family="sans-serif" font-size="14" font-weight="bold" lengthAdjust="spacingAndGlyphs" textLength="147" x="53.25" y="22.9951">Edit column blanks</text><text fill="#000000" font-family="sans-serif" font-size="14" font-weight="bold" lengthAdjust="spacingAndGlyphs" textLength="0" x="131.75" y="39.292"/><text fill="#000000" font-family="sans-serif" font-size="14" font-weight="bold" lengthAdjust="spacingAndGlyphs" textLength="181" x="41.25" y="55.5889">Main Success Scenario</text><rect fill="#FFFFFF" filter="url(#f1nk9qyaxdqfk2)" height="90.2031" style="stroke: #000000; stroke-width: 2.0;" width="232.5" x="13" y="166.1875"/><rect fill="#FFFFFF" height="43.9375" style="stroke: none; stroke-width: 1.0;" width="232.5" x="13" y="212.4531"/><line style="stroke: #A80036; stroke-width: 1.0; stroke-dasharray: 5.0,5.0;" x1="42" x2="42" y1="149.1875" y2="303.5234"/><line style="stroke: #A80036; stroke-width: 1.0; stroke-dasharray: 5.0,5.0;" x1="206.5" x2="206.5" y1="149.1875" y2="303.5234"/><text fill="#000000" font-family="sans-serif" font-size="14" lengthAdjust="spacingAndGlyphs" textLength="32" x="23" y="145.8857">User</text><ellipse cx="42" cy="75.8906" fill="#FEFECE" filter="url(#f1nk9qyaxdqfk2)" rx="8" ry="8" style="stroke: #A80036; stroke-width: 2.0;"/><path d="M42,83.8906 L42,110.8906 M29,91.8906 L55,91.8906 M42,110.8906 L29,125.8906 M42,110.8906 L55,125.8906 " fill="#FEFECE" filter="url(#f1nk9qyaxdqfk2)" style="stroke: #A80036; stroke-width: 2.0;"/><text fill="#000000" font-family="sans-serif" font-size="14" lengthAdjust="spacingAndGlyphs" textLength="32" x="23" y="315.5186">User</text><ellipse cx="42" cy="328.8203" fill="#FEFECE" filter="url(#f1nk9qyaxdqfk2)" rx="8" ry="8" style="stroke: #A80036; stroke-width: 2.0;"/><path d="M42,336.8203 L42,363.8203 M29,344.8203 L55,344.8203 M42,363.8203 L29,378.8203 M42,363.8203 L55,378.8203 " fill="#FEFECE" filter="url(#f1nk9qyaxdqfk2)" style="stroke: #A80036; stroke-width: 2.0;"/><text fill="#000000" font-family="sans-serif" font-size="14" lengthAdjust="spacingAndGlyphs" textLength="51" x="178.5" y="145.8857">System</text><path d="M186.5,104.8906 L186.5,128.8906 M186.5,116.8906 L203.5,116.8906 " fill="#FEFECE" filter="url(#f1nk9qyaxdqfk2)" style="stroke: #A80036; stroke-width: 2.0;"/><ellipse cx="215.5" cy="116.8906" fill="#FEFECE" filter="url(#f1nk9qyaxdqfk2)" rx="12" ry="12" style="stroke: #A80036; stroke-width: 2.0;"/><text fill="#000000" font-family="sans-serif" font-size="14" lengthAdjust="spacingAndGlyphs" textLength="51" x="178.5" y="315.5186">System</text><path d="M186.5,322.8203 L186.5,346.8203 M186.5,334.8203 L203.5,334.8203 " fill="#FEFECE" filter="url(#f1nk9qyaxdqfk2)" style="stroke: #A80036; stroke-width: 2.0;"/><ellipse cx="215.5" cy="334.8203" fill="#FEFECE" filter="url(#f1nk9qyaxdqfk2)" rx="12" ry="12" style="stroke: #A80036; stroke-width: 2.0;"/><rect fill="none" height="90.2031" style="stroke: #000000; stroke-width: 2.0;" width="232.5" x="13" y="166.1875"/><polygon fill="#EEEEEE" points="13,166.1875,77,166.1875,77,173.1875,67,183.1875,13,183.1875,13,166.1875" style="stroke: #000000; stroke-width: 2.0;"/><text fill="#000000" font-family="sans-serif" font-size="13" font-weight="bold" lengthAdjust="spacingAndGlyphs" textLength="19" x="28" y="179.2544">alt</text><text fill="#000000" font-family="sans-serif" font-size="11" font-weight="bold" lengthAdjust="spacingAndGlyphs" textLength="129" x="92" y="178.3979">[blanks == allowed]</text><polygon fill="#A80036" points="195,200.3203,205,204.3203,195,208.3203,199,204.3203" style="stroke: #A80036; stroke-width: 1.0;"/><line style="stroke: #A80036; stroke-width: 1.0;" x1="42" x2="201" y1="204.3203" y2="204.3203"/><text fill="#000000" font-family="sans-serif" font-size="13" lengthAdjust="spacingAndGlyphs" textLength="141" x="49" y="199.3872">setBlanks(notAllowed)</text><line style="stroke: #000000; stroke-width: 1.0; stroke-dasharray: 2.0,2.0;" x1="13" x2="245.5" y1="213.4531" y2="213.4531"/><text fill="#000000" font-family="sans-serif" font-size="11" font-weight="bold" lengthAdjust="spacingAndGlyphs" textLength="154" x="18" y="223.6636">[blanks == not allowed]</text><polygon fill="#A80036" points="195,244.2578,205,248.2578,195,252.2578,199,248.2578" style="stroke: #A80036; stroke-width: 1.0;"/><line style="stroke: #A80036; stroke-width: 1.0;" x1="42" x2="201" y1="248.2578" y2="248.2578"/><text fill="#000000" font-family="sans-serif" font-size="13" lengthAdjust="spacingAndGlyphs" textLength="119" x="49" y="243.3247">setBlanks(allowed)</text><polygon fill="#A80036" points="53,280.3906,43,284.3906,53,288.3906,49,284.3906" style="stroke: #A80036; stroke-width: 1.0;"/><line style="stroke: #A80036; stroke-width: 1.0; stroke-dasharray: 2.0,2.0;" x1="47" x2="206" y1="284.3906" y2="284.3906"/><text fill="#000000" font-family="sans-serif" font-size="13" lengthAdjust="spacingAndGlyphs" textLength="29" x="59" y="279.4575">valid</text><line style="stroke: #000000; stroke-width: 1.0; stroke-dasharray: 2.0,2.0;" x1="3" x2="255.5" y1="292.5234" y2="292.5234"/><!--
@startuml
titleLabel Edit column blanks \n \n Main Success Scenario
Actor User
Boundary System
alt blanks == allowed
    User -> System: setBlanks(notAllowed)
else blanks == not allowed
    User -> System: setBlanks(allowed)
end
System - -> User: valid
newpage Not allowed invalid
User -> System: setBlanks(notAllowed)
System - -> User: invalid
User -> System: setBlanks(allowed)
System - -> User: valid
@enduml

PlantUML version 1.2017.15(Mon Jul 03 18:45:34 CEST 2017)
(GPL source distribution)
Java Runtime: OpenJDK Runtime Environment
JVM: OpenJDK 64-Bit Server VM
Java Version: 10.0.2+13-Ubuntu-1ubuntu0.18.04.4
Operating System: Linux
OS Version: 4.15.0-46-generic
Default Encoding: UTF-8
Language: en
Country: US
--></g></svg>