<?xml version="1.0" encoding="UTF-8" standalone="no"?><svg xmlns="http://www.w3.org/2000/svg" xmlns:xlink="http://www.w3.org/1999/xlink" contentScriptType="application/ecmascript" contentStyleType="text/css" height="430px" preserveAspectRatio="none" style="width:312px;height:430px;" version="1.1" viewBox="0 0 312 430" width="312px" zoomAndPan="magnify"><defs><filter height="300%" id="f9hc7g6sgk1wf" width="300%" x="-1" y="-1"><feGaussianBlur result="blurOut" stdDeviation="2.0"/><feColorMatrix in="blurOut" result="blurOut2" type="matrix" values="0 0 0 0 0 0 0 0 0 0 0 0 0 0 0 0 0 0 .4 0"/><feOffset dx="4.0" dy="4.0" in="blurOut2" result="blurOut3"/><feBlend in="SourceGraphic" in2="blurOut3" mode="normal"/></filter></defs><g><rect fill="#FFFFFF" filter="url(#f9hc7g6sgk1wf)" height="164.7969" style="stroke: #000000; stroke-width: 2.0;" width="288.5" x="13" y="132.4297"/><rect fill="#FFFFFF" filter="url(#f9hc7g6sgk1wf)" height="75.3984" style="stroke: #000000; stroke-width: 2.0;" width="268.5" x="23" y="156.5625"/><line style="stroke: #A80036; stroke-width: 1.0; stroke-dasharray: 5.0,5.0;" x1="52" x2="52" y1="86.2969" y2="343.3594"/><line style="stroke: #A80036; stroke-width: 1.0; stroke-dasharray: 5.0,5.0;" x1="246.5" x2="246.5" y1="86.2969" y2="343.3594"/><text fill="#000000" font-family="sans-serif" font-size="14" lengthAdjust="spacingAndGlyphs" textLength="32" x="33" y="82.9951">User</text><ellipse cx="52" cy="13" fill="#FEFECE" filter="url(#f9hc7g6sgk1wf)" rx="8" ry="8" style="stroke: #A80036; stroke-width: 2.0;"/><path d="M52,21 L52,48 M39,29 L65,29 M52,48 L39,63 M52,48 L65,63 " fill="#FEFECE" filter="url(#f9hc7g6sgk1wf)" style="stroke: #A80036; stroke-width: 2.0;"/><text fill="#000000" font-family="sans-serif" font-size="14" lengthAdjust="spacingAndGlyphs" textLength="32" x="33" y="355.3545">User</text><ellipse cx="52" cy="368.6563" fill="#FEFECE" filter="url(#f9hc7g6sgk1wf)" rx="8" ry="8" style="stroke: #A80036; stroke-width: 2.0;"/><path d="M52,376.6563 L52,403.6563 M39,384.6563 L65,384.6563 M52,403.6563 L39,418.6563 M52,403.6563 L65,418.6563 " fill="#FEFECE" filter="url(#f9hc7g6sgk1wf)" style="stroke: #A80036; stroke-width: 2.0;"/><rect fill="#FEFECE" filter="url(#f9hc7g6sgk1wf)" height="30.2969" style="stroke: #A80036; stroke-width: 1.5;" width="65" x="212.5" y="51"/><text fill="#000000" font-family="sans-serif" font-size="14" lengthAdjust="spacingAndGlyphs" textLength="51" x="219.5" y="70.9951">System</text><rect fill="#FEFECE" filter="url(#f9hc7g6sgk1wf)" height="30.2969" style="stroke: #A80036; stroke-width: 1.5;" width="65" x="212.5" y="342.3594"/><text fill="#000000" font-family="sans-serif" font-size="14" lengthAdjust="spacingAndGlyphs" textLength="51" x="219.5" y="362.3545">System</text><polygon fill="#A80036" points="235,113.2969,245,117.2969,235,121.2969,239,117.2969" style="stroke: #A80036; stroke-width: 1.0;"/><line style="stroke: #A80036; stroke-width: 1.0;" x1="52" x2="241" y1="117.2969" y2="117.2969"/><text fill="#000000" font-family="sans-serif" font-size="13" lengthAdjust="spacingAndGlyphs" textLength="121" x="59" y="112.3638">selectTableName()</text><rect fill="none" height="164.7969" style="stroke: #000000; stroke-width: 2.0;" width="288.5" x="13" y="132.4297"/><polygon fill="#EEEEEE" points="13,132.4297,90,132.4297,90,139.4297,80,149.4297,13,149.4297,13,132.4297" style="stroke: #000000; stroke-width: 2.0;"/><text fill="#000000" font-family="sans-serif" font-size="13" font-weight="bold" lengthAdjust="spacingAndGlyphs" textLength="32" x="28" y="145.4966">loop</text><text fill="#000000" font-family="sans-serif" font-size="11" font-weight="bold" lengthAdjust="spacingAndGlyphs" textLength="53" x="105" y="144.6401">[invalid]</text><rect fill="none" height="75.3984" style="stroke: #000000; stroke-width: 2.0;" width="268.5" x="23" y="156.5625"/><polygon fill="#EEEEEE" points="23,156.5625,100,156.5625,100,163.5625,90,173.5625,23,173.5625,23,156.5625" style="stroke: #000000; stroke-width: 2.0;"/><text fill="#000000" font-family="sans-serif" font-size="13" font-weight="bold" lengthAdjust="spacingAndGlyphs" textLength="32" x="38" y="169.6294">loop</text><polygon fill="#A80036" points="235,190.6953,245,194.6953,235,198.6953,239,194.6953" style="stroke: #A80036; stroke-width: 1.0;"/><line style="stroke: #A80036; stroke-width: 1.0;" x1="52" x2="241" y1="194.6953" y2="194.6953"/><text fill="#000000" font-family="sans-serif" font-size="13" lengthAdjust="spacingAndGlyphs" textLength="171" x="59" y="189.7622">editTableName(newName)</text><polygon fill="#A80036" points="63,219.8281,53,223.8281,63,227.8281,59,223.8281" style="stroke: #A80036; stroke-width: 1.0;"/><line style="stroke: #A80036; stroke-width: 1.0; stroke-dasharray: 2.0,2.0;" x1="57" x2="246" y1="223.8281" y2="223.8281"/><text fill="#000000" font-family="sans-serif" font-size="13" lengthAdjust="spacingAndGlyphs" textLength="77" x="69" y="218.895">valid, invalid</text><polygon fill="#A80036" points="235,255.9609,245,259.9609,235,263.9609,239,259.9609" style="stroke: #A80036; stroke-width: 1.0;"/><line style="stroke: #A80036; stroke-width: 1.0;" x1="52" x2="241" y1="259.9609" y2="259.9609"/><text fill="#000000" font-family="sans-serif" font-size="13" lengthAdjust="spacingAndGlyphs" textLength="78" x="59" y="255.0278">tryToFinish()</text><polygon fill="#A80036" points="63,285.0938,53,289.0938,63,293.0938,59,289.0938" style="stroke: #A80036; stroke-width: 1.0;"/><line style="stroke: #A80036; stroke-width: 1.0; stroke-dasharray: 2.0,2.0;" x1="57" x2="246" y1="289.0938" y2="289.0938"/><text fill="#000000" font-family="sans-serif" font-size="13" lengthAdjust="spacingAndGlyphs" textLength="77" x="69" y="284.1606">valid, invalid</text><polygon fill="#A80036" points="63,321.2266,53,325.2266,63,329.2266,59,325.2266" style="stroke: #A80036; stroke-width: 1.0;"/><line style="stroke: #A80036; stroke-width: 1.0; stroke-dasharray: 2.0,2.0;" x1="57" x2="246" y1="325.2266" y2="325.2266"/><text fill="#000000" font-family="sans-serif" font-size="13" lengthAdjust="spacingAndGlyphs" textLength="73" x="69" y="320.2935">table name</text><!--
@startuml
Actor User
User -> System: selectTableName()
loop invalid
    loop
        User -> System: editTableName(newName)
        System - -> User: valid, invalid
    end
    User -> System: tryToFinish()
    System - -> User: valid, invalid
end


System - -> User: table name
@enduml

PlantUML version 1.2017.15(Mon Jul 03 18:45:34 CEST 2017)
(GPL source distribution)
Java Runtime: OpenJDK Runtime Environment
JVM: OpenJDK 64-Bit Server VM
Java Version: 10.0.2+13-Ubuntu-1ubuntu0.18.04.4
Operating System: Linux
OS Version: 4.15.0-46-generic
Default Encoding: UTF-8
Language: en
Country: US
--></g></svg>