<?xml version="1.0" encoding="UTF-8" standalone="no"?><svg xmlns="http://www.w3.org/2000/svg" xmlns:xlink="http://www.w3.org/1999/xlink" contentScriptType="application/ecmascript" contentStyleType="text/css" height="373px" preserveAspectRatio="none" style="width:285px;height:373px;" version="1.1" viewBox="0 0 285 373" width="285px" zoomAndPan="magnify"><defs><filter height="300%" id="f168hodk5qgc0e" width="300%" x="-1" y="-1"><feGaussianBlur result="blurOut" stdDeviation="2.0"/><feColorMatrix in="blurOut" result="blurOut2" type="matrix" values="0 0 0 0 0 0 0 0 0 0 0 0 0 0 0 0 0 0 .4 0"/><feOffset dx="4.0" dy="4.0" in="blurOut2" result="blurOut3"/><feBlend in="SourceGraphic" in2="blurOut3" mode="normal"/></filter></defs><g><text fill="#000000" font-family="sans-serif" font-size="14" font-weight="bold" lengthAdjust="spacingAndGlyphs" textLength="86" x="97.75" y="22.9951">Open table</text><text fill="#000000" font-family="sans-serif" font-size="14" font-weight="bold" lengthAdjust="spacingAndGlyphs" textLength="33" x="129.25" y="39.292">MSS</text><rect fill="#FFFFFF" filter="url(#f168hodk5qgc0e)" height="90.2031" style="stroke: #000000; stroke-width: 2.0;" width="260.5" x="13" y="179.0234"/><rect fill="#FFFFFF" height="43.9375" style="stroke: none; stroke-width: 1.0;" width="260.5" x="13" y="225.2891"/><line style="stroke: #A80036; stroke-width: 1.0; stroke-dasharray: 5.0,5.0;" x1="42" x2="42" y1="132.8906" y2="286.2266"/><line style="stroke: #A80036; stroke-width: 1.0; stroke-dasharray: 5.0,5.0;" x1="234.5" x2="234.5" y1="132.8906" y2="286.2266"/><text fill="#000000" font-family="sans-serif" font-size="14" lengthAdjust="spacingAndGlyphs" textLength="32" x="23" y="129.5889">User</text><ellipse cx="42" cy="59.5938" fill="#FEFECE" filter="url(#f168hodk5qgc0e)" rx="8" ry="8" style="stroke: #A80036; stroke-width: 2.0;"/><path d="M42,67.5938 L42,94.5938 M29,75.5938 L55,75.5938 M42,94.5938 L29,109.5938 M42,94.5938 L55,109.5938 " fill="#FEFECE" filter="url(#f168hodk5qgc0e)" style="stroke: #A80036; stroke-width: 2.0;"/><text fill="#000000" font-family="sans-serif" font-size="14" lengthAdjust="spacingAndGlyphs" textLength="32" x="23" y="298.2217">User</text><ellipse cx="42" cy="311.5234" fill="#FEFECE" filter="url(#f168hodk5qgc0e)" rx="8" ry="8" style="stroke: #A80036; stroke-width: 2.0;"/><path d="M42,319.5234 L42,346.5234 M29,327.5234 L55,327.5234 M42,346.5234 L29,361.5234 M42,346.5234 L55,361.5234 " fill="#FEFECE" filter="url(#f168hodk5qgc0e)" style="stroke: #A80036; stroke-width: 2.0;"/><text fill="#000000" font-family="sans-serif" font-size="14" lengthAdjust="spacingAndGlyphs" textLength="51" x="206.5" y="129.5889">System</text><path d="M214.5,88.5938 L214.5,112.5938 M214.5,100.5938 L231.5,100.5938 " fill="#FEFECE" filter="url(#f168hodk5qgc0e)" style="stroke: #A80036; stroke-width: 2.0;"/><ellipse cx="243.5" cy="100.5938" fill="#FEFECE" filter="url(#f168hodk5qgc0e)" rx="12" ry="12" style="stroke: #A80036; stroke-width: 2.0;"/><text fill="#000000" font-family="sans-serif" font-size="14" lengthAdjust="spacingAndGlyphs" textLength="51" x="206.5" y="298.2217">System</text><path d="M214.5,305.5234 L214.5,329.5234 M214.5,317.5234 L231.5,317.5234 " fill="#FEFECE" filter="url(#f168hodk5qgc0e)" style="stroke: #A80036; stroke-width: 2.0;"/><ellipse cx="243.5" cy="317.5234" fill="#FEFECE" filter="url(#f168hodk5qgc0e)" rx="12" ry="12" style="stroke: #A80036; stroke-width: 2.0;"/><polygon fill="#A80036" points="223,159.8906,233,163.8906,223,167.8906,227,163.8906" style="stroke: #A80036; stroke-width: 1.0;"/><line style="stroke: #A80036; stroke-width: 1.0;" x1="42" x2="229" y1="163.8906" y2="163.8906"/><text fill="#000000" font-family="sans-serif" font-size="13" lengthAdjust="spacingAndGlyphs" textLength="114" x="49" y="158.9575">selectTable(table)</text><rect fill="none" height="90.2031" style="stroke: #000000; stroke-width: 2.0;" width="260.5" x="13" y="179.0234"/><polygon fill="#EEEEEE" points="13,179.0234,77,179.0234,77,186.0234,67,196.0234,13,196.0234,13,179.0234" style="stroke: #000000; stroke-width: 2.0;"/><text fill="#000000" font-family="sans-serif" font-size="13" font-weight="bold" lengthAdjust="spacingAndGlyphs" textLength="19" x="28" y="192.0903">alt</text><text fill="#000000" font-family="sans-serif" font-size="11" font-weight="bold" lengthAdjust="spacingAndGlyphs" textLength="147" x="92" y="191.2339">[table has no columns]</text><polygon fill="#A80036" points="53,213.1563,43,217.1563,53,221.1563,49,217.1563" style="stroke: #A80036; stroke-width: 1.0;"/><line style="stroke: #A80036; stroke-width: 1.0; stroke-dasharray: 2.0,2.0;" x1="47" x2="234" y1="217.1563" y2="217.1563"/><text fill="#000000" font-family="sans-serif" font-size="13" lengthAdjust="spacingAndGlyphs" textLength="169" x="59" y="212.2231">open table in Table Design</text><line style="stroke: #000000; stroke-width: 1.0; stroke-dasharray: 2.0,2.0;" x1="13" x2="273.5" y1="226.2891" y2="226.2891"/><text fill="#000000" font-family="sans-serif" font-size="11" font-weight="bold" lengthAdjust="spacingAndGlyphs" textLength="119" x="18" y="236.4995">[table has colums]</text><polygon fill="#A80036" points="53,257.0938,43,261.0938,53,265.0938,49,261.0938" style="stroke: #A80036; stroke-width: 1.0;"/><line style="stroke: #A80036; stroke-width: 1.0; stroke-dasharray: 2.0,2.0;" x1="47" x2="234" y1="261.0938" y2="261.0938"/><text fill="#000000" font-family="sans-serif" font-size="13" lengthAdjust="spacingAndGlyphs" textLength="157" x="59" y="256.1606">open table in Table Rows</text><!--
@startuml
title Open table \n MSS
Actor User
Boundary System
User -> System: selectTable(table)
alt table has no columns
    System - -> User:open table in Table Design
else table has colums
    System - -> User:open table in Table Rows
end


@enduml

PlantUML version 1.2017.15(Mon Jul 03 18:45:34 CEST 2017)
(GPL source distribution)
Java Runtime: OpenJDK Runtime Environment
JVM: OpenJDK 64-Bit Server VM
Java Version: 10.0.2+13-Ubuntu-1ubuntu0.18.04.4
Operating System: Linux
OS Version: 4.15.0-46-generic
Default Encoding: UTF-8
Language: en
Country: US
--></g></svg>